  0
SECTION
  2
HEADER
  9
$ACADVER
  1
AC1015
  9
$ACADMAINTVER
 70
     6
  9
$DWGCODEPAGE
  3
UNDEFINED
  9
$INSBASE
 10
0.0
 20
0.0
 30
0.0
  9
$EXTMIN
 10
-100.0
 20
-77.0
 30
0.0
  9
$EXTMAX
 10
100.0
 20
77.0
 30
0.0
  9
$LIMMIN
 10
0.0
 20
0.0
  9
$LIMMAX
 10
420.0
 20
297.0
  9
$ORTHOMODE
 70
     0
  9
$REGENMODE
 70
     1
  9
$FILLMODE
 70
     1
  9
$QTEXTMODE
 70
     0
  9
$MIRRTEXT
 70
     1
  9
$LTSCALE
 40
1.0
  9
$ATTMODE
 70
     1
  9
$TEXTSIZE
 40
3.5
  9
$TRACEWID
 40
1.0
  9
$TEXTSTYLE
  7
Standard
  9
$CLAYER
  8
0
  9
$CELTYPE
  6
ByLayer
  9
$CECOLOR
 62
   256
  9
$CELTSCALE
 40
1.0
  9
$DISPSILH
 70
     0
  9
$DIMSCALE
 40
1.0
  9
$DIMASZ
 40
3.302
  9
$DIMEXO
 40
0.0
  9
$DIMDLI
 40
3.75
  9
$DIMRND
 40
0.0
  9
$DIMDLE
 40
0.0
  9
$DIMEXE
 40
1.0
  9
$DIMTP
 40
0.0
  9
$DIMTM
 40
0.0
  9
$DIMTXT
 40
3.5
  9
$DIMCEN
 40
2.5
  9
$DIMTSZ
 40
0.0
  9
$DIMTOL
 70
     0
  9
$DIMLIM
 70
     0
  9
$DIMTIH
 70
     1
  9
$DIMTOH
 70
     1
  9
$DIMSE1
 70
     0
  9
$DIMSE2
 70
     0
  9
$DIMTAD
 70
     1
  9
$DIMZIN
 70
     1
  9
$DIMBLK
  1

  9
$DIMASO
 70
     1
  9
$DIMSHO
 70
     1
  9
$DIMPOST
  1

  9
$DIMAPOST
  1

  9
$DIMALT
 70
     0
  9
$DIMALTD
 70
     3
  9
$DIMALTF
 40
0.0393700787
  9
$DIMLFAC
 40
1.0
  9
$DIMTOFL
 70
     1
  9
$DIMTVP
 40
0.0
  9
$DIMTIX
 70
     0
  9
$DIMSOXD
 70
     0
  9
$DIMSAH
 70
     0
  9
$DIMBLK1
  1

  9
$DIMBLK2
  1

  9
$DIMSTYLE
  2
ISO-25
  9
$DIMCLRD
 70
     0
  9
$DIMCLRE
 70
     0
  9
$DIMCLRT
 70
     0
  9
$DIMTFAC
 40
1.0
  9
$DIMGAP
 40
1.524
  9
$DIMJUST
 70
     0
  9
$DIMSD1
 70
     0
  9
$DIMSD2
 70
     0
  9
$DIMTOLJ
 70
     0
  9
$DIMTZIN
 70
     1
  9
$DIMALTZ
 70
     0
  9
$DIMALTTZ
 70
     0
  9
$DIMUPT
 70
     0
  9
$DIMDEC
 70
     2
  9
$DIMTDEC
 70
     2
  9
$DIMALTU
 70
     2
  9
$DIMALTTD
 70
     3
  9
$DIMTXSTY
  7
Standard
  9
$DIMAUNIT
 70
     0
  9
$DIMADEC
 70
     2
  9
$DIMALTRND
 40
0.0
  9
$DIMAZIN
 70
     0
  9
$DIMDSEP
 70
    44
  9
$DIMATFIT
 70
     3
  9
$DIMFRAC
 70
     0
  9
$DIMLDRBLK
  1

  9
$DIMLUNIT
 70
     2
  9
$DIMLWD
 70
    -2
  9
$DIMLWE
 70
    -2
  9
$DIMTMOVE
 70
     0
  9
$LUNITS
 70
     2
  9
$LUPREC
 70
     2
  9
$SKETCHINC
 40
1.0
  9
$FILLETRAD
 40
0.0
  9
$AUNITS
 70
     0
  9
$AUPREC
 70
     2
  9
$MENU
  1
.
  9
$ELEVATION
 40
0.0
  9
$PELEVATION
 40
0.0
  9
$THICKNESS
 40
0.0
  9
$LIMCHECK
 70
     0
  9
$CHAMFERA
 40
0.0
  9
$CHAMFERB
 40
0.0
  9
$CHAMFERC
 40
0.0
  9
$CHAMFERD
 40
0.0
  9
$SKPOLY
 70
     0
  9
$TDCREATE
 40
2459857.514996458
  9
$TDUCREATE
 40
2459857.431663125
  9
$TDUPDATE
 40
2459857.515052303
  9
$TDUUPDATE
 40
2459857.43171897
  9
$TDINDWG
 40
0.0000000116
  9
$TDUSRTIMER
 40
0.0000000116
  9
$USRTIMER
 70
     1
  9
$ANGBASE
 50
0.0
  9
$ANGDIR
 70
     0
  9
$PDMODE
 70
     0
  9
$PDSIZE
 40
-1.0
  9
$PLINEWID
 40
0.0
  9
$SPLFRAME
 70
     0
  9
$SPLINETYPE
 70
     6
  9
$SPLINESEGS
 70
     8
  9
$HANDSEED
  5
242
  9
$SURFTAB1
 70
     6
  9
$SURFTAB2
 70
     6
  9
$SURFTYPE
 70
     6
  9
$SURFU
 70
     6
  9
$SURFV
 70
     6
  9
$UCSBASE
  2

  9
$UCSNAME
  2

  9
$UCSORG
 10
0.0
 20
0.0
 30
0.0
  9
$UCSXDIR
 10
1.0
 20
0.0
 30
0.0
  9
$UCSYDIR
 10
0.0
 20
1.0
 30
0.0
  9
$UCSORTHOREF
  2

  9
$UCSORTHOVIEW
 70
     0
  9
$UCSORGTOP
 10
0.0
 20
0.0
 30
0.0
  9
$UCSORGBOTTOM
 10
0.0
 20
0.0
 30
0.0
  9
$UCSORGLEFT
 10
0.0
 20
0.0
 30
0.0
  9
$UCSORGRIGHT
 10
0.0
 20
0.0
 30
0.0
  9
$UCSORGFRONT
 10
0.0
 20
0.0
 30
0.0
  9
$UCSORGBACK
 10
0.0
 20
0.0
 30
0.0
  9
$PUCSBASE
  2

  9
$PUCSNAME
  2

  9
$PUCSORG
 10
0.0
 20
0.0
 30
0.0
  9
$PUCSXDIR
 10
1.0
 20
0.0
 30
0.0
  9
$PUCSYDIR
 10
0.0
 20
1.0
 30
0.0
  9
$PUCSORTHOREF
  2

  9
$PUCSORTHOVIEW
 70
     0
  9
$PUCSORGTOP
 10
0.0
 20
0.0
 30
0.0
  9
$PUCSORGBOTTOM
 10
0.0
 20
0.0
 30
0.0
  9
$PUCSORGLEFT
 10
0.0
 20
0.0
 30
0.0
  9
$PUCSORGRIGHT
 10
0.0
 20
0.0
 30
0.0
  9
$PUCSORGFRONT
 10
0.0
 20
0.0
 30
0.0
  9
$PUCSORGBACK
 10
0.0
 20
0.0
 30
0.0
  9
$USERI1
 70
     0
  9
$USERI2
 70
     0
  9
$USERI3
 70
     0
  9
$USERI4
 70
     0
  9
$USERI5
 70
     0
  9
$USERR1
 40
0.0
  9
$USERR2
 40
0.0
  9
$USERR3
 40
0.0
  9
$USERR4
 40
0.0
  9
$USERR5
 40
0.0
  9
$WORLDVIEW
 70
     1
  9
$SHADEDGE
 70
     3
  9
$SHADEDIF
 70
    70
  9
$TILEMODE
 70
     1
  9
$MAXACTVP
 70
    64
  9
$PINSBASE
 10
0.0
 20
0.0
 30
0.0
  9
$PLIMCHECK
 70
     0
  9
$PEXTMIN
 10
1.0000000000E+20
 20
1.0000000000E+20
 30
1.0000000000E+20
  9
$PEXTMAX
 10
-1.0000000000E+20
 20
-1.0000000000E+20
 30
-1.0000000000E+20
  9
$PLIMMIN
 10
0.0
 20
0.0
  9
$PLIMMAX
 10
420.0
 20
297.0
  9
$UNITMODE
 70
     0
  9
$VISRETAIN
 70
     1
  9
$PLINEGEN
 70
     0
  9
$PSLTSCALE
 70
     1
  9
$TREEDEPTH
 70
  3020
  9
$CMLSTYLE
  2
Standard
  9
$CMLJUST
 70
     0
  9
$CMLSCALE
 40
20.0
  9
$PROXYGRAPHICS
 70
     1
  9
$MEASUREMENT
 70
     1
  9
$CELWEIGHT
370
    -1
  9
$ENDCAPS
280
     0
  9
$JOINSTYLE
280
     0
  9
$LWDISPLAY
290
     1
  9
$INSUNITS
 70
     4
  9
$HYPERLINKBASE
  1

  9
$STYLESHEET
  1

  9
$XEDIT
290
     1
  9
$CEPSNTYPE
380
     0
  9
$PSTYLEMODE
290
     1
  9
$FINGERPRINTGUID
  2
{67e5fff8-1c10-479c-acfd-5845b28654a9}
  9
$VERSIONGUID
  2
{FAEB1C32-E019-11D5-929B-00C0DF256EC4}
  9
$EXTNAMES
290
     1
  9
$PSVPSCALE
 40
0.0
  9
$OLESTARTUP
290
     0
  0
ENDSEC
  0
SECTION
  2
CLASSES
  0
CLASS
  1
ACDBDICTIONARYWDFLT
  2
AcDbDictionaryWithDefault
  3
ObjectDBX Classes
 90
        0
280
     0
281
     0
  0
CLASS
  1
VISUALSTYLE
  2
AcDbVisualStyle
  3
ObjectDBX Classes
 90
     4095
280
     0
281
     0
  0
CLASS
  1
MATERIAL
  2
AcDbMaterial
  3
ObjectDBX Classes
 90
     1153
280
     0
281
     0
  0
CLASS
  1
SCALE
  2
AcDbScale
  3
ObjectDBX Classes
 90
     1153
280
     0
281
     0
  0
CLASS
  1
TABLESTYLE
  2
AcDbTableStyle
  3
ObjectDBX Classes
 90
     4095
280
     0
281
     0
  0
CLASS
  1
MLEADERSTYLE
  2
AcDbMLeaderStyle
  3
ACDB_MLEADERSTYLE_CLASS
 90
     4095
280
     0
281
     0
  0
CLASS
  1
SUN
  2
AcDbSun
  3
SCENEOE
 90
     1153
280
     0
281
     0
  0
CLASS
  1
ACDBPLACEHOLDER
  2
AcDbPlaceHolder
  3
ObjectDBX Classes
 90
        0
280
     0
281
     0
  0
CLASS
  1
LAYOUT
  2
AcDbLayout
  3
ObjectDBX Classes
 90
        0
280
     0
281
     0
  0
ENDSEC
  0
SECTION
  2
TABLES
  0
TABLE
  2
VPORT
  5
8
330
0
100
AcDbSymbolTable
 70
     1
  0
VPORT
  5
29
330
8
100
AcDbSymbolTableRecord
100
AcDbViewportTableRecord
  2
*Active
 70
     0
 10
0.0
 20
0.0
 11
1.0
 21
1.0
 12
0.0
 22
0.0
 13
0.0
 23
0.0
 14
10.0
 24
10.0
 15
10.0
 25
10.0
 16
0.0
 26
0.0
 36
1.0
 17
0.0
 27
0.0
 37
0.0
 40
157.08
 41
1.2987012987
 42
50.0
 43
0.0
 44
0.0
 50
0.0
 51
0.0
 71
     0
 72
   100
 73
     1
 74
     3
 75
     0
 76
     0
 77
     0
 78
     0
281
     0
 65
     1
110
0.0
120
0.0
130
0.0
111
1.0
121
0.0
131
0.0
112
0.0
122
1.0
132
0.0
 79
     0
146
0.0
  0
ENDTAB
  0
TABLE
  2
LTYPE
  5
5
330
0
100
AcDbSymbolTable
 70
     6
  0
LTYPE
  5
14
330
5
100
AcDbSymbolTableRecord
100
AcDbLinetypeTableRecord
  2
ByBlock
 70
     0
  3

 72
    65
 73
     0
 40
0.0
  0
LTYPE
  5
15
330
5
100
AcDbSymbolTableRecord
100
AcDbLinetypeTableRecord
  2
ByLayer
 70
     0
  3

 72
    65
 73
     0
 40
0.0
  0
LTYPE
  5
16
330
5
100
AcDbSymbolTableRecord
100
AcDbLinetypeTableRecord
  2
Continuous
 70
     0
  3
Solid line
 72
    65
 73
     0
 40
0.0
  0
LTYPE
  5
5E
330
5
100
AcDbSymbolTableRecord
100
AcDbLinetypeTableRecord
  2
HIDDEN
 70
     0
  3
Hidden __ __ __ __ __ __ __ __ __ __ __ __ __ __
 72
    65
 73
     2
 40
1.905
 49
1.27
 74
     0
 49
-0.635
 74
     0
  0
LTYPE
  5
5F
330
5
100
AcDbSymbolTableRecord
100
AcDbLinetypeTableRecord
  2
PHANTOM
 70
     0
  3
Phantom ______  __  __  ______  __  __  ______
 72
    65
 73
     6
 40
12.7
 49
6.35
 74
     0
 49
-1.27
 74
     0
 49
1.27
 74
     0
 49
-1.27
 74
     0
 49
1.27
 74
     0
 49
-1.27
 74
     0
  0
LTYPE
  5
60
330
5
100
AcDbSymbolTableRecord
100
AcDbLinetypeTableRecord
  2
CENTER
 70
     0
  3
Center ____ _ ____ _ ____ _ ____ _ ____ _ ____
 72
    65
 73
     4
 40
10.16
 49
6.35
 74
     0
 49
-1.27
 74
     0
 49
1.27
 74
     0
 49
-1.27
 74
     0
  0
LTYPE
  5
61
330
5
100
AcDbSymbolTableRecord
100
AcDbLinetypeTableRecord
  2
CENTERX2
 70
     0
  3
Center (2x) ________  __  ________  __  _____
 72
    65
 73
     4
 40
20.32
 49
12.7
 74
     0
 49
-2.54
 74
     0
 49
2.54
 74
     0
 49
-2.54
 74
     0
  0
LTYPE
  5
62
330
5
100
AcDbSymbolTableRecord
100
AcDbLinetypeTableRecord
  2
DOT2
 70
     0
  3
Dot (.5x) ........................................
 72
    65
 73
     2
 40
0.635
 49
0.0
 74
     0
 49
-0.635
 74
     0
  0
ENDTAB
  0
TABLE
  2
LAYER
  5
2
330
0
100
AcDbSymbolTable
 70
     1
  0
LAYER
  5
10
330
2
100
AcDbSymbolTableRecord
100
AcDbLayerTableRecord
  2
0
 70
     0
 62
     7
  6
Continuous
370
    -3
390
F
  0
ENDTAB
  0
TABLE
  2
STYLE
  5
3
330
0
100
AcDbSymbolTable
 70
     2
  0
STYLE
  5
11
330
3
100
AcDbSymbolTableRecord
100
AcDbTextStyleTableRecord
  2
Standard
 70
     0
 40
0.0
 41
1.0
 50
0.0
 71
     0
 42
3.5
  3
txt
  4

  0
STYLE
  5
23E
330
3
100
AcDbSymbolTableRecord
100
AcDbTextStyleTableRecord
  2
SLDTEXTSTYLE0
 70
     0
 40
0.0
 41
0.7
 50
0.0
 71
     0
 42
3.5
  3
TXT
  4

  0
ENDTAB
  0
TABLE
  2
VIEW
  5
6
330
0
100
AcDbSymbolTable
 70
     0
  0
ENDTAB
  0
TABLE
  2
UCS
  5
7
330
0
100
AcDbSymbolTable
 70
     0
  0
ENDTAB
  0
TABLE
  2
APPID
  5
9
330
0
100
AcDbSymbolTable
 70
     1
  0
APPID
  5
12
330
9
100
AcDbSymbolTableRecord
100
AcDbRegAppTableRecord
  2
ACAD
 70
     0
  0
ENDTAB
  0
TABLE
  2
DIMSTYLE
  5
A
330
0
100
AcDbSymbolTable
 70
     1
100
AcDbDimStyleTable
  0
DIMSTYLE
105
27
330
A
100
AcDbSymbolTableRecord
100
AcDbDimStyleTableRecord
  2
ISO-25
 70
     0
 41
2.5
 42
0.625
 43
3.75
 44
1.25
 73
     0
 74
     0
 77
     1
 78
     8
140
2.5
141
2.5
143
0.0393700787
147
0.625
171
     3
172
     1
178
     0
271
     2
272
     2
274
     3
278
    44
283
     0
284
     8
340
11
  0
ENDTAB
  0
TABLE
  2
BLOCK_RECORD
  5
1
330
0
100
AcDbSymbolTable
 70
     1
  0
BLOCK_RECORD
  5
1F
330
1
100
AcDbSymbolTableRecord
100
AcDbBlockTableRecord
  2
*Model_Space
340
22
  0
BLOCK_RECORD
  5
1B
330
1
100
AcDbSymbolTableRecord
100
AcDbBlockTableRecord
  2
*Paper_Space
340
1E
  0
BLOCK_RECORD
  5
23
330
1
100
AcDbSymbolTableRecord
100
AcDbBlockTableRecord
  2
*Paper_Space0
340
26
  0
ENDTAB
  0
ENDSEC
  0
SECTION
  2
BLOCKS
  0
BLOCK
  5
20
330
1F
100
AcDbEntity
  8
0
100
AcDbBlockBegin
  2
*Model_Space
 70
     0
 10
0.0
 20
0.0
 30
0.0
  3
*Model_Space
  1

  0
ENDBLK
  5
21
330
1F
100
AcDbEntity
  8
0
100
AcDbBlockEnd
  0
BLOCK
  5
1C
330
1B
100
AcDbEntity
 67
     1
  8
0
100
AcDbBlockBegin
  2
*Paper_Space
 70
     0
 10
0.0
 20
0.0
 30
0.0
  3
*Paper_Space
  1

  0
ENDBLK
  5
1D
330
1B
100
AcDbEntity
 67
     1
  8
0
100
AcDbBlockEnd
  0
BLOCK
  5
24
330
23
100
AcDbEntity
  8
0
100
AcDbBlockBegin
  2
*Paper_Space0
 70
     0
 10
0.0
 20
0.0
 30
0.0
  3
*Paper_Space0
  1

  0
ENDBLK
  5
25
330
23
100
AcDbEntity
  8
0
100
AcDbBlockEnd
  0
ENDSEC
  0
SECTION
  2
ENTITIES
  0
SPLINE
  5
63
330
1F
100
AcDbEntity
  8
0
  6
Continuous
 62
     7
370
    25
100
AcDbSpline
210
0.0
220
0.0
230
1.0
 70
     8
 71
     3
 72
    23
 73
    19
 74
     0
 42
0.00000001
 43
0.00000001
 40
0.0
 40
0.0
 40
0.0
 40
0.0
 40
0.0698925345665499
 40
0.1372229422132319
 40
0.2021448870130704
 40
0.2659972043486438
 40
0.3281108989259673
 40
0.3882443517398191
 40
0.4469991044601395
 40
0.5052387773984188
 40
0.5633541518941017
 40
0.6211009890512791
 40
0.6797736328736191
 40
0.7401471175310768
 40
0.8017654308569113
 40
0.8649700073356694
 40
0.9312800421062299
 40
0.9999999999999999
 40
0.9999999999999999
 40
0.9999999999999999
 40
0.9999999999999999
 10
-29.67274808795278
 20
12.65131578947368
 30
0.0
 10
-29.67369514241345
 20
12.68395364946831
 30
0.0
 10
-29.6755545341258
 20
12.748032927803
 30
0.0
 10
-29.68550908211226
 20
12.84213514997717
 30
0.0
 10
-29.70616777865083
 20
12.93154504251121
 30
0.0
 10
-29.73215043802854
 20
13.01688927969486
 30
0.0
 10
-29.76447444861922
 20
13.09781077192217
 30
0.0
 10
-29.80554636137247
 20
13.17187021506793
 30
0.0
 10
-29.85118389972545
 20
13.24108722382974
 30
0.0
 10
-29.90538232651977
 20
13.3026497628122
 30
0.0
 10
-29.96452405771402
 20
13.35857682725516
 30
0.0
 10
-30.02897403402818
 20
13.40886538569967
 30
0.0
 10
-30.10057698540957
 20
13.45038428013814
 30
0.0
 10
-30.17681888953082
 20
13.48674159974398
 30
0.0
 10
-30.25848381387056
 20
13.51599211231848
 30
0.0
 10
-30.34584598768256
 20
13.53511285685576
 30
0.0
 10
-30.43771722084061
 20
13.54797031897806
 30
0.0
 10
-30.50082726288119
 20
13.54942443807387
 30
0.0
 10
-30.53294545637383
 20
13.55016447368421
 30
0.0
  0
SPLINE
  5
66
330
1F
100
AcDbEntity
  8
0
  6
Continuous
 62
     7
370
    25
100
AcDbSpline
210
0.0
220
0.0
230
1.0
 70
     8
 71
     3
 72
    23
 73
    19
 74
     0
 42
0.00000001
 43
0.00000001
 40
0.0
 40
0.0
 40
0.0
 40
0.0
 40
0.0667313551859809
 40
0.1295779915703389
 40
0.1902133801621566
 40
0.2487465206668968
 40
0.3056375256938591
 40
0.3618589388779118
 40
0.4183250713828415
 40
0.4751750984897019
 40
0.5331883488321452
 40
0.5914554584609921
 40
0.6513788482469458
 40
0.7138908620241707
 40
0.7798111572883991
 40
0.8493807343455363
 40
0.9226802497685146
 40
1.0
 40
1.0
 40
1.0
 40
1.0
 10
-30.53294545637383
 20
13.55016447368421
 30
0.0
 10
-30.56231790456849
 20
13.54966744997848
 30
0.0
 10
-30.61935290459149
 20
13.5487023364517
 30
0.0
 10
-30.70239124592429
 20
13.53733156389969
 30
0.0
 10
-30.78082148111211
 20
13.52067410667187
 30
0.0
 10
-30.85425094168357
 20
13.49561824572622
 30
0.0
 10
-30.92327011261086
 20
13.4645918540312
 30
0.0
 10
-30.98676872163418
 20
13.4251833755322
 30
0.0
 10
-31.04658539597886
 20
13.3803558832761
 30
0.0
 10
-31.09991640506872
 20
13.32686154351779
 30
0.0
 10
-31.14876624101155
 20
13.26822406486508
 30
0.0
 10
-31.1897170057622
 20
13.20221238734733
 30
0.0
 10
-31.22568058670523
 20
13.13117966103307
 30
0.0
 10
-31.25398037615275
 20
13.05316771804756
 30
0.0
 10
-31.27754426027435
 20
12.96918865155677
 30
0.0
 10
-31.29219852398279
 20
12.87840984397595
 30
0.0
 10
-31.30266375091081
 20
12.7820418922013
 30
0.0
 10
-31.30376282855443
 20
12.71576591039116
 30
0.0
 10
-31.3043270353212
 20
12.68174342105263
 30
0.0
  0
SPLINE
  5
68
330
1F
100
AcDbEntity
  8
0
  6
Continuous
 62
     7
370
    25
100
AcDbSpline
210
0.0
220
0.0
230
1.0
 70
     8
 71
     3
 72
    23
 73
    19
 74
     0
 42
0.00000001
 43
0.00000001
 40
0.0
 40
0.0
 40
0.0
 40
0.0
 40
0.0660813519878641
 40
0.1311342824631196
 40
0.1952306064910077
 40
0.2589215234678744
 40
0.3214834044928527
 40
0.382662605959402
 40
0.442219197580683
 40
0.5012962202676701
 40
0.559800201847249
 40
0.6181549292672227
 40
0.6769289095481621
 40
0.7369992737246998
 40
0.7987695596808327
 40
0.8628124100056689
 40
0.9293470361482817
 40
1.0
 40
1.0
 40
1.0
 40
1.0
 10
-29.61271519321593
 20
-10.17598684210526
 30
0.0
 10
-29.55649102879493
 20
-10.17506648369609
 30
0.0
 10
-29.44491771443853
 20
-10.17324009037987
 30
0.0
 10
-29.27931903329912
 20
-10.15778029176393
 30
0.0
 10
-29.11766648775306
 20
-10.12910989142659
 30
0.0
 10
-28.96001306541284
 20
-10.09144028470327
 30
0.0
 10
-28.80872327141207
 20
-10.04034135702366
 30
0.0
 10
-28.66559006643827
 20
-9.977994658499458
 30
0.0
 10
-28.53111624790615
 20
-9.904572672098825
 30
0.0
 10
-28.40673306999348
 20
-9.818979680605079
 30
0.0
 10
-28.29276496448105
 20
-9.72157385664107
 30
0.0
 10
-28.18972884698734
 20
-9.612829459009388
 30
0.0
 10
-28.10107298004541
 20
-9.490502832298265
 30
0.0
 10
-28.02281008507893
 20
-9.357950393065
 30
0.0
 10
-27.95996253198697
 20
-9.212319257991398
 30
0.0
 10
-27.91481676150056
 20
-9.054607158695948
 30
0.0
 10
-27.88830886997075
 20
-8.884940294147096
 30
0.0
 10
-27.88498581161657
 20
-8.768187864804098
 30
0.0
 10
-27.88327440374225
 20
-8.708059210526317
 30
0.0
  0
SPLINE
  5
69
330
1F
100
AcDbEntity
  8
0
  6
Continuous
 62
     7
370
    25
100
AcDbSpline
210
0.0
220
0.0
230
1.0
 70
     8
 71
     3
 72
    23
 73
    19
 74
     0
 42
0.00000001
 43
0.00000001
 40
0.0
 40
0.0
 40
0.0
 40
0.0
 40
0.0696958907638971
 40
0.1352638181375699
 40
0.1979741508070774
 40
0.2585057151821313
 40
0.3172580926171149
 40
0.3749265117243925
 40
0.4314627520097274
 40
0.4885797250245892
 40
0.5463071630579638
 40
0.6050348171865636
 40
0.6655109273551291
 40
0.7281645371392031
 40
0.7928714108641204
 40
0.8597310984878296
 40
0.9284428616589459
 40
1.0
 40
1.0
 40
1.0
 40
1.0
 10
-27.88327440374225
 20
-8.708059210526317
 30
0.0
 10
-27.88470806977449
 20
-8.647652106837644
 30
0.0
 10
-27.88749048835512
 20
-8.53041570454755
 30
0.0
 10
-27.91318803855222
 20
-8.360482027889622
 30
0.0
 10
-27.95240103547326
 20
-8.201363676785585
 30
0.0
 10
-28.0107974776069
 20
-8.054436056037842
 30
0.0
 10
-28.08291464079367
 20
-7.918933160607073
 30
0.0
 10
-28.16635718899114
 20
-7.794100987734158
 30
0.0
 10
-28.26404376832098
 20
-7.68190056583412
 30
0.0
 10
-28.37372666667703
 20
-7.581420324281714
 30
0.0
 10
-28.49528960752997
 20
-7.492507202502139
 30
0.0
 10
-28.6275508342726
 20
-7.414525107799959
 30
0.0
 10
-28.77150224400885
 20
-7.349880637443248
 30
0.0
 10
-28.92544359704734
 20
-7.296652344059872
 30
0.0
 10
-29.08859895603873
 20
-7.254897919307346
 30
0.0
 10
-29.25955776039335
 20
-7.224683031342048
 30
0.0
 10
-29.43823335131604
 20
-7.206068760864969
 30
0.0
 10
-29.55976352853414
 20
-7.20411943441233
 30
0.0
 10
-29.62176124584751
 20
-7.203125000000001
 30
0.0
  0
SPLINE
  5
6A
330
1F
100
AcDbEntity
  8
0
  6
Continuous
 62
     7
370
    25
100
AcDbSpline
210
0.0
220
0.0
230
1.0
 70
     8
 71
     3
 72
    23
 73
    19
 74
     0
 42
0.00000001
 43
0.00000001
 40
0.0
 40
0.0
 40
0.0
 40
0.0
 40
0.0679366667916755
 40
0.1327175749100808
 40
0.19493479647635
 40
0.2556265222967574
 40
0.3152455557833213
 40
0.3736759479176186
 40
0.4318975972871587
 40
0.4903062801908583
 40
0.5493679224637217
 40
0.6096234339582502
 40
0.6707582195891388
 40
0.734030545693777
 40
0.7990116173809526
 40
0.8644826730885403
 40
0.931456717239394
 40
0.9999999999999999
 40
0.9999999999999999
 40
0.9999999999999999
 40
0.9999999999999999
 10
-31.35695861426856
 20
-8.67434210526316
 30
0.0
 10
-31.35514389759646
 20
-8.73281624881786
 30
0.0
 10
-31.35159876052622
 20
-8.84704832545655
 30
0.0
 10
-31.32620145226728
 20
-9.013385769238033
 30
0.0
 10
-31.28216191533173
 20
-9.169163440420961
 30
0.0
 10
-31.22211881354706
 20
-9.31473580700434
 30
0.0
 10
-31.1460101570717
 20
-9.448842800445163
 30
0.0
 10
-31.05713006707006
 20
-9.572058472293955
 30
0.0
 10
-30.95764267005495
 20
-9.685571411303242
 30
0.0
 10
-30.84506499008274
 20
-9.787029068340946
 30
0.0
 10
-30.72088681654825
 20
-9.876733381673533
 30
0.0
 10
-30.58693086409793
 20
-9.95575796475424
 30
0.0
 10
-30.44253801334655
 20
-10.0227478433087
 30
0.0
 10
-30.28876310106926
 20
-10.07735882433192
 30
0.0
 10
-30.12758147748867
 20
-10.12061804778672
 30
0.0
 10
-29.96044519241551
 20
-10.15197103357751
 30
0.0
 10
-29.7883172338001
 20
-10.17108860935744
 30
0.0
 10
-29.67169933689973
 20
-10.17434154195252
 30
0.0
 10
-29.61271519321593
 20
-10.17598684210526
 30
0.0
  0
SPLINE
  5
6B
330
1F
100
AcDbEntity
  8
0
  6
Continuous
 62
     7
370
    25
100
AcDbSpline
210
0.0
220
0.0
230
1.0
 70
     8
 71
     3
 72
    23
 73
    19
 74
     0
 42
0.00000001
 43
0.00000001
 40
0.0
 40
0.0
 40
0.0
 40
0.0
 40
0.0677575175623168
 40
0.1338804667774227
 40
0.1989052659148307
 40
0.262841789834078
 40
0.3251835590049412
 40
0.3854677248360613
 40
0.444215255014933
 40
0.5021677461272416
 40
0.5592757242593213
 40
0.6164845960141855
 40
0.6743145500245254
 40
0.7338344996771015
 40
0.7950036072248324
 40
0.8592546500189946
 40
0.9270731490206751
 40
1.0
 40
1.0
 40
1.0
 40
1.0
 10
-29.62176124584751
 20
-7.203125000000001
 30
0.0
 10
-29.67992019489227
 20
-7.203891193262721
 30
0.0
 10
-29.79483507851733
 20
-7.205405096300276
 30
0.0
 10
-29.96478177140891
 20
-7.222941672396645
 30
0.0
 10
-30.13024196497977
 20
-7.24873211018771
 30
0.0
 10
-30.29040815769284
 20
-7.285379380216288
 30
0.0
 10
-30.443296114537
 20
-7.333474932324584
 30
0.0
 10
-30.58705224373776
 20
-7.393642700410751
 30
0.0
 10
-30.72125201743175
 20
-7.465276248675291
 30
0.0
 10
-30.84476022899437
 20
-7.549315458077118
 30
0.0
 10
-30.95797037798407
 20
-7.644918559054647
 30
0.0
 10
-31.05745529819334
 20
-7.754581882926065
 30
0.0
 10
-31.14638824385943
 20
-7.87541678281639
 30
0.0
 10
-31.22240252748161
 20
-8.008861932109122
 30
0.0
 10
-31.28288213463199
 20
-8.156033992394486
 30
0.0
 10
-31.32638016741106
 20
-8.316441528768765
 30
0.0
 10
-31.35181393993568
 20
-8.490967505693245
 30
0.0
 10
-31.35520272418683
 20
-8.611755900618267
 30
0.0
 10
-31.35695861426857
 20
-8.674342105263161
 30
0.0
  0
SPLINE
  5
6C
330
1F
100
AcDbEntity
  8
0
  6
Continuous
 62
     7
370
    25
100
AcDbSpline
210
0.0
220
0.0
230
1.0
 70
     8
 71
     3
 72
    23
 73
    19
 74
     0
 42
0.00000001
 43
0.00000001
 40
0.0
 40
0.0
 40
0.0
 40
0.0
 40
0.0670423395058434
 40
0.1325343755721569
 40
0.1964125219667021
 40
0.2595586849754015
 40
0.321620784258917
 40
0.3818534315746009
 40
0.4409670279696518
 40
0.4992096402861368
 40
0.5573309694320361
 40
0.6155771450775128
 40
0.6744585638697166
 40
0.7348503647775484
 40
0.7970026900768623
 40
0.8613090891233031
 40
0.9287349740261406
 40
0.9999999999999999
 40
0.9999999999999999
 40
0.9999999999999999
 40
0.9999999999999999
 10
-15.13393380462395
 20
-32.87129934210528
 30
0.0
 10
-15.06258180943497
 20
-32.87017448819623
 30
0.0
 10
-14.92152778002757
 20
-32.86795079177475
 30
0.0
 10
-14.71388047343503
 20
-32.84252464737602
 30
0.0
 10
-14.5120693405358
 20
-32.80683040568703
 30
0.0
 10
-14.31806639087327
 20
-32.75269611788404
 30
0.0
 10
-14.13233986343804
 20
-32.68571332095997
 30
0.0
 10
-13.95736061270542
 20
-32.60349560023662
 30
0.0
 10
-13.79579672746496
 20
-32.5050701782116
 30
0.0
 10
-13.64530476873509
 20
-32.3941076470535
 30
0.0
 10
-13.50934581761974
 20
-32.26698724677996
 30
0.0
 10
-13.38719134320819
 20
-32.1256647107889
 30
0.0
 10
-13.28109656196177
 20
-31.96899778267675
 30
0.0
 10
-13.18910455479713
 20
-31.79901740880369
 30
0.0
 10
-13.114119737015
 20
-31.61434648941486
 30
0.0
 10
-13.06263353893271
 20
-31.41419390375866
 30
0.0
 10
-13.02970026699911
 20
-31.20024295621202
 30
0.0
 10
-13.02630396341872
 20
-31.05262182710306
 30
0.0
 10
-13.02455880462395
 20
-30.97676809210528
 30
0.0
  0
SPLINE
  5
6D
330
1F
100
AcDbEntity
  8
0
  6
Continuous
 62
     7
370
    25
100
AcDbSpline
210
0.0
220
0.0
230
1.0
 70
     8
 71
     3
 72
    23
 73
    19
 74
     0
 42
0.00000001
 43
0.00000001
 40
0.0
 40
0.0
 40
0.0
 40
0.0
 40
0.0692231773308755
 40
0.1351111198440815
 40
0.1983041593104692
 40
0.2595430206111898
 40
0.3192321270652062
 40
0.377447220184871
 40
0.4351974038526006
 40
0.4931209760585121
 40
0.5514875890348092
 40
0.6103259685012734
 40
0.6709609112812832
 40
0.7329820089303873
 40
0.7969369826911342
 40
0.8624320792486824
 40
0.9301944822238023
 40
1.0
 40
1.0
 40
1.0
 40
1.0
 10
-17.36666406778184
 20
-30.85546875000002
 30
0.0
 10
-17.36489502534235
 20
-30.93371259888639
 30
0.0
 10
-17.36144217451595
 20
-31.08643043778908
 30
0.0
 10
-17.32857131716355
 20
-31.30858259132789
 30
0.0
 10
-17.27661260030597
 20
-31.51756686724356
 30
0.0
 10
-17.20346990250768
 20
-31.71280588080321
 30
0.0
 10
-17.11065541690008
 20
-31.8931691824942
 30
0.0
 10
-17.00045590188572
 20
-32.05855503409818
 30
0.0
 10
-16.87626255150487
 20
-32.21134121802182
 30
0.0
 10
-16.73298632734728
 20
-32.34660968152643
 30
0.0
 10
-16.57687703092606
 20
-32.46870372992139
 30
0.0
 10
-16.40511585041559
 20
-32.57359891688651
 30
0.0
 10
-16.22149454057534
 20
-32.66541479198128
 30
0.0
 10
-16.02409977639564
 20
-32.74040672962786
 30
0.0
 10
-15.81548256968461
 20
-32.79858332052738
 30
0.0
 10
-15.59648421547366
 20
-32.84049699655215
 30
0.0
 10
-15.36827632235001
 20
-32.86701005326263
 30
0.0
 10
-15.21281758502997
 20
-32.86985549263893
 30
0.0
 10
-15.13393380462395
 20
-32.87129934210528
 30
0.0
  0
SPLINE
  5
6E
330
1F
100
AcDbEntity
  8
0
  6
Continuous
 62
     7
370
    25
100
AcDbSpline
210
0.0
220
0.0
230
1.0
 70
     8
 71
     3
 72
    15
 73
    11
 74
     0
 42
0.00000001
 43
0.00000001
 40
0.0
 40
0.0
 40
0.0
 40
0.0
 40
0.1267570409847125
 40
0.2517970021914818
 40
0.3759018479758986
 40
0.4998230420314729
 40
0.6237321838409516
 40
0.747903198028084
 40
0.8729252422054761
 40
1.0
 40
1.0
 40
1.0
 40
1.0
 10
-17.07677919936079
 20
-29.71443256578949
 30
0.0
 10
-17.10001826992918
 20
-29.7590237078465
 30
0.0
 10
-17.14618160931751
 20
-29.84760195018338
 30
0.0
 10
-17.20407111186153
 20
-29.98507770676733
 30
0.0
 10
-17.2555982134443
 20
-30.12386124247195
 30
0.0
 10
-17.29477958142312
 20
-30.26617267069646
 30
0.0
 10
-17.32735212898034
 20
-30.41013089159037
 30
0.0
 10
-17.34926882438848
 20
-30.55651835511669
 30
0.0
 10
-17.36493718099937
 20
-30.70504657312695
 30
0.0
 10
-17.36608532258334
 20
-30.80505657851531
 30
0.0
 10
-17.36666406778184
 20
-30.85546875000002
 30
0.0
  0
SPLINE
  5
70
330
1F
100
AcDbEntity
  8
0
  6
Continuous
 62
     7
370
    25
100
AcDbSpline
210
0.0
220
0.0
230
1.0
 70
     8
 71
     3
 72
    11
 73
     7
 74
     0
 42
0.00000001
 43
0.00000001
 40
0.0
 40
0.0
 40
0.0
 40
0.0
 40
0.2669129050618564
 40
0.5212986250899364
 40
0.7652555025371904
 40
1.0
 40
1.0
 40
1.0
 40
1.0
 10
-17.76140090988711
 20
-30.84827302631581
 30
0.0
 10
-17.75908733564791
 20
-30.74535863698208
 30
0.0
 10
-17.75456877155056
 20
-30.54436000168115
 30
0.0
 10
-17.71772708775439
 20
-30.25128610010669
 30
0.0
 10
-17.65907184407276
 20
-29.9742125464508
 30
0.0
 10
-17.59806213438145
 20
-29.79990775511032
 30
0.0
 10
-17.56814433093974
 20
-29.71443256578949
 30
0.0
  0
SPLINE
  5
71
330
1F
100
AcDbEntity
  8
0
  6
Continuous
 62
     7
370
    25
100
AcDbSpline
210
0.0
220
0.0
230
1.0
 70
     8
 71
     3
 72
    23
 73
    19
 74
     0
 42
0.00000001
 43
0.00000001
 40
0.0
 40
0.0
 40
0.0
 40
0.0
 40
0.0677363974752426
 40
0.1334017411452668
 40
0.1977066537766073
 40
0.2609012439743243
 40
0.3230476020332512
 40
0.3834881302101577
 40
0.4429999133001367
 40
0.5019601092782047
 40
0.5608077658473168
 40
0.6194902240557456
 40
0.678877288676588
 40
0.7397487560461591
 40
0.8018581991282253
 40
0.8656332789154892
 40
0.9312512396340238
 40
1.0
 40
1.0
 40
1.0
 40
1.0
 10
-15.10001110725553
 20
-33.35341282894738
 30
0.0
 10
-15.19262869077881
 20
-33.35124391452432
 30
0.0
 10
-15.37503205681536
 20
-33.34697240066745
 30
0.0
 10
-15.64361697619118
 20
-33.31304533307523
 30
0.0
 10
-15.90233499502684
 20
-33.25892925449563
 30
0.0
 10
-16.15064535523506
 20
-33.18305510378551
 30
0.0
 10
-16.38555145342269
 20
-33.08554229772842
 30
0.0
 10
-16.60586752441162
 20
-32.96890260880689
 30
0.0
 10
-16.81030968195386
 20
-32.83395363678206
 30
0.0
 10
-16.99834916362554
 20
-32.68029595618747
 30
0.0
 10
-17.1681749779139
 20
-32.50831548028454
 30
0.0
 10
-17.31949726290154
 20
-32.31905237408999
 30
0.0
 10
-17.45028856201337
 20
-32.11181046871517
 30
0.0
 10
-17.5625256457313
 20
-31.88882728875004
 30
0.0
 10
-17.65329535370086
 20
-31.64949579299812
 30
0.0
 10
-17.71394747509964
 20
-31.39440701257135
 30
0.0
 10
-17.75551666760487
 20
-31.12615133506429
 30
0.0
 10
-17.75940926277233
 20
-30.94232685777478
 30
0.0
 10
-17.76140090988711
 20
-30.84827302631581
 30
0.0
  0
SPLINE
  5
72
330
1F
100
AcDbEntity
  8
0
  6
Continuous
 62
     7
370
    25
100
AcDbSpline
210
0.0
220
0.0
230
1.0
 70
     8
 71
     3
 72
    23
 73
    19
 74
     0
 42
0.00000001
 43
0.00000001
 40
0.0
 40
0.0
 40
0.0
 40
0.0
 40
0.067813380620004
 40
0.1327050488401322
 40
0.1960744530960059
 40
0.2578994349110921
 40
0.3183757790234061
 40
0.3775429431404849
 40
0.4361813573569716
 40
0.4945888482896008
 40
0.5534430462501022
 40
0.6125831152259725
 40
0.6732026443809713
 40
0.7355112281215029
 40
0.7991130129812823
 40
0.8642265950135404
 40
0.9308493808460556
 40
0.9999999999999999
 40
0.9999999999999999
 40
0.9999999999999999
 40
0.9999999999999999
 10
-12.62982196251868
 20
-31.02919407894739
 30
0.0
 10
-12.63176376406616
 20
-31.11533548830242
 30
0.0
 10
-12.63556370541755
 20
-31.28390693882004
 30
0.0
 10
-12.67219731677933
 20
-31.53067674669373
 30
0.0
 10
-12.728546606946
 20
-31.76570746891218
 30
0.0
 10
-12.81045474734377
 20
-31.98731800355051
 30
0.0
 10
-12.91260324377115
 20
-32.19419067846835
 30
0.0
 10
-13.03210347930252
 20
-32.38687587274212
 30
0.0
 10
-13.17042868316196
 20
-32.5632516409175
 30
0.0
 10
-13.32648993900534
 20
-32.72358146468172
 30
0.0
 10
-13.49961934179502
 20
-32.86626811362731
 30
0.0
 10
-13.6882672877786
 20
-32.99272662457921
 30
0.0
 10
-13.89251208516729
 20
-33.10172924614817
 30
0.0
 10
-14.11137262685801
 20
-33.19301516468081
 30
0.0
 10
-14.34329846288005
 20
-33.265169575859
 30
0.0
 10
-14.58631255906893
 20
-33.31594269522262
 30
0.0
 10
-14.83977440299252
 20
-33.34783452702514
 30
0.0
 10
-15.01219549216669
 20
-33.35153045798883
 30
0.0
 10
-15.10001110725553
 20
-33.35341282894738
 30
0.0
  0
SPLINE
  5
73
330
1F
100
AcDbEntity
  8
0
  6
Continuous
 62
     7
370
    25
100
AcDbSpline
210
0.0
220
0.0
230
1.0
 70
     8
 71
     3
 72
    15
 73
    11
 74
     0
 42
0.00000001
 43
0.00000001
 40
0.0
 40
0.0
 40
0.0
 40
0.0
 40
0.1177130128600517
 40
0.2371418542093345
 40
0.3575716881624987
 40
0.4808528316364266
 40
0.6058818738718607
 40
0.7337521996521377
 40
0.8654974179833359
 40
1.0
 40
1.0
 40
1.0
 40
1.0
 10
-12.90017558093974
 20
-29.71443256578949
 30
0.0
 10
-12.8781970244161
 20
-29.76278940669744
 30
0.0
 10
-12.83391954378566
 20
-29.86020795574307
 30
0.0
 10
-12.7806322952813
 20
-30.01260627205509
 30
0.0
 10
-12.73371299832476
 20
-30.1695851739116
 30
0.0
 10
-12.69611109078825
 20
-30.33170208116369
 30
0.0
 10
-12.66621989196904
 20
-30.49878201081108
 30
0.0
 10
-12.64443552461896
 20
-30.67098047300497
 30
0.0
 10
-12.6322168161934
 20
-30.84843470752082
 30
0.0
 10
-12.63062573967518
 20
-30.96852638341798
 30
0.0
 10
-12.62982196251868
 20
-31.02919407894739
 30
0.0
  0
SPLINE
  5
8A
330
1F
100
AcDbEntity
  8
0
  6
Continuous
 62
     7
370
    25
100
AcDbSpline
210
0.0
220
0.0
230
1.0
 70
     8
 71
     3
 72
    23
 73
    19
 74
     0
 42
0.00000001
 43
0.00000001
 40
0.0
 40
0.0
 40
0.0
 40
0.0
 40
0.0672783362160467
 40
0.1301963147839657
 40
0.1901408966711642
 40
0.2474343191294561
 40
0.3025008269694954
 40
0.3565068027787924
 40
0.4098291872734643
 40
0.4641886355762681
 40
0.5195536838863151
 40
0.5772200873555667
 40
0.6374643424890649
 40
0.7012441792151504
 40
0.7692381726297224
 40
0.841226436054871
 40
0.917901250697374
 40
1.0
 40
1.0
 40
1.0
 40
1.0
 10
-27.88327440374226
 20
3.441611842105261
 30
0.0
 10
-27.8841366169432
 20
3.48387761993928
 30
0.0
 10
-27.88580516268369
 20
3.56566989996529
 30
0.0
 10
-27.90108126813314
 20
3.684286145366735
 30
0.0
 10
-27.92501070841784
 20
3.795075528438129
 30
0.0
 10
-27.9609364259534
 20
3.897364111372311
 30
0.0
 10
-28.00498250736869
 20
3.992369896842385
 30
0.0
 10
-28.06076245683876
 20
4.078102944573013
 30
0.0
 10
-28.12554244442699
 20
4.156553708989652
 30
0.0
 10
-28.20055246643675
 20
4.226739415588382
 30
0.0
 10
-28.28651858719893
 20
4.287607155703603
 30
0.0
 10
-28.38124621755864
 20
4.341615308059625
 30
0.0
 10
-28.48682543417564
 20
4.385387274120922
 30
0.0
 10
-28.60153692224248
 20
4.423039562584098
 30
0.0
 10
-28.72681482756414
 20
4.449905922551299
 30
0.0
 10
-28.86132137339167
 20
4.470676046654294
 30
0.0
 10
-29.00585231884854
 20
4.483022485971492
 30
0.0
 10
-29.10556406573867
 20
4.484456083021407
 30
0.0
 10
-29.15712308795278
 20
4.48519736842105
 30
0.0
  0
SPLINE
  5
8B
330
1F
100
AcDbEntity
  8
0
  6
Continuous
 62
     7
370
    25
100
AcDbSpline
210
0.0
220
0.0
230
1.0
 70
     8
 71
     3
 72
    23
 73
    19
 74
     0
 42
0.00000001
 43
0.00000001
 40
0.0
 40
0.0
 40
0.0
 40
0.0
 40
0.0818643420101554
 40
0.1584793196323537
 40
0.2305462693790067
 40
0.2979894078351281
 40
0.361228997019147
 40
0.4211630967533712
 40
0.4779927756371614
 40
0.5327688009992803
 40
0.5862029272768439
 40
0.6391889186591415
 40
0.6932520928729531
 40
0.7487318108144694
 40
0.8060928891836615
 40
0.8669930651547815
 40
0.9311933389761398
 40
0.9999999999999999
 40
0.9999999999999999
 40
0.9999999999999999
 40
0.9999999999999999
 10
-29.19577440374225
 20
2.361842105263156
 30
0.0
 10
-29.14256875403163
 20
2.362573228317394
 30
0.0
 10
-29.03956914565891
 20
2.363988592826021
 30
0.0
 10
-28.89015383566304
 20
2.376506741190961
 30
0.0
 10
-28.75106993295383
 20
2.396649339308203
 30
0.0
 10
-28.62229075709663
 20
2.425176486497684
 30
0.0
 10
-28.50393258898517
 20
2.462202809922095
 30
0.0
 10
-28.39569986353273
 20
2.507109372451532
 30
0.0
 10
-28.29787749324257
 20
2.560970494706723
 30
0.0
 10
-28.20970297782321
 20
2.622526529148661
 30
0.0
 10
-28.13283126369472
 20
2.694118943168366
 30
0.0
 10
-28.06514755202729
 20
2.773803127177931
 30
0.0
 10
-28.00827081588654
 20
2.863196203210719
 30
0.0
 10
-27.96221708070819
 20
2.961687281763294
 30
0.0
 10
-27.92671421480439
 20
3.069127594490855
 30
0.0
 10
-27.90182176290761
 20
3.185208036225914
 30
0.0
 10
-27.88558180677736
 20
3.310398901454541
 30
0.0
 10
-27.88406109354775
 20
3.396875885192056
 30
0.0
 10
-27.88327440374226
 20
3.441611842105261
 30
0.0
  0
SPLINE
  5
8F
330
1F
100
AcDbEntity
  8
0
  6
Continuous
 62
     7
370
    25
100
AcDbSpline
210
0.0
220
0.0
230
1.0
 70
     8
 71
     3
 72
    23
 73
    19
 74
     0
 42
0.00000001
 43
0.00000001
 40
0.0
 40
0.0
 40
0.0
 40
0.0
 40
0.0694782674022448
 40
0.1346485597995812
 40
0.1963193717604276
 40
0.2550468236148013
 40
0.311304791197449
 40
0.3663287717056946
 40
0.4203328620731193
 40
0.4744336135356704
 40
0.5297088558074702
 40
0.5865253185486928
 40
0.6461024413368814
 40
0.708450974877008
 40
0.7746621490649284
 40
0.8453060474277868
 40
0.9200916413162621
 40
1.0
 40
1.0
 40
1.0
 40
1.0
 10
-27.56748493005804
 20
3.388980263157893
 30
0.0
 10
-27.56872210018379
 20
3.332455040419485
 30
0.0
 10
-27.57111973014618
 20
3.222909421067566
 30
0.0
 10
-27.59031771656831
 20
3.064109201665878
 30
0.0
 10
-27.62131303625464
 20
2.916217065243317
 30
0.0
 10
-27.66437371413702
 20
2.778796458187084
 30
0.0
 10
-27.72190134189424
 20
2.652696672558616
 30
0.0
 10
-27.7908392880489
 20
2.536952894199541
 30
0.0
 10
-27.87280915022075
 20
2.432061503115799
 30
0.0
 10
-27.96877451861297
 20
2.339646786346918
 30
0.0
 10
-28.07594626319948
 20
2.256783751193416
 30
0.0
 10
-28.19659156812821
 20
2.185777813845237
 30
0.0
 10
-28.32944512464378
 20
2.126186178493964
 30
0.0
 10
-28.47439019794893
 20
2.076398601107173
 30
0.0
 10
-28.63231393614718
 20
2.039157082464925
 30
0.0
 10
-28.80249432465467
 20
2.012506912390956
 30
0.0
 10
-28.98519131726483
 20
1.995782274283568
 30
0.0
 10
-29.11103304370581
 20
1.99368305314149
 30
0.0
 10
-29.17603756163699
 20
1.992598684210524
 30
0.0
  0
SPLINE
  5
90
330
1F
100
AcDbEntity
  8
0
  6
Continuous
 62
     7
370
    25
100
AcDbSpline
210
0.0
220
0.0
230
1.0
 70
     8
 71
     3
 72
    23
 73
    19
 74
     0
 42
0.00000001
 43
0.00000001
 40
0.0
 40
0.0
 40
0.0
 40
0.0
 40
0.0795059263948775
 40
0.1541197366106553
 40
0.22417400018849
 40
0.2899934951437824
 40
0.3525195365929385
 40
0.4116367280183859
 40
0.4684271255228292
 40
0.5234818286253475
 40
0.577622776587206
 40
0.6319129198527428
 40
0.686819554731764
 40
0.7433705312818254
 40
0.802423247425716
 40
0.8644523875241026
 40
0.9301703189200701
 40
1.0
 40
1.0
 40
1.0
 40
1.0
 10
-29.23689282479489
 20
4.854440789473682
 30
0.0
 10
-29.16942093124317
 20
4.853402493695635
 30
0.0
 10
-29.03862878864029
 20
4.851389790000547
 30
0.0
 10
-28.84900370023019
 20
4.834023572328434
 30
0.0
 10
-28.67258898808096
 20
4.805378693193483
 30
0.0
 10
-28.50860626824417
 20
4.766454598933302
 30
0.0
 10
-28.35780379603087
 20
4.714955688520277
 30
0.0
 10
-28.22023113362271
 20
4.651110597389815
 30
0.0
 10
-28.09514305936881
 20
4.577171434094711
 30
0.0
 10
-27.98274679659933
 20
4.491525667148684
 30
0.0
 10
-27.88557622866183
 20
4.392048982888707
 30
0.0
 10
-27.79889419560545
 20
4.283510022349848
 30
0.0
 10
-27.72713574076277
 20
4.162025827888004
 30
0.0
 10
-27.66886236526153
 20
4.029332005469842
 30
0.0
 10
-27.62233510593174
 20
3.88562919982005
 30
0.0
 10
-27.59129748223098
 20
3.729960105667788
 30
0.0
 10
-27.57086952492322
 20
3.563316599778881
 30
0.0
 10
-27.56863571540499
 20
3.448255807090298
 30
0.0
 10
-27.56748493005804
 20
3.388980263157893
 30
0.0
  0
SPLINE
  5
93
330
1F
100
AcDbEntity
  8
0
  6
Continuous
 62
     7
370
    25
100
AcDbSpline
210
0.0
220
0.0
230
1.0
 70
     8
 71
     3
 72
    23
 73
    19
 74
     0
 42
0.00000001
 43
0.00000001
 40
0.0
 40
0.0
 40
0.0
 40
0.0
 40
0.0772511957778791
 40
0.1502584317358855
 40
0.2193555143162184
 40
0.2850607011887306
 40
0.3477820285449084
 40
0.4080735179737571
 40
0.4659836291382013
 40
0.5227576610984539
 40
0.5785350369750833
 40
0.6340682956820296
 40
0.6904745056695253
 40
0.7476078947295325
 40
0.8067368924353687
 40
0.8683938824448587
 40
0.9323254675649949
 40
1.0
 40
1.0
 40
1.0
 40
1.0
 10
-31.62011650900541
 20
-0.0879934210526344
 30
0.0
 10
-31.61924986361837
 20
-0.0372384363445809
 30
0.0
 10
-31.61756418386394
 20
0.0614831993300189
 30
0.0
 10
-31.60221108092196
 20
0.2049021684538291
 30
0.0
 10
-31.57903563430759
 20
0.3395429259765425
 30
0.0
 10
-31.54514859007513
 20
0.4649670676389442
 30
0.0
 10
-31.50253909806922
 20
0.5815500400836559
 30
0.0
 10
-31.45071569541289
 20
0.6887109368259162
 30
0.0
 10
-31.39039952069198
 20
0.7867921549048955
 30
0.0
 10
-31.32115072462253
 20
0.8750868397988939
 30
0.0
 10
-31.24338185048701
 20
0.9537841100296771
 30
0.0
 10
-31.1571310370705
 20
1.02273350829165
 30
0.0
 10
-31.06233224138814
 20
1.081099261330097
 30
0.0
 10
-30.95928394464868
 20
1.128993584004396
 30
0.0
 10
-30.84853775979165
 20
1.16696749905028
 30
0.0
 10
-30.73002457974601
 20
1.193921255657432
 30
0.0
 10
-30.60380876680226
 20
1.209496349609174
 30
0.0
 10
-30.51736414026499
 20
1.211805836232731
 30
0.0
 10
-30.47291256163699
 20
1.212993421052629
 30
0.0
  0
SPLINE
  5
99
330
1F
100
AcDbEntity
  8
0
  6
Continuous
 62
     7
370
    25
100
AcDbSpline
210
0.0
220
0.0
230
1.0
 70
     8
 71
     3
 72
    23
 73
    19
 74
     0
 42
0.00000001
 43
0.00000001
 40
0.0
 40
0.0
 40
0.0
 40
0.0
 40
0.0635482492367479
 40
0.1249323644241653
 40
0.1851290773748644
 40
0.2444037126337396
 40
0.3027531181429821
 40
0.3606324442608
 40
0.4176678060277725
 40
0.4753613643643862
 40
0.5337944504269057
 40
0.5934525347752045
 40
0.6545671046521808
 40
0.7183839007432786
 40
0.7844712139950571
 40
0.8528435186603279
 40
0.9245321390676371
 40
1.0
 40
1.0
 40
1.0
 40
1.0
 10
-30.47291256163699
 20
1.212993421052629
 30
0.0
 10
-30.42761759211301
 20
1.211997653141898
 30
0.0
 10
-30.33857017212715
 20
1.210040028171903
 30
0.0
 10
-30.20772839953494
 20
1.191278956681399
 30
0.0
 10
-30.0822317698047
 20
1.161198752282718
 30
0.0
 10
-29.962919221349
 20
1.117973153536522
 30
0.0
 10
-29.84954304768618
 20
1.064768514147362
 30
0.0
 10
-29.7443582053622
 20
0.9996675472936675
 30
0.0
 10
-29.64709498228668
 20
0.9240514256997032
 30
0.0
 10
-29.55827449477007
 20
0.838162366250585
 30
0.0
 10
-29.47687734259542
 20
0.7426433411091568
 30
0.0
 10
-29.40658297062024
 20
0.6357658768883049
 30
0.0
 10
-29.34428368079547
 20
0.5197662798972811
 30
0.0
 10
-29.29191920701956
 20
0.3939427706257092
 30
0.0
 10
-29.24968905417399
 20
0.2589019186803135
 30
0.0
 10
-29.22064647616363
 20
0.1147569474704912
 30
0.0
 10
-29.20189852211405
 20
-0.03788117910059
 30
0.0
 10
-29.20002479916976
 20
-0.1427599370240795
 30
0.0
 10
-29.19906387742646
 20
-0.1965460526315818
 30
0.0
  0
SPLINE
  5
9A
330
1F
100
AcDbEntity
  8
0
  6
Continuous
 62
     7
370
    25
100
AcDbSpline
210
0.0
220
0.0
230
1.0
 70
     8
 71
     3
 72
    23
 73
    19
 74
     0
 42
0.00000001
 43
0.00000001
 40
0.0
 40
0.0
 40
0.0
 40
0.0
 40
0.0670423395058433
 40
0.1325343755721563
 40
0.196412521966702
 40
0.2595586849754006
 40
0.3216207842589175
 40
0.3818534315746009
 40
0.4409670279696511
 40
0.4992096402861366
 40
0.557330969432036
 40
0.6155771450775128
 40
0.6744585638697169
 40
0.734850364777548
 40
0.7970026900768633
 40
0.8613090891233023
 40
0.928734974026141
 40
1.0
 40
1.0
 40
1.0
 40
1.0
 10
-29.57077440374225
 20
-13.70230263157895
 30
0.0
 10
-29.51369280759107
 20
-13.7014027484517
 30
0.0
 10
-29.40084958406514
 20
-13.69962379131452
 30
0.0
 10
-29.23473173879112
 20
-13.67928287579555
 30
0.0
 10
-29.07328283247174
 20
-13.65072748244435
 30
0.0
 10
-28.91808047274172
 20
-13.60742005220196
 30
0.0
 10
-28.76949925079353
 20
-13.5538338146627
 30
0.0
 10
-28.62951585020742
 20
-13.48805963808401
 30
0.0
 10
-28.50026474201507
 20
-13.40931930046401
 30
0.0
 10
-28.37987117503116
 20
-13.32054927553752
 30
0.0
 10
-28.27110401413889
 20
-13.21885295531869
 30
0.0
 10
-28.17338043460965
 20
-13.10579492652585
 30
0.0
 10
-28.08850460961251
 20
-12.98046138403612
 30
0.0
 10
-28.01491100388079
 20
-12.84447708493767
 30
0.0
 10
-27.95492314965509
 20
-12.69674034942661
 30
0.0
 10
-27.91373419118926
 20
-12.53661828090165
 30
0.0
 10
-27.88738757364238
 20
-12.36545752286434
 30
0.0
 10
-27.88467053077806
 20
-12.24736061957717
 30
0.0
 10
-27.88327440374226
 20
-12.18667763157895
 30
0.0
  0
SPLINE
  5
9B
330
1F
100
AcDbEntity
  8
0
  6
Continuous
 62
     7
370
    25
100
AcDbSpline
210
0.0
220
0.0
230
1.0
 70
     8
 71
     3
 72
    23
 73
    19
 74
     0
 42
0.00000001
 43
0.00000001
 40
0.0
 40
0.0
 40
0.0
 40
0.0
 40
0.0692231773308761
 40
0.1351111198440819
 40
0.1983041593104702
 40
0.2595430206111905
 40
0.319232127065206
 40
0.3774472201848699
 40
0.4351974038526009
 40
0.4931209760585112
 40
0.5514875890348091
 40
0.6103259685012735
 40
0.6709609112812839
 40
0.7329820089303869
 40
0.7969369826911346
 40
0.8624320792486821
 40
0.9301944822238015
 40
1.0
 40
1.0
 40
1.0
 40
1.0
 10
-31.35695861426857
 20
-12.08963815789474
 30
0.0
 10
-31.35554338031698
 20
-12.15223323700384
 30
0.0
 10
-31.35278109965586
 20
-12.27440750812599
 30
0.0
 10
-31.32648441377393
 20
-12.45212923095704
 30
0.0
 10
-31.28491744028786
 20
-12.61931665168958
 30
0.0
 10
-31.22640328204924
 20
-12.77550786253729
 30
0.0
 10
-31.15215169356316
 20
-12.91979850389008
 30
0.0
 10
-31.06399208155168
 20
-13.05210718517327
 30
0.0
 10
-30.96463740124698
 20
-13.17433613231219
 30
0.0
 10
-30.85001642192092
 20
-13.28255090311586
 30
0.0
 10
-30.72512898478394
 20
-13.38022614183184
 30
0.0
 10
-30.58772004037557
 20
-13.46414229140393
 30
0.0
 10
-30.44082299250337
 20
-13.53759499147975
 30
0.0
 10
-30.2829071811596
 20
-13.59758854159701
 30
0.0
 10
-30.11601341579079
 20
-13.64412981431662
 30
0.0
 10
-29.94081473242202
 20
-13.67766075513644
 30
0.0
 10
-29.7582484179231
 20
-13.69887120050483
 30
0.0
 10
-29.63388142806708
 20
-13.70114755200587
 30
0.0
 10
-29.57077440374225
 20
-13.70230263157895
 30
0.0
  0
SPLINE
  5
9C
330
1F
100
AcDbEntity
  8
0
  6
Continuous
 62
     7
370
    25
100
AcDbSpline
210
0.0
220
0.0
230
1.0
 70
     8
 71
     3
 72
    15
 73
    11
 74
     0
 42
0.00000001
 43
0.00000001
 40
0.0
 40
0.0
 40
0.0
 40
0.0
 40
0.1267570409847122
 40
0.2517970021914792
 40
0.3759018479758965
 40
0.4998230420314722
 40
0.6237321838409529
 40
0.7479031980280859
 40
0.8729252422054778
 40
0.9999999999999999
 40
0.9999999999999999
 40
0.9999999999999999
 40
0.9999999999999999
 10
-31.12505071953173
 20
-11.17680921052632
 30
0.0
 10
-31.14364197598644
 20
-11.21248212417193
 30
0.0
 10
-31.1805726474971
 20
-11.28334471804143
 30
0.0
 10
-31.22688424953233
 20
-11.3933253233086
 30
0.0
 10
-31.26810593079853
 20
-11.50435215187228
 30
0.0
 10
-31.29945102518159
 20
-11.6182012944519
 30
0.0
 10
-31.32550906322738
 20
-11.73336787116703
 30
0.0
 10
-31.34304241955387
 20
-11.85047784198808
 30
0.0
 10
-31.35557710484259
 20
-11.96930041639628
 30
0.0
 10
-31.35649561810978
 20
-12.04930842070697
 30
0.0
 10
-31.35695861426857
 20
-12.08963815789474
 30
0.0
  0
SPLINE
  5
9E
330
1F
100
AcDbEntity
  8
0
  6
Continuous
 62
     7
370
    25
100
AcDbSpline
210
0.0
220
0.0
230
1.0
 70
     8
 71
     3
 72
    11
 73
     7
 74
     0
 42
0.00000001
 43
0.00000001
 40
0.0
 40
0.0
 40
0.0
 40
0.0
 40
0.2669129050618581
 40
0.5212986250899373
 40
0.7652555025371904
 40
1.0
 40
1.0
 40
1.0
 40
1.0
 10
-31.67274808795278
 20
-12.08388157894737
 30
0.0
 10
-31.67089722856143
 20
-12.00155006748039
 30
0.0
 10
-31.66728237728355
 20
-11.84075115923964
 30
0.0
 10
-31.63780903024659
 20
-11.60629203798007
 30
0.0
 10
-31.59088483530131
 20
-11.38463319505537
 30
0.0
 10
-31.54207706754825
 20
-11.24518936198298
 30
0.0
 10
-31.51814282479489
 20
-11.17680921052632
 30
0.0
  0
SPLINE
  5
9F
330
1F
100
AcDbEntity
  8
0
  6
Continuous
 62
     7
370
    25
100
AcDbSpline
210
0.0
220
0.0
230
1.0
 70
     8
 71
     3
 72
    23
 73
    19
 74
     0
 42
0.00000001
 43
0.00000001
 40
0.0
 40
0.0
 40
0.0
 40
0.0
 40
0.0677363974752427
 40
0.1334017411452668
 40
0.1977066537766075
 40
0.2609012439743239
 40
0.3230476020332518
 40
0.3834881302101573
 40
0.4429999133001363
 40
0.5019601092782046
 40
0.5608077658473171
 40
0.6194902240557456
 40
0.6788772886765876
 40
0.7397487560461585
 40
0.8018581991282263
 40
0.8656332789154889
 40
0.9312512396340246
 40
1.0
 40
1.0
 40
1.0
 40
1.0
 10
-29.54363624584752
 20
-14.08799342105263
 30
0.0
 10
-29.61773031266615
 20
-14.08625828951419
 30
0.0
 10
-29.76365300549538
 20
-14.08284107842869
 30
0.0
 10
-29.97852094099603
 20
-14.0556994243549
 30
0.0
 10
-30.18549535606457
 20
-14.01240656149124
 30
0.0
 10
-30.38414364423114
 20
-13.95170724092313
 30
0.0
 10
-30.57206852278125
 20
-13.87369699607746
 30
0.0
 10
-30.74832137957239
 20
-13.78038524494024
 30
0.0
 10
-30.91187510560617
 20
-13.67242606732037
 30
0.0
 10
-31.06230669094352
 20
-13.5494999228447
 30
0.0
 10
-31.19816734237421
 20
-13.41191554212235
 30
0.0
 10
-31.31922517036433
 20
-13.26050505716672
 30
0.0
 10
-31.42385820965379
 20
-13.09471153286686
 30
0.0
 10
-31.51364787662812
 20
-12.91632498889476
 30
0.0
 10
-31.5862636430038
 20
-12.72485979229322
 30
0.0
 10
-31.6347853401228
 20
-12.52078876795181
 30
0.0
 10
-31.668040694127
 20
-12.30618422594616
 30
0.0
 10
-31.67115477026096
 20
-12.15912464411455
 30
0.0
 10
-31.67274808795278
 20
-12.08388157894737
 30
0.0
  0
SPLINE
  5
A0
330
1F
100
AcDbEntity
  8
0
  6
Continuous
 62
     7
370
    25
100
AcDbSpline
210
0.0
220
0.0
230
1.0
 70
     8
 71
     3
 72
    23
 73
    19
 74
     0
 42
0.00000001
 43
0.00000001
 40
0.0
 40
0.0
 40
0.0
 40
0.0
 40
0.0678133806200049
 40
0.1327050488401313
 40
0.1960744530960064
 40
0.257899434911092
 40
0.3183757790234051
 40
0.3775429431404848
 40
0.4361813573569717
 40
0.4945888482896006
 40
0.5534430462501025
 40
0.6125831152259718
 40
0.6732026443809714
 40
0.735511228121502
 40
0.7991130129812816
 40
0.8642265950135406
 40
0.9308493808460558
 40
1.0
 40
1.0
 40
1.0
 40
1.0
 10
-27.56748493005804
 20
-12.22861842105263
 30
0.0
 10
-27.56903837129602
 20
-12.29753154853666
 30
0.0
 10
-27.57207832437714
 20
-12.43238870895076
 30
0.0
 10
-27.60138521346656
 20
-12.6298045552497
 30
0.0
 10
-27.64646464559988
 20
-12.81782913302447
 30
0.0
 10
-27.71199115791812
 20
-12.99511756073513
 30
0.0
 10
-27.79370995506
 20
-13.16061570066939
 30
0.0
 10
-27.88931014348512
 20
-13.31476385608843
 30
0.0
 10
-27.99997030657265
 20
-13.45586447062873
 30
0.0
 10
-28.12481931124736
 20
-13.58412832964009
 30
0.0
 10
-28.26332283347911
 20
-13.69827764879657
 30
0.0
 10
-28.41424119026598
 20
-13.79944445755809
 30
0.0
 10
-28.57763702817692
 20
-13.88664655481327
 30
0.0
 10
-28.75272546152949
 20
-13.95967528963936
 30
0.0
 10
-28.93826613034715
 20
-14.01739881858194
 30
0.0
 10
-29.13267740729823
 20
-14.05801731407282
 30
0.0
 10
-29.33544688243711
 20
-14.08353077951483
 30
0.0
 10
-29.47338375377645
 20
-14.08648752428579
 30
0.0
 10
-29.54363624584752
 20
-14.08799342105263
 30
0.0
  0
SPLINE
  5
A1
330
1F
100
AcDbEntity
  8
0
  6
Continuous
 62
     7
370
    25
100
AcDbSpline
210
0.0
220
0.0
230
1.0
 70
     8
 71
     3
 72
    15
 73
    11
 74
     0
 42
0.00000001
 43
0.00000001
 40
0.0
 40
0.0
 40
0.0
 40
0.0
 40
0.1177130128600516
 40
0.2371418542093368
 40
0.3575716881624995
 40
0.4808528316364266
 40
0.6058818738718601
 40
0.7337521996521367
 40
0.8654974179833355
 40
1.0
 40
1.0
 40
1.0
 40
1.0
 10
-27.78376782479489
 20
-11.17680921052632
 30
0.0
 10
-27.76618497957597
 20
-11.21549468325267
 30
0.0
 10
-27.73076299507162
 20
-11.29342952248918
 30
0.0
 10
-27.68813319626813
 20
-11.41534817553879
 30
0.0
 10
-27.65059775870289
 20
-11.540931297024
 30
0.0
 10
-27.6205162326737
 20
-11.67062482282568
 30
0.0
 10
-27.59660327361833
 20
-11.8042887665436
 30
0.0
 10
-27.57917577973826
 20
-11.94204753629869
 30
0.0
 10
-27.56940081299782
 20
-12.08401092391138
 30
0.0
 10
-27.56812795178323
 20
-12.18008426462911
 30
0.0
 10
-27.56748493005804
 20
-12.22861842105263
 30
0.0
  0
SPLINE
  5
A3
330
1F
100
AcDbEntity
  8
0
  6
Continuous
 62
     7
370
    25
100
AcDbSpline
210
0.0
220
0.0
230
1.0
 70
     8
 71
     3
 72
    15
 73
    11
 74
     0
 42
0.00000001
 43
0.00000001
 40
0.0
 40
0.0
 40
0.0
 40
0.0
 40
0.1340563651349364
 40
0.2646845492881191
 40
0.3915005118482061
 40
0.5160564650742794
 40
0.6385883414574572
 40
0.7601354907996735
 40
0.8800614194585894
 40
0.9999999999999999
 40
0.9999999999999999
 40
0.9999999999999999
 40
0.9999999999999999
 10
-27.88327440374226
 20
-12.18667763157895
 30
0.0
 10
-27.88401750796605
 20
-12.13949677509395
 30
0.0
 10
-27.88548471324459
 20
-12.04634160322883
 30
0.0
 10
-27.8985098374233
 20
-11.90910276295644
 30
0.0
 10
-27.91747268134424
 20
-11.77593386982434
 30
0.0
 10
-27.94698424480626
 20
-11.64761779040547
 30
0.0
 10
-27.98252351757641
 20
-11.52275833533096
 30
0.0
 10
-28.02831095284073
 20
-11.40302658015847
 30
0.0
 10
-28.0805128821666
 20
-11.28690775052117
 30
0.0
 10
-28.12226544315923
 20
-11.21351001433582
 30
0.0
 10
-28.14314282479489
 20
-11.17680921052632
 30
0.0
  0
SPLINE
  5
A4
330
1F
100
AcDbEntity
  8
0
  6
Continuous
 62
     7
370
    25
100
AcDbSpline
210
0.0
220
0.0
230
1.0
 70
     8
 71
     3
 72
    23
 73
    19
 74
     0
 42
0.00000001
 43
0.00000001
 40
0.0
 40
0.0
 40
0.0
 40
0.0
 40
0.0709436738896501
 40
0.1389202955935849
 40
0.2048783482361928
 40
0.269040080995635
 40
0.3310222229249928
 40
0.3910019502625234
 40
0.4495787364580321
 40
0.5072987539280127
 40
0.5646704263629291
 40
0.6222307628532716
 40
0.6803173393232717
 40
0.7399536825630648
 40
0.8012471244603049
 40
0.8646916799782931
 40
0.9305702291384668
 40
0.9999999999999999
 40
0.9999999999999999
 40
0.9999999999999999
 40
0.9999999999999999
 10
-29.57735335111067
 20
-10.56167763157895
 30
0.0
 10
-29.65334992656474
 20
-10.56010253318845
 30
0.0
 10
-29.80216469957187
 20
-10.55701821119045
 30
0.0
 10
-30.02054010074764
 20
-10.53268600988696
 30
0.0
 10
-30.22917769483626
 20
-10.49284664045549
 30
0.0
 10
-30.42715970155304
 20
-10.43596365431211
 30
0.0
 10
-30.61383990113338
 20
-10.36515312862542
 30
0.0
 10
-30.78638797895001
 20
-10.27714352565594
 30
0.0
 10
-30.94618433743811
 20
-10.17604440622121
 30
0.0
 10
-31.09179119040509
 20
-10.05963199012223
 30
0.0
 10
-31.22226497382342
 20
-9.92806517059803
 30
0.0
 10
-31.3379163855752
 20
-9.782794408076114
 30
0.0
 10
-31.43788950330969
 20
-9.623469764979781
 30
0.0
 10
-31.52285061583764
 20
-9.45123816826878
 30
0.0
 10
-31.59092661475998
 20
-9.265374460629396
 30
0.0
 10
-31.63768169503658
 20
-9.06628424156934
 30
0.0
 10
-31.66735295750793
 20
-8.855057129065884
 30
0.0
 10
-31.67091851794489
 20
-8.710081219837255
 30
0.0
 10
-31.67274808795278
 20
-8.635690789473685
 30
0.0
  0
SPLINE
  5
A5
330
1F
100
AcDbEntity
  8
0
  6
Continuous
 62
     7
370
    25
100
AcDbSpline
210
0.0
220
0.0
230
1.0
 70
     8
 71
     3
 72
    23
 73
    19
 74
     0
 42
0.00000001
 43
0.00000001
 40
0.0
 40
0.0
 40
0.0
 40
0.0
 40
0.0684181678423548
 40
0.1339513952049599
 40
0.1973973371940272
 40
0.2594142828135734
 40
0.3200680779193404
 40
0.3793134330357296
 40
0.4381664888967833
 40
0.4969163231705594
 40
0.5560172260572315
 40
0.6155667202322991
 40
0.6762205153380653
 40
0.7386300137277781
 40
0.8022167502250356
 40
0.8665536528935386
 40
0.932408337885254
 40
1.0
 40
1.0
 40
1.0
 40
1.0
 10
-27.56748493005804
 20
-8.704769736842106
 30
0.0
 10
-27.56939149946075
 20
-8.774765057584762
 30
0.0
 10
-27.57312424530301
 20
-8.91180425589976
 30
0.0
 10
-27.60205968238633
 20
-9.112158924153583
 30
0.0
 10
-27.65168554577092
 20
-9.301481244295218
 30
0.0
 10
-27.71989135029079
 20
-9.479652608402366
 30
0.0
 10
-27.80596043860998
 20
-9.64500209451833
 30
0.0
 10
-27.90588018258781
 20
-9.798472537524848
 30
0.0
 10
-28.02061304459572
 20
-9.93879840145978
 30
0.0
 10
-28.14963349470755
 20
-10.06579437270681
 30
0.0
 10
-28.29121236049502
 20
-10.17984570387396
 30
0.0
 10
-28.44624573742469
 20
-10.27838313231384
 30
0.0
 10
-28.6122231186528
 20
-10.36460802506782
 30
0.0
 10
-28.78977115787623
 20
-10.43551106027495
 30
0.0
 10
-28.97619824425248
 20
-10.49243252587295
 30
0.0
 10
-29.17052785185379
 20
-10.53261108162557
 30
0.0
 10
-29.37169098530511
 20
-10.55687890164939
 30
0.0
 10
-29.50820691858728
 20
-10.56006423452416
 30
0.0
 10
-29.57735335111067
 20
-10.56167763157895
 30
0.0
  0
SPLINE
  5
A6
330
1F
100
AcDbEntity
  8
0
  6
Continuous
 62
     7
370
    25
100
AcDbSpline
210
0.0
220
0.0
230
1.0
 70
     8
 71
     3
 72
    27
 73
    23
 74
     0
 42
0.00000001
 43
0.00000001
 40
0.0
 40
0.0
 40
0.0
 40
0.0
 40
0.0696280594845802
 40
0.1367994934229046
 40
0.2023629332351614
 40
0.2662680628307061
 40
0.3286519746372862
 40
0.3889440686440007
 40
0.4481768519405471
 40
0.506273889026812
 40
0.5640699996933954
 40
0.6216888353836999
 40
0.6798767031479629
 40
0.7394773156080091
 40
0.7699700849096455
 40
0.800780354693136
 40
0.8321832352777012
 40
0.863885077353511
 40
0.8968514403520064
 40
0.9303237310607468
 40
0.9646813533254611
 40
1.0
 40
1.0
 40
1.0
 40
1.0
 10
-29.67685993005804
 20
-6.817434210526317
 30
0.0
 10
-29.60277250317917
 20
-6.818634133064049
 30
0.0
 10
-29.45721161090298
 20
-6.820991642328615
 30
0.0
 10
-29.24316049145342
 20
-6.846186405313753
 30
0.0
 10
-29.03728825953154
 20
-6.88395981402068
 30
0.0
 10
-28.84037404234262
 20
-6.938479092219289
 30
0.0
 10
-28.65392569025419
 20
-7.007081559617651
 30
0.0
 10
-28.47888904397901
 20
-7.090251653440535
 30
0.0
 10
-28.31744884862254
 20
-7.189064503384015
 30
0.0
 10
-28.16935020077837
 20
-7.302523076274472
 30
0.0
 10
-28.03457732127588
 20
-7.429119225839925
 30
0.0
 10
-27.91543523946184
 20
-7.570746299150378
 30
0.0
 10
-27.81225099075279
 20
-7.726611023402873
 30
0.0
 10
-27.73925172049285
 20
-7.866718375675751
 30
0.0
 10
-27.68869954567449
 20
-7.985058754321272
 30
0.0
 10
-27.65718353401328
 20
-8.078545928836478
 30
0.0
 10
-27.62870610732449
 20
-8.174339801424436
 30
0.0
 10
-27.60687945965156
 20
-8.274221773846948
 30
0.0
 10
-27.58846150995888
 20
-8.377008132457938
 30
0.0
 10
-27.57652315146546
 20
-8.483601859643231
 30
0.0
 10
-27.5688357422049
 20
-8.593086926482057
 30
0.0
 10
-27.56793932212702
 20
-8.667201387025669
 30
0.0
 10
-27.56748493005804
 20
-8.704769736842106
 30
0.0
  0
SPLINE
  5
A7
330
1F
100
AcDbEntity
  8
0
  6
Continuous
 62
     7
370
    25
100
AcDbSpline
210
0.0
220
0.0
230
1.0
 70
     8
 71
     3
 72
    23
 73
    19
 74
     0
 42
0.00000001
 43
0.00000001
 40
0.0
 40
0.0
 40
0.0
 40
0.0
 40
0.0678514229820292
 40
0.1328093575625835
 40
0.1952182880857656
 40
0.256403634431183
 40
0.3164298981705391
 40
0.3752423850676145
 40
0.4334290155982966
 40
0.4919086716856323
 40
0.5507692659423714
 40
0.6104121754862999
 40
0.6709215066895707
 40
0.733607832500292
 40
0.7977823719210375
 40
0.8634024243181782
 40
0.9305343643693572
 40
1.0
 40
1.0
 40
1.0
 40
1.0
 10
-31.67274808795278
 20
-8.635690789473685
 30
0.0
 10
-31.6712468796101
 20
-8.567047756989027
 30
0.0
 10
-31.66830848116839
 20
-8.432688938193891
 30
0.0
 10
-31.6384081859635
 20
-8.237090878727718
 30
0.0
 10
-31.59189315425898
 20
-8.05193080274999
 30
0.0
 10
-31.52592633814564
 20
-7.877906439711719
 30
0.0
 10
-31.44227724829723
 20
-7.71592619519588
 30
0.0
 10
-31.34532099654069
 20
-7.565103225017647
 30
0.0
 10
-31.23246002977926
 20
-7.427717567610293
 30
0.0
 10
-31.10544737062769
 20
-7.303308658986076
 30
0.0
 10
-30.96490869821385
 20
-7.192091827653721
 30
0.0
 10
-30.81257320296103
 20
-7.093791970872605
 30
0.0
 10
-30.64721128196909
 20
-7.010508541551812
 30
0.0
 10
-30.47079605064978
 20
-6.940796722659816
 30
0.0
 10
-30.28379346031361
 20
-6.886138459157632
 30
0.0
 10
-30.08870057721951
 20
-6.845307412540794
 30
0.0
 10
-29.88518943413602
 20
-6.822476929057304
 30
0.0
 10
-29.74708955197463
 20
-6.819134153208131
 30
0.0
 10
-29.67685993005804
 20
-6.817434210526317
 30
0.0
  0
CIRCLE
  5
EC
330
1F
100
AcDbEntity
  8
0
  6
Continuous
 62
     7
370
    25
100
AcDbCircle
 10
11.3043885638
 20
0.0
 30
0.0
 40
4.999999999999996
  0
CIRCLE
  5
125
330
1F
100
AcDbEntity
  8
0
  6
Continuous
 62
     7
370
    25
100
AcDbCircle
 10
-54.6956114362
 20
-24.0
 30
0.0
 40
1.600000000000001
  0
CIRCLE
  5
126
330
1F
100
AcDbEntity
  8
0
  6
Continuous
 62
     7
370
    25
100
AcDbCircle
 10
-54.6956114362
 20
24.0
 30
0.0
 40
1.600000000000001
  0
CIRCLE
  5
127
330
1F
100
AcDbEntity
  8
0
  6
Continuous
 62
     7
370
    25
100
AcDbCircle
 10
0.3043885638
 20
24.0
 30
0.0
 40
1.599999999999994
  0
CIRCLE
  5
128
330
1F
100
AcDbEntity
  8
0
  6
Continuous
 62
     7
370
    25
100
AcDbCircle
 10
0.3043885638
 20
-24.0
 30
0.0
 40
1.600000000000005
  0
CIRCLE
  5
131
330
1F
100
AcDbEntity
  8
0
  6
Continuous
 62
     7
370
    25
100
AcDbCircle
 10
-88.6956114362
 20
20.0
 30
0.0
 40
1.600000000000016
  0
CIRCLE
  5
132
330
1F
100
AcDbEntity
  8
0
  6
Continuous
 62
     7
370
    25
100
AcDbCircle
 10
-88.6956114362
 20
-20.0
 30
0.0
 40
1.600000000000019
  0
SPLINE
  5
133
330
1F
100
AcDbEntity
  8
0
  6
Continuous
 62
     7
370
    25
100
AcDbSpline
210
0.0
220
0.0
230
1.0
 70
     8
 71
     3
 72
    15
 73
    11
 74
     0
 42
0.00000001
 43
0.00000001
 40
0.0
 40
0.0
 40
0.0
 40
0.0
 40
0.1044806304397808
 40
0.2076589237790382
 40
0.3149078267663308
 40
0.4291645705285029
 40
0.553512636108819
 40
0.6872751019151832
 40
0.8361919830830993
 40
1.0
 40
1.0
 40
1.0
 40
1.0
 10
-29.45810993005804
 20
13.02631578947368
 30
0.0
 10
-29.44592211406128
 20
13.05219373397712
 30
0.0
 10
-29.42169840156594
 20
13.10362705786288
 30
0.0
 10
-29.37245659497178
 20
13.17471352297442
 30
0.0
 10
-29.31313846121824
 20
13.24096479252355
 30
0.0
 10
-29.24298827117208
 20
13.30455569066086
 30
0.0
 10
-29.16241727604472
 20
13.3669572998357
 30
0.0
 10
-29.06923538246981
 20
13.42789444152911
 30
0.0
 10
-28.96500531258816
 20
13.49148621492838
 30
0.0
 10
-28.88978219108445
 20
13.53215256178878
 30
0.0
 10
-28.85037966690015
 20
13.55345394736842
 30
0.0
  0
SPLINE
  5
135
330
1F
100
AcDbEntity
  8
0
  6
Continuous
 62
     7
370
    25
100
AcDbSpline
210
0.0
220
0.0
230
1.0
 70
     8
 71
     3
 72
    23
 73
    19
 74
     0
 42
0.00000001
 43
0.00000001
 40
0.0
 40
0.0
 40
0.0
 40
0.0
 40
0.0675653923083141
 40
0.1328461120883132
 40
0.1959274669804933
 40
0.2581495501592826
 40
0.318959007384164
 40
0.3791072821436615
 40
0.4379421226971268
 40
0.4970620650332452
 40
0.5557454085966709
 40
0.6152132724973975
 40
0.675603027532642
 40
0.7372501931644292
 40
0.8002620714753301
 40
0.8650386854889686
 40
0.931273462804883
 40
1.0
 40
1.0
 40
1.0
 40
1.0
 10
-30.56008361426857
 20
13.93667763157894
 30
0.0
 10
-30.52524678016588
 20
13.93580829487008
 30
0.0
 10
-30.45675109310037
 20
13.93409901741423
 30
0.0
 10
-30.3561280230615
 20
13.92300387241728
 30
0.0
 10
-30.26005963926464
 20
13.9017250845685
 30
0.0
 10
-30.1679601109384
 20
13.8742895530345
 30
0.0
 10
-30.08053004032095
 20
13.8382729004247
 30
0.0
 10
-29.99723592970679
 20
13.79720665686191
 30
0.0
 10
-29.92032528214709
 20
13.74670688258614
 30
0.0
 10
-29.84798945914061
 20
13.69120792685817
 30
0.0
 10
-29.78091675054157
 20
13.62891596299671
 30
0.0
 10
-29.71893482430432
 20
13.56065152345169
 30
0.0
 10
-29.66324803413677
 20
13.48527998350591
 30
0.0
 10
-29.61198869525197
 20
13.40469187218935
 30
0.0
 10
-29.56678954485368
 20
13.31796207491918
 30
0.0
 10
-29.52734412084757
 20
13.22592566340232
 30
0.0
 10
-29.4941771841778
 20
13.12827206353212
 30
0.0
 10
-29.47736301977089
 20
13.06071696560009
 30
0.0
 10
-29.46880071953172
 20
13.02631578947368
 30
0.0
  0
SPLINE
  5
136
330
1F
100
AcDbEntity
  8
0
  6
Continuous
 62
     7
370
    25
100
AcDbSpline
210
0.0
220
0.0
230
1.0
 70
     8
 71
     3
 72
    23
 73
    19
 74
     0
 42
0.00000001
 43
0.00000001
 40
0.0
 40
0.0
 40
0.0
 40
0.0
 40
0.0628003629523881
 40
0.1255353106354624
 40
0.1870756281522972
 40
0.2493351274101925
 40
0.3108174766701079
 40
0.371116219245637
 40
0.4305122350739161
 40
0.4897424747675757
 40
0.5490018955147093
 40
0.6083014167633837
 40
0.6682857503449018
 40
0.7300993637157992
 40
0.7936437618251443
 40
0.8591639300825754
 40
0.9278718409935555
 40
1.0
 40
1.0
 40
1.0
 40
1.0
 10
-31.62011650900541
 20
12.76809210526315
 30
0.0
 10
-31.61941280158124
 20
12.80514252061234
 30
0.0
 10
-31.61800611974158
 20
12.87920475817552
 30
0.0
 10
-31.60399619312007
 20
12.98879092445441
 30
0.0
 10
-31.58378348416195
 20
13.09699113718125
 30
0.0
 10
-31.55417419610192
 20
13.20230334384969
 30
0.0
 10
-31.51672785318284
 20
13.3043104806612
 30
0.0
 10
-31.47032853209084
 20
13.40070188632672
 30
0.0
 10
-31.4168686014962
 20
13.49183828241929
 30
0.0
 10
-31.35491271224242
 20
13.57665061188225
 30
0.0
 10
-31.28546199787366
 20
13.65553940768246
 30
0.0
 10
-31.20541004882987
 20
13.72428205656622
 30
0.0
 10
-31.11870472140253
 20
13.78690326059813
 30
0.0
 10
-31.02301073166582
 20
13.84013059603239
 30
0.0
 10
-30.91927755854594
 20
13.88467665345383
 30
0.0
 10
-30.80615460465849
 20
13.91416438805793
 30
0.0
 10
-30.6857897805759
 20
13.93407592768088
 30
0.0
 10
-30.60265862509232
 20
13.93579646898467
 30
0.0
 10
-30.56008361426857
 20
13.93667763157895
 30
0.0
  0
SPLINE
  5
13C
330
1F
100
AcDbEntity
  8
0
  6
Continuous
 62
     7
370
    25
100
AcDbSpline
210
0.0
220
0.0
230
1.0
 70
     8
 71
     3
 72
    17
 73
    13
 74
     0
 42
0.00000001
 43
0.00000001
 40
0.0
 40
0.0
 40
0.0
 40
0.0
 40
0.090306150944449
 40
0.1742376591111624
 40
0.2524256030519532
 40
0.3243953603022628
 40
0.4534835043972807
 40
0.5685456425298342
 40
0.6747387141096339
 40
0.7774944003382126
 40
0.8836602936421488
 40
1.0
 40
1.0
 40
1.0
 40
1.0
 10
-28.76403098268962
 20
13.18996710526315
 30
0.0
 10
-28.79119054659241
 20
13.1752113669045
 30
0.0
 10
-28.84359250135864
 20
13.14674148657875
 30
0.0
 10
-28.91916313469185
 20
13.10473724096079
 30
0.0
 10
-28.98600303532541
 20
13.06047538610599
 30
0.0
 10
-29.06530220221795
 20
13.00706401147237
 30
0.0
 10
-29.14879643020459
 20
12.93777315712853
 30
0.0
 10
-29.23128503179523
 20
12.85003204769128
 30
0.0
 10
-29.29100746956781
 20
12.75580277662331
 30
0.0
 10
-29.33193007403942
 20
12.65532304737236
 30
0.0
 10
-29.3528582523682
 20
12.54528264195298
 30
0.0
 10
-29.35555078924937
 20
12.46910611918871
 30
0.0
 10
-29.35695861426857
 20
12.42927631578947
 30
0.0
  0
SPLINE
  5
142
330
1F
100
AcDbEntity
  8
0
  6
Continuous
 62
     7
370
    25
100
AcDbSpline
210
0.0
220
0.0
230
1.0
 70
     8
 71
     3
 72
    11
 73
     7
 74
     0
 42
0.00000001
 43
0.00000001
 40
0.0
 40
0.0
 40
0.0
 40
0.0
 40
0.2640059550637833
 40
0.5031158761452407
 40
0.7412070555985878
 40
1.0
 40
1.0
 40
1.0
 40
1.0
 10
-28.2089322984791
 20
-4.050164473684218
 30
0.0
 10
-28.24452275827375
 20
-4.03769607770968
 30
0.0
 10
-28.3123474607797
 20
-4.013935068366767
 30
0.0
 10
-28.41299947157697
 20
-3.981062245845605
 30
0.0
 10
-28.51135780173077
 20
-3.943789375290954
 30
0.0
 10
-28.57638162644542
 20
-3.915320769861647
 30
0.0
 10
-28.61024808795278
 20
-3.900493421052639
 30
0.0
  0
SPLINE
  5
144
330
1F
100
AcDbEntity
  8
0
  6
Continuous
 62
     7
370
    25
100
AcDbSpline
210
0.0
220
0.0
230
1.0
 70
     8
 71
     3
 72
    11
 73
     7
 74
     0
 42
0.00000001
 43
0.00000001
 40
0.0
 40
0.0
 40
0.0
 40
0.0
 40
0.2419776158602557
 40
0.485967062146423
 40
0.7373789664528873
 40
1.0
 40
1.0
 40
1.0
 40
1.0
 10
-28.61353756163699
 20
-4.222861842105271
 30
0.0
 10
-28.58152483418055
 20
-4.208739711774427
 30
0.0
 10
-28.5172332216775
 20
-4.180378038056259
 30
0.0
 10
-28.41858576343212
 20
-4.139948292519027
 30
0.0
 10
-28.316418784638
 20
-4.100088240487202
 30
0.0
 10
-28.24527823003531
 20
-4.078475981267981
 30
0.0
 10
-28.2089322984791
 20
-4.067434210526324
 30
0.0
  0
SPLINE
  5
14A
330
1F
100
AcDbEntity
  8
0
  6
Continuous
 62
     7
370
    25
100
AcDbSpline
210
0.0
220
0.0
230
1.0
 70
     8
 71
     3
 72
    11
 73
     7
 74
     0
 42
0.00000001
 43
0.00000001
 40
0.0
 40
0.0
 40
0.0
 40
0.0
 40
0.2087970689832575
 40
0.4447510523956796
 40
0.7080639909858902
 40
1.0
 40
1.0
 40
1.0
 40
1.0
 10
-31.07077440374226
 20
-5.668585526315797
 30
0.0
 10
-31.02501195251498
 20
-5.665264152106411
 30
0.0
 10
-30.92753501740926
 20
-5.658189413547011
 30
0.0
 10
-30.77199931468975
 20
-5.6535576786352
 30
0.0
 10
-30.59821644270756
 20
-5.648710252370578
 30
0.0
 10
-30.47620687665913
 20
-5.648800981240171
 30
0.0
 10
-30.4120572984791
 20
-5.648848684210535
 30
0.0
  0
SPLINE
  5
14C
330
1F
100
AcDbEntity
  8
0
  6
Continuous
 62
     7
370
    25
100
AcDbSpline
210
0.0
220
0.0
230
1.0
 70
     8
 71
     3
 72
    11
 73
     7
 74
     0
 42
0.00000001
 43
0.00000001
 40
0.0
 40
0.0
 40
0.0
 40
0.0
 40
0.1993605518144793
 40
0.4330487721847199
 40
0.6989987914424818
 40
1.0
 40
1.0
 40
1.0
 40
1.0
 10
-30.6776822984791
 20
-5.532894736842112
 30
0.0
 10
-30.70307931166843
 20
-5.543291408295271
 30
0.0
 10
-30.75824642110255
 20
-5.565874942332577
 30
0.0
 10
-30.84949630046421
 20
-5.596521382621251
 30
0.0
 10
-30.95519210460131
 20
-5.627708412726011
 30
0.0
 10
-31.03069108780081
 20
-5.647426282972881
 30
0.0
 10
-31.07077440374226
 20
-5.657894736842112
 30
0.0
  0
SPLINE
  5
150
330
1F
100
AcDbEntity
  8
0
  6
Continuous
 62
     7
370
    25
100
AcDbSpline
210
0.0
220
0.0
230
1.0
 70
     8
 71
     3
 72
    11
 73
     7
 74
     0
 42
0.00000001
 43
0.00000001
 40
0.0
 40
0.0
 40
0.0
 40
0.0
 40
0.3158042431710764
 40
0.5863844423323754
 40
0.8144942004560825
 40
1.0
 40
1.0
 40
1.0
 40
1.0
 10
-31.06501782479489
 20
-2.465460526315796
 30
0.0
 10
-31.02577608867198
 20
-2.477948058283967
 30
0.0
 10
-30.95291214193863
 20
-2.501134872988341
 30
0.0
 10
-30.8523092580571
 20
-2.535096019627989
 30
0.0
 10
-30.767924740918
 20
-2.564275350383398
 30
0.0
 10
-30.71868203371243
 20
-2.586326987499069
 30
0.0
 10
-30.69659677216331
 20
-2.596217105263165
 30
0.0
  0
SPLINE
  5
152
330
1F
100
AcDbEntity
  8
0
  6
Continuous
 62
     7
370
    25
100
AcDbSpline
210
0.0
220
0.0
230
1.0
 70
     8
 71
     3
 72
    15
 73
    11
 74
     0
 42
0.00000001
 43
0.00000001
 40
0.0
 40
0.0
 40
0.0
 40
0.0
 40
0.0829337247880458
 40
0.1791087120155689
 40
0.2861307136514698
 40
0.405207161604511
 40
0.5364029656083941
 40
0.6784660714640443
 40
0.8337976356715963
 40
1.0
 40
1.0
 40
1.0
 40
1.0
 10
-30.38162966690015
 20
-2.487664473684218
 30
0.0
 10
-30.40054483620619
 20
-2.487430305296833
 30
0.0
 10
-30.44139518533281
 20
-2.486924581016797
 30
0.0
 10
-30.50663910555378
 20
-2.485223563692939
 30
0.0
 10
-30.58010173574572
 20
-2.482665693048689
 30
0.0
 10
-30.6615434646022
 20
-2.479610474603036
 30
0.0
 10
-30.75088139858854
 20
-2.474362901844599
 30
0.0
 10
-30.84846917724854
 20
-2.468619008543858
 30
0.0
 10
-30.95401025342257
 20
-2.462086047550279
 30
0.0
 10
-31.02719057861626
 20
-2.457262863057341
 30
0.0
 10
-31.06501782479489
 20
-2.454769736842112
 30
0.0
  0
SPLINE
  5
156
330
1F
100
AcDbEntity
  8
0
  6
Continuous
 62
     7
370
    25
100
AcDbSpline
210
0.0
220
0.0
230
1.0
 70
     8
 71
     3
 72
    23
 73
    19
 74
     0
 42
0.00000001
 43
0.00000001
 40
0.0
 40
0.0
 40
0.0
 40
0.0
 40
0.0762178736093208
 40
0.1479437211047028
 40
0.215564235595447
 40
0.2795405952973975
 40
0.3403278701227127
 40
0.3985084020800874
 40
0.4550205653485305
 40
0.5103707701504113
 40
0.5655227090780738
 40
0.6207529958746938
 40
0.6772951909268049
 40
0.735489484629992
 40
0.7963394313806033
 40
0.8603222993337792
 40
0.9280743686080979
 40
1.0
 40
1.0
 40
1.0
 40
1.0
 10
-17.69561143620291
 20
31.01891447368423
 30
0.0
 10
-17.69402801568144
 20
31.1221247842385
 30
0.0
 10
-17.69095449613902
 20
31.32246253543371
 30
0.0
 10
-17.66176429770627
 20
31.6131892071438
 30
0.0
 10
-17.61423247326188
 20
31.88459450430832
 30
0.0
 10
-17.54645838547343
 20
32.1364716787815
 30
0.0
 10
-17.46016329271071
 20
32.36898818981481
 30
0.0
 10
-17.35555258785965
 20
32.58287254359855
 30
0.0
 10
-17.22917051183505
 20
32.77593573063125
 30
0.0
 10
-17.08455637995253
 20
32.95044432884011
 30
0.0
 10
-16.92016785019662
 20
33.10398806672295
 30
0.0
 10
-16.73763435448548
 20
33.23815588782589
 30
0.0
 10
-16.5359259406227
 20
33.3501065559585
 30
0.0
 10
-16.31611353660558
 20
33.44162856663345
 30
0.0
 10
-16.07866267131795
 20
33.51408165131252
 30
0.0
 10
-15.8222298227814
 20
33.56300585205719
 30
0.0
 10
-15.54797286467249
 20
33.59479852082144
 30
0.0
 10
-15.35880896384672
 20
33.59831340229336
 30
0.0
 10
-15.26140090988712
 20
33.60012335526318
 30
0.0
  0
SPLINE
  5
15A
330
1F
100
AcDbEntity
  8
0
  6
Continuous
 62
     7
370
    25
100
AcDbSpline
210
0.0
220
0.0
230
1.0
 70
     8
 71
     3
 72
    23
 73
    19
 74
     0
 42
0.00000001
 43
0.00000001
 40
0.0
 40
0.0
 40
0.0
 40
0.0
 40
0.0680073205009113
 40
0.1335046666699025
 40
0.1965698537511435
 40
0.2581462996780465
 40
0.3181101090034869
 40
0.3767727085740317
 40
0.4343998870868166
 40
0.4919448913542033
 40
0.5498959140999763
 40
0.6082375727659125
 40
0.6680714119739587
 40
0.7296215748620896
 40
0.793391062369886
 40
0.8591108363146669
 40
0.9280420371889885
 40
1.0
 40
1.0
 40
1.0
 40
1.0
 10
-15.26140090988712
 20
33.60012335526318
 30
0.0
 10
-15.16707516224265
 20
33.59799516785077
 30
0.0
 10
-14.98190498637171
 20
33.59381733891981
 30
0.0
 10
-14.71089848939118
 20
33.5597320401105
 30
0.0
 10
-14.4533897190067
 20
33.50159168055644
 30
0.0
 10
-14.20929054501148
 20
33.4231061412792
 30
0.0
 10
-13.9803192631138
 20
33.32196499351502
 30
0.0
 10
-13.76739215186334
 20
33.20094118107878
 30
0.0
 10
-13.5730182593293
 20
33.05752097463901
 30
0.0
 10
-13.39516639144851
 20
32.89561363739075
 30
0.0
 10
-13.23569714023633
 20
32.71420099169224
 30
0.0
 10
-13.09454181891358
 20
32.51427910300163
 30
0.0
 10
-12.97460190821872
 20
32.29527223917415
 30
0.0
 10
-12.87352166737525
 20
32.05883955518748
 30
0.0
 10
-12.7935908407541
 20
31.80582200127508
 30
0.0
 10
-12.73584874811404
 20
31.53642745284444
 30
0.0
 10
-12.70186467181515
 20
31.25142508642229
 30
0.0
 10
-12.69772548915275
 20
31.05601364304794
 30
0.0
 10
-12.69561143620291
 20
30.95620888157897
 30
0.0
  0
CIRCLE
  5
15B
330
1F
100
AcDbEntity
  8
0
  6
Continuous
 62
     7
370
    25
100
AcDbCircle
 10
-59.8043885638
 20
-72.5
 30
0.0
 40
2.350000000000009
  0
CIRCLE
  5
15C
330
1F
100
AcDbEntity
  8
0
  6
Continuous
 62
     7
370
    25
100
AcDbCircle
 10
-51.8243885638
 20
72.5
 30
0.0
 40
1.599999999999994
  0
CIRCLE
  5
15D
330
1F
100
AcDbEntity
  8
0
  6
Continuous
 62
     7
370
    25
100
AcDbCircle
 10
-35.8643885638
 20
72.5
 30
0.0
 40
1.600000000000009
  0
CIRCLE
  5
15E
330
1F
100
AcDbEntity
  8
0
  6
Continuous
 62
     7
370
    25
100
AcDbCircle
 10
53.3043885638
 20
72.5
 30
0.0
 40
1.599999999999994
  0
CIRCLE
  5
15F
330
1F
100
AcDbEntity
  8
0
  6
Continuous
 62
     7
370
    25
100
AcDbCircle
 10
-43.8443885638
 20
-72.5
 30
0.0
 40
2.349999999999994
  0
CIRCLE
  5
160
330
1F
100
AcDbEntity
  8
0
  6
Continuous
 62
     7
370
    25
100
AcDbCircle
 10
61.2843885638
 20
-72.5
 30
0.0
 40
2.349999999999994
  0
CIRCLE
  5
161
330
1F
100
AcDbEntity
  8
0
  6
Continuous
 62
     7
370
    25
100
AcDbCircle
 10
61.2843885638
 20
72.5
 30
0.0
 40
2.349999999999994
  0
CIRCLE
  5
162
330
1F
100
AcDbEntity
  8
0
  6
Continuous
 62
     7
370
    25
100
AcDbCircle
 10
-43.8443885638
 20
72.5
 30
0.0
 40
2.349999999999994
  0
CIRCLE
  5
163
330
1F
100
AcDbEntity
  8
0
  6
Continuous
 62
     7
370
    25
100
AcDbCircle
 10
-59.8043885638
 20
72.5
 30
0.0
 40
2.350000000000009
  0
CIRCLE
  5
164
330
1F
100
AcDbEntity
  8
0
  6
Continuous
 62
     7
370
    25
100
AcDbCircle
 10
-51.8243885638
 20
-72.5
 30
0.0
 40
1.599999999999994
  0
CIRCLE
  5
165
330
1F
100
AcDbEntity
  8
0
  6
Continuous
 62
     7
370
    25
100
AcDbCircle
 10
-35.8643885638
 20
-72.5
 30
0.0
 40
1.599999999999994
  0
CIRCLE
  5
166
330
1F
100
AcDbEntity
  8
0
  6
Continuous
 62
     7
370
    25
100
AcDbCircle
 10
53.3043885638
 20
-72.5
 30
0.0
 40
1.600000000000009
  0
SPLINE
  5
167
330
1F
100
AcDbEntity
  8
0
  6
Continuous
 62
     7
370
    25
100
AcDbSpline
210
0.0
220
0.0
230
1.0
 70
     8
 71
     3
 72
    15
 73
    11
 74
     0
 42
0.00000001
 43
0.00000001
 40
0.0
 40
0.0
 40
0.0
 40
0.0
 40
0.134056365134935
 40
0.2646845492881197
 40
0.3915005118482069
 40
0.5160564650742782
 40
0.6385883414574566
 40
0.7601354907996726
 40
0.8800614194585885
 40
1.0
 40
1.0
 40
1.0
 40
1.0
 10
-13.02455880462395
 20
-30.97676809210528
 30
0.0
 10
-13.02548768490369
 20
-30.91779202149903
 30
0.0
 10
-13.02732169150186
 20
-30.80134805666762
 30
0.0
 10
-13.04360309672526
 20
-30.62979950632716
 30
0.0
 10
-13.06730665162643
 20
-30.46333838991201
 30
0.0
 10
-13.10419610595396
 20
-30.30294329063842
 30
0.0
 10
-13.14862019691665
 20
-30.14686897179531
 30
0.0
 10
-13.20585449099705
 20
-29.99720427782968
 30
0.0
 10
-13.27110690265439
 20
-29.85205574078307
 30
0.0
 10
-13.32329760389517
 20
-29.76030857055137
 30
0.0
 10
-13.34939433093974
 20
-29.71443256578949
 30
0.0
  0
SPLINE
  5
16B
330
1F
100
AcDbEntity
  8
0
  6
Continuous
 62
     7
370
    25
100
AcDbSpline
210
0.0
220
0.0
230
1.0
 70
     8
 71
     3
 72
    23
 73
    19
 74
     0
 42
0.00000001
 43
0.00000001
 40
0.0
 40
0.0
 40
0.0
 40
0.0
 40
0.071630457021997
 40
0.1397814394181729
 40
0.2050047116975637
 40
0.2673604475335132
 40
0.3274779992220234
 40
0.385457382405134
 40
0.442410727922011
 40
0.4985816679517591
 40
0.5548768280617187
 40
0.6114472266550167
 40
0.6697288891074542
 40
0.7299142422963745
 40
0.7925261999908176
 40
0.8580971128101499
 40
0.9271920429522735
 40
0.9999999999999999
 40
0.9999999999999999
 40
0.9999999999999999
 40
0.9999999999999999
 10
-13.09034827830817
 20
30.93564967105265
 30
0.0
 10
-13.09226472112641
 20
31.01896896017485
 30
0.0
 10
-13.09600451487941
 20
31.18156027466588
 30
0.0
 10
-13.121049528966
 20
31.41910524348392
 30
0.0
 10
-13.16683547734827
 20
31.64240353892676
 30
0.0
 10
-13.22775828726679
 20
31.85241350394192
 30
0.0
 10
-13.30748600877586
 20
32.04693299759793
 30
0.0
 10
-13.40158137897082
 20
32.22799339258848
 30
0.0
 10
-13.51578093397709
 20
32.39159526487909
 30
0.0
 10
-13.64483713767062
 20
32.54100420555829
 30
0.0
 10
-13.79023369672944
 20
32.67408111327209
 30
0.0
 10
-13.95236912028625
 20
32.7904280919453
 30
0.0
 10
-14.13112556962767
 20
32.8887764033467
 30
0.0
 10
-14.32529075769638
 20
32.9712955093903
 30
0.0
 10
-14.53501233994333
 20
33.03612702319558
 30
0.0
 10
-14.76019406918654
 20
33.08178724370207
 30
0.0
 10
-15.00026761597811
 20
33.10997331844992
 30
0.0
 10
-15.16537801010074
 20
33.11324654829839
 30
0.0
 10
-15.25009334409765
 20
33.11492598684212
 30
0.0
  0
SPLINE
  5
16C
330
1F
100
AcDbEntity
  8
0
  6
Continuous
 62
     7
370
    25
100
AcDbSpline
210
0.0
220
0.0
230
1.0
 70
     8
 71
     3
 72
    23
 73
    19
 74
     0
 42
0.00000001
 43
0.00000001
 40
0.0
 40
0.0
 40
0.0
 40
0.0
 40
0.0734343548101918
 40
0.1423615037738737
 40
0.2072532380817124
 40
0.2687836330146051
 40
0.3274120668520312
 40
0.3840024217681691
 40
0.439037047200544
 40
0.4933448667236641
 40
0.5482154591484811
 40
0.6038162540025458
 40
0.6615960663544994
 40
0.7218691347304254
 40
0.7853623799404936
 40
0.8525275491773929
 40
0.9238375433427543
 40
1.0
 40
1.0
 40
1.0
 40
1.0
 10
-15.25009334409765
 20
33.11492598684212
 30
0.0
 10
-15.33307232386188
 20
33.11341278537992
 30
0.0
 10
-15.49393725379
 20
33.11047925874613
 30
0.0
 10
-15.72719539373184
 20
33.08605163288667
 30
0.0
 10
-15.94398409351371
 20
33.04352255683025
 30
0.0
 10
-16.14565620687865
 20
32.98709144272305
 30
0.0
 10
-16.3308993504128
 20
32.91138491709916
 30
0.0
 10
-16.50061691256367
 20
32.8200045448575
 30
0.0
 10
-16.65402965910085
 20
32.71139378009222
 30
0.0
 10
-16.79120896470432
 20
32.58574204253511
 30
0.0
 10
-16.91168090322056
 20
32.44317383754546
 30
0.0
 10
-17.01645873586756
 20
32.28405847303889
 30
0.0
 10
-17.10495894625423
 20
32.10846373695865
 30
0.0
 10
-17.17651485301615
 20
31.91587340980924
 30
0.0
 10
-17.23312658313804
 20
31.70741034822401
 30
0.0
 10
-17.27258454713612
 20
31.48239650167152
 30
0.0
 10
-17.29628736903577
 20
31.24077897636183
 30
0.0
 10
-17.29931234098658
 20
31.07413782840642
 30
0.0
 10
-17.30087459409764
 20
30.98807565789475
 30
0.0
  0
SPLINE
  5
16D
330
1F
100
AcDbEntity
  8
0
  6
Continuous
 62
     7
370
    25
100
AcDbSpline
210
0.0
220
0.0
230
1.0
 70
     8
 71
     3
 72
    23
 73
    19
 74
     0
 42
0.00000001
 43
0.00000001
 40
0.0
 40
0.0
 40
0.0
 40
0.0
 40
0.0778428973659216
 40
0.1513120136756296
 40
0.2209448241285468
 40
0.2864281429781916
 40
0.3490242413775825
 40
0.4084795967207319
 40
0.4666485224012894
 40
0.5234575419774875
 40
0.5795683380556074
 40
0.6350152184705783
 40
0.6906842838840398
 40
0.7478659172411869
 40
0.8068505890910906
 40
0.8681005618968842
 40
0.932455266956691
 40
1.0
 40
1.0
 40
1.0
 40
1.0
 10
-29.51485335111068
 20
-0.2187500000000028
 30
0.0
 10
-29.5157863226875
 20
-0.1773442867770985
 30
0.0
 10
-29.5175998447013
 20
-0.0968593349390122
 30
0.0
 10
-29.52749162959037
 20
0.0204462970958891
 30
0.0
 10
-29.54784900598802
 20
0.1296462174913419
 30
0.0
 10
-29.57341964892418
 20
0.2318335293286459
 30
0.0
 10
-29.60840387528875
 20
0.3254248529844534
 30
0.0
 10
-29.64908746201489
 20
0.4124915403792876
 30
0.0
 10
-29.70000719400254
 20
0.4903403226930496
 30
0.0
 10
-29.75650156104856
 20
0.5619544061590315
 30
0.0
 10
-29.82118275773929
 20
0.6242322847158714
 30
0.0
 10
-29.89124070505605
 20
0.6794367275813809
 30
0.0
 10
-29.96888132249022
 20
0.7244605553303316
 30
0.0
 10
-30.05201598180269
 20
0.7629591846239286
 30
0.0
 10
-30.14236546718958
 20
0.7909562846027292
 30
0.0
 10
-30.2381937227234
 20
0.812908064235017
 30
0.0
 10
-30.3404764042842
 20
0.82499050544441
 30
0.0
 10
-30.41065753223641
 20
0.8265195956966627
 30
0.0
 10
-30.4465967721633
 20
0.8273026315789443
 30
0.0
  0
SPLINE
  5
171
330
1F
100
AcDbEntity
  8
0
  6
Continuous
 62
     7
370
    25
100
AcDbSpline
210
0.0
220
0.0
230
1.0
 70
     8
 71
     3
 72
    23
 73
    19
 74
     0
 42
0.00000001
 43
0.00000001
 40
0.0
 40
0.0
 40
0.0
 40
0.0
 40
0.0694281043200055
 40
0.1348526080322137
 40
0.196726519301631
 40
0.25575203524011
 40
0.3124380624862404
 40
0.3674881399735784
 40
0.4215743742803483
 40
0.475300704507068
 40
0.5306911427165183
 40
0.5872513584940311
 40
0.6466250803752294
 40
0.7094808699435631
 40
0.7751827932904392
 40
0.8455132188579081
 40
0.9201350403204013
 40
1.0
 40
1.0
 40
1.0
 40
1.0
 10
-30.4465967721633
 20
0.8273026315789443
 30
0.0
 10
-30.48117196209556
 20
0.8265080201148814
 30
0.0
 10
-30.54832854920447
 20
0.8249646187884203
 30
0.0
 10
-30.64570862844081
 20
0.8132026965239556
 30
0.0
 10
-30.73676734818285
 20
0.7947882254254175
 30
0.0
 10
-30.82106435043517
 20
0.7674593090857271
 30
0.0
 10
-30.89884359237413
 20
0.7328193405122039
 30
0.0
 10
-30.97039825495607
 20
0.6910974915408551
 30
0.0
 10
-31.03368997901709
 20
0.6400895665491158
 30
0.0
 10
-31.09179451842789
 20
0.5829807560410528
 30
0.0
 10
-31.14130291227704
 20
0.5167001374684073
 30
0.0
 10
-31.1856223479793
 20
0.4436545456422851
 30
0.0
 10
-31.22244130298638
 20
0.3624035080371329
 30
0.0
 10
-31.25281027775855
 20
0.2737458883635759
 30
0.0
 10
-31.27538943332996
 20
0.1772173743454188
 30
0.0
 10
-31.29290125639453
 20
0.0737339177027959
 30
0.0
 10
-31.30252922923085
 20
-0.0379204091860259
 30
0.0
 10
-31.30371435921982
 20
-0.1148401172920774
 30
0.0
 10
-31.3043270353212
 20
-0.1546052631578975
 30
0.0
  0
LINE
  5
172
330
1F
100
AcDbEntity
  8
0
  6
Continuous
 62
     7
370
    25
100
AcDbLine
 10
-29.672748088
 20
11.9909539474
 30
0.0
 11
-29.672748088
 21
12.6513157895
 31
0.0
  0
LINE
  5
173
330
1F
100
AcDbEntity
  8
0
  6
Continuous
 62
     7
370
    25
100
AcDbLine
 10
-31.3043270353
 20
12.6817434211
 30
0.0
 11
-31.3043270353
 21
11.9909539474
 31
0.0
  0
LINE
  5
174
330
1F
100
AcDbEntity
  8
0
  6
Continuous
 62
     7
370
    25
100
AcDbLine
 10
-31.3043270353
 20
11.9909539474
 30
0.0
 11
-29.672748088
 21
11.9909539474
 31
0.0
  0
LINE
  5
175
330
1F
100
AcDbEntity
  8
0
  6
Continuous
 62
     7
370
    25
100
AcDbLine
 10
-17.5681443309
 20
-29.7144325658
 30
0.0
 11
-17.0767791994
 21
-29.7144325658
 31
0.0
  0
LINE
  5
176
330
1F
100
AcDbEntity
  8
0
  6
Continuous
 62
     7
370
    25
100
AcDbLine
 10
-13.3493943309
 20
-29.7144325658
 30
0.0
 11
-12.9001755809
 21
-29.7144325658
 31
0.0
  0
LINE
  5
177
330
1F
100
AcDbEntity
  8
0
  6
Continuous
 62
     7
370
    25
100
AcDbLine
 10
-27.9359059827
 20
9.1488486842
 30
0.0
 11
-27.9359059827
 21
10.8083881579
 31
0.0
  0
LINE
  5
178
330
1F
100
AcDbEntity
  8
0
  6
Continuous
 62
     7
370
    25
100
AcDbLine
 10
-29.5148533511
 20
9.1488486842
 30
0.0
 11
-27.9359059827
 21
9.1488486842
 31
0.0
  0
LINE
  5
179
330
1F
100
AcDbEntity
  8
0
  6
Continuous
 62
     7
370
    25
100
AcDbLine
 10
-29.5148533511
 20
10.6027960526
 30
0.0
 11
-29.5148533511
 21
9.1488486842
 31
0.0
  0
LINE
  5
17A
330
1F
100
AcDbEntity
  8
0
  6
Continuous
 62
     7
370
    25
100
AcDbLine
 10
-29.8306428248
 20
10.6027960526
 30
0.0
 11
-29.5148533511
 21
10.6027960526
 31
0.0
  0
LINE
  5
17B
330
1F
100
AcDbEntity
  8
0
  6
Continuous
 62
     7
370
    25
100
AcDbLine
 10
-29.8306428248
 20
9.1488486842
 30
0.0
 11
-29.8306428248
 21
10.6027960526
 31
0.0
  0
LINE
  5
17C
330
1F
100
AcDbEntity
  8
0
  6
Continuous
 62
     7
370
    25
100
AcDbLine
 10
-31.3043270353
 20
9.1488486842
 30
0.0
 11
-29.8306428248
 21
9.1488486842
 31
0.0
  0
LINE
  5
17D
330
1F
100
AcDbEntity
  8
0
  6
Continuous
 62
     7
370
    25
100
AcDbLine
 10
-31.3043270353
 20
10.7195723684
 30
0.0
 11
-31.3043270353
 21
9.1488486842
 31
0.0
  0
LINE
  5
17E
330
1F
100
AcDbEntity
  8
0
  6
Continuous
 62
     7
370
    25
100
AcDbLine
 10
-31.620116509
 20
10.7195723684
 30
0.0
 11
-31.3043270353
 21
10.7195723684
 31
0.0
  0
LINE
  5
17F
330
1F
100
AcDbEntity
  8
0
  6
Continuous
 62
     7
370
    25
100
AcDbLine
 10
-31.620116509
 20
8.7796052632
 30
0.0
 11
-31.620116509
 21
10.7195723684
 31
0.0
  0
LINE
  5
180
330
1F
100
AcDbEntity
  8
0
  6
Continuous
 62
     7
370
    25
100
AcDbLine
 10
-27.620116509
 20
8.7796052632
 30
0.0
 11
-31.620116509
 21
8.7796052632
 31
0.0
  0
LINE
  5
181
330
1F
100
AcDbEntity
  8
0
  6
Continuous
 62
     7
370
    25
100
AcDbLine
 10
-27.620116509
 20
10.8083881579
 30
0.0
 11
-27.620116509
 21
8.7796052632
 31
0.0
  0
LINE
  5
182
330
1F
100
AcDbEntity
  8
0
  6
Continuous
 62
     7
370
    25
100
AcDbLine
 10
-27.9359059827
 20
10.8083881579
 30
0.0
 11
-27.620116509
 21
10.8083881579
 31
0.0
  0
LINE
  5
183
330
1F
100
AcDbEntity
  8
0
  6
Continuous
 62
     7
370
    25
100
AcDbLine
 10
-31.620116509
 20
5.4547697368
 30
0.0
 11
-31.620116509
 21
8.1192434211
 31
0.0
  0
LINE
  5
184
330
1F
100
AcDbEntity
  8
0
  6
Continuous
 62
     7
370
    25
100
AcDbLine
 10
-31.3043270353
 20
5.4547697368
 30
0.0
 11
-31.620116509
 21
5.4547697368
 31
0.0
  0
LINE
  5
185
330
1F
100
AcDbEntity
  8
0
  6
Continuous
 62
     7
370
    25
100
AcDbLine
 10
-31.3043270353
 20
6.6011513158
 30
0.0
 11
-31.3043270353
 21
5.4547697368
 31
0.0
  0
LINE
  5
186
330
1F
100
AcDbEntity
  8
0
  6
Continuous
 62
     7
370
    25
100
AcDbLine
 10
-27.620116509
 20
6.6011513158
 30
0.0
 11
-31.3043270353
 21
6.6011513158
 31
0.0
  0
LINE
  5
187
330
1F
100
AcDbEntity
  8
0
  6
Continuous
 62
     7
370
    25
100
AcDbLine
 10
-27.620116509
 20
6.9703947368
 30
0.0
 11
-27.620116509
 21
6.6011513158
 31
0.0
  0
LINE
  5
188
330
1F
100
AcDbEntity
  8
0
  6
Continuous
 62
     7
370
    25
100
AcDbLine
 10
-31.3043270353
 20
6.9703947368
 30
0.0
 11
-27.620116509
 21
6.9703947368
 31
0.0
  0
LINE
  5
189
330
1F
100
AcDbEntity
  8
0
  6
Continuous
 62
     7
370
    25
100
AcDbLine
 10
-31.3043270353
 20
8.1192434211
 30
0.0
 11
-31.3043270353
 21
6.9703947368
 31
0.0
  0
LINE
  5
18A
330
1F
100
AcDbEntity
  8
0
  6
Continuous
 62
     7
370
    25
100
AcDbLine
 10
-31.620116509
 20
8.1192434211
 30
0.0
 11
-31.3043270353
 21
8.1192434211
 31
0.0
  0
LINE
  5
18B
330
1F
100
AcDbEntity
  8
0
  6
Continuous
 62
     7
370
    25
100
AcDbLine
 10
-29.157123088
 20
4.4851973684
 30
0.0
 11
-31.620116509
 21
4.4851973684
 31
0.0
  0
LINE
  5
18C
330
1F
100
AcDbEntity
  8
0
  6
Continuous
 62
     7
370
    25
100
AcDbLine
 10
-31.620116509
 20
2.3618421053
 30
0.0
 11
-29.1957744037
 21
2.3618421053
 31
0.0
  0
LINE
  5
18D
330
1F
100
AcDbEntity
  8
0
  6
Continuous
 62
     7
370
    25
100
AcDbLine
 10
-31.620116509
 20
1.9925986842
 30
0.0
 11
-31.620116509
 21
2.3618421053
 31
0.0
  0
LINE
  5
18E
330
1F
100
AcDbEntity
  8
0
  6
Continuous
 62
     7
370
    25
100
AcDbLine
 10
-29.1760375616
 20
1.9925986842
 30
0.0
 11
-31.620116509
 21
1.9925986842
 31
0.0
  0
LINE
  5
18F
330
1F
100
AcDbEntity
  8
0
  6
Continuous
 62
     7
370
    25
100
AcDbLine
 10
-31.620116509
 20
4.8544407895
 30
0.0
 11
-29.2368928248
 21
4.8544407895
 31
0.0
  0
LINE
  5
190
330
1F
100
AcDbEntity
  8
0
  6
Continuous
 62
     7
370
    25
100
AcDbLine
 10
-31.620116509
 20
4.4851973684
 30
0.0
 11
-31.620116509
 21
4.8544407895
 31
0.0
  0
LINE
  5
191
330
1F
100
AcDbEntity
  8
0
  6
Continuous
 62
     7
370
    25
100
AcDbLine
 10
-31.620116509
 20
-1.1151315789
 30
0.0
 11
-31.620116509
 21
-0.0879934211
 31
0.0
  0
LINE
  5
192
330
1F
100
AcDbEntity
  8
0
  6
Continuous
 62
     7
370
    25
100
AcDbLine
 10
-27.620116509
 20
-1.1151315789
 30
0.0
 11
-31.620116509
 21
-1.1151315789
 31
0.0
  0
LINE
  5
193
330
1F
100
AcDbEntity
  8
0
  6
Continuous
 62
     7
370
    25
100
AcDbLine
 10
-27.620116509
 20
-0.7458881579
 30
0.0
 11
-27.620116509
 21
-1.1151315789
 31
0.0
  0
LINE
  5
194
330
1F
100
AcDbEntity
  8
0
  6
Continuous
 62
     7
370
    25
100
AcDbLine
 10
-29.1990638774
 20
-0.7458881579
 30
0.0
 11
-27.620116509
 21
-0.7458881579
 31
0.0
  0
LINE
  5
195
330
1F
100
AcDbEntity
  8
0
  6
Continuous
 62
     7
370
    25
100
AcDbLine
 10
-29.1990638774
 20
-0.1965460526
 30
0.0
 11
-29.1990638774
 21
-0.7458881579
 31
0.0
  0
LINE
  5
196
330
1F
100
AcDbEntity
  8
0
  6
Continuous
 62
     7
370
    25
100
AcDbLine
 10
-31.5181428248
 20
-11.1768092105
 30
0.0
 11
-31.1250507195
 21
-11.1768092105
 31
0.0
  0
LINE
  5
197
330
1F
100
AcDbEntity
  8
0
  6
Continuous
 62
     7
370
    25
100
AcDbLine
 10
-28.1431428248
 20
-11.1768092105
 30
0.0
 11
-27.7837678248
 21
-11.1768092105
 31
0.0
  0
LINE
  5
198
330
1F
100
AcDbEntity
  8
0
  6
Continuous
 62
     7
370
    25
100
AcDbLine
 10
15.3043885638
 20
-39.65
 30
0.0
 11
15.3043885638
 21
-35.65
 31
0.0
  0
LINE
  5
199
330
1F
100
AcDbEntity
  8
0
  6
Continuous
 62
     7
370
    25
100
AcDbLine
 10
7.3043885638
 20
-35.65
 30
0.0
 11
15.3043885638
 21
-35.65
 31
0.0
  0
LINE
  5
19A
330
1F
100
AcDbEntity
  8
0
  6
Continuous
 62
     7
370
    25
100
AcDbLine
 10
7.3043885638
 20
-39.65
 30
0.0
 11
7.3043885638
 21
-35.65
 31
0.0
  0
LINE
  5
19B
330
1F
100
AcDbEntity
  8
0
  6
Continuous
 62
     7
370
    25
100
AcDbLine
 10
7.3043885638
 20
-39.65
 30
0.0
 11
15.3043885638
 21
-39.65
 31
0.0
  0
LINE
  5
19C
330
1F
100
AcDbEntity
  8
0
  6
Continuous
 62
     7
370
    25
100
AcDbLine
 10
7.3043885638
 20
35.65
 30
0.0
 11
15.3043885638
 21
35.65
 31
0.0
  0
LINE
  5
19D
330
1F
100
AcDbEntity
  8
0
  6
Continuous
 62
     7
370
    25
100
AcDbLine
 10
15.3043885638
 20
39.65
 30
0.0
 11
15.3043885638
 21
35.65
 31
0.0
  0
LINE
  5
19E
330
1F
100
AcDbEntity
  8
0
  6
Continuous
 62
     7
370
    25
100
AcDbLine
 10
7.3043885638
 20
39.65
 30
0.0
 11
15.3043885638
 21
39.65
 31
0.0
  0
LINE
  5
19F
330
1F
100
AcDbEntity
  8
0
  6
Continuous
 62
     7
370
    25
100
AcDbLine
 10
7.3043885638
 20
39.65
 30
0.0
 11
7.3043885638
 21
35.65
 31
0.0
  0
LINE
  5
1A0
330
1F
100
AcDbEntity
  8
0
  6
Continuous
 62
     7
370
    25
100
AcDbLine
 10
91.0
 20
-2.0
 30
0.0
 11
95.0
 21
-2.0
 31
0.0
  0
LINE
  5
1A1
330
1F
100
AcDbEntity
  8
0
  6
Continuous
 62
     7
370
    25
100
AcDbLine
 10
95.0
 20
-2.0
 30
0.0
 11
95.0
 21
2.0
 31
0.0
  0
LINE
  5
1A2
330
1F
100
AcDbEntity
  8
0
  6
Continuous
 62
     7
370
    25
100
AcDbLine
 10
95.0
 20
2.0
 30
0.0
 11
91.0
 21
2.0
 31
0.0
  0
LINE
  5
1A3
330
1F
100
AcDbEntity
  8
0
  6
Continuous
 62
     7
370
    25
100
AcDbLine
 10
91.0
 20
2.0
 30
0.0
 11
91.0
 21
-2.0
 31
0.0
  0
LINE
  5
1A4
330
1F
100
AcDbEntity
  8
0
  6
Continuous
 62
     7
370
    25
100
AcDbLine
 10
94.8017878285
 20
6.5398051042
 30
0.0
 11
94.4531648575
 21
10.5245838966
 31
0.0
  0
LINE
  5
1A5
330
1F
100
AcDbEntity
  8
0
  6
Continuous
 62
     7
370
    25
100
AcDbLine
 10
94.4531648575
 20
10.5245838966
 30
0.0
 11
90.4683860652
 21
10.1759609256
 31
0.0
  0
LINE
  5
1A6
330
1F
100
AcDbEntity
  8
0
  6
Continuous
 62
     7
370
    25
100
AcDbLine
 10
90.4683860652
 20
10.1759609256
 30
0.0
 11
90.8170090362
 21
6.1911821333
 31
0.0
  0
LINE
  5
1A7
330
1F
100
AcDbEntity
  8
0
  6
Continuous
 62
     7
370
    25
100
AcDbLine
 10
90.8170090362
 20
6.1911821333
 30
0.0
 11
94.8017878285
 21
6.5398051042
 31
0.0
  0
LINE
  5
1A8
330
1F
100
AcDbEntity
  8
0
  6
Continuous
 62
     7
370
    25
100
AcDbLine
 10
94.4531648575
 20
-10.5245838966
 30
0.0
 11
94.8017878285
 21
-6.5398051042
 31
0.0
  0
LINE
  5
1A9
330
1F
100
AcDbEntity
  8
0
  6
Continuous
 62
     7
370
    25
100
AcDbLine
 10
94.8017878285
 20
-6.5398051042
 30
0.0
 11
90.8170090362
 21
-6.1911821333
 31
0.0
  0
LINE
  5
1AA
330
1F
100
AcDbEntity
  8
0
  6
Continuous
 62
     7
370
    25
100
AcDbLine
 10
90.8170090362
 20
-6.1911821333
 30
0.0
 11
90.4683860652
 21
-10.1759609256
 31
0.0
  0
LINE
  5
1AB
330
1F
100
AcDbEntity
  8
0
  6
Continuous
 62
     7
370
    25
100
AcDbLine
 10
90.4683860652
 20
-10.1759609256
 30
0.0
 11
94.4531648575
 21
-10.5245838966
 31
0.0
  0
LINE
  5
1AC
330
1F
100
AcDbEntity
  8
0
  6
Continuous
 62
     7
370
    25
100
AcDbLine
 10
93.1654441468
 20
-18.9690693548
 30
0.0
 11
93.8600368574
 21
-15.0298383428
 31
0.0
  0
LINE
  5
1AD
330
1F
100
AcDbEntity
  8
0
  6
Continuous
 62
     7
370
    25
100
AcDbLine
 10
93.8600368574
 20
-15.0298383428
 30
0.0
 11
89.9208058454
 21
-14.3352456321
 31
0.0
  0
LINE
  5
1AE
330
1F
100
AcDbEntity
  8
0
  6
Continuous
 62
     7
370
    25
100
AcDbLine
 10
89.9208058454
 20
-14.3352456321
 30
0.0
 11
89.2262131347
 21
-18.2744766442
 31
0.0
  0
LINE
  5
1AF
330
1F
100
AcDbEntity
  8
0
  6
Continuous
 62
     7
370
    25
100
AcDbLine
 10
89.2262131347
 20
-18.2744766442
 30
0.0
 11
93.1654441468
 21
-18.9690693548
 31
0.0
  0
LINE
  5
1B0
330
1F
100
AcDbEntity
  8
0
  6
Continuous
 62
     7
370
    25
100
AcDbLine
 10
91.1466381998
 20
-27.2691887415
 30
0.0
 11
92.1819143803
 21
-23.4054854363
 31
0.0
  0
LINE
  5
1B1
330
1F
100
AcDbEntity
  8
0
  6
Continuous
 62
     7
370
    25
100
AcDbLine
 10
92.1819143803
 20
-23.4054854363
 30
0.0
 11
88.3182110751
 21
-22.3702092559
 31
0.0
  0
LINE
  5
1B2
330
1F
100
AcDbEntity
  8
0
  6
Continuous
 62
     7
370
    25
100
AcDbLine
 10
88.3182110751
 20
-22.3702092559
 30
0.0
 11
87.2829348947
 21
-26.2339125611
 31
0.0
  0
LINE
  5
1B3
330
1F
100
AcDbEntity
  8
0
  6
Continuous
 62
     7
370
    25
100
AcDbLine
 10
87.2829348947
 20
-26.2339125611
 30
0.0
 11
91.1466381998
 21
-27.2691887415
 31
0.0
  0
LINE
  5
1B4
330
1F
100
AcDbEntity
  8
0
  6
Continuous
 62
     7
370
    25
100
AcDbLine
 10
88.412111349
 20
-35.3617731362
 30
0.0
 11
89.7801919223
 21
-31.603002653
 31
0.0
  0
LINE
  5
1B5
330
1F
100
AcDbEntity
  8
0
  6
Continuous
 62
     7
370
    25
100
AcDbLine
 10
89.7801919223
 20
-31.603002653
 30
0.0
 11
86.0214214392
 21
-30.2349220797
 31
0.0
  0
LINE
  5
1B6
330
1F
100
AcDbEntity
  8
0
  6
Continuous
 62
     7
370
    25
100
AcDbLine
 10
86.0214214392
 20
-30.2349220797
 30
0.0
 11
84.6533408659
 21
-33.9936925629
 31
0.0
  0
LINE
  5
1B7
330
1F
100
AcDbEntity
  8
0
  6
Continuous
 62
     7
370
    25
100
AcDbLine
 10
84.6533408659
 20
-33.9936925629
 30
0.0
 11
88.412111349
 21
-35.3617731362
 31
0.0
  0
LINE
  5
1B8
330
1F
100
AcDbEntity
  8
0
  6
Continuous
 62
     7
370
    25
100
AcDbLine
 10
84.9826749947
 20
-43.1852330853
 30
0.0
 11
86.6731480417
 21
-39.5600019371
 31
0.0
  0
LINE
  5
1B9
330
1F
100
AcDbEntity
  8
0
  6
Continuous
 62
     7
370
    25
100
AcDbLine
 10
86.6731480417
 20
-39.5600019371
 30
0.0
 11
83.0479168936
 21
-37.8695288902
 31
0.0
  0
LINE
  5
1BA
330
1F
100
AcDbEntity
  8
0
  6
Continuous
 62
     7
370
    25
100
AcDbLine
 10
83.0479168936
 20
-37.8695288902
 30
0.0
 11
81.3574438466
 21
-41.4947600383
 31
0.0
  0
LINE
  5
1BB
330
1F
100
AcDbEntity
  8
0
  6
Continuous
 62
     7
370
    25
100
AcDbLine
 10
81.3574438466
 20
-41.4947600383
 30
0.0
 11
84.9826749947
 21
-43.1852330853
 31
0.0
  0
LINE
  5
1BC
330
1F
100
AcDbEntity
  8
0
  6
Continuous
 62
     7
370
    25
100
AcDbLine
 10
80.8844292185
 20
-50.6800273347
 30
0.0
 11
82.8844292185
 21
-47.2159257195
 31
0.0
  0
LINE
  5
1BD
330
1F
100
AcDbEntity
  8
0
  6
Continuous
 62
     7
370
    25
100
AcDbLine
 10
82.8844292185
 20
-47.2159257195
 30
0.0
 11
79.4203276033
 21
-45.2159257195
 31
0.0
  0
LINE
  5
1BE
330
1F
100
AcDbEntity
  8
0
  6
Continuous
 62
     7
370
    25
100
AcDbLine
 10
79.4203276033
 20
-45.2159257195
 30
0.0
 11
77.4203276033
 21
-48.6800273347
 31
0.0
  0
LINE
  5
1BF
330
1F
100
AcDbEntity
  8
0
  6
Continuous
 62
     7
370
    25
100
AcDbLine
 10
77.4203276033
 20
-48.6800273347
 30
0.0
 11
80.8844292185
 21
-50.6800273347
 31
0.0
  0
LINE
  5
1C0
330
1F
100
AcDbEntity
  8
0
  6
Continuous
 62
     7
370
    25
100
AcDbLine
 10
76.1485641451
 20
-57.7891159746
 30
0.0
 11
78.4428698905
 21
-54.5125077974
 31
0.0
  0
LINE
  5
1C1
330
1F
100
AcDbEntity
  8
0
  6
Continuous
 62
     7
370
    25
100
AcDbLine
 10
78.4428698905
 20
-54.5125077974
 30
0.0
 11
75.1662617133
 21
-52.218202052
 31
0.0
  0
LINE
  5
1C2
330
1F
100
AcDbEntity
  8
0
  6
Continuous
 62
     7
370
    25
100
AcDbLine
 10
75.1662617133
 20
-52.218202052
 30
0.0
 11
72.8719559679
 21
-55.4948102292
 31
0.0
  0
LINE
  5
1C3
330
1F
100
AcDbEntity
  8
0
  6
Continuous
 62
     7
370
    25
100
AcDbLine
 10
72.8719559679
 20
-55.4948102292
 30
0.0
 11
76.1485641451
 21
-57.7891159746
 31
0.0
  0
LINE
  5
1C4
330
1F
100
AcDbEntity
  8
0
  6
Continuous
 62
     7
370
    25
100
AcDbLine
 10
93.8600368574
 20
15.0298383428
 30
0.0
 11
93.1654441468
 21
18.9690693548
 31
0.0
  0
LINE
  5
1C5
330
1F
100
AcDbEntity
  8
0
  6
Continuous
 62
     7
370
    25
100
AcDbLine
 10
93.1654441468
 20
18.9690693548
 30
0.0
 11
89.2262131347
 21
18.2744766442
 31
0.0
  0
LINE
  5
1C6
330
1F
100
AcDbEntity
  8
0
  6
Continuous
 62
     7
370
    25
100
AcDbLine
 10
89.2262131347
 20
18.2744766442
 30
0.0
 11
89.9208058454
 21
14.3352456321
 31
0.0
  0
LINE
  5
1C7
330
1F
100
AcDbEntity
  8
0
  6
Continuous
 62
     7
370
    25
100
AcDbLine
 10
89.9208058454
 20
14.3352456321
 30
0.0
 11
93.8600368574
 21
15.0298383428
 31
0.0
  0
LINE
  5
1C8
330
1F
100
AcDbEntity
  8
0
  6
Continuous
 62
     7
370
    25
100
AcDbLine
 10
92.1819143802
 20
23.4054854363
 30
0.0
 11
91.1466381998
 21
27.2691887415
 31
0.0
  0
LINE
  5
1C9
330
1F
100
AcDbEntity
  8
0
  6
Continuous
 62
     7
370
    25
100
AcDbLine
 10
91.1466381998
 20
27.2691887415
 30
0.0
 11
87.2829348947
 21
26.233912561
 31
0.0
  0
LINE
  5
1CA
330
1F
100
AcDbEntity
  8
0
  6
Continuous
 62
     7
370
    25
100
AcDbLine
 10
87.2829348947
 20
26.233912561
 30
0.0
 11
88.3182110751
 21
22.3702092559
 31
0.0
  0
LINE
  5
1CB
330
1F
100
AcDbEntity
  8
0
  6
Continuous
 62
     7
370
    25
100
AcDbLine
 10
88.3182110751
 20
22.3702092559
 30
0.0
 11
92.1819143802
 21
23.4054854363
 31
0.0
  0
LINE
  5
1CC
330
1F
100
AcDbEntity
  8
0
  6
Continuous
 62
     7
370
    25
100
AcDbLine
 10
89.7801919223
 20
31.603002653
 30
0.0
 11
88.412111349
 21
35.3617731362
 31
0.0
  0
LINE
  5
1CD
330
1F
100
AcDbEntity
  8
0
  6
Continuous
 62
     7
370
    25
100
AcDbLine
 10
88.412111349
 20
35.3617731362
 30
0.0
 11
84.6533408658
 21
33.9936925629
 31
0.0
  0
LINE
  5
1CE
330
1F
100
AcDbEntity
  8
0
  6
Continuous
 62
     7
370
    25
100
AcDbLine
 10
84.6533408658
 20
33.9936925629
 30
0.0
 11
86.0214214391
 21
30.2349220797
 31
0.0
  0
LINE
  5
1CF
330
1F
100
AcDbEntity
  8
0
  6
Continuous
 62
     7
370
    25
100
AcDbLine
 10
86.0214214391
 20
30.2349220797
 30
0.0
 11
89.7801919223
 21
31.603002653
 31
0.0
  0
LINE
  5
1D0
330
1F
100
AcDbEntity
  8
0
  6
Continuous
 62
     7
370
    25
100
AcDbLine
 10
86.6731480417
 20
39.5600019371
 30
0.0
 11
84.9826749947
 21
43.1852330853
 31
0.0
  0
LINE
  5
1D1
330
1F
100
AcDbEntity
  8
0
  6
Continuous
 62
     7
370
    25
100
AcDbLine
 10
84.9826749947
 20
43.1852330853
 30
0.0
 11
81.3574438466
 21
41.4947600383
 31
0.0
  0
LINE
  5
1D2
330
1F
100
AcDbEntity
  8
0
  6
Continuous
 62
     7
370
    25
100
AcDbLine
 10
81.3574438466
 20
41.4947600383
 30
0.0
 11
83.0479168935
 21
37.8695288902
 31
0.0
  0
LINE
  5
1D3
330
1F
100
AcDbEntity
  8
0
  6
Continuous
 62
     7
370
    25
100
AcDbLine
 10
83.0479168935
 20
37.8695288902
 30
0.0
 11
86.6731480417
 21
39.5600019371
 31
0.0
  0
LINE
  5
1D4
330
1F
100
AcDbEntity
  8
0
  6
Continuous
 62
     7
370
    25
100
AcDbLine
 10
82.8844292184
 20
47.2159257195
 30
0.0
 11
80.8844292184
 21
50.6800273346
 31
0.0
  0
LINE
  5
1D5
330
1F
100
AcDbEntity
  8
0
  6
Continuous
 62
     7
370
    25
100
AcDbLine
 10
80.8844292184
 20
50.6800273346
 30
0.0
 11
77.4203276033
 21
48.6800273346
 31
0.0
  0
LINE
  5
1D6
330
1F
100
AcDbEntity
  8
0
  6
Continuous
 62
     7
370
    25
100
AcDbLine
 10
77.4203276033
 20
48.6800273346
 30
0.0
 11
79.4203276033
 21
45.2159257195
 31
0.0
  0
LINE
  5
1D7
330
1F
100
AcDbEntity
  8
0
  6
Continuous
 62
     7
370
    25
100
AcDbLine
 10
79.4203276033
 20
45.2159257195
 30
0.0
 11
82.8844292184
 21
47.2159257195
 31
0.0
  0
LINE
  5
1D8
330
1F
100
AcDbEntity
  8
0
  6
Continuous
 62
     7
370
    25
100
AcDbLine
 10
78.4428698904
 20
54.5125077974
 30
0.0
 11
76.148564145
 21
57.7891159746
 31
0.0
  0
LINE
  5
1D9
330
1F
100
AcDbEntity
  8
0
  6
Continuous
 62
     7
370
    25
100
AcDbLine
 10
76.148564145
 20
57.7891159746
 30
0.0
 11
72.8719559679
 21
55.4948102292
 31
0.0
  0
LINE
  5
1DA
330
1F
100
AcDbEntity
  8
0
  6
Continuous
 62
     7
370
    25
100
AcDbLine
 10
72.8719559679
 20
55.4948102292
 30
0.0
 11
75.1662617133
 21
52.218202052
 31
0.0
  0
LINE
  5
1DB
330
1F
100
AcDbEntity
  8
0
  6
Continuous
 62
     7
370
    25
100
AcDbLine
 10
75.1662617133
 20
52.218202052
 30
0.0
 11
78.4428698904
 21
54.5125077974
 31
0.0
  0
LINE
  5
1DC
330
1F
100
AcDbEntity
  8
0
  6
Continuous
 62
     7
370
    25
100
AcDbLine
 10
59.4821458612
 20
-18.75
 30
0.0
 11
59.4821458612
 21
18.75
 31
0.0
  0
LINE
  5
1DD
330
1F
100
AcDbEntity
  8
0
  6
Continuous
 62
     7
370
    25
100
AcDbLine
 10
56.2821458612
 20
18.75
 30
0.0
 11
56.2821458612
 21
-18.75
 31
0.0
  0
LINE
  5
1DE
330
1F
100
AcDbEntity
  8
0
  6
Continuous
 62
     7
370
    25
100
AcDbLine
 10
75.4321458612
 20
-27.0
 30
0.0
 11
81.5321458612
 21
-27.0
 31
0.0
  0
LINE
  5
1DF
330
1F
100
AcDbEntity
  8
0
  6
Continuous
 62
     7
370
    25
100
AcDbLine
 10
81.5321458612
 20
-27.0
 30
0.0
 11
81.5321458612
 21
27.0
 31
0.0
  0
LINE
  5
1E0
330
1F
100
AcDbEntity
  8
0
  6
Continuous
 62
     7
370
    25
100
AcDbLine
 10
81.5321458612
 20
27.0
 30
0.0
 11
75.4321458612
 21
27.0
 31
0.0
  0
LINE
  5
1E1
330
1F
100
AcDbEntity
  8
0
  6
Continuous
 62
     7
370
    25
100
AcDbLine
 10
75.4321458612
 20
27.0
 30
0.0
 11
75.4321458612
 21
-27.0
 31
0.0
  0
LINE
  5
1E2
330
1F
100
AcDbEntity
  8
0
  6
Continuous
 62
     7
370
    25
100
AcDbLine
 10
40.3321458612
 20
27.0
 30
0.0
 11
34.2321458612
 21
27.0
 31
0.0
  0
LINE
  5
1E3
330
1F
100
AcDbEntity
  8
0
  6
Continuous
 62
     7
370
    25
100
AcDbLine
 10
34.2321458612
 20
27.0
 30
0.0
 11
34.2321458612
 21
-27.0
 31
0.0
  0
LINE
  5
1E4
330
1F
100
AcDbEntity
  8
0
  6
Continuous
 62
     7
370
    25
100
AcDbLine
 10
34.2321458612
 20
-27.0
 30
0.0
 11
40.3321458612
 21
-27.0
 31
0.0
  0
LINE
  5
1E5
330
1F
100
AcDbEntity
  8
0
  6
Continuous
 62
     7
370
    25
100
AcDbLine
 10
40.3321458612
 20
-27.0
 30
0.0
 11
40.3321458612
 21
27.0
 31
0.0
  0
LINE
  5
1E6
330
1F
100
AcDbEntity
  8
0
  6
Continuous
 62
     7
370
    25
100
AcDbLine
 10
26.3043885638
 20
-33.64
 30
0.0
 11
22.3043885638
 21
-33.64
 31
0.0
  0
LINE
  5
1E7
330
1F
100
AcDbEntity
  8
0
  6
Continuous
 62
     7
370
    25
100
AcDbLine
 10
22.3043885638
 20
-33.64
 30
0.0
 11
22.3043885638
 21
-47.0
 31
0.0
  0
LINE
  5
1E8
330
1F
100
AcDbEntity
  8
0
  6
Continuous
 62
     7
370
    25
100
AcDbLine
 10
0.3043885638
 20
-47.0
 30
0.0
 11
22.3043885638
 21
-47.0
 31
0.0
  0
LINE
  5
1E9
330
1F
100
AcDbEntity
  8
0
  6
Continuous
 62
     7
370
    25
100
AcDbLine
 10
0.3043885638
 20
-47.0
 30
0.0
 11
0.3043885638
 21
-33.64
 31
0.0
  0
LINE
  5
1EA
330
1F
100
AcDbEntity
  8
0
  6
Continuous
 62
     7
370
    25
100
AcDbLine
 10
0.3043885638
 20
-33.64
 30
0.0
 11
-3.6956114362
 21
-33.64
 31
0.0
  0
LINE
  5
1EB
330
1F
100
AcDbEntity
  8
0
  6
Continuous
 62
     7
370
    25
100
AcDbLine
 10
-3.6956114362
 20
-33.64
 30
0.0
 11
-3.6956114362
 21
-47.0
 31
0.0
  0
LINE
  5
1EC
330
1F
100
AcDbEntity
  8
0
  6
Continuous
 62
     7
370
    25
100
AcDbLine
 10
-26.1956114362
 20
-47.0
 30
0.0
 11
-3.6956114362
 21
-47.0
 31
0.0
  0
LINE
  5
1ED
330
1F
100
AcDbEntity
  8
0
  6
Continuous
 62
     7
370
    25
100
AcDbLine
 10
-26.1956114362
 20
-77.0
 30
0.0
 11
-26.1956114362
 21
-47.0
 31
0.0
  0
LINE
  5
1EE
330
1F
100
AcDbEntity
  8
0
  6
Continuous
 62
     7
370
    25
100
AcDbLine
 10
-63.8043885638
 20
-77.0
 30
0.0
 11
-26.1956114362
 21
-77.0
 31
0.0
  0
LINE
  5
1EF
330
1F
100
AcDbEntity
  8
0
  6
Continuous
 62
     7
370
    25
100
AcDbLine
 10
-63.8043885638
 20
77.0
 30
0.0
 11
-26.1956114362
 21
77.0
 31
0.0
  0
LINE
  5
1F0
330
1F
100
AcDbEntity
  8
0
  6
Continuous
 62
     7
370
    25
100
AcDbLine
 10
-26.1956114362
 20
77.0
 30
0.0
 11
-26.1956114362
 21
47.0
 31
0.0
  0
LINE
  5
1F1
330
1F
100
AcDbEntity
  8
0
  6
Continuous
 62
     7
370
    25
100
AcDbLine
 10
-26.1956114362
 20
47.0
 30
0.0
 11
-3.6956114362
 21
47.0
 31
0.0
  0
LINE
  5
1F2
330
1F
100
AcDbEntity
  8
0
  6
Continuous
 62
     7
370
    25
100
AcDbLine
 10
-3.6956114362
 20
47.0
 30
0.0
 11
-3.6956114362
 21
33.64
 31
0.0
  0
LINE
  5
1F3
330
1F
100
AcDbEntity
  8
0
  6
Continuous
 62
     7
370
    25
100
AcDbLine
 10
-3.6956114362
 20
33.64
 30
0.0
 11
0.3043885638
 21
33.64
 31
0.0
  0
LINE
  5
1F4
330
1F
100
AcDbEntity
  8
0
  6
Continuous
 62
     7
370
    25
100
AcDbLine
 10
0.3043885638
 20
33.64
 30
0.0
 11
0.3043885638
 21
47.0
 31
0.0
  0
LINE
  5
1F5
330
1F
100
AcDbEntity
  8
0
  6
Continuous
 62
     7
370
    25
100
AcDbLine
 10
0.3043885638
 20
47.0
 30
0.0
 11
22.3043885638
 21
47.0
 31
0.0
  0
LINE
  5
1F6
330
1F
100
AcDbEntity
  8
0
  6
Continuous
 62
     7
370
    25
100
AcDbLine
 10
22.3043885638
 20
47.0
 30
0.0
 11
22.3043885638
 21
33.64
 31
0.0
  0
LINE
  5
1F7
330
1F
100
AcDbEntity
  8
0
  6
Continuous
 62
     7
370
    25
100
AcDbLine
 10
22.3043885638
 20
33.64
 30
0.0
 11
26.3043885638
 21
33.64
 31
0.0
  0
LINE
  5
1F8
330
1F
100
AcDbEntity
  8
0
  6
Continuous
 62
     7
370
    25
100
AcDbLine
 10
26.3043885638
 20
33.64
 30
0.0
 11
26.3043885638
 21
47.0
 31
0.0
  0
LINE
  5
1F9
330
1F
100
AcDbEntity
  8
0
  6
Continuous
 62
     7
370
    25
100
AcDbLine
 10
26.3043885638
 20
47.0
 30
0.0
 11
48.8043885638
 21
47.0
 31
0.0
  0
LINE
  5
1FA
330
1F
100
AcDbEntity
  8
0
  6
Continuous
 62
     7
370
    25
100
AcDbLine
 10
48.8043885638
 20
77.0
 30
0.0
 11
48.8043885638
 21
47.0
 31
0.0
  0
LINE
  5
1FB
330
1F
100
AcDbEntity
  8
0
  6
Continuous
 62
     7
370
    25
100
AcDbLine
 10
48.8043885638
 20
77.0
 30
0.0
 11
63.8043885638
 21
77.0
 31
0.0
  0
LINE
  5
1FC
330
1F
100
AcDbEntity
  8
0
  6
Continuous
 62
     7
370
    25
100
AcDbLine
 10
48.8043885638
 20
-77.0
 30
0.0
 11
63.8043885638
 21
-77.0
 31
0.0
  0
LINE
  5
1FD
330
1F
100
AcDbEntity
  8
0
  6
Continuous
 62
     7
370
    25
100
AcDbLine
 10
48.8043885638
 20
-77.0
 30
0.0
 11
48.8043885638
 21
-47.0
 31
0.0
  0
LINE
  5
1FE
330
1F
100
AcDbEntity
  8
0
  6
Continuous
 62
     7
370
    25
100
AcDbLine
 10
26.3043885638
 20
-47.0
 30
0.0
 11
48.8043885638
 21
-47.0
 31
0.0
  0
LINE
  5
1FF
330
1F
100
AcDbEntity
  8
0
  6
Continuous
 62
     7
370
    25
100
AcDbLine
 10
26.3043885638
 20
-47.0
 30
0.0
 11
26.3043885638
 21
-33.64
 31
0.0
  0
LINE
  5
200
330
1F
100
AcDbEntity
  8
0
  6
Continuous
 62
     7
370
    25
100
AcDbLine
 10
-61.8919143668
 20
-66.7191449104
 30
0.0
 11
-68.8384980714
 21
-59.525746907
 31
0.0
  0
LINE
  5
201
330
1F
100
AcDbEntity
  8
0
  6
Continuous
 62
     7
370
    25
100
AcDbLine
 10
-68.8384980714
 20
-59.525746907
 30
0.0
 11
-71.7158572727
 21
-62.3043803889
 31
0.0
  0
LINE
  5
202
330
1F
100
AcDbEntity
  8
0
  6
Continuous
 62
     7
370
    25
100
AcDbLine
 10
-71.7158572727
 20
-62.3043803889
 30
0.0
 11
-64.7692735681
 21
-69.4977783922
 31
0.0
  0
LINE
  5
203
330
1F
100
AcDbEntity
  8
0
  6
Continuous
 62
     7
370
    25
100
AcDbLine
 10
-64.7692735681
 20
-69.4977783922
 30
0.0
 11
-61.8919143668
 21
-66.7191449104
 31
0.0
  0
LINE
  5
204
330
1F
100
AcDbEntity
  8
0
  6
Continuous
 62
     7
370
    25
100
AcDbLine
 10
-61.6339387466
 20
52.5683848396
 30
0.0
 11
-54.687355042
 21
59.761782843
 31
0.0
  0
LINE
  5
205
330
1F
100
AcDbEntity
  8
0
  6
Continuous
 62
     7
370
    25
100
AcDbLine
 10
-54.687355042
 20
59.761782843
 30
0.0
 11
-57.5647142433
 21
62.5404163248
 31
0.0
  0
LINE
  5
206
330
1F
100
AcDbEntity
  8
0
  6
Continuous
 62
     7
370
    25
100
AcDbLine
 10
-57.5647142433
 20
62.5404163248
 30
0.0
 11
-64.5112979479
 21
55.3470183215
 31
0.0
  0
LINE
  5
207
330
1F
100
AcDbEntity
  8
0
  6
Continuous
 62
     7
370
    25
100
AcDbLine
 10
-64.5112979479
 20
55.3470183215
 30
0.0
 11
-61.6339387466
 21
52.5683848396
 31
0.0
  0
LINE
  5
208
330
1F
100
AcDbEntity
  8
0
  6
Continuous
 62
     7
370
    25
100
AcDbLine
 10
53.8043885638
 20
-67.0
 30
0.0
 11
63.8043885638
 21
-67.0
 31
0.0
  0
LINE
  5
209
330
1F
100
AcDbEntity
  8
0
  6
Continuous
 62
     7
370
    25
100
AcDbLine
 10
63.8043885638
 20
-67.0
 30
0.0
 11
63.8043885638
 21
-63.0
 31
0.0
  0
LINE
  5
20A
330
1F
100
AcDbEntity
  8
0
  6
Continuous
 62
     7
370
    25
100
AcDbLine
 10
63.8043885638
 20
-63.0
 30
0.0
 11
53.8043885638
 21
-63.0
 31
0.0
  0
LINE
  5
20B
330
1F
100
AcDbEntity
  8
0
  6
Continuous
 62
     7
370
    25
100
AcDbLine
 10
53.8043885638
 20
-63.0
 30
0.0
 11
53.8043885638
 21
-67.0
 31
0.0
  0
LINE
  5
20C
330
1F
100
AcDbEntity
  8
0
  6
Continuous
 62
     7
370
    25
100
AcDbLine
 10
53.8043885638
 20
63.0
 30
0.0
 11
63.8043885638
 21
63.0
 31
0.0
  0
LINE
  5
20D
330
1F
100
AcDbEntity
  8
0
  6
Continuous
 62
     7
370
    25
100
AcDbLine
 10
63.8043885638
 20
63.0
 30
0.0
 11
63.8043885638
 21
67.0
 31
0.0
  0
LINE
  5
20E
330
1F
100
AcDbEntity
  8
0
  6
Continuous
 62
     7
370
    25
100
AcDbLine
 10
63.8043885638
 20
67.0
 30
0.0
 11
53.8043885638
 21
67.0
 31
0.0
  0
LINE
  5
20F
330
1F
100
AcDbEntity
  8
0
  6
Continuous
 62
     7
370
    25
100
AcDbLine
 10
53.8043885638
 20
67.0
 30
0.0
 11
53.8043885638
 21
63.0
 31
0.0
  0
LINE
  5
210
330
1F
100
AcDbEntity
  8
0
  6
Continuous
 62
     7
370
    25
100
AcDbLine
 10
-44.6956114362
 20
24.0
 30
0.0
 11
-19.6956114362
 21
24.0
 31
0.0
  0
LINE
  5
211
330
1F
100
AcDbEntity
  8
0
  6
Continuous
 62
     7
370
    25
100
AcDbLine
 10
-19.6956114362
 20
24.0
 30
0.0
 11
-19.6956114362
 21
39.0
 31
0.0
  0
LINE
  5
212
330
1F
100
AcDbEntity
  8
0
  6
Continuous
 62
     7
370
    25
100
AcDbLine
 10
-19.6956114362
 20
39.0
 30
0.0
 11
-44.6956114362
 21
39.0
 31
0.0
  0
LINE
  5
213
330
1F
100
AcDbEntity
  8
0
  6
Continuous
 62
     7
370
    25
100
AcDbLine
 10
-44.6956114362
 20
39.0
 30
0.0
 11
-44.6956114362
 21
24.0
 31
0.0
  0
LINE
  5
214
330
1F
100
AcDbEntity
  8
0
  6
Continuous
 62
     7
370
    25
100
AcDbLine
 10
-44.6956114362
 20
-39.0
 30
0.0
 11
-19.6956114362
 21
-39.0
 31
0.0
  0
LINE
  5
215
330
1F
100
AcDbEntity
  8
0
  6
Continuous
 62
     7
370
    25
100
AcDbLine
 10
-19.6956114362
 20
-39.0
 30
0.0
 11
-19.6956114362
 21
-24.0
 31
0.0
  0
LINE
  5
216
330
1F
100
AcDbEntity
  8
0
  6
Continuous
 62
     7
370
    25
100
AcDbLine
 10
-19.6956114362
 20
-24.0
 30
0.0
 11
-44.6956114362
 21
-24.0
 31
0.0
  0
LINE
  5
217
330
1F
100
AcDbEntity
  8
0
  6
Continuous
 62
     7
370
    25
100
AcDbLine
 10
-44.6956114362
 20
-24.0
 30
0.0
 11
-44.6956114362
 21
-39.0
 31
0.0
  0
LINE
  5
218
330
1F
100
AcDbEntity
  8
0
  6
Continuous
 62
     7
370
    25
100
AcDbLine
 10
-29.4688007195
 20
13.0263157895
 30
0.0
 11
-29.4581099301
 21
13.0263157895
 31
0.0
  0
LINE
  5
219
330
1F
100
AcDbEntity
  8
0
  6
Continuous
 62
     7
370
    25
100
AcDbLine
 10
-31.620116509
 20
11.6217105263
 30
0.0
 11
-31.620116509
 21
12.7680921053
 31
0.0
  0
LINE
  5
21A
330
1F
100
AcDbEntity
  8
0
  6
Continuous
 62
     7
370
    25
100
AcDbLine
 10
-27.620116509
 20
11.6217105263
 30
0.0
 11
-31.620116509
 21
11.6217105263
 31
0.0
  0
LINE
  5
21B
330
1F
100
AcDbEntity
  8
0
  6
Continuous
 62
     7
370
    25
100
AcDbLine
 10
-27.620116509
 20
11.9909539474
 30
0.0
 11
-27.620116509
 21
11.6217105263
 31
0.0
  0
LINE
  5
21C
330
1F
100
AcDbEntity
  8
0
  6
Continuous
 62
     7
370
    25
100
AcDbLine
 10
-29.3569586143
 20
11.9909539474
 30
0.0
 11
-27.620116509
 21
11.9909539474
 31
0.0
  0
LINE
  5
21D
330
1F
100
AcDbEntity
  8
0
  6
Continuous
 62
     7
370
    25
100
AcDbLine
 10
-29.3569586143
 20
12.4292763158
 30
0.0
 11
-29.3569586143
 21
11.9909539474
 31
0.0
  0
LINE
  5
21E
330
1F
100
AcDbEntity
  8
0
  6
Continuous
 62
     7
370
    25
100
AcDbLine
 10
-27.620116509
 20
13.7894736842
 30
0.0
 11
-28.7640309827
 21
13.1899671053
 31
0.0
  0
LINE
  5
21F
330
1F
100
AcDbEntity
  8
0
  6
Continuous
 62
     7
370
    25
100
AcDbLine
 10
-27.620116509
 20
14.2220394737
 30
0.0
 11
-27.620116509
 21
13.7894736842
 31
0.0
  0
LINE
  5
220
330
1F
100
AcDbEntity
  8
0
  6
Continuous
 62
     7
370
    25
100
AcDbLine
 10
-28.8503796669
 20
13.5534539474
 30
0.0
 11
-27.620116509
 21
14.2220394737
 31
0.0
  0
LINE
  5
221
330
1F
100
AcDbEntity
  8
0
  6
Continuous
 62
     7
370
    25
100
AcDbLine
 10
-31.620116509
 20
-2.5378289474
 30
0.0
 11
-31.620116509
 21
-2.1241776316
 31
0.0
  0
LINE
  5
222
330
1F
100
AcDbEntity
  8
0
  6
Continuous
 62
     7
370
    25
100
AcDbLine
 10
-28.610248088
 20
-3.9004934211
 30
0.0
 11
-31.620116509
 21
-2.5378289474
 31
0.0
  0
LINE
  5
223
330
1F
100
AcDbEntity
  8
0
  6
Continuous
 62
     7
370
    25
100
AcDbLine
 10
-28.2089322985
 20
-4.0674342105
 30
0.0
 11
-28.2089322985
 21
-4.0501644737
 31
0.0
  0
LINE
  5
224
330
1F
100
AcDbEntity
  8
0
  6
Continuous
 62
     7
370
    25
100
AcDbLine
 10
-31.620116509
 20
-5.5740131579
 30
0.0
 11
-28.6135375616
 21
-4.2228618421
 31
0.0
  0
LINE
  5
225
330
1F
100
AcDbEntity
  8
0
  6
Continuous
 62
     7
370
    25
100
AcDbLine
 10
-31.620116509
 20
-6.0098684211
 30
0.0
 11
-31.620116509
 21
-5.5740131579
 31
0.0
  0
LINE
  5
226
330
1F
100
AcDbEntity
  8
0
  6
Continuous
 62
     7
370
    25
100
AcDbLine
 10
-27.620116509
 20
-6.0098684211
 30
0.0
 11
-31.620116509
 21
-6.0098684211
 31
0.0
  0
LINE
  5
227
330
1F
100
AcDbEntity
  8
0
  6
Continuous
 62
     7
370
    25
100
AcDbLine
 10
-27.620116509
 20
-5.6488486842
 30
0.0
 11
-27.620116509
 21
-6.0098684211
 31
0.0
  0
LINE
  5
228
330
1F
100
AcDbEntity
  8
0
  6
Continuous
 62
     7
370
    25
100
AcDbLine
 10
-30.4120572985
 20
-5.6488486842
 30
0.0
 11
-27.620116509
 21
-5.6488486842
 31
0.0
  0
LINE
  5
229
330
1F
100
AcDbEntity
  8
0
  6
Continuous
 62
     7
370
    25
100
AcDbLine
 10
-31.0707744037
 20
-5.6578947368
 30
0.0
 11
-31.0707744037
 21
-5.6685855263
 31
0.0
  0
LINE
  5
22A
330
1F
100
AcDbEntity
  8
0
  6
Continuous
 62
     7
370
    25
100
AcDbLine
 10
-27.620116509
 20
-4.1422697368
 30
0.0
 11
-30.6776822985
 21
-5.5328947368
 31
0.0
  0
LINE
  5
22B
330
1F
100
AcDbEntity
  8
0
  6
Continuous
 62
     7
370
    25
100
AcDbLine
 10
-27.620116509
 20
-3.9835526316
 30
0.0
 11
-27.620116509
 21
-4.1422697368
 31
0.0
  0
LINE
  5
22C
330
1F
100
AcDbEntity
  8
0
  6
Continuous
 62
     7
370
    25
100
AcDbLine
 10
-30.6965967722
 20
-2.5962171053
 30
0.0
 11
-27.620116509
 21
-3.9835526316
 31
0.0
  0
LINE
  5
22D
330
1F
100
AcDbEntity
  8
0
  6
Continuous
 62
     7
370
    25
100
AcDbLine
 10
-31.0650178248
 20
-2.4547697368
 30
0.0
 11
-31.0650178248
 21
-2.4654605263
 31
0.0
  0
LINE
  5
22E
330
1F
100
AcDbEntity
  8
0
  6
Continuous
 62
     7
370
    25
100
AcDbLine
 10
-27.620116509
 20
-2.4876644737
 30
0.0
 11
-30.3816296669
 21
-2.4876644737
 31
0.0
  0
LINE
  5
22F
330
1F
100
AcDbEntity
  8
0
  6
Continuous
 62
     7
370
    25
100
AcDbLine
 10
-27.620116509
 20
-2.1241776316
 30
0.0
 11
-27.620116509
 21
-2.4876644737
 31
0.0
  0
LINE
  5
230
330
1F
100
AcDbEntity
  8
0
  6
Continuous
 62
     7
370
    25
100
AcDbLine
 10
-31.620116509
 20
-2.1241776316
 30
0.0
 11
-27.620116509
 21
-2.1241776316
 31
0.0
  0
LINE
  5
231
330
1F
100
AcDbEntity
  8
0
  6
Continuous
 62
     7
370
    25
100
AcDbLine
 10
-17.6956114362
 20
29.7113486842
 30
0.0
 11
-17.6956114362
 21
31.0189144737
 31
0.0
  0
LINE
  5
232
330
1F
100
AcDbEntity
  8
0
  6
Continuous
 62
     7
370
    25
100
AcDbLine
 10
-12.6956114362
 20
29.7113486842
 30
0.0
 11
-17.6956114362
 21
29.7113486842
 31
0.0
  0
LINE
  5
233
330
1F
100
AcDbEntity
  8
0
  6
Continuous
 62
     7
370
    25
100
AcDbLine
 10
-12.6956114362
 20
30.9562088816
 30
0.0
 11
-12.6956114362
 21
29.7113486842
 31
0.0
  0
LINE
  5
234
330
1F
100
AcDbEntity
  8
0
  6
Continuous
 62
     7
370
    25
100
AcDbLine
 10
-13.0903482783
 20
30.1729029605
 30
0.0
 11
-13.0903482783
 21
30.9356496711
 31
0.0
  0
LINE
  5
235
330
1F
100
AcDbEntity
  8
0
  6
Continuous
 62
     7
370
    25
100
AcDbLine
 10
-17.3008745941
 20
30.1729029605
 30
0.0
 11
-13.0903482783
 21
30.1729029605
 31
0.0
  0
LINE
  5
236
330
1F
100
AcDbEntity
  8
0
  6
Continuous
 62
     7
370
    25
100
AcDbLine
 10
-17.3008745941
 20
30.9880756579
 30
0.0
 11
-17.3008745941
 21
30.1729029605
 31
0.0
  0
LINE
  5
237
330
1F
100
AcDbEntity
  8
0
  6
Continuous
 62
     7
370
    25
100
AcDbLine
 10
-29.5148533511
 20
-0.7458881579
 30
0.0
 11
-29.5148533511
 21
-0.21875
 31
0.0
  0
LINE
  5
238
330
1F
100
AcDbEntity
  8
0
  6
Continuous
 62
     7
370
    25
100
AcDbLine
 10
-31.3043270353
 20
-0.7458881579
 30
0.0
 11
-29.5148533511
 21
-0.7458881579
 31
0.0
  0
LINE
  5
239
330
1F
100
AcDbEntity
  8
0
  6
Continuous
 62
     7
370
    25
100
AcDbLine
 10
-31.3043270353
 20
-0.1546052632
 30
0.0
 11
-31.3043270353
 21
-0.7458881579
 31
0.0
  0
ARC
  5
23A
330
1F
100
AcDbEntity
  8
0
  6
Continuous
 62
     7
370
    25
100
AcDbCircle
 10
57.8821458612
 20
18.75
 30
0.0
 40
1.600000000000009
100
AcDbArc
 50
0.0
 51
180.0
  0
ARC
  5
23B
330
1F
100
AcDbEntity
  8
0
  6
Continuous
 62
     7
370
    25
100
AcDbCircle
 10
57.8821458612
 20
-18.75
 30
0.0
 40
1.600000000000009
100
AcDbArc
 50
180.0
 51
0.0
  0
ARC
  5
23C
330
1F
100
AcDbEntity
  8
0
  6
Continuous
 62
     7
370
    25
100
AcDbCircle
 10
0.0
 20
0.0
 30
0.0
 40
100.0000000000001
100
AcDbArc
 50
129.646111147
 51
230.353888853
  0
ARC
  5
23D
330
1F
100
AcDbEntity
  8
0
  6
Continuous
 62
     7
370
    25
100
AcDbCircle
 10
0.0
 20
0.0
 30
0.0
 40
100.0000000000001
100
AcDbArc
 50
309.646111147
 51
50.353888853
  0
MTEXT
  5
23F
330
1F
100
AcDbEntity
  8
0
  6
Continuous
 62
     7
100
AcDbMText
 10
-100.0
 20
-78.0195663917
 30
0.0
 40
4.83362
 41
0.0
 71
     1
 72
     1
  1
SOLIDWORKS Educational Product.
  7
SLDTEXTSTYLE0
 73
     1
 44
1.0
  0
MTEXT
  5
240
330
1F
100
AcDbEntity
  8
0
  6
Continuous
 62
     7
100
AcDbMText
 10
-100.0
 20
-85.2699963917
 30
0.0
 40
4.83362
 41
0.0
 71
     1
 72
     1
  1
For Instructional Use Only.
  7
SLDTEXTSTYLE0
 73
     1
 44
1.0
  0
ENDSEC
  0
SECTION
  2
OBJECTS
  0
DICTIONARY
  5
C
330
0
100
AcDbDictionary
281
     1
  3
ACAD_GROUP
350
D
  3
ACAD_LAYOUT
350
1A
  3
ACAD_MLINESTYLE
350
17
  3
ACAD_PLOTSETTINGS
350
19
  3
ACAD_PLOTSTYLENAME
350
E
  3
ACAD_SCALELIST
350
47
  3
DWGPROPS
350
241
  0
DICTIONARY
  5
D
102
{ACAD_REACTORS
330
C
102
}
330
C
100
AcDbDictionary
281
     1
  0
DICTIONARY
  5
1A
102
{ACAD_REACTORS
330
C
102
}
330
C
100
AcDbDictionary
281
     1
  3
Layout1
350
1E
  3
Layout2
350
26
  3
Model
350
22
  0
DICTIONARY
  5
17
102
{ACAD_REACTORS
330
C
102
}
330
C
100
AcDbDictionary
281
     1
  3
Standard
350
18
  0
DICTIONARY
  5
19
102
{ACAD_REACTORS
330
C
102
}
330
C
100
AcDbDictionary
281
     1
  0
ACDBDICTIONARYWDFLT
  5
E
102
{ACAD_REACTORS
330
C
102
}
330
C
100
AcDbDictionary
281
     1
  3
Normal
350
F
100
AcDbDictionaryWithDefault
340
F
  0
DICTIONARY
  5
47
102
{ACAD_REACTORS
330
C
102
}
330
C
100
AcDbDictionary
281
     1
  3
A0
350
48
  3
A1
350
49
  3
A2
350
4A
  3
A3
350
4B
  3
A4
350
4C
  3
A5
350
4D
  3
A6
350
4E
  3
A7
350
4F
  3
A8
350
50
  3
A9
350
51
  3
B0
350
52
  3
B1
350
53
  3
B2
350
54
  3
B3
350
55
  3
B4
350
56
  3
B5
350
57
  3
B6
350
58
  0
XRECORD
  5
241
102
{ACAD_REACTORS
330
C
102
}
330
C
100
AcDbXrecord
280
     1
  1
DWGPROPS COOKIE
  2

  3

  4

  6

  7

  8
Willi
  9

300
=
301
=
302
=
303
=
304
=
305
=
306
=
307
=
308
=
309
=
 40
0.0
 41
2459857.431663125
 42
2459857.43171897
  1

 90
        0
  0
LAYOUT
  5
1E
102
{ACAD_REACTORS
330
1A
102
}
330
1A
100
AcDbPlotSettings
  1

  2
none_device
  4

  6

 40
0.0
 41
0.0
 42
0.0
 43
0.0
 44
0.0
 45
0.0
 46
0.0
 47
0.0
 48
0.0
 49
0.0
140
0.0
141
0.0
142
1.0
143
1.0
 70
   688
 72
     1
 73
     0
 74
     5
  7

 75
    16
147
1.0
148
0.0
149
0.0
100
AcDbLayout
  1
Layout1
 70
     1
 71
     1
 10
0.0
 20
0.0
 11
420.0
 21
297.0
 12
0.0
 22
0.0
 32
0.0
 14
1.0000000000E+20
 24
1.0000000000E+20
 34
1.0000000000E+20
 15
-1.0000000000E+20
 25
-1.0000000000E+20
 35
-1.0000000000E+20
146
0.0
 13
0.0
 23
0.0
 33
0.0
 16
1.0
 26
0.0
 36
0.0
 17
0.0
 27
1.0
 37
0.0
 76
     0
330
1B
  0
LAYOUT
  5
26
102
{ACAD_REACTORS
330
1A
102
}
330
1A
100
AcDbPlotSettings
  1

  2
none_device
  4

  6

 40
0.0
 41
0.0
 42
0.0
 43
0.0
 44
0.0
 45
0.0
 46
0.0
 47
0.0
 48
0.0
 49
0.0
140
0.0
141
0.0
142
1.0
143
1.0
 70
   688
 72
     1
 73
     0
 74
     5
  7

 75
    16
147
1.0
148
0.0
149
0.0
100
AcDbLayout
  1
Layout2
 70
     1
 71
     2
 10
0.0
 20
0.0
 11
0.0
 21
0.0
 12
0.0
 22
0.0
 32
0.0
 14
0.0
 24
0.0
 34
0.0
 15
0.0
 25
0.0
 35
0.0
146
0.0
 13
0.0
 23
0.0
 33
0.0
 16
1.0
 26
0.0
 36
0.0
 17
0.0
 27
1.0
 37
0.0
 76
     0
330
23
  0
LAYOUT
  5
22
102
{ACAD_REACTORS
330
1A
102
}
330
1A
100
AcDbPlotSettings
  1

  2
none_device
  4
ANSI_A_(11.00_x_8.50_Inches)
  6

 40
6.35
 41
19.05
 42
6.35000508
 43
19.05000254
 44
279.4
 45
215.9
 46
133.34999746
 47
88.89999873
 48
0.0
 49
0.0
140
0.0
141
0.0
142
0.05445
143
1.0
 70
  1696
 72
     0
 73
     0
 74
     0
  7

 75
     0
147
0.0179189148
148
-1300.4909072572
149
0.0
100
AcDbLayout
  1
Model
 70
     1
 71
     0
 10
0.0
 20
0.0
 11
420.0
 21
297.0
 12
0.0
 22
0.0
 32
0.0
 14
-100.0
 24
-77.0
 34
0.0
 15
100.0
 25
77.0
 35
0.0
146
0.0
 13
0.0
 23
0.0
 33
0.0
 16
1.0
 26
0.0
 36
0.0
 17
0.0
 27
1.0
 37
0.0
 76
     0
330
1F
331
29
  0
MLINESTYLE
  5
18
102
{ACAD_REACTORS
330
17
102
}
330
17
100
AcDbMlineStyle
  2
Standard
 70
     0
  3

 62
   256
 51
90.0
 52
90.0
 71
     2
 49
0.5
 62
   256
  6
BYLAYER
 49
-0.5
 62
   256
  6
BYLAYER
  0
ACDBPLACEHOLDER
  5
F
102
{ACAD_REACTORS
330
E
102
}
330
E
  0
SCALE
  5
48
102
{ACAD_REACTORS
330
47
102
}
330
47
100
AcDbScale
 70
     0
300
1:1
140
1.0
141
1.0
290
     1
  0
SCALE
  5
49
102
{ACAD_REACTORS
330
47
102
}
330
47
100
AcDbScale
 70
     0
300
1:2
140
1.0
141
2.0
290
     0
  0
SCALE
  5
4A
102
{ACAD_REACTORS
330
47
102
}
330
47
100
AcDbScale
 70
     0
300
1:4
140
1.0
141
4.0
290
     0
  0
SCALE
  5
4B
102
{ACAD_REACTORS
330
47
102
}
330
47
100
AcDbScale
 70
     0
300
1:5
140
1.0
141
5.0
290
     0
  0
SCALE
  5
4C
102
{ACAD_REACTORS
330
47
102
}
330
47
100
AcDbScale
 70
     0
300
1:8
140
1.0
141
8.0
290
     0
  0
SCALE
  5
4D
102
{ACAD_REACTORS
330
47
102
}
330
47
100
AcDbScale
 70
     0
300
1:10
140
1.0
141
10.0
290
     0
  0
SCALE
  5
4E
102
{ACAD_REACTORS
330
47
102
}
330
47
100
AcDbScale
 70
     0
300
1:16
140
1.0
141
16.0
290
     0
  0
SCALE
  5
4F
102
{ACAD_REACTORS
330
47
102
}
330
47
100
AcDbScale
 70
     0
300
1:20
140
1.0
141
20.0
290
     0
  0
SCALE
  5
50
102
{ACAD_REACTORS
330
47
102
}
330
47
100
AcDbScale
 70
     0
300
1:30
140
1.0
141
30.0
290
     0
  0
SCALE
  5
51
102
{ACAD_REACTORS
330
47
102
}
330
47
100
AcDbScale
 70
     0
300
1:40
140
1.0
141
40.0
290
     0
  0
SCALE
  5
52
102
{ACAD_REACTORS
330
47
102
}
330
47
100
AcDbScale
 70
     0
300
1:50
140
1.0
141
50.0
290
     0
  0
SCALE
  5
53
102
{ACAD_REACTORS
330
47
102
}
330
47
100
AcDbScale
 70
     0
300
1:100
140
1.0
141
100.0
290
     0
  0
SCALE
  5
54
102
{ACAD_REACTORS
330
47
102
}
330
47
100
AcDbScale
 70
     0
300
2:1
140
2.0
141
1.0
290
     0
  0
SCALE
  5
55
102
{ACAD_REACTORS
330
47
102
}
330
47
100
AcDbScale
 70
     0
300
4:1
140
4.0
141
1.0
290
     0
  0
SCALE
  5
56
102
{ACAD_REACTORS
330
47
102
}
330
47
100
AcDbScale
 70
     0
300
8:1
140
8.0
141
1.0
290
     0
  0
SCALE
  5
57
102
{ACAD_REACTORS
330
47
102
}
330
47
100
AcDbScale
 70
     0
300
10:1
140
10.0
141
1.0
290
     0
  0
SCALE
  5
58
102
{ACAD_REACTORS
330
47
102
}
330
47
100
AcDbScale
 70
     0
300
100:1
140
100.0
141
1.0
290
     0
  0
ENDSEC
  0
EOF
