  0
SECTION
  2
HEADER
  9
$ACADVER
  1
AC1015
  9
$ACADMAINTVER
 70
     6
  9
$DWGCODEPAGE
  3
UNDEFINED
  9
$INSBASE
 10
0.0
 20
0.0
 30
0.0
  9
$EXTMIN
 10
0.0
 20
-2.5
 30
0.0
  9
$EXTMAX
 10
45.5
 20
39.5
 30
0.0
  9
$LIMMIN
 10
0.0
 20
0.0
  9
$LIMMAX
 10
420.0
 20
297.0
  9
$ORTHOMODE
 70
     0
  9
$REGENMODE
 70
     1
  9
$FILLMODE
 70
     1
  9
$QTEXTMODE
 70
     0
  9
$MIRRTEXT
 70
     1
  9
$LTSCALE
 40
1.0
  9
$ATTMODE
 70
     1
  9
$TEXTSIZE
 40
3.5
  9
$TRACEWID
 40
1.0
  9
$TEXTSTYLE
  7
Standard
  9
$CLAYER
  8
0
  9
$CELTYPE
  6
ByLayer
  9
$CECOLOR
 62
   256
  9
$CELTSCALE
 40
1.0
  9
$DISPSILH
 70
     0
  9
$DIMSCALE
 40
1.0
  9
$DIMASZ
 40
3.302
  9
$DIMEXO
 40
0.0
  9
$DIMDLI
 40
3.75
  9
$DIMRND
 40
0.0
  9
$DIMDLE
 40
0.0
  9
$DIMEXE
 40
1.0
  9
$DIMTP
 40
0.0
  9
$DIMTM
 40
0.0
  9
$DIMTXT
 40
3.5
  9
$DIMCEN
 40
2.5
  9
$DIMTSZ
 40
0.0
  9
$DIMTOL
 70
     0
  9
$DIMLIM
 70
     0
  9
$DIMTIH
 70
     1
  9
$DIMTOH
 70
     1
  9
$DIMSE1
 70
     0
  9
$DIMSE2
 70
     0
  9
$DIMTAD
 70
     1
  9
$DIMZIN
 70
     1
  9
$DIMBLK
  1

  9
$DIMASO
 70
     1
  9
$DIMSHO
 70
     1
  9
$DIMPOST
  1

  9
$DIMAPOST
  1

  9
$DIMALT
 70
     0
  9
$DIMALTD
 70
     3
  9
$DIMALTF
 40
0.0393700787
  9
$DIMLFAC
 40
1.0
  9
$DIMTOFL
 70
     1
  9
$DIMTVP
 40
0.0
  9
$DIMTIX
 70
     0
  9
$DIMSOXD
 70
     0
  9
$DIMSAH
 70
     0
  9
$DIMBLK1
  1

  9
$DIMBLK2
  1

  9
$DIMSTYLE
  2
ISO-25
  9
$DIMCLRD
 70
     0
  9
$DIMCLRE
 70
     0
  9
$DIMCLRT
 70
     0
  9
$DIMTFAC
 40
1.0
  9
$DIMGAP
 40
1.524
  9
$DIMJUST
 70
     0
  9
$DIMSD1
 70
     0
  9
$DIMSD2
 70
     0
  9
$DIMTOLJ
 70
     0
  9
$DIMTZIN
 70
     1
  9
$DIMALTZ
 70
     0
  9
$DIMALTTZ
 70
     0
  9
$DIMUPT
 70
     0
  9
$DIMDEC
 70
     2
  9
$DIMTDEC
 70
     2
  9
$DIMALTU
 70
     2
  9
$DIMALTTD
 70
     3
  9
$DIMTXSTY
  7
Standard
  9
$DIMAUNIT
 70
     0
  9
$DIMADEC
 70
     2
  9
$DIMALTRND
 40
0.0
  9
$DIMAZIN
 70
     0
  9
$DIMDSEP
 70
    44
  9
$DIMATFIT
 70
     3
  9
$DIMFRAC
 70
     0
  9
$DIMLDRBLK
  1

  9
$DIMLUNIT
 70
     2
  9
$DIMLWD
 70
    -2
  9
$DIMLWE
 70
    -2
  9
$DIMTMOVE
 70
     0
  9
$LUNITS
 70
     2
  9
$LUPREC
 70
     2
  9
$SKETCHINC
 40
1.0
  9
$FILLETRAD
 40
0.0
  9
$AUNITS
 70
     0
  9
$AUPREC
 70
     2
  9
$MENU
  1
.
  9
$ELEVATION
 40
0.0
  9
$PELEVATION
 40
0.0
  9
$THICKNESS
 40
0.0
  9
$LIMCHECK
 70
     0
  9
$CHAMFERA
 40
0.0
  9
$CHAMFERB
 40
0.0
  9
$CHAMFERC
 40
0.0
  9
$CHAMFERD
 40
0.0
  9
$SKPOLY
 70
     0
  9
$TDCREATE
 40
2459857.514084965
  9
$TDUCREATE
 40
2459857.430751632
  9
$TDUPDATE
 40
2459857.514127974
  9
$TDUUPDATE
 40
2459857.430794641
  9
$TDINDWG
 40
0.0000000116
  9
$TDUSRTIMER
 40
0.0000000116
  9
$USRTIMER
 70
     1
  9
$ANGBASE
 50
0.0
  9
$ANGDIR
 70
     0
  9
$PDMODE
 70
     0
  9
$PDSIZE
 40
-1.0
  9
$PLINEWID
 40
0.0
  9
$SPLFRAME
 70
     0
  9
$SPLINETYPE
 70
     6
  9
$SPLINESEGS
 70
     8
  9
$HANDSEED
  5
124
  9
$SURFTAB1
 70
     6
  9
$SURFTAB2
 70
     6
  9
$SURFTYPE
 70
     6
  9
$SURFU
 70
     6
  9
$SURFV
 70
     6
  9
$UCSBASE
  2

  9
$UCSNAME
  2

  9
$UCSORG
 10
0.0
 20
0.0
 30
0.0
  9
$UCSXDIR
 10
1.0
 20
0.0
 30
0.0
  9
$UCSYDIR
 10
0.0
 20
1.0
 30
0.0
  9
$UCSORTHOREF
  2

  9
$UCSORTHOVIEW
 70
     0
  9
$UCSORGTOP
 10
0.0
 20
0.0
 30
0.0
  9
$UCSORGBOTTOM
 10
0.0
 20
0.0
 30
0.0
  9
$UCSORGLEFT
 10
0.0
 20
0.0
 30
0.0
  9
$UCSORGRIGHT
 10
0.0
 20
0.0
 30
0.0
  9
$UCSORGFRONT
 10
0.0
 20
0.0
 30
0.0
  9
$UCSORGBACK
 10
0.0
 20
0.0
 30
0.0
  9
$PUCSBASE
  2

  9
$PUCSNAME
  2

  9
$PUCSORG
 10
0.0
 20
0.0
 30
0.0
  9
$PUCSXDIR
 10
1.0
 20
0.0
 30
0.0
  9
$PUCSYDIR
 10
0.0
 20
1.0
 30
0.0
  9
$PUCSORTHOREF
  2

  9
$PUCSORTHOVIEW
 70
     0
  9
$PUCSORGTOP
 10
0.0
 20
0.0
 30
0.0
  9
$PUCSORGBOTTOM
 10
0.0
 20
0.0
 30
0.0
  9
$PUCSORGLEFT
 10
0.0
 20
0.0
 30
0.0
  9
$PUCSORGRIGHT
 10
0.0
 20
0.0
 30
0.0
  9
$PUCSORGFRONT
 10
0.0
 20
0.0
 30
0.0
  9
$PUCSORGBACK
 10
0.0
 20
0.0
 30
0.0
  9
$USERI1
 70
     0
  9
$USERI2
 70
     0
  9
$USERI3
 70
     0
  9
$USERI4
 70
     0
  9
$USERI5
 70
     0
  9
$USERR1
 40
0.0
  9
$USERR2
 40
0.0
  9
$USERR3
 40
0.0
  9
$USERR4
 40
0.0
  9
$USERR5
 40
0.0
  9
$WORLDVIEW
 70
     1
  9
$SHADEDGE
 70
     3
  9
$SHADEDIF
 70
    70
  9
$TILEMODE
 70
     1
  9
$MAXACTVP
 70
    64
  9
$PINSBASE
 10
0.0
 20
0.0
 30
0.0
  9
$PLIMCHECK
 70
     0
  9
$PEXTMIN
 10
1.0000000000E+20
 20
1.0000000000E+20
 30
1.0000000000E+20
  9
$PEXTMAX
 10
-1.0000000000E+20
 20
-1.0000000000E+20
 30
-1.0000000000E+20
  9
$PLIMMIN
 10
0.0
 20
0.0
  9
$PLIMMAX
 10
420.0
 20
297.0
  9
$UNITMODE
 70
     0
  9
$VISRETAIN
 70
     1
  9
$PLINEGEN
 70
     0
  9
$PSLTSCALE
 70
     1
  9
$TREEDEPTH
 70
  3020
  9
$CMLSTYLE
  2
Standard
  9
$CMLJUST
 70
     0
  9
$CMLSCALE
 40
20.0
  9
$PROXYGRAPHICS
 70
     1
  9
$MEASUREMENT
 70
     1
  9
$CELWEIGHT
370
    -1
  9
$ENDCAPS
280
     0
  9
$JOINSTYLE
280
     0
  9
$LWDISPLAY
290
     1
  9
$INSUNITS
 70
     4
  9
$HYPERLINKBASE
  1

  9
$STYLESHEET
  1

  9
$XEDIT
290
     1
  9
$CEPSNTYPE
380
     0
  9
$PSTYLEMODE
290
     1
  9
$FINGERPRINTGUID
  2
{a9f2f276-2c0b-4601-9210-44b3c2f47feb}
  9
$VERSIONGUID
  2
{FAEB1C32-E019-11D5-929B-00C0DF256EC4}
  9
$EXTNAMES
290
     1
  9
$PSVPSCALE
 40
0.0
  9
$OLESTARTUP
290
     0
  0
ENDSEC
  0
SECTION
  2
CLASSES
  0
CLASS
  1
ACDBDICTIONARYWDFLT
  2
AcDbDictionaryWithDefault
  3
ObjectDBX Classes
 90
        0
280
     0
281
     0
  0
CLASS
  1
VISUALSTYLE
  2
AcDbVisualStyle
  3
ObjectDBX Classes
 90
     4095
280
     0
281
     0
  0
CLASS
  1
MATERIAL
  2
AcDbMaterial
  3
ObjectDBX Classes
 90
     1153
280
     0
281
     0
  0
CLASS
  1
SCALE
  2
AcDbScale
  3
ObjectDBX Classes
 90
     1153
280
     0
281
     0
  0
CLASS
  1
TABLESTYLE
  2
AcDbTableStyle
  3
ObjectDBX Classes
 90
     4095
280
     0
281
     0
  0
CLASS
  1
MLEADERSTYLE
  2
AcDbMLeaderStyle
  3
ACDB_MLEADERSTYLE_CLASS
 90
     4095
280
     0
281
     0
  0
CLASS
  1
SUN
  2
AcDbSun
  3
SCENEOE
 90
     1153
280
     0
281
     0
  0
CLASS
  1
ACDBPLACEHOLDER
  2
AcDbPlaceHolder
  3
ObjectDBX Classes
 90
        0
280
     0
281
     0
  0
CLASS
  1
LAYOUT
  2
AcDbLayout
  3
ObjectDBX Classes
 90
        0
280
     0
281
     0
  0
ENDSEC
  0
SECTION
  2
TABLES
  0
TABLE
  2
VPORT
  5
8
330
0
100
AcDbSymbolTable
 70
     1
  0
VPORT
  5
29
330
8
100
AcDbSymbolTableRecord
100
AcDbViewportTableRecord
  2
*Active
 70
     0
 10
0.0
 20
0.0
 11
1.0
 21
1.0
 12
22.75
 22
18.5
 13
0.0
 23
0.0
 14
10.0
 24
10.0
 15
10.0
 25
10.0
 16
0.0
 26
0.0
 36
1.0
 17
0.0
 27
0.0
 37
0.0
 40
42.84
 41
1.0833333333
 42
50.0
 43
0.0
 44
0.0
 50
0.0
 51
0.0
 71
     0
 72
   100
 73
     1
 74
     3
 75
     0
 76
     0
 77
     0
 78
     0
281
     0
 65
     1
110
0.0
120
0.0
130
0.0
111
1.0
121
0.0
131
0.0
112
0.0
122
1.0
132
0.0
 79
     0
146
0.0
  0
ENDTAB
  0
TABLE
  2
LTYPE
  5
5
330
0
100
AcDbSymbolTable
 70
     6
  0
LTYPE
  5
14
330
5
100
AcDbSymbolTableRecord
100
AcDbLinetypeTableRecord
  2
ByBlock
 70
     0
  3

 72
    65
 73
     0
 40
0.0
  0
LTYPE
  5
15
330
5
100
AcDbSymbolTableRecord
100
AcDbLinetypeTableRecord
  2
ByLayer
 70
     0
  3

 72
    65
 73
     0
 40
0.0
  0
LTYPE
  5
16
330
5
100
AcDbSymbolTableRecord
100
AcDbLinetypeTableRecord
  2
Continuous
 70
     0
  3
Solid line
 72
    65
 73
     0
 40
0.0
  0
LTYPE
  5
5E
330
5
100
AcDbSymbolTableRecord
100
AcDbLinetypeTableRecord
  2
HIDDEN
 70
     0
  3
Hidden __ __ __ __ __ __ __ __ __ __ __ __ __ __
 72
    65
 73
     2
 40
1.905
 49
1.27
 74
     0
 49
-0.635
 74
     0
  0
LTYPE
  5
5F
330
5
100
AcDbSymbolTableRecord
100
AcDbLinetypeTableRecord
  2
PHANTOM
 70
     0
  3
Phantom ______  __  __  ______  __  __  ______
 72
    65
 73
     6
 40
12.7
 49
6.35
 74
     0
 49
-1.27
 74
     0
 49
1.27
 74
     0
 49
-1.27
 74
     0
 49
1.27
 74
     0
 49
-1.27
 74
     0
  0
LTYPE
  5
60
330
5
100
AcDbSymbolTableRecord
100
AcDbLinetypeTableRecord
  2
CENTER
 70
     0
  3
Center ____ _ ____ _ ____ _ ____ _ ____ _ ____
 72
    65
 73
     4
 40
10.16
 49
6.35
 74
     0
 49
-1.27
 74
     0
 49
1.27
 74
     0
 49
-1.27
 74
     0
  0
LTYPE
  5
61
330
5
100
AcDbSymbolTableRecord
100
AcDbLinetypeTableRecord
  2
CENTERX2
 70
     0
  3
Center (2x) ________  __  ________  __  _____
 72
    65
 73
     4
 40
20.32
 49
12.7
 74
     0
 49
-2.54
 74
     0
 49
2.54
 74
     0
 49
-2.54
 74
     0
  0
LTYPE
  5
62
330
5
100
AcDbSymbolTableRecord
100
AcDbLinetypeTableRecord
  2
DOT2
 70
     0
  3
Dot (.5x) ........................................
 72
    65
 73
     2
 40
0.635
 49
0.0
 74
     0
 49
-0.635
 74
     0
  0
ENDTAB
  0
TABLE
  2
LAYER
  5
2
330
0
100
AcDbSymbolTable
 70
     1
  0
LAYER
  5
10
330
2
100
AcDbSymbolTableRecord
100
AcDbLayerTableRecord
  2
0
 70
     0
 62
     7
  6
Continuous
370
    -3
390
F
  0
ENDTAB
  0
TABLE
  2
STYLE
  5
3
330
0
100
AcDbSymbolTable
 70
     2
  0
STYLE
  5
11
330
3
100
AcDbSymbolTableRecord
100
AcDbTextStyleTableRecord
  2
Standard
 70
     0
 40
0.0
 41
1.0
 50
0.0
 71
     0
 42
3.5
  3
txt
  4

  0
STYLE
  5
120
330
3
100
AcDbSymbolTableRecord
100
AcDbTextStyleTableRecord
  2
SLDTEXTSTYLE0
 70
     0
 40
0.0
 41
0.7
 50
0.0
 71
     0
 42
3.5
  3
TXT
  4

  0
ENDTAB
  0
TABLE
  2
VIEW
  5
6
330
0
100
AcDbSymbolTable
 70
     0
  0
ENDTAB
  0
TABLE
  2
UCS
  5
7
330
0
100
AcDbSymbolTable
 70
     0
  0
ENDTAB
  0
TABLE
  2
APPID
  5
9
330
0
100
AcDbSymbolTable
 70
     1
  0
APPID
  5
12
330
9
100
AcDbSymbolTableRecord
100
AcDbRegAppTableRecord
  2
ACAD
 70
     0
  0
ENDTAB
  0
TABLE
  2
DIMSTYLE
  5
A
330
0
100
AcDbSymbolTable
 70
     1
100
AcDbDimStyleTable
  0
DIMSTYLE
105
27
330
A
100
AcDbSymbolTableRecord
100
AcDbDimStyleTableRecord
  2
ISO-25
 70
     0
 41
2.5
 42
0.625
 43
3.75
 44
1.25
 73
     0
 74
     0
 77
     1
 78
     8
140
2.5
141
2.5
143
0.0393700787
147
0.625
171
     3
172
     1
178
     0
271
     2
272
     2
274
     3
278
    44
283
     0
284
     8
340
11
  0
ENDTAB
  0
TABLE
  2
BLOCK_RECORD
  5
1
330
0
100
AcDbSymbolTable
 70
     1
  0
BLOCK_RECORD
  5
1F
330
1
100
AcDbSymbolTableRecord
100
AcDbBlockTableRecord
  2
*Model_Space
340
22
  0
BLOCK_RECORD
  5
1B
330
1
100
AcDbSymbolTableRecord
100
AcDbBlockTableRecord
  2
*Paper_Space
340
1E
  0
BLOCK_RECORD
  5
23
330
1
100
AcDbSymbolTableRecord
100
AcDbBlockTableRecord
  2
*Paper_Space0
340
26
  0
ENDTAB
  0
ENDSEC
  0
SECTION
  2
BLOCKS
  0
BLOCK
  5
20
330
1F
100
AcDbEntity
  8
0
100
AcDbBlockBegin
  2
*Model_Space
 70
     0
 10
0.0
 20
0.0
 30
0.0
  3
*Model_Space
  1

  0
ENDBLK
  5
21
330
1F
100
AcDbEntity
  8
0
100
AcDbBlockEnd
  0
BLOCK
  5
1C
330
1B
100
AcDbEntity
 67
     1
  8
0
100
AcDbBlockBegin
  2
*Paper_Space
 70
     0
 10
0.0
 20
0.0
 30
0.0
  3
*Paper_Space
  1

  0
ENDBLK
  5
1D
330
1B
100
AcDbEntity
 67
     1
  8
0
100
AcDbBlockEnd
  0
BLOCK
  5
24
330
23
100
AcDbEntity
  8
0
100
AcDbBlockBegin
  2
*Paper_Space0
 70
     0
 10
0.0
 20
0.0
 30
0.0
  3
*Paper_Space0
  1

  0
ENDBLK
  5
25
330
23
100
AcDbEntity
  8
0
100
AcDbBlockEnd
  0
ENDSEC
  0
SECTION
  2
ENTITIES
  0
SPLINE
  5
63
330
1F
100
AcDbEntity
  8
0
  6
Continuous
 62
     7
370
    25
100
AcDbSpline
210
0.0
220
0.0
230
1.0
 70
     8
 71
     3
 72
    23
 73
    19
 74
     0
 42
0.00000001
 43
0.00000001
 40
0.0
 40
0.0
 40
0.0
 40
0.0
 40
0.0670375973403105
 40
0.132525000900085
 40
0.1963986289447884
 40
0.2598509562558921
 40
0.3216061415716595
 40
0.3818345283978343
 40
0.4409439434582033
 40
0.4991824360480983
 40
0.5572996540462384
 40
0.6155417097130792
 40
0.6746010763140478
 40
0.734988605474819
 40
0.7970170488664511
 40
0.8613188992710706
 40
0.9287400148787195
 40
1.0
 40
1.0
 40
1.0
 40
1.0
 10
17.63569078947368
 20
12.47532894736842
 30
0.0
 10
17.63614209940692
 20
12.44678855255901
 30
0.0
 10
17.63703428307222
 20
12.39036773800318
 30
0.0
 10
17.64718497452156
 20
12.30730299012398
 30
0.0
 10
17.66155851917433
 20
12.22646973361066
 30
0.0
 10
17.68296524652584
 20
12.14879078562208
 30
0.0
 10
17.71003243889067
 20
12.07459279422056
 30
0.0
 10
17.74279900988494
 20
12.00469542290614
 30
0.0
 10
17.7821847150962
 20
11.94007352704348
 30
0.0
 10
17.8265713111322
 20
11.87988372638494
 30
0.0
 10
17.87739801813695
 20
11.82546877087226
 30
0.0
 10
17.93407055061894
 20
11.77667551328544
 30
0.0
 10
17.99648564622438
 20
11.73374970400814
 30
0.0
 10
18.06452761010562
 20
11.6969118807995
 30
0.0
 10
18.13856896474662
 20
11.66751557963024
 30
0.0
 10
18.21851937846906
 20
11.64677324467783
 30
0.0
 10
18.30411703775347
 20
11.63364521044834
 30
0.0
 10
18.3631630492971
 20
11.63228029591931
 30
0.0
 10
18.39350328947368
 20
11.63157894736842
 30
0.0
  0
SPLINE
  5
64
330
1F
100
AcDbEntity
  8
0
  6
Continuous
 62
     7
370
    25
100
AcDbSpline
210
0.0
220
0.0
230
1.0
 70
     8
 71
     3
 72
    23
 73
    19
 74
     0
 42
0.00000001
 43
0.00000001
 40
0.0
 40
0.0
 40
0.0
 40
0.0
 40
0.0692263020970393
 40
0.1351172188223687
 40
0.1983131108517167
 40
0.2596620654510149
 40
0.319215748697868
 40
0.3774334696736949
 40
0.4351862602113623
 40
0.4931124471140467
 40
0.5514816947861838
 40
0.6103227302442449
 40
0.6709604101135481
 40
0.7332677443792502
 40
0.7972256050970216
 40
0.8624258693692677
 40
0.9301913311705219
 40
1.0
 40
1.0
 40
1.0
 40
1.0
 10
18.44202302631579
 20
13.36842105263158
 30
0.0
 10
18.41072372429187
 20
13.36771778003661
 30
0.0
 10
18.3496331487094
 20
13.36634511915154
 30
0.0
 10
18.26079680230036
 20
13.35313634819641
 30
0.0
 10
18.17706825727772
 20
13.33255730413398
 30
0.0
 10
18.09930080340797
 20
13.30252644035209
 30
0.0
 10
18.0268179226082
 20
13.2661339120985
 30
0.0
 10
17.96080773970987
 20
13.22189806167236
 30
0.0
 10
17.89966869836044
 20
13.1722711601056
 30
0.0
 10
17.84556881478598
 20
13.1149467826597
 30
0.0
 10
17.79672574229787
 20
13.05250813986563
 30
0.0
 10
17.75478218254709
 20
12.98379726839869
 30
0.0
 10
17.71794383218793
 20
12.91025531220879
 30
0.0
 10
17.68813152722752
 20
12.83108781765924
 30
0.0
 10
17.66482205496058
 20
12.74766828355024
 30
0.0
 10
17.6479680953924
 20
12.66021984899356
 30
0.0
 10
17.6374138887447
 20
12.56906474579927
 30
0.0
 10
17.63627081475391
 20
12.50688205267493
 30
0.0
 10
17.63569078947368
 20
12.47532894736842
 30
0.0
  0
SPLINE
  5
65
330
1F
100
AcDbEntity
  8
0
  6
Continuous
 62
     7
370
    25
100
AcDbSpline
210
0.0
220
0.0
230
1.0
 70
     8
 71
     3
 72
    15
 73
    11
 74
     0
 42
0.00000001
 43
0.00000001
 40
0.0
 40
0.0
 40
0.0
 40
0.0
 40
0.1267502154965472
 40
0.2517834436747615
 40
0.3758816067838027
 40
0.5000339073844746
 40
0.6237524447393421
 40
0.7479167726881228
 40
0.8729320848017458
 40
1.0
 40
1.0
 40
1.0
 40
1.0
 10
18.8984375
 20
13.25246710526316
 30
0.0
 10
18.88059993010745
 20
13.26175863468562
 30
0.0
 10
18.84516642211112
 20
13.28021582835452
 30
0.0
 10
18.79019248954594
 20
13.30343191105449
 30
0.0
 10
18.73458210032763
 20
13.32382908537305
 30
0.0
 10
18.67787742294342
 20
13.34034489749401
 30
0.0
 10
18.6200874469369
 20
13.35252018575804
 30
0.0
 10
18.56161444195282
 20
13.36151148118424
 30
0.0
 10
18.50218902052501
 20
13.36771789867862
 30
0.0
 10
18.46218693087211
 20
13.36818539909702
 30
0.0
 10
18.44202302631579
 20
13.36842105263158
 30
0.0
  0
SPLINE
  5
67
330
1F
100
AcDbEntity
  8
0
  6
Continuous
 62
     7
370
    25
100
AcDbSpline
210
0.0
220
0.0
230
1.0
 70
     8
 71
     3
 72
    11
 73
     7
 74
     0
 42
0.00000001
 43
0.00000001
 40
0.0
 40
0.0
 40
0.0
 40
0.0
 40
0.2669129050618547
 40
0.5212986250899335
 40
0.7652555025371885
 40
1.0
 40
1.0
 40
1.0
 40
1.0
 10
18.44490131578947
 20
13.52631578947368
 30
0.0
 10
18.48606707152296
 20
13.52539035977801
 30
0.0
 10
18.56646652564334
 20
13.52358293413907
 30
0.0
 10
18.68369608627312
 20
13.5088462606206
 30
0.0
 10
18.79452550773548
 20
13.48538416314796
 30
0.0
 10
18.86424742427167
 20
13.46098027927143
 30
0.0
 10
18.8984375
 20
13.44901315789474
 30
0.0
  0
SPLINE
  5
68
330
1F
100
AcDbEntity
  8
0
  6
Continuous
 62
     7
370
    25
100
AcDbSpline
210
0.0
220
0.0
230
1.0
 70
     8
 71
     3
 72
    23
 73
    19
 74
     0
 42
0.00000001
 43
0.00000001
 40
0.0
 40
0.0
 40
0.0
 40
0.0
 40
0.0677449118306167
 40
0.1334185095279085
 40
0.19773150518254
 40
0.2609340388378166
 40
0.3230882085932249
 40
0.3835363340465582
 40
0.4428466786329345
 40
0.5018142858120732
 40
0.5606693394362352
 40
0.6193591739345462
 40
0.6788884683471414
 40
0.7396554713011851
 40
0.801772721439581
 40
0.865616389236432
 40
0.931242598026275
 40
0.9999999999999999
 40
0.9999999999999999
 40
0.9999999999999999
 40
0.9999999999999999
 10
17.44284539473684
 20
12.46175986842105
 30
0.0
 10
17.44371299790363
 20
12.49880687730965
 30
0.0
 10
17.44542167709809
 20
12.57176817543257
 30
0.0
 10
17.45899196837359
 20
12.67920249446914
 30
0.0
 10
17.48064037064667
 20
12.78268840976875
 30
0.0
 10
17.5109828587746
 20
12.88201725646765
 30
0.0
 10
17.55001399114013
 20
12.97596264162947
 30
0.0
 10
17.59652275057971
 20
13.06404934486218
 30
0.0
 10
17.65076548027326
 20
13.14551594717006
 30
0.0
 10
17.7120806316353
 20
13.22068572449697
 30
0.0
 10
17.78086671474204
 20
13.28864746036047
 30
0.0
 10
17.85672939808117
 20
13.34905414786913
 30
0.0
 10
17.9392429194182
 20
13.40202199856657
 30
0.0
 10
18.02880790935419
 20
13.44626074529832
 30
0.0
 10
18.12445550288828
 20
13.48257808439803
 30
0.0
 10
18.22638504474347
 20
13.50746233929189
 30
0.0
 10
18.33375796896395
 20
13.52392658393244
 30
0.0
 10
18.40728248308104
 20
13.5255071119763
 30
0.0
 10
18.44490131578947
 20
13.52631578947368
 30
0.0
  0
SPLINE
  5
69
330
1F
100
AcDbEntity
  8
0
  6
Continuous
 62
     7
370
    25
100
AcDbSpline
210
0.0
220
0.0
230
1.0
 70
     8
 71
     3
 72
    23
 73
    19
 74
     0
 42
0.00000001
 43
0.00000001
 40
0.0
 40
0.0
 40
0.0
 40
0.0
 40
0.067813925548892
 40
0.1327061152198656
 40
0.1960760286941093
 40
0.2579015073170259
 40
0.3183783373999066
 40
0.3775459769673576
 40
0.4361848623853328
 40
0.4945928226638175
 40
0.553447493559785
 40
0.612588037768296
 40
0.6732080540444567
 40
0.7355171384789062
 40
0.7993772158141351
 40
0.8642272904846706
 40
0.9311185345973048
 40
1.0
 40
1.0
 40
1.0
 40
1.0
 10
18.37253289473684
 20
11.47368421052632
 30
0.0
 10
18.33807633100289
 20
11.47446093114764
 30
0.0
 10
18.27064775081163
 20
11.47598090769276
 30
0.0
 10
18.17193982754854
 20
11.49063435220464
 30
0.0
 10
18.07792753907584
 20
11.5131740683911
 30
0.0
 10
17.98928332372528
 20
11.54593732411828
 30
0.0
 10
17.90653425915512
 20
11.58679672424826
 30
0.0
 10
17.82946016187042
 20
11.6345968128061
 30
0.0
 10
17.75890992661069
 20
11.68992691515163
 30
0.0
 10
17.69477772914976
 20
11.75235134008437
 30
0.0
 10
17.63770407789902
 20
11.82160339247722
 30
0.0
 10
17.58711685492134
 20
11.89706146778721
 30
0.0
 10
17.54353055368744
 20
11.97876364684299
 30
0.0
 10
17.50690844032643
 20
12.06641229954989
 30
0.0
 10
17.47828636374107
 20
12.15924990046108
 30
0.0
 10
17.45772710628941
 20
12.25653407290026
 30
0.0
 10
17.44513134230482
 20
12.35780954540037
 30
0.0
 10
17.44361478738851
 20
12.42677279531777
 30
0.0
 10
17.44284539473684
 20
12.46175986842105
 30
0.0
  0
SPLINE
  5
6A
330
1F
100
AcDbEntity
  8
0
  6
Continuous
 62
     7
370
    25
100
AcDbSpline
210
0.0
220
0.0
230
1.0
 70
     8
 71
     3
 72
    15
 73
    11
 74
     0
 42
0.00000001
 43
0.00000001
 40
0.0
 40
0.0
 40
0.0
 40
0.0
 40
0.1177130128600542
 40
0.237141854209336
 40
0.3575716881624998
 40
0.4808528316364264
 40
0.6058818738718581
 40
0.7337521996521358
 40
0.8654974179833375
 40
1.0
 40
1.0
 40
1.0
 40
1.0
 10
18.8984375
 20
11.58182565789474
 30
0.0
 10
18.87909476363682
 20
11.57303423528528
 30
0.0
 10
18.84012734401857
 20
11.55532324303311
 30
0.0
 10
18.77916801749377
 20
11.53400834363137
 30
0.0
 10
18.71637645675115
 20
11.51524062484874
 30
0.0
 10
18.65152969385032
 20
11.50019986183415
 30
0.0
 10
18.58469772199135
 20
11.48824338230646
 30
0.0
 10
18.51581833711381
 20
11.47952963536643
 30
0.0
 10
18.44483664330747
 20
11.47464215199621
 30
0.0
 10
18.3967999729486
 20
11.47400572138891
 30
0.0
 10
18.37253289473684
 20
11.47368421052632
 30
0.0
  0
SPLINE
  5
6C
330
1F
100
AcDbEntity
  8
0
  6
Continuous
 62
     7
370
    25
100
AcDbSpline
210
0.0
220
0.0
230
1.0
 70
     8
 71
     3
 72
    15
 73
    11
 74
     0
 42
0.00000001
 43
0.00000001
 40
0.0
 40
0.0
 40
0.0
 40
0.0
 40
0.1340563651349359
 40
0.2646845492881215
 40
0.3915005118482097
 40
0.5160564650742778
 40
0.6385883414574537
 40
0.7601354907996757
 40
0.8800614194585898
 40
1.0
 40
1.0
 40
1.0
 40
1.0
 10
18.39350328947368
 20
11.63157894736842
 30
0.0
 10
18.41709371771618
 20
11.63195049948032
 30
0.0
 10
18.46367130364874
 20
11.63268410211959
 30
0.0
 10
18.53229072378494
 20
11.63919666420895
 30
0.0
 10
18.59887517035099
 20
11.64867808616941
 30
0.0
 10
18.66303321006043
 20
11.66343386790043
 30
0.0
 10
18.72546293759768
 20
11.6812035042855
 30
0.0
 10
18.78532881518392
 20
11.70409722191766
 30
0.0
 10
18.84338823000257
 20
11.7301981865806
 30
0.0
 10
18.88008709809525
 20
11.75107446707691
 30
0.0
 10
18.8984375
 20
11.76151315789474
 30
0.0
  0
CIRCLE
  5
7D
330
1F
100
AcDbEntity
  8
0
  6
Continuous
 62
     7
370
    25
100
AcDbCircle
 10
22.75
 20
23.0
 30
0.0
 40
6.80000000000004
  0
SPLINE
  5
8E
330
1F
100
AcDbEntity
  8
0
  6
Continuous
 62
     7
370
    25
100
AcDbSpline
210
0.0
220
0.0
230
1.0
 70
     8
 71
     3
 72
    15
 73
    11
 74
     0
 42
0.00000001
 43
0.00000001
 40
0.0
 40
0.0
 40
0.0
 40
0.0
 40
0.1044783441684619
 40
0.2076543797344668
 40
0.3149009358744007
 40
0.4291551794418948
 40
0.5535005240066988
 40
0.6872600627892841
 40
0.835317220506123
 40
1.0
 40
1.0
 40
1.0
 40
1.0
 10
25.71052631578947
 20
12.41899671052632
 30
0.0
 10
25.72346530656756
 20
12.41290281365382
 30
0.0
 10
25.74918200533225
 20
12.40079097951924
 30
0.0
 10
25.78472496078087
 20
12.37616990980734
 30
0.0
 10
25.81785171006136
 20
12.34651151223954
 30
0.0
 10
25.84964256058437
 20
12.31143365559106
 30
0.0
 10
25.88086272228155
 20
12.27115978280838
 30
0.0
 10
25.91118549490012
 20
12.22461781918729
 30
0.0
 10
25.9433422603636
 20
12.17271610978366
 30
0.0
 10
25.96348737071634
 20
12.1349948578869
 30
0.0
 10
25.97409539473684
 20
12.11513157894737
 30
0.0
  0
SPLINE
  5
90
330
1F
100
AcDbEntity
  8
0
  6
Continuous
 62
     7
370
    25
100
AcDbSpline
210
0.0
220
0.0
230
1.0
 70
     8
 71
     3
 72
    23
 73
    19
 74
     0
 42
0.00000001
 43
0.00000001
 40
0.0
 40
0.0
 40
0.0
 40
0.0
 40
0.0675547281726016
 40
0.132825144416554
 40
0.1964162269169853
 40
0.2586284893174621
 40
0.3194283487248473
 40
0.3790931525897263
 40
0.4379187069879163
 40
0.4970293181699208
 40
0.555703399489489
 40
0.6151618773221503
 40
0.6758617541024807
 40
0.7374991896976637
 40
0.800501122573497
 40
0.8650599870122021
 40
0.9312843102090763
 40
1.0
 40
1.0
 40
1.0
 40
1.0
 10
26.16570723684211
 20
12.96998355263158
 30
0.0
 10
26.16527588629065
 20
12.95256439894306
 30
0.0
 10
26.1644277709797
 20
12.91831510704479
 30
0.0
 10
26.15881822740933
 20
12.86788059474557
 30
0.0
 10
26.14830112407193
 20
12.81968075780733
 30
0.0
 10
26.13448832747351
 20
12.77352118696164
 30
0.0
 10
26.11661796716586
 20
12.72987548805469
 30
0.0
 10
26.09584801570421
 20
12.68848604175371
 30
0.0
 10
26.07073827788329
 20
12.65009499371333
 30
0.0
 10
26.04296323356045
 20
12.61394538341273
 30
0.0
 10
26.01184664655571
 20
12.58037389954614
 30
0.0
 10
25.97755953675788
 20
12.54945195145333
 30
0.0
 10
25.94015437504289
 20
12.52109390211995
 30
0.0
 10
25.89968056767838
 20
12.49558383980024
 30
0.0
 10
25.85645545158473
 20
12.47281802924514
 30
0.0
 10
25.81022411479913
 20
12.45372791642231
 30
0.0
 10
25.76151932845012
 20
12.4369956951336
 30
0.0
 10
25.72773192305548
 20
12.42861156663554
 30
0.0
 10
25.71052631578947
 20
12.42434210526316
 30
0.0
  0
SPLINE
  5
91
330
1F
100
AcDbEntity
  8
0
  6
Continuous
 62
     7
370
    25
100
AcDbSpline
210
0.0
220
0.0
230
1.0
 70
     8
 71
     3
 72
    23
 73
    19
 74
     0
 42
0.00000001
 43
0.00000001
 40
0.0
 40
0.0
 40
0.0
 40
0.0
 40
0.0628000427095205
 40
0.1254812551046559
 40
0.1871107384079641
 40
0.2493699201810615
 40
0.3108519559191618
 40
0.3709511576640037
 40
0.430584704954747
 40
0.4898146426109542
 40
0.5490737611718255
 40
0.6083729800297526
 40
0.6687358901186287
 40
0.7305491882784676
 40
0.7940932623508292
 40
0.8591646482591075
 40
0.9278722088023925
 40
1.0
 40
1.0
 40
1.0
 40
1.0
 10
25.58141447368421
 20
13.5
 30
0.0
 10
25.5999318114958
 20
13.49958957546364
 30
0.0
 10
25.6369314485907
 20
13.4987695029967
 30
0.0
 10
25.69185236830152
 20
13.49263728336381
 30
0.0
 10
25.7457996409087
 20
13.48164393799602
 30
0.0
 10
25.79855011949697
 20
13.46712053661265
 30
0.0
 10
25.84938893434531
 20
13.44815842267078
 30
0.0
 10
25.89795847700748
 20
13.42569387219489
 30
0.0
 10
25.94314709995163
 20
13.39827095244164
 30
0.0
 10
25.98572058369446
 20
13.36744041967057
 30
0.0
 10
26.0251142349677
 20
13.33264961201649
 30
0.0
 10
26.05965166985945
 20
13.29261247699926
 30
0.0
 10
26.090686540679
 20
13.24892512090728
 30
0.0
 10
26.11746328097905
 20
13.20105341991587
 30
0.0
 10
26.13961703790672
 20
13.14927861418365
 30
0.0
 10
26.15451857327222
 20
13.09290157382257
 30
0.0
 10
26.16439385442252
 20
13.03283303439008
 30
0.0
 10
26.16526241164083
 20
12.99126983829869
 30
0.0
 10
26.16570723684211
 20
12.96998355263158
 30
0.0
  0
SPLINE
  5
97
330
1F
100
AcDbEntity
  8
0
  6
Continuous
 62
     7
370
    25
100
AcDbSpline
210
0.0
220
0.0
230
1.0
 70
     8
 71
     3
 72
    17
 73
    13
 74
     0
 42
0.00000001
 43
0.00000001
 40
0.0
 40
0.0
 40
0.0
 40
0.0
 40
0.090322212911128
 40
0.1742686492424581
 40
0.2524704997902417
 40
0.323795014819926
 40
0.4535232442669828
 40
0.5686058474975285
 40
0.6748178067118825
 40
0.7772948469183003
 40
0.8836396013142489
 40
1.0
 40
1.0
 40
1.0
 40
1.0
 10
25.79235197368421
 20
12.07195723684211
 30
0.0
 10
25.78497643474937
 20
12.08553868125922
 30
0.0
 10
25.77074599058528
 20
12.11174286622156
 30
0.0
 10
25.74971267939971
 20
12.14950593217284
 30
0.0
 10
25.72774979922845
 20
12.18290746722606
 30
0.0
 10
25.7005983132354
 20
12.22223040094251
 30
0.0
 10
25.66644351429989
 20
12.26436583485328
 30
0.0
 10
25.62234151444454
 20
12.30551377882085
 30
0.0
 10
25.57538116369665
 20
12.33559617067875
 30
0.0
 10
25.52487267080854
 20
12.35524823088648
 30
0.0
 10
25.4700825103745
 20
12.36655478383786
 30
0.0
 10
25.43193705699116
 20
12.36778058715297
 30
0.0
 10
25.41200657894737
 20
12.36842105263158
 30
0.0
  0
SPLINE
  5
A9
330
1F
100
AcDbEntity
  8
0
  6
Continuous
 62
     7
370
    25
100
AcDbSpline
210
0.0
220
0.0
230
1.0
 70
     8
 71
     3
 72
    11
 73
     7
 74
     0
 42
0.00000001
 43
0.00000001
 40
0.0
 40
0.0
 40
0.0
 40
0.0
 40
0.2640059550637838
 40
0.5031158761452423
 40
0.7412070555985885
 40
1.0
 40
1.0
 40
1.0
 40
1.0
 10
22.11965460526315
 20
11.79440789473684
 30
0.0
 10
22.12588880325042
 20
11.81220312463417
 30
0.0
 10
22.13776930792188
 20
11.84611547588715
 30
0.0
 10
22.15420571918246
 20
11.89644148128577
 30
0.0
 10
22.17284215445979
 20
11.94562064636268
 30
0.0
 10
22.18707645717444
 20
11.97813255872
 30
0.0
 10
22.19449013157894
 20
11.99506578947368
 30
0.0
  0
SPLINE
  5
AB
330
1F
100
AcDbEntity
  8
0
  6
Continuous
 62
     7
370
    25
100
AcDbSpline
210
0.0
220
0.0
230
1.0
 70
     8
 71
     3
 72
    11
 73
     7
 74
     0
 42
0.00000001
 43
0.00000001
 40
0.0
 40
0.0
 40
0.0
 40
0.0
 40
0.2419776158602513
 40
0.485967062146422
 40
0.737378966452886
 40
1.0
 40
1.0
 40
1.0
 40
1.0
 10
22.03330592105263
 20
11.99671052631579
 30
0.0
 10
22.04036698621805
 20
11.98070416258757
 30
0.0
 10
22.05454782307713
 20
11.94855835633605
 30
0.0
 10
22.07476269584576
 20
11.89923462721336
 30
0.0
 10
22.09469272186167
 20
11.84815113781629
 30
0.0
 10
22.10549885147127
 20
11.81258086051496
 30
0.0
 10
22.1110197368421
 20
11.79440789473684
 30
0.0
  0
SPLINE
  5
B1
330
1F
100
AcDbEntity
  8
0
  6
Continuous
 62
     7
370
    25
100
AcDbSpline
210
0.0
220
0.0
230
1.0
 70
     8
 71
     3
 72
    11
 73
     7
 74
     0
 42
0.00000001
 43
0.00000001
 40
0.0
 40
0.0
 40
0.0
 40
0.0
 40
0.2087970689832521
 40
0.4447510523956797
 40
0.7080639909858903
 40
1.0
 40
1.0
 40
1.0
 40
1.0
 10
21.31044407894736
 20
13.22532894736842
 30
0.0
 10
21.31210476605205
 20
13.20244772175478
 30
0.0
 10
21.31564213533175
 20
13.15370925420193
 30
0.0
 10
21.31795800278767
 20
13.07594140284217
 30
0.0
 10
21.32038171591996
 20
12.98904996685108
 30
0.0
 10
21.32033635148518
 20
12.92804518382686
 30
0.0
 10
21.3203125
 20
12.89597039473684
 30
0.0
  0
SPLINE
  5
B3
330
1F
100
AcDbEntity
  8
0
  6
Continuous
 62
     7
370
    25
100
AcDbSpline
210
0.0
220
0.0
230
1.0
 70
     8
 71
     3
 72
    11
 73
     7
 74
     0
 42
0.00000001
 43
0.00000001
 40
0.0
 40
0.0
 40
0.0
 40
0.0
 40
0.1993605518144862
 40
0.4330487721847356
 40
0.6989987914424847
 40
0.9999999999999999
 40
0.9999999999999999
 40
0.9999999999999999
 40
0.9999999999999999
 10
21.37828947368421
 20
13.02878289473684
 30
0.0
 10
21.37309113795763
 20
13.04148140133151
 30
0.0
 10
21.36179937093899
 20
13.06906495604857
 30
0.0
 10
21.34647615079463
 20
13.11468989572941
 30
0.0
 10
21.33088263574226
 20
13.16753779779795
 30
0.0
 10
21.32102370061882
 20
13.2052872893977
 30
0.0
 10
21.31578947368421
 20
13.22532894736842
 30
0.0
  0
SPLINE
  5
B7
330
1F
100
AcDbEntity
  8
0
  6
Continuous
 62
     7
370
    25
100
AcDbSpline
210
0.0
220
0.0
230
1.0
 70
     8
 71
     3
 72
    11
 73
     7
 74
     0
 42
0.00000001
 43
0.00000001
 40
0.0
 40
0.0
 40
0.0
 40
0.0
 40
0.3158042431710741
 40
0.5863844423323769
 40
0.8144942004560853
 40
1.0
 40
1.0
 40
1.0
 40
1.0
 10
22.91200657894737
 20
13.22245065789474
 30
0.0
 10
22.90576281296328
 20
13.20282978983329
 30
0.0
 10
22.89416940561109
 20
13.16639781646661
 30
0.0
 10
22.87718883229127
 20
13.11609637452584
 30
0.0
 10
22.86259916691356
 20
13.07390411595629
 30
0.0
 10
22.85157334835573
 20
13.04928276235351
 30
0.0
 10
22.84662828947368
 20
13.03824013157895
 30
0.0
  0
SPLINE
  5
B9
330
1F
100
AcDbEntity
  8
0
  6
Continuous
 62
     7
370
    25
100
AcDbSpline
210
0.0
220
0.0
230
1.0
 70
     8
 71
     3
 72
    15
 73
    11
 74
     0
 42
0.00000001
 43
0.00000001
 40
0.0
 40
0.0
 40
0.0
 40
0.0
 40
0.0829337247880456
 40
0.1791087120155639
 40
0.2861307136514698
 40
0.4052071616045109
 40
0.536402965608394
 40
0.6784660714640494
 40
0.8337976356715963
 40
1.0
 40
1.0
 40
1.0
 40
1.0
 10
22.90090460526315
 20
12.88075657894737
 30
0.0
 10
22.90102168945685
 20
12.89021416360039
 30
0.0
 10
22.90127455159686
 20
12.91063933816369
 30
0.0
 10
22.9021250602588
 20
12.94326129827419
 30
0.0
 10
22.90340399558091
 20
12.97999261337015
 30
0.0
 10
22.90493160480375
 20
13.02071347779839
 30
0.0
 10
22.90755539118297
 20
13.06538244479157
 30
0.0
 10
22.91042733783333
 20
13.11417633412156
 30
0.0
 10
22.91369381833012
 20
13.16694687220857
 30
0.0
 10
22.91610541057659
 20
13.20353703480542
 30
0.0
 10
22.91735197368421
 20
13.22245065789474
 30
0.0
  0
SPLINE
  5
BD
330
1F
100
AcDbEntity
  8
0
  6
Continuous
 62
     7
370
    25
100
AcDbSpline
210
0.0
220
0.0
230
1.0
 70
     8
 71
     3
 72
    23
 73
    19
 74
     0
 42
0.00000001
 43
0.00000001
 40
0.0
 40
0.0
 40
0.0
 40
0.0
 40
0.0698762844538679
 40
0.137191037685979
 40
0.2019731512734542
 40
0.2658106228553531
 40
0.3281339468220059
 40
0.38825341852342
 40
0.4469945106810134
 40
0.5048381085075166
 40
0.5629399710968118
 40
0.6211394963790182
 40
0.679294649859851
 40
0.7396540975971333
 40
0.8018115206733203
 40
0.8650014019990653
 40
0.9312960195931871
 40
0.9999999999999999
 40
0.9999999999999999
 40
0.9999999999999999
 40
0.9999999999999999
 10
25.52302631578947
 20
12.52631578947368
 30
0.0
 10
25.53934774754816
 20
12.52677698457721
 30
0.0
 10
25.57139229852845
 20
12.527682468252
 30
0.0
 10
25.61837900851441
 20
12.53283097647508
 30
0.0
 10
25.66318426020453
 20
12.54251829093717
 30
0.0
 10
25.70591094060093
 20
12.55552468474693
 30
0.0
 10
25.74617293389203
 20
12.57227573323094
 30
0.0
 10
25.783334809441
 20
12.59266295312576
 30
0.0
 10
25.81776713307233
 20
12.61557228893467
 30
0.0
 10
25.84880910863133
 20
12.64221281956386
 30
0.0
 10
25.8767967178349
 20
12.67183328608653
 30
0.0
 10
25.90154397427866
 20
12.7043286125722
 30
0.0
 10
25.92269205204094
 20
12.73987207313263
 30
0.0
 10
25.94081101362632
 20
12.77805831257225
 30
0.0
 10
25.95529072889759
 20
12.81907119083441
 30
0.0
 10
25.96493788223364
 20
12.8628607641311
 30
0.0
 10
25.97135011649809
 20
12.90880141250877
 30
0.0
 10
25.97207947175097
 20
12.94035573330068
 30
0.0
 10
25.97245065789473
 20
12.95641447368421
 30
0.0
  0
SPLINE
  5
C1
330
1F
100
AcDbEntity
  8
0
  6
Continuous
 62
     7
370
    25
100
AcDbSpline
210
0.0
220
0.0
230
1.0
 70
     8
 71
     3
 72
    23
 73
    19
 74
     0
 42
0.00000001
 43
0.00000001
 40
0.0
 40
0.0
 40
0.0
 40
0.0
 40
0.0667274881089066
 40
0.129570482535356
 40
0.1902023573109113
 40
0.2487321058245085
 40
0.3056198140219582
 40
0.3618379691792941
 40
0.4183008294760427
 40
0.475147562128056
 40
0.533157450606951
 40
0.5914211836611248
 40
0.651341100891097
 40
0.7140696637260716
 40
0.7798239172154731
 40
0.8493894627207896
 40
0.9226847304422948
 40
1.0
 40
1.0
 40
1.0
 40
1.0
 10
25.97245065789473
 20
12.95641447368421
 30
0.0
 10
25.97220214600343
 20
12.97110069767343
 30
0.0
 10
25.97171958916541
 20
12.999618197475
 30
0.0
 10
25.96603420341809
 20
13.04113736962842
 30
0.0
 10
25.9577054729101
 20
13.08035248189487
 30
0.0
 10
25.94517754916685
 20
13.11706723110889
 30
0.0
 10
25.92966432915199
 20
13.15157674859698
 30
0.0
 10
25.90996017869092
 20
13.18332630284394
 30
0.0
 10
25.88754609978329
 20
13.21323370400686
 30
0.0
 10
25.86080018986855
 20
13.23990275245482
 30
0.0
 10
25.83147664140713
 20
13.26431414376771
 30
0.0
 10
25.79848907274237
 20
13.28484091445322
 30
0.0
 10
25.76285821221937
 20
13.30264429221085
 30
0.0
 10
25.72412070071094
 20
13.31758917696798
 30
0.0
 10
25.68187228284679
 20
13.32853110420998
 30
0.0
 10
25.63658928584383
 20
13.33609544355351
 30
0.0
 10
25.58838503406141
 20
13.3412588257836
 30
0.0
 10
25.55524990640954
 20
13.34181814106907
 30
0.0
 10
25.53824013157895
 20
13.3421052631579
 30
0.0
  0
SPLINE
  5
C3
330
1F
100
AcDbEntity
  8
0
  6
Continuous
 62
     7
370
    25
100
AcDbSpline
210
0.0
220
0.0
230
1.0
 70
     8
 71
     3
 72
    11
 73
     7
 74
     0
 42
0.00000001
 43
0.00000001
 40
0.0
 40
0.0
 40
0.0
 40
0.0
 40
0.2936676990750814
 40
0.5585332318149787
 40
0.7917361732336141
 40
1.0
 40
1.0
 40
1.0
 40
1.0
 10
19.96381578947369
 20
13.29111842105263
 30
0.0
 10
19.96093199125678
 20
13.27710871073398
 30
0.0
 10
19.9554472302733
 20
13.2504633261523
 30
0.0
 10
19.94564876889719
 20
13.21314574570829
 30
0.0
 10
19.9351240246588
 20
13.18038766164253
 30
0.0
 10
19.92807751187112
 20
13.16007568328856
 30
0.0
 10
19.92475328947369
 20
13.15049342105263
 30
0.0
  0
SPLINE
  5
C7
330
1F
100
AcDbEntity
  8
0
  6
Continuous
 62
     7
370
    25
100
AcDbSpline
210
0.0
220
0.0
230
1.0
 70
     8
 71
     3
 72
    11
 73
     7
 74
     0
 42
0.00000001
 43
0.00000001
 40
0.0
 40
0.0
 40
0.0
 40
0.0
 40
0.2087579911902191
 40
0.4425142720868131
 40
0.7073029087953485
 40
1.0
 40
1.0
 40
1.0
 40
1.0
 10
20.00657894736843
 20
13.15049342105263
 30
0.0
 10
20.00325843745371
 20
13.16007688511808
 30
0.0
 10
19.99621979419271
 20
13.18039141104742
 30
0.0
 10
19.9856381244726
 20
13.21309503666979
 30
0.0
 10
19.97617241916157
 20
13.25039934990454
 30
0.0
 10
19.9715749804315
 20
13.27709984362011
 30
0.0
 10
19.96916118421053
 20
13.29111842105264
 30
0.0
  0
SPLINE
  5
C9
330
1F
100
AcDbEntity
  8
0
  6
Continuous
 62
     7
370
    25
100
AcDbSpline
210
0.0
220
0.0
230
1.0
 70
     8
 71
     3
 72
    11
 73
     7
 74
     0
 42
0.00000001
 43
0.00000001
 40
0.0
 40
0.0
 40
0.0
 40
0.0
 40
0.2936676990750814
 40
0.5585332318149787
 40
0.7917361732336141
 40
1.0
 40
1.0
 40
1.0
 40
1.0
 10
27.2796052631579
 20
13.29111842105263
 30
0.0
 10
27.27672146494098
 20
13.27710871073398
 30
0.0
 10
27.27123670395751
 20
13.2504633261523
 30
0.0
 10
27.2614382425814
 20
13.21314574570829
 30
0.0
 10
27.250913498343
 20
13.18038766164253
 30
0.0
 10
27.24386698555533
 20
13.16007568328856
 30
0.0
 10
27.2405427631579
 20
13.15049342105263
 30
0.0
  0
SPLINE
  5
CD
330
1F
100
AcDbEntity
  8
0
  6
Continuous
 62
     7
370
    25
100
AcDbSpline
210
0.0
220
0.0
230
1.0
 70
     8
 71
     3
 72
    11
 73
     7
 74
     0
 42
0.00000001
 43
0.00000001
 40
0.0
 40
0.0
 40
0.0
 40
0.0
 40
0.2087579911902191
 40
0.4425142720868131
 40
0.7073029087953485
 40
1.0
 40
1.0
 40
1.0
 40
1.0
 10
27.32236842105263
 20
13.15049342105263
 30
0.0
 10
27.31904791113791
 20
13.16007688511808
 30
0.0
 10
27.31200926787691
 20
13.18039141104742
 30
0.0
 10
27.30142759815682
 20
13.21309503666979
 30
0.0
 10
27.29196189284577
 20
13.25039934990454
 30
0.0
 10
27.28736445411571
 20
13.27709984362011
 30
0.0
 10
27.28495065789474
 20
13.29111842105264
 30
0.0
  0
LINE
  5
CE
330
1F
100
AcDbEntity
  8
0
  6
Continuous
 62
     7
370
    25
100
AcDbLine
 10
18.8984375
 20
13.4490131579
 30
0.0
 11
18.8984375
 21
13.2524671053
 31
0.0
  0
LINE
  5
CF
330
1F
100
AcDbEntity
  8
0
  6
Continuous
 62
     7
370
    25
100
AcDbLine
 10
18.8984375
 20
11.7615131579
 30
0.0
 11
18.8984375
 21
11.5818256579
 31
0.0
  0
LINE
  5
D0
330
1F
100
AcDbEntity
  8
0
  6
Continuous
 62
     7
370
    25
100
AcDbLine
 10
19.8791118421
 20
13.5
 30
0.0
 11
20.0649671053
 21
13.5
 31
0.0
  0
LINE
  5
D1
330
1F
100
AcDbEntity
  8
0
  6
Continuous
 62
     7
370
    25
100
AcDbLine
 10
19.1212993421
 20
11.5
 30
0.0
 11
19.8791118421
 21
13.5
 31
0.0
  0
LINE
  5
D2
330
1F
100
AcDbEntity
  8
0
  6
Continuous
 62
     7
370
    25
100
AcDbLine
 10
19.3268914474
 20
11.5
 30
0.0
 11
19.1212993421
 21
11.5
 31
0.0
  0
LINE
  5
D3
330
1F
100
AcDbEntity
  8
0
  6
Continuous
 62
     7
370
    25
100
AcDbLine
 10
19.5402960526
 20
12.1052631579
 30
0.0
 11
19.3268914474
 21
11.5
 31
0.0
  0
LINE
  5
D4
330
1F
100
AcDbEntity
  8
0
  6
Continuous
 62
     7
370
    25
100
AcDbLine
 10
20.3939144737
 20
12.1052631579
 30
0.0
 11
19.5402960526
 21
12.1052631579
 31
0.0
  0
LINE
  5
D5
330
1F
100
AcDbEntity
  8
0
  6
Continuous
 62
     7
370
    25
100
AcDbLine
 10
20.6130756579
 20
11.5
 30
0.0
 11
20.3939144737
 21
12.1052631579
 31
0.0
  0
LINE
  5
D6
330
1F
100
AcDbEntity
  8
0
  6
Continuous
 62
     7
370
    25
100
AcDbLine
 10
20.8186677632
 20
11.5
 30
0.0
 11
20.6130756579
 21
11.5
 31
0.0
  0
LINE
  5
D7
330
1F
100
AcDbEntity
  8
0
  6
Continuous
 62
     7
370
    25
100
AcDbLine
 10
20.0649671053
 20
13.5
 30
0.0
 11
20.8186677632
 21
11.5
 31
0.0
  0
LINE
  5
D8
330
1F
100
AcDbEntity
  8
0
  6
Continuous
 62
     7
370
    25
100
AcDbLine
 10
27.1949013158
 20
13.5
 30
0.0
 11
27.3807565789
 21
13.5
 31
0.0
  0
LINE
  5
D9
330
1F
100
AcDbEntity
  8
0
  6
Continuous
 62
     7
370
    25
100
AcDbLine
 10
26.4370888158
 20
11.5
 30
0.0
 11
27.1949013158
 21
13.5
 31
0.0
  0
LINE
  5
DA
330
1F
100
AcDbEntity
  8
0
  6
Continuous
 62
     7
370
    25
100
AcDbLine
 10
26.6426809211
 20
11.5
 30
0.0
 11
26.4370888158
 21
11.5
 31
0.0
  0
LINE
  5
DB
330
1F
100
AcDbEntity
  8
0
  6
Continuous
 62
     7
370
    25
100
AcDbLine
 10
26.8560855263
 20
12.1052631579
 30
0.0
 11
26.6426809211
 21
11.5
 31
0.0
  0
LINE
  5
DC
330
1F
100
AcDbEntity
  8
0
  6
Continuous
 62
     7
370
    25
100
AcDbLine
 10
27.7097039474
 20
12.1052631579
 30
0.0
 11
26.8560855263
 21
12.1052631579
 31
0.0
  0
LINE
  5
DD
330
1F
100
AcDbEntity
  8
0
  6
Continuous
 62
     7
370
    25
100
AcDbLine
 10
27.9288651316
 20
11.5
 30
0.0
 11
27.7097039474
 21
12.1052631579
 31
0.0
  0
LINE
  5
DE
330
1F
100
AcDbEntity
  8
0
  6
Continuous
 62
     7
370
    25
100
AcDbLine
 10
28.1344572368
 20
11.5
 30
0.0
 11
27.9288651316
 21
11.5
 31
0.0
  0
LINE
  5
DF
330
1F
100
AcDbEntity
  8
0
  6
Continuous
 62
     7
370
    25
100
AcDbLine
 10
27.3807565789
 20
13.5
 30
0.0
 11
28.1344572368
 21
11.5
 31
0.0
  0
LINE
  5
E0
330
1F
100
AcDbEntity
  8
0
  6
Continuous
 62
     7
370
    25
100
AcDbLine
 10
0.0
 20
0.0
 30
0.0
 11
0.0
 21
37.0
 31
0.0
  0
LINE
  5
E1
330
1F
100
AcDbEntity
  8
0
  6
Continuous
 62
     7
370
    25
100
AcDbLine
 10
0.0
 20
37.0
 30
0.0
 11
12.5
 21
37.0
 31
0.0
  0
LINE
  5
E2
330
1F
100
AcDbEntity
  8
0
  6
Continuous
 62
     7
370
    25
100
AcDbLine
 10
12.5
 20
37.0
 30
0.0
 11
14.5
 21
39.5
 31
0.0
  0
LINE
  5
E3
330
1F
100
AcDbEntity
  8
0
  6
Continuous
 62
     7
370
    25
100
AcDbLine
 10
14.5
 20
39.5
 30
0.0
 11
16.5
 21
37.0
 31
0.0
  0
LINE
  5
E4
330
1F
100
AcDbEntity
  8
0
  6
Continuous
 62
     7
370
    25
100
AcDbLine
 10
16.5
 20
37.0
 30
0.0
 11
29.0
 21
37.0
 31
0.0
  0
LINE
  5
E5
330
1F
100
AcDbEntity
  8
0
  6
Continuous
 62
     7
370
    25
100
AcDbLine
 10
31.0
 20
39.5
 30
0.0
 11
29.0
 21
37.0
 31
0.0
  0
LINE
  5
E6
330
1F
100
AcDbEntity
  8
0
  6
Continuous
 62
     7
370
    25
100
AcDbLine
 10
33.0
 20
37.0
 30
0.0
 11
31.0
 21
39.5
 31
0.0
  0
LINE
  5
E7
330
1F
100
AcDbEntity
  8
0
  6
Continuous
 62
     7
370
    25
100
AcDbLine
 10
33.0
 20
37.0
 30
0.0
 11
45.5
 21
37.0
 31
0.0
  0
LINE
  5
E8
330
1F
100
AcDbEntity
  8
0
  6
Continuous
 62
     7
370
    25
100
AcDbLine
 10
45.5
 20
0.0
 30
0.0
 11
45.5
 21
37.0
 31
0.0
  0
LINE
  5
E9
330
1F
100
AcDbEntity
  8
0
  6
Continuous
 62
     7
370
    25
100
AcDbLine
 10
33.0
 20
0.0
 30
0.0
 11
45.5
 21
0.0
 31
0.0
  0
LINE
  5
EA
330
1F
100
AcDbEntity
  8
0
  6
Continuous
 62
     7
370
    25
100
AcDbLine
 10
33.0
 20
0.0
 30
0.0
 11
31.0
 21
-2.5
 31
0.0
  0
LINE
  5
EB
330
1F
100
AcDbEntity
  8
0
  6
Continuous
 62
     7
370
    25
100
AcDbLine
 10
31.0
 20
-2.5
 30
0.0
 11
29.0
 21
0.0
 31
0.0
  0
LINE
  5
EC
330
1F
100
AcDbEntity
  8
0
  6
Continuous
 62
     7
370
    25
100
AcDbLine
 10
16.5
 20
0.0
 30
0.0
 11
29.0
 21
0.0
 31
0.0
  0
LINE
  5
ED
330
1F
100
AcDbEntity
  8
0
  6
Continuous
 62
     7
370
    25
100
AcDbLine
 10
14.5
 20
-2.5
 30
0.0
 11
16.5
 21
0.0
 31
0.0
  0
LINE
  5
EE
330
1F
100
AcDbEntity
  8
0
  6
Continuous
 62
     7
370
    25
100
AcDbLine
 10
12.5
 20
0.0
 30
0.0
 11
14.5
 21
-2.5
 31
0.0
  0
LINE
  5
EF
330
1F
100
AcDbEntity
  8
0
  6
Continuous
 62
     7
370
    25
100
AcDbLine
 10
0.0
 20
0.0
 30
0.0
 11
12.5
 21
0.0
 31
0.0
  0
LINE
  5
F0
330
1F
100
AcDbEntity
  8
0
  6
Continuous
 62
     7
370
    25
100
AcDbLine
 10
25.7105263158
 20
12.4243421053
 30
0.0
 11
25.7105263158
 21
12.4189967105
 31
0.0
  0
LINE
  5
F1
330
1F
100
AcDbEntity
  8
0
  6
Continuous
 62
     7
370
    25
100
AcDbLine
 10
25.0082236842
 20
13.5
 30
0.0
 11
25.5814144737
 21
13.5
 31
0.0
  0
LINE
  5
F2
330
1F
100
AcDbEntity
  8
0
  6
Continuous
 62
     7
370
    25
100
AcDbLine
 10
25.0082236842
 20
11.5
 30
0.0
 11
25.0082236842
 21
13.5
 31
0.0
  0
LINE
  5
F3
330
1F
100
AcDbEntity
  8
0
  6
Continuous
 62
     7
370
    25
100
AcDbLine
 10
25.1928453947
 20
11.5
 30
0.0
 11
25.0082236842
 21
11.5
 31
0.0
  0
LINE
  5
F4
330
1F
100
AcDbEntity
  8
0
  6
Continuous
 62
     7
370
    25
100
AcDbLine
 10
25.1928453947
 20
12.3684210526
 30
0.0
 11
25.1928453947
 21
11.5
 31
0.0
  0
LINE
  5
F5
330
1F
100
AcDbEntity
  8
0
  6
Continuous
 62
     7
370
    25
100
AcDbLine
 10
25.4120065789
 20
12.3684210526
 30
0.0
 11
25.1928453947
 21
12.3684210526
 31
0.0
  0
LINE
  5
F6
330
1F
100
AcDbEntity
  8
0
  6
Continuous
 62
     7
370
    25
100
AcDbLine
 10
26.0921052632
 20
11.5
 30
0.0
 11
25.7923519737
 21
12.0719572368
 31
0.0
  0
LINE
  5
F7
330
1F
100
AcDbEntity
  8
0
  6
Continuous
 62
     7
370
    25
100
AcDbLine
 10
26.3083881579
 20
11.5
 30
0.0
 11
26.0921052632
 21
11.5
 31
0.0
  0
LINE
  5
F8
330
1F
100
AcDbEntity
  8
0
  6
Continuous
 62
     7
370
    25
100
AcDbLine
 10
25.9740953947
 20
12.1151315789
 30
0.0
 11
26.3083881579
 21
11.5
 31
0.0
  0
LINE
  5
F9
330
1F
100
AcDbEntity
  8
0
  6
Continuous
 62
     7
370
    25
100
AcDbLine
 10
23.7717927632
 20
11.6578947368
 30
0.0
 11
24.6015625
 21
11.6578947368
 31
0.0
  0
LINE
  5
FA
330
1F
100
AcDbEntity
  8
0
  6
Continuous
 62
     7
370
    25
100
AcDbLine
 10
23.7717927632
 20
12.4473684211
 30
0.0
 11
23.7717927632
 21
11.6578947368
 31
0.0
  0
LINE
  5
FB
330
1F
100
AcDbEntity
  8
0
  6
Continuous
 62
     7
370
    25
100
AcDbLine
 10
24.4987664474
 20
12.4473684211
 30
0.0
 11
23.7717927632
 21
12.4473684211
 31
0.0
  0
LINE
  5
FC
330
1F
100
AcDbEntity
  8
0
  6
Continuous
 62
     7
370
    25
100
AcDbLine
 10
24.4987664474
 20
12.6052631579
 30
0.0
 11
24.4987664474
 21
12.4473684211
 31
0.0
  0
LINE
  5
FD
330
1F
100
AcDbEntity
  8
0
  6
Continuous
 62
     7
370
    25
100
AcDbLine
 10
23.7717927632
 20
12.6052631579
 30
0.0
 11
24.4987664474
 21
12.6052631579
 31
0.0
  0
LINE
  5
FE
330
1F
100
AcDbEntity
  8
0
  6
Continuous
 62
     7
370
    25
100
AcDbLine
 10
23.7717927632
 20
13.3421052632
 30
0.0
 11
23.7717927632
 21
12.6052631579
 31
0.0
  0
LINE
  5
FF
330
1F
100
AcDbEntity
  8
0
  6
Continuous
 62
     7
370
    25
100
AcDbLine
 10
24.5571546053
 20
13.3421052632
 30
0.0
 11
23.7717927632
 21
13.3421052632
 31
0.0
  0
LINE
  5
100
330
1F
100
AcDbEntity
  8
0
  6
Continuous
 62
     7
370
    25
100
AcDbLine
 10
24.5571546053
 20
13.5
 30
0.0
 11
24.5571546053
 21
13.3421052632
 31
0.0
  0
LINE
  5
101
330
1F
100
AcDbEntity
  8
0
  6
Continuous
 62
     7
370
    25
100
AcDbLine
 10
23.5871710526
 20
13.5
 30
0.0
 11
24.5571546053
 21
13.5
 31
0.0
  0
LINE
  5
102
330
1F
100
AcDbEntity
  8
0
  6
Continuous
 62
     7
370
    25
100
AcDbLine
 10
23.5871710526
 20
11.5
 30
0.0
 11
23.5871710526
 21
13.5
 31
0.0
  0
LINE
  5
103
330
1F
100
AcDbEntity
  8
0
  6
Continuous
 62
     7
370
    25
100
AcDbLine
 10
24.6015625
 20
11.5
 30
0.0
 11
23.5871710526
 21
11.5
 31
0.0
  0
LINE
  5
104
330
1F
100
AcDbEntity
  8
0
  6
Continuous
 62
     7
370
    25
100
AcDbLine
 10
24.6015625
 20
11.6578947368
 30
0.0
 11
24.6015625
 21
11.5
 31
0.0
  0
LINE
  5
105
330
1F
100
AcDbEntity
  8
0
  6
Continuous
 62
     7
370
    25
100
AcDbLine
 10
22.8758223684
 20
13.5
 30
0.0
 11
23.0826480263
 21
13.5
 31
0.0
  0
LINE
  5
106
330
1F
100
AcDbEntity
  8
0
  6
Continuous
 62
     7
370
    25
100
AcDbLine
 10
22.1944901316
 20
11.9950657895
 30
0.0
 11
22.8758223684
 21
13.5
 31
0.0
  0
LINE
  5
107
330
1F
100
AcDbEntity
  8
0
  6
Continuous
 62
     7
370
    25
100
AcDbLine
 10
22.1110197368
 20
11.7944078947
 30
0.0
 11
22.1196546053
 21
11.7944078947
 31
0.0
  0
LINE
  5
108
330
1F
100
AcDbEntity
  8
0
  6
Continuous
 62
     7
370
    25
100
AcDbLine
 10
21.3577302632
 20
13.5
 30
0.0
 11
22.0333059211
 21
11.9967105263
 31
0.0
  0
LINE
  5
109
330
1F
100
AcDbEntity
  8
0
  6
Continuous
 62
     7
370
    25
100
AcDbLine
 10
21.1398026316
 20
13.5
 30
0.0
 11
21.3577302632
 21
13.5
 31
0.0
  0
LINE
  5
10A
330
1F
100
AcDbEntity
  8
0
  6
Continuous
 62
     7
370
    25
100
AcDbLine
 10
21.1398026316
 20
11.5
 30
0.0
 11
21.1398026316
 21
13.5
 31
0.0
  0
LINE
  5
10B
330
1F
100
AcDbEntity
  8
0
  6
Continuous
 62
     7
370
    25
100
AcDbLine
 10
21.3203125
 20
11.5
 30
0.0
 11
21.1398026316
 21
11.5
 31
0.0
  0
LINE
  5
10C
330
1F
100
AcDbEntity
  8
0
  6
Continuous
 62
     7
370
    25
100
AcDbLine
 10
21.3203125
 20
12.8959703947
 30
0.0
 11
21.3203125
 21
11.5
 31
0.0
  0
LINE
  5
10D
330
1F
100
AcDbEntity
  8
0
  6
Continuous
 62
     7
370
    25
100
AcDbLine
 10
21.3157894737
 20
13.2253289474
 30
0.0
 11
21.3104440789
 21
13.2253289474
 31
0.0
  0
LINE
  5
10E
330
1F
100
AcDbEntity
  8
0
  6
Continuous
 62
     7
370
    25
100
AcDbLine
 10
22.0736019737
 20
11.5
 30
0.0
 11
21.3782894737
 21
13.0287828947
 31
0.0
  0
LINE
  5
10F
330
1F
100
AcDbEntity
  8
0
  6
Continuous
 62
     7
370
    25
100
AcDbLine
 10
22.1529605263
 20
11.5
 30
0.0
 11
22.0736019737
 21
11.5
 31
0.0
  0
LINE
  5
110
330
1F
100
AcDbEntity
  8
0
  6
Continuous
 62
     7
370
    25
100
AcDbLine
 10
22.8466282895
 20
13.0382401316
 30
0.0
 11
22.1529605263
 21
11.5
 31
0.0
  0
LINE
  5
111
330
1F
100
AcDbEntity
  8
0
  6
Continuous
 62
     7
370
    25
100
AcDbLine
 10
22.9173519737
 20
13.2224506579
 30
0.0
 11
22.9120065789
 21
13.2224506579
 31
0.0
  0
LINE
  5
112
330
1F
100
AcDbEntity
  8
0
  6
Continuous
 62
     7
370
    25
100
AcDbLine
 10
22.9009046053
 20
11.5
 30
0.0
 11
22.9009046053
 21
12.8807565789
 31
0.0
  0
LINE
  5
113
330
1F
100
AcDbEntity
  8
0
  6
Continuous
 62
     7
370
    25
100
AcDbLine
 10
23.0826480263
 20
11.5
 30
0.0
 11
22.9009046053
 21
11.5
 31
0.0
  0
LINE
  5
114
330
1F
100
AcDbEntity
  8
0
  6
Continuous
 62
     7
370
    25
100
AcDbLine
 10
23.0826480263
 20
13.5
 30
0.0
 11
23.0826480263
 21
11.5
 31
0.0
  0
LINE
  5
115
330
1F
100
AcDbEntity
  8
0
  6
Continuous
 62
     7
370
    25
100
AcDbLine
 10
25.1928453947
 20
12.5263157895
 30
0.0
 11
25.5230263158
 21
12.5263157895
 31
0.0
  0
LINE
  5
116
330
1F
100
AcDbEntity
  8
0
  6
Continuous
 62
     7
370
    25
100
AcDbLine
 10
25.1928453947
 20
13.3421052632
 30
0.0
 11
25.1928453947
 21
12.5263157895
 31
0.0
  0
LINE
  5
117
330
1F
100
AcDbEntity
  8
0
  6
Continuous
 62
     7
370
    25
100
AcDbLine
 10
25.5382401316
 20
13.3421052632
 30
0.0
 11
25.1928453947
 21
13.3421052632
 31
0.0
  0
LINE
  5
118
330
1F
100
AcDbEntity
  8
0
  6
Continuous
 62
     7
370
    25
100
AcDbLine
 10
19.9247532895
 20
13.1504934211
 30
0.0
 11
19.6027960526
 21
12.2631578947
 31
0.0
  0
LINE
  5
119
330
1F
100
AcDbEntity
  8
0
  6
Continuous
 62
     7
370
    25
100
AcDbLine
 10
19.9691611842
 20
13.2911184211
 30
0.0
 11
19.9638157895
 21
13.2911184211
 31
0.0
  0
LINE
  5
11A
330
1F
100
AcDbEntity
  8
0
  6
Continuous
 62
     7
370
    25
100
AcDbLine
 10
20.3314144737
 20
12.2631578947
 30
0.0
 11
20.0065789474
 21
13.1504934211
 31
0.0
  0
LINE
  5
11B
330
1F
100
AcDbEntity
  8
0
  6
Continuous
 62
     7
370
    25
100
AcDbLine
 10
19.6027960526
 20
12.2631578947
 30
0.0
 11
20.3314144737
 21
12.2631578947
 31
0.0
  0
LINE
  5
11C
330
1F
100
AcDbEntity
  8
0
  6
Continuous
 62
     7
370
    25
100
AcDbLine
 10
27.2405427632
 20
13.1504934211
 30
0.0
 11
26.9185855263
 21
12.2631578947
 31
0.0
  0
LINE
  5
11D
330
1F
100
AcDbEntity
  8
0
  6
Continuous
 62
     7
370
    25
100
AcDbLine
 10
27.2849506579
 20
13.2911184211
 30
0.0
 11
27.2796052632
 21
13.2911184211
 31
0.0
  0
LINE
  5
11E
330
1F
100
AcDbEntity
  8
0
  6
Continuous
 62
     7
370
    25
100
AcDbLine
 10
27.6472039474
 20
12.2631578947
 30
0.0
 11
27.3223684211
 21
13.1504934211
 31
0.0
  0
LINE
  5
11F
330
1F
100
AcDbEntity
  8
0
  6
Continuous
 62
     7
370
    25
100
AcDbLine
 10
26.9185855263
 20
12.2631578947
 30
0.0
 11
27.6472039474
 21
12.2631578947
 31
0.0
  0
MTEXT
  5
121
330
1F
100
AcDbEntity
  8
0
  6
Continuous
 62
     7
100
AcDbMText
 10
0.0
 20
-3.5195663917
 30
0.0
 40
4.83362
 41
0.0
 71
     1
 72
     1
  1
SOLIDWORKS Educational Product.
  7
SLDTEXTSTYLE0
 73
     1
 44
1.0
  0
MTEXT
  5
122
330
1F
100
AcDbEntity
  8
0
  6
Continuous
 62
     7
100
AcDbMText
 10
0.0
 20
-10.7699963917
 30
0.0
 40
4.83362
 41
0.0
 71
     1
 72
     1
  1
For Instructional Use Only.
  7
SLDTEXTSTYLE0
 73
     1
 44
1.0
  0
ENDSEC
  0
SECTION
  2
OBJECTS
  0
DICTIONARY
  5
C
330
0
100
AcDbDictionary
281
     1
  3
ACAD_GROUP
350
D
  3
ACAD_LAYOUT
350
1A
  3
ACAD_MLINESTYLE
350
17
  3
ACAD_PLOTSETTINGS
350
19
  3
ACAD_PLOTSTYLENAME
350
E
  3
ACAD_SCALELIST
350
47
  3
DWGPROPS
350
123
  0
DICTIONARY
  5
D
102
{ACAD_REACTORS
330
C
102
}
330
C
100
AcDbDictionary
281
     1
  0
DICTIONARY
  5
1A
102
{ACAD_REACTORS
330
C
102
}
330
C
100
AcDbDictionary
281
     1
  3
Layout1
350
1E
  3
Layout2
350
26
  3
Model
350
22
  0
DICTIONARY
  5
17
102
{ACAD_REACTORS
330
C
102
}
330
C
100
AcDbDictionary
281
     1
  3
Standard
350
18
  0
DICTIONARY
  5
19
102
{ACAD_REACTORS
330
C
102
}
330
C
100
AcDbDictionary
281
     1
  0
ACDBDICTIONARYWDFLT
  5
E
102
{ACAD_REACTORS
330
C
102
}
330
C
100
AcDbDictionary
281
     1
  3
Normal
350
F
100
AcDbDictionaryWithDefault
340
F
  0
DICTIONARY
  5
47
102
{ACAD_REACTORS
330
C
102
}
330
C
100
AcDbDictionary
281
     1
  3
A0
350
48
  3
A1
350
49
  3
A2
350
4A
  3
A3
350
4B
  3
A4
350
4C
  3
A5
350
4D
  3
A6
350
4E
  3
A7
350
4F
  3
A8
350
50
  3
A9
350
51
  3
B0
350
52
  3
B1
350
53
  3
B2
350
54
  3
B3
350
55
  3
B4
350
56
  3
B5
350
57
  3
B6
350
58
  0
XRECORD
  5
123
102
{ACAD_REACTORS
330
C
102
}
330
C
100
AcDbXrecord
280
     1
  1
DWGPROPS COOKIE
  2

  3

  4

  6

  7

  8
Willi
  9

300
=
301
=
302
=
303
=
304
=
305
=
306
=
307
=
308
=
309
=
 40
0.0
 41
2459857.430751632
 42
2459857.430794641
  1

 90
        0
  0
LAYOUT
  5
1E
102
{ACAD_REACTORS
330
1A
102
}
330
1A
100
AcDbPlotSettings
  1

  2
none_device
  4

  6

 40
0.0
 41
0.0
 42
0.0
 43
0.0
 44
0.0
 45
0.0
 46
0.0
 47
0.0
 48
0.0
 49
0.0
140
0.0
141
0.0
142
1.0
143
1.0
 70
   688
 72
     1
 73
     0
 74
     5
  7

 75
    16
147
1.0
148
0.0
149
0.0
100
AcDbLayout
  1
Layout1
 70
     1
 71
     1
 10
0.0
 20
0.0
 11
420.0
 21
297.0
 12
0.0
 22
0.0
 32
0.0
 14
1.0000000000E+20
 24
1.0000000000E+20
 34
1.0000000000E+20
 15
-1.0000000000E+20
 25
-1.0000000000E+20
 35
-1.0000000000E+20
146
0.0
 13
0.0
 23
0.0
 33
0.0
 16
1.0
 26
0.0
 36
0.0
 17
0.0
 27
1.0
 37
0.0
 76
     0
330
1B
  0
LAYOUT
  5
26
102
{ACAD_REACTORS
330
1A
102
}
330
1A
100
AcDbPlotSettings
  1

  2
none_device
  4

  6

 40
0.0
 41
0.0
 42
0.0
 43
0.0
 44
0.0
 45
0.0
 46
0.0
 47
0.0
 48
0.0
 49
0.0
140
0.0
141
0.0
142
1.0
143
1.0
 70
   688
 72
     1
 73
     0
 74
     5
  7

 75
    16
147
1.0
148
0.0
149
0.0
100
AcDbLayout
  1
Layout2
 70
     1
 71
     2
 10
0.0
 20
0.0
 11
0.0
 21
0.0
 12
0.0
 22
0.0
 32
0.0
 14
0.0
 24
0.0
 34
0.0
 15
0.0
 25
0.0
 35
0.0
146
0.0
 13
0.0
 23
0.0
 33
0.0
 16
1.0
 26
0.0
 36
0.0
 17
0.0
 27
1.0
 37
0.0
 76
     0
330
23
  0
LAYOUT
  5
22
102
{ACAD_REACTORS
330
1A
102
}
330
1A
100
AcDbPlotSettings
  1

  2
none_device
  4
ANSI_A_(11.00_x_8.50_Inches)
  6

 40
6.35
 41
19.05
 42
6.35000508
 43
19.05000254
 44
279.4
 45
215.9
 46
17.57362246
 47
-5.2478226986
 48
0.0
 49
0.0
140
0.0
141
0.0
142
0.2003571429
143
1.0
 70
  1696
 72
     0
 73
     0
 74
     0
  7

 75
     0
147
0.0179189148
148
-1300.4909072572
149
0.0
100
AcDbLayout
  1
Model
 70
     1
 71
     0
 10
0.0
 20
0.0
 11
420.0
 21
297.0
 12
0.0
 22
0.0
 32
0.0
 14
0.0
 24
-2.5
 34
0.0
 15
45.5
 25
39.5
 35
0.0
146
0.0
 13
0.0
 23
0.0
 33
0.0
 16
1.0
 26
0.0
 36
0.0
 17
0.0
 27
1.0
 37
0.0
 76
     0
330
1F
331
29
  0
MLINESTYLE
  5
18
102
{ACAD_REACTORS
330
17
102
}
330
17
100
AcDbMlineStyle
  2
Standard
 70
     0
  3

 62
   256
 51
90.0
 52
90.0
 71
     2
 49
0.5
 62
   256
  6
BYLAYER
 49
-0.5
 62
   256
  6
BYLAYER
  0
ACDBPLACEHOLDER
  5
F
102
{ACAD_REACTORS
330
E
102
}
330
E
  0
SCALE
  5
48
102
{ACAD_REACTORS
330
47
102
}
330
47
100
AcDbScale
 70
     0
300
1:1
140
1.0
141
1.0
290
     1
  0
SCALE
  5
49
102
{ACAD_REACTORS
330
47
102
}
330
47
100
AcDbScale
 70
     0
300
1:2
140
1.0
141
2.0
290
     0
  0
SCALE
  5
4A
102
{ACAD_REACTORS
330
47
102
}
330
47
100
AcDbScale
 70
     0
300
1:4
140
1.0
141
4.0
290
     0
  0
SCALE
  5
4B
102
{ACAD_REACTORS
330
47
102
}
330
47
100
AcDbScale
 70
     0
300
1:5
140
1.0
141
5.0
290
     0
  0
SCALE
  5
4C
102
{ACAD_REACTORS
330
47
102
}
330
47
100
AcDbScale
 70
     0
300
1:8
140
1.0
141
8.0
290
     0
  0
SCALE
  5
4D
102
{ACAD_REACTORS
330
47
102
}
330
47
100
AcDbScale
 70
     0
300
1:10
140
1.0
141
10.0
290
     0
  0
SCALE
  5
4E
102
{ACAD_REACTORS
330
47
102
}
330
47
100
AcDbScale
 70
     0
300
1:16
140
1.0
141
16.0
290
     0
  0
SCALE
  5
4F
102
{ACAD_REACTORS
330
47
102
}
330
47
100
AcDbScale
 70
     0
300
1:20
140
1.0
141
20.0
290
     0
  0
SCALE
  5
50
102
{ACAD_REACTORS
330
47
102
}
330
47
100
AcDbScale
 70
     0
300
1:30
140
1.0
141
30.0
290
     0
  0
SCALE
  5
51
102
{ACAD_REACTORS
330
47
102
}
330
47
100
AcDbScale
 70
     0
300
1:40
140
1.0
141
40.0
290
     0
  0
SCALE
  5
52
102
{ACAD_REACTORS
330
47
102
}
330
47
100
AcDbScale
 70
     0
300
1:50
140
1.0
141
50.0
290
     0
  0
SCALE
  5
53
102
{ACAD_REACTORS
330
47
102
}
330
47
100
AcDbScale
 70
     0
300
1:100
140
1.0
141
100.0
290
     0
  0
SCALE
  5
54
102
{ACAD_REACTORS
330
47
102
}
330
47
100
AcDbScale
 70
     0
300
2:1
140
2.0
141
1.0
290
     0
  0
SCALE
  5
55
102
{ACAD_REACTORS
330
47
102
}
330
47
100
AcDbScale
 70
     0
300
4:1
140
4.0
141
1.0
290
     0
  0
SCALE
  5
56
102
{ACAD_REACTORS
330
47
102
}
330
47
100
AcDbScale
 70
     0
300
8:1
140
8.0
141
1.0
290
     0
  0
SCALE
  5
57
102
{ACAD_REACTORS
330
47
102
}
330
47
100
AcDbScale
 70
     0
300
10:1
140
10.0
141
1.0
290
     0
  0
SCALE
  5
58
102
{ACAD_REACTORS
330
47
102
}
330
47
100
AcDbScale
 70
     0
300
100:1
140
100.0
141
1.0
290
     0
  0
ENDSEC
  0
EOF
