  0
SECTION
  2
HEADER
  9
$ACADVER
  1
AC1015
  9
$ACADMAINTVER
 70
     6
  9
$DWGCODEPAGE
  3
UNDEFINED
  9
$INSBASE
 10
0.0
 20
0.0
 30
0.0
  9
$EXTMIN
 10
0.0
 20
-2.5
 30
0.0
  9
$EXTMAX
 10
45.5
 20
39.5
 30
0.0
  9
$LIMMIN
 10
0.0
 20
0.0
  9
$LIMMAX
 10
420.0
 20
297.0
  9
$ORTHOMODE
 70
     0
  9
$REGENMODE
 70
     1
  9
$FILLMODE
 70
     1
  9
$QTEXTMODE
 70
     0
  9
$MIRRTEXT
 70
     1
  9
$LTSCALE
 40
1.0
  9
$ATTMODE
 70
     1
  9
$TEXTSIZE
 40
3.5
  9
$TRACEWID
 40
1.0
  9
$TEXTSTYLE
  7
Standard
  9
$CLAYER
  8
0
  9
$CELTYPE
  6
ByLayer
  9
$CECOLOR
 62
   256
  9
$CELTSCALE
 40
1.0
  9
$DISPSILH
 70
     0
  9
$DIMSCALE
 40
1.0
  9
$DIMASZ
 40
3.302
  9
$DIMEXO
 40
0.0
  9
$DIMDLI
 40
3.75
  9
$DIMRND
 40
0.0
  9
$DIMDLE
 40
0.0
  9
$DIMEXE
 40
1.0
  9
$DIMTP
 40
0.0
  9
$DIMTM
 40
0.0
  9
$DIMTXT
 40
3.5
  9
$DIMCEN
 40
2.5
  9
$DIMTSZ
 40
0.0
  9
$DIMTOL
 70
     0
  9
$DIMLIM
 70
     0
  9
$DIMTIH
 70
     1
  9
$DIMTOH
 70
     1
  9
$DIMSE1
 70
     0
  9
$DIMSE2
 70
     0
  9
$DIMTAD
 70
     1
  9
$DIMZIN
 70
     1
  9
$DIMBLK
  1

  9
$DIMASO
 70
     1
  9
$DIMSHO
 70
     1
  9
$DIMPOST
  1

  9
$DIMAPOST
  1

  9
$DIMALT
 70
     0
  9
$DIMALTD
 70
     3
  9
$DIMALTF
 40
0.0393700787
  9
$DIMLFAC
 40
1.0
  9
$DIMTOFL
 70
     1
  9
$DIMTVP
 40
0.0
  9
$DIMTIX
 70
     0
  9
$DIMSOXD
 70
     0
  9
$DIMSAH
 70
     0
  9
$DIMBLK1
  1

  9
$DIMBLK2
  1

  9
$DIMSTYLE
  2
ISO-25
  9
$DIMCLRD
 70
     0
  9
$DIMCLRE
 70
     0
  9
$DIMCLRT
 70
     0
  9
$DIMTFAC
 40
1.0
  9
$DIMGAP
 40
1.524
  9
$DIMJUST
 70
     0
  9
$DIMSD1
 70
     0
  9
$DIMSD2
 70
     0
  9
$DIMTOLJ
 70
     0
  9
$DIMTZIN
 70
     1
  9
$DIMALTZ
 70
     0
  9
$DIMALTTZ
 70
     0
  9
$DIMUPT
 70
     0
  9
$DIMDEC
 70
     2
  9
$DIMTDEC
 70
     2
  9
$DIMALTU
 70
     2
  9
$DIMALTTD
 70
     3
  9
$DIMTXSTY
  7
Standard
  9
$DIMAUNIT
 70
     0
  9
$DIMADEC
 70
     2
  9
$DIMALTRND
 40
0.0
  9
$DIMAZIN
 70
     0
  9
$DIMDSEP
 70
    44
  9
$DIMATFIT
 70
     3
  9
$DIMFRAC
 70
     0
  9
$DIMLDRBLK
  1

  9
$DIMLUNIT
 70
     2
  9
$DIMLWD
 70
    -2
  9
$DIMLWE
 70
    -2
  9
$DIMTMOVE
 70
     0
  9
$LUNITS
 70
     2
  9
$LUPREC
 70
     2
  9
$SKETCHINC
 40
1.0
  9
$FILLETRAD
 40
0.0
  9
$AUNITS
 70
     0
  9
$AUPREC
 70
     2
  9
$MENU
  1
.
  9
$ELEVATION
 40
0.0
  9
$PELEVATION
 40
0.0
  9
$THICKNESS
 40
0.0
  9
$LIMCHECK
 70
     0
  9
$CHAMFERA
 40
0.0
  9
$CHAMFERB
 40
0.0
  9
$CHAMFERC
 40
0.0
  9
$CHAMFERD
 40
0.0
  9
$SKPOLY
 70
     0
  9
$TDCREATE
 40
2459857.513572928
  9
$TDUCREATE
 40
2459857.430239595
  9
$TDUPDATE
 40
2459857.513616215
  9
$TDUUPDATE
 40
2459857.430282882
  9
$TDINDWG
 40
0.0000000116
  9
$TDUSRTIMER
 40
0.0000000116
  9
$USRTIMER
 70
     1
  9
$ANGBASE
 50
0.0
  9
$ANGDIR
 70
     0
  9
$PDMODE
 70
     0
  9
$PDSIZE
 40
-1.0
  9
$PLINEWID
 40
0.0
  9
$SPLFRAME
 70
     0
  9
$SPLINETYPE
 70
     6
  9
$SPLINESEGS
 70
     8
  9
$HANDSEED
  5
11C
  9
$SURFTAB1
 70
     6
  9
$SURFTAB2
 70
     6
  9
$SURFTYPE
 70
     6
  9
$SURFU
 70
     6
  9
$SURFV
 70
     6
  9
$UCSBASE
  2

  9
$UCSNAME
  2

  9
$UCSORG
 10
0.0
 20
0.0
 30
0.0
  9
$UCSXDIR
 10
1.0
 20
0.0
 30
0.0
  9
$UCSYDIR
 10
0.0
 20
1.0
 30
0.0
  9
$UCSORTHOREF
  2

  9
$UCSORTHOVIEW
 70
     0
  9
$UCSORGTOP
 10
0.0
 20
0.0
 30
0.0
  9
$UCSORGBOTTOM
 10
0.0
 20
0.0
 30
0.0
  9
$UCSORGLEFT
 10
0.0
 20
0.0
 30
0.0
  9
$UCSORGRIGHT
 10
0.0
 20
0.0
 30
0.0
  9
$UCSORGFRONT
 10
0.0
 20
0.0
 30
0.0
  9
$UCSORGBACK
 10
0.0
 20
0.0
 30
0.0
  9
$PUCSBASE
  2

  9
$PUCSNAME
  2

  9
$PUCSORG
 10
0.0
 20
0.0
 30
0.0
  9
$PUCSXDIR
 10
1.0
 20
0.0
 30
0.0
  9
$PUCSYDIR
 10
0.0
 20
1.0
 30
0.0
  9
$PUCSORTHOREF
  2

  9
$PUCSORTHOVIEW
 70
     0
  9
$PUCSORGTOP
 10
0.0
 20
0.0
 30
0.0
  9
$PUCSORGBOTTOM
 10
0.0
 20
0.0
 30
0.0
  9
$PUCSORGLEFT
 10
0.0
 20
0.0
 30
0.0
  9
$PUCSORGRIGHT
 10
0.0
 20
0.0
 30
0.0
  9
$PUCSORGFRONT
 10
0.0
 20
0.0
 30
0.0
  9
$PUCSORGBACK
 10
0.0
 20
0.0
 30
0.0
  9
$USERI1
 70
     0
  9
$USERI2
 70
     0
  9
$USERI3
 70
     0
  9
$USERI4
 70
     0
  9
$USERI5
 70
     0
  9
$USERR1
 40
0.0
  9
$USERR2
 40
0.0
  9
$USERR3
 40
0.0
  9
$USERR4
 40
0.0
  9
$USERR5
 40
0.0
  9
$WORLDVIEW
 70
     1
  9
$SHADEDGE
 70
     3
  9
$SHADEDIF
 70
    70
  9
$TILEMODE
 70
     1
  9
$MAXACTVP
 70
    64
  9
$PINSBASE
 10
0.0
 20
0.0
 30
0.0
  9
$PLIMCHECK
 70
     0
  9
$PEXTMIN
 10
1.0000000000E+20
 20
1.0000000000E+20
 30
1.0000000000E+20
  9
$PEXTMAX
 10
-1.0000000000E+20
 20
-1.0000000000E+20
 30
-1.0000000000E+20
  9
$PLIMMIN
 10
0.0
 20
0.0
  9
$PLIMMAX
 10
420.0
 20
297.0
  9
$UNITMODE
 70
     0
  9
$VISRETAIN
 70
     1
  9
$PLINEGEN
 70
     0
  9
$PSLTSCALE
 70
     1
  9
$TREEDEPTH
 70
  3020
  9
$CMLSTYLE
  2
Standard
  9
$CMLJUST
 70
     0
  9
$CMLSCALE
 40
20.0
  9
$PROXYGRAPHICS
 70
     1
  9
$MEASUREMENT
 70
     1
  9
$CELWEIGHT
370
    -1
  9
$ENDCAPS
280
     0
  9
$JOINSTYLE
280
     0
  9
$LWDISPLAY
290
     1
  9
$INSUNITS
 70
     4
  9
$HYPERLINKBASE
  1

  9
$STYLESHEET
  1

  9
$XEDIT
290
     1
  9
$CEPSNTYPE
380
     0
  9
$PSTYLEMODE
290
     1
  9
$FINGERPRINTGUID
  2
{708d459b-6299-460a-bd8c-ed67fbfd8efc}
  9
$VERSIONGUID
  2
{FAEB1C32-E019-11D5-929B-00C0DF256EC4}
  9
$EXTNAMES
290
     1
  9
$PSVPSCALE
 40
0.0
  9
$OLESTARTUP
290
     0
  0
ENDSEC
  0
SECTION
  2
CLASSES
  0
CLASS
  1
ACDBDICTIONARYWDFLT
  2
AcDbDictionaryWithDefault
  3
ObjectDBX Classes
 90
        0
280
     0
281
     0
  0
CLASS
  1
VISUALSTYLE
  2
AcDbVisualStyle
  3
ObjectDBX Classes
 90
     4095
280
     0
281
     0
  0
CLASS
  1
MATERIAL
  2
AcDbMaterial
  3
ObjectDBX Classes
 90
     1153
280
     0
281
     0
  0
CLASS
  1
SCALE
  2
AcDbScale
  3
ObjectDBX Classes
 90
     1153
280
     0
281
     0
  0
CLASS
  1
TABLESTYLE
  2
AcDbTableStyle
  3
ObjectDBX Classes
 90
     4095
280
     0
281
     0
  0
CLASS
  1
MLEADERSTYLE
  2
AcDbMLeaderStyle
  3
ACDB_MLEADERSTYLE_CLASS
 90
     4095
280
     0
281
     0
  0
CLASS
  1
SUN
  2
AcDbSun
  3
SCENEOE
 90
     1153
280
     0
281
     0
  0
CLASS
  1
ACDBPLACEHOLDER
  2
AcDbPlaceHolder
  3
ObjectDBX Classes
 90
        0
280
     0
281
     0
  0
CLASS
  1
LAYOUT
  2
AcDbLayout
  3
ObjectDBX Classes
 90
        0
280
     0
281
     0
  0
ENDSEC
  0
SECTION
  2
TABLES
  0
TABLE
  2
VPORT
  5
8
330
0
100
AcDbSymbolTable
 70
     1
  0
VPORT
  5
29
330
8
100
AcDbSymbolTableRecord
100
AcDbViewportTableRecord
  2
*Active
 70
     0
 10
0.0
 20
0.0
 11
1.0
 21
1.0
 12
22.75
 22
18.5
 13
0.0
 23
0.0
 14
10.0
 24
10.0
 15
10.0
 25
10.0
 16
0.0
 26
0.0
 36
1.0
 17
0.0
 27
0.0
 37
0.0
 40
42.84
 41
1.0833333333
 42
50.0
 43
0.0
 44
0.0
 50
0.0
 51
0.0
 71
     0
 72
   100
 73
     1
 74
     3
 75
     0
 76
     0
 77
     0
 78
     0
281
     0
 65
     1
110
0.0
120
0.0
130
0.0
111
1.0
121
0.0
131
0.0
112
0.0
122
1.0
132
0.0
 79
     0
146
0.0
  0
ENDTAB
  0
TABLE
  2
LTYPE
  5
5
330
0
100
AcDbSymbolTable
 70
     6
  0
LTYPE
  5
14
330
5
100
AcDbSymbolTableRecord
100
AcDbLinetypeTableRecord
  2
ByBlock
 70
     0
  3

 72
    65
 73
     0
 40
0.0
  0
LTYPE
  5
15
330
5
100
AcDbSymbolTableRecord
100
AcDbLinetypeTableRecord
  2
ByLayer
 70
     0
  3

 72
    65
 73
     0
 40
0.0
  0
LTYPE
  5
16
330
5
100
AcDbSymbolTableRecord
100
AcDbLinetypeTableRecord
  2
Continuous
 70
     0
  3
Solid line
 72
    65
 73
     0
 40
0.0
  0
LTYPE
  5
5E
330
5
100
AcDbSymbolTableRecord
100
AcDbLinetypeTableRecord
  2
HIDDEN
 70
     0
  3
Hidden __ __ __ __ __ __ __ __ __ __ __ __ __ __
 72
    65
 73
     2
 40
1.905
 49
1.27
 74
     0
 49
-0.635
 74
     0
  0
LTYPE
  5
5F
330
5
100
AcDbSymbolTableRecord
100
AcDbLinetypeTableRecord
  2
PHANTOM
 70
     0
  3
Phantom ______  __  __  ______  __  __  ______
 72
    65
 73
     6
 40
12.7
 49
6.35
 74
     0
 49
-1.27
 74
     0
 49
1.27
 74
     0
 49
-1.27
 74
     0
 49
1.27
 74
     0
 49
-1.27
 74
     0
  0
LTYPE
  5
60
330
5
100
AcDbSymbolTableRecord
100
AcDbLinetypeTableRecord
  2
CENTER
 70
     0
  3
Center ____ _ ____ _ ____ _ ____ _ ____ _ ____
 72
    65
 73
     4
 40
10.16
 49
6.35
 74
     0
 49
-1.27
 74
     0
 49
1.27
 74
     0
 49
-1.27
 74
     0
  0
LTYPE
  5
61
330
5
100
AcDbSymbolTableRecord
100
AcDbLinetypeTableRecord
  2
CENTERX2
 70
     0
  3
Center (2x) ________  __  ________  __  _____
 72
    65
 73
     4
 40
20.32
 49
12.7
 74
     0
 49
-2.54
 74
     0
 49
2.54
 74
     0
 49
-2.54
 74
     0
  0
LTYPE
  5
62
330
5
100
AcDbSymbolTableRecord
100
AcDbLinetypeTableRecord
  2
DOT2
 70
     0
  3
Dot (.5x) ........................................
 72
    65
 73
     2
 40
0.635
 49
0.0
 74
     0
 49
-0.635
 74
     0
  0
ENDTAB
  0
TABLE
  2
LAYER
  5
2
330
0
100
AcDbSymbolTable
 70
     1
  0
LAYER
  5
10
330
2
100
AcDbSymbolTableRecord
100
AcDbLayerTableRecord
  2
0
 70
     0
 62
     7
  6
Continuous
370
    -3
390
F
  0
ENDTAB
  0
TABLE
  2
STYLE
  5
3
330
0
100
AcDbSymbolTable
 70
     2
  0
STYLE
  5
11
330
3
100
AcDbSymbolTableRecord
100
AcDbTextStyleTableRecord
  2
Standard
 70
     0
 40
0.0
 41
1.0
 50
0.0
 71
     0
 42
3.5
  3
txt
  4

  0
STYLE
  5
118
330
3
100
AcDbSymbolTableRecord
100
AcDbTextStyleTableRecord
  2
SLDTEXTSTYLE0
 70
     0
 40
0.0
 41
0.7
 50
0.0
 71
     0
 42
3.5
  3
TXT
  4

  0
ENDTAB
  0
TABLE
  2
VIEW
  5
6
330
0
100
AcDbSymbolTable
 70
     0
  0
ENDTAB
  0
TABLE
  2
UCS
  5
7
330
0
100
AcDbSymbolTable
 70
     0
  0
ENDTAB
  0
TABLE
  2
APPID
  5
9
330
0
100
AcDbSymbolTable
 70
     1
  0
APPID
  5
12
330
9
100
AcDbSymbolTableRecord
100
AcDbRegAppTableRecord
  2
ACAD
 70
     0
  0
ENDTAB
  0
TABLE
  2
DIMSTYLE
  5
A
330
0
100
AcDbSymbolTable
 70
     1
100
AcDbDimStyleTable
  0
DIMSTYLE
105
27
330
A
100
AcDbSymbolTableRecord
100
AcDbDimStyleTableRecord
  2
ISO-25
 70
     0
 41
2.5
 42
0.625
 43
3.75
 44
1.25
 73
     0
 74
     0
 77
     1
 78
     8
140
2.5
141
2.5
143
0.0393700787
147
0.625
171
     3
172
     1
178
     0
271
     2
272
     2
274
     3
278
    44
283
     0
284
     8
340
11
  0
ENDTAB
  0
TABLE
  2
BLOCK_RECORD
  5
1
330
0
100
AcDbSymbolTable
 70
     1
  0
BLOCK_RECORD
  5
1F
330
1
100
AcDbSymbolTableRecord
100
AcDbBlockTableRecord
  2
*Model_Space
340
22
  0
BLOCK_RECORD
  5
1B
330
1
100
AcDbSymbolTableRecord
100
AcDbBlockTableRecord
  2
*Paper_Space
340
1E
  0
BLOCK_RECORD
  5
23
330
1
100
AcDbSymbolTableRecord
100
AcDbBlockTableRecord
  2
*Paper_Space0
340
26
  0
ENDTAB
  0
ENDSEC
  0
SECTION
  2
BLOCKS
  0
BLOCK
  5
20
330
1F
100
AcDbEntity
  8
0
100
AcDbBlockBegin
  2
*Model_Space
 70
     0
 10
0.0
 20
0.0
 30
0.0
  3
*Model_Space
  1

  0
ENDBLK
  5
21
330
1F
100
AcDbEntity
  8
0
100
AcDbBlockEnd
  0
BLOCK
  5
1C
330
1B
100
AcDbEntity
 67
     1
  8
0
100
AcDbBlockBegin
  2
*Paper_Space
 70
     0
 10
0.0
 20
0.0
 30
0.0
  3
*Paper_Space
  1

  0
ENDBLK
  5
1D
330
1B
100
AcDbEntity
 67
     1
  8
0
100
AcDbBlockEnd
  0
BLOCK
  5
24
330
23
100
AcDbEntity
  8
0
100
AcDbBlockBegin
  2
*Paper_Space0
 70
     0
 10
0.0
 20
0.0
 30
0.0
  3
*Paper_Space0
  1

  0
ENDBLK
  5
25
330
23
100
AcDbEntity
  8
0
100
AcDbBlockEnd
  0
ENDSEC
  0
SECTION
  2
ENTITIES
  0
SPLINE
  5
63
330
1F
100
AcDbEntity
  8
0
  6
Continuous
 62
     7
370
    25
100
AcDbSpline
210
0.0
220
0.0
230
1.0
 70
     8
 71
     3
 72
    19
 73
    15
 74
     0
 42
0.00000001
 43
0.00000001
 40
0.0
 40
0.0
 40
0.0
 40
0.0
 40
0.0969723103815129
 40
0.1877734389628667
 40
0.2723961390136915
 40
0.3513209973752891
 40
0.4243347744514657
 40
0.4919087840005258
 40
0.5542332197968014
 40
0.611267658244155
 40
0.7163478449915546
 40
0.814540085821616
 40
0.9084954561491856
 40
1.0
 40
1.0
 40
1.0
 40
1.0
 10
17.62377244314099
 20
12.63541666666667
 30
0.0
 10
17.64547867931665
 20
12.61962160406683
 30
0.0
 10
17.68750979724722
 20
12.58903665449373
 30
0.0
 10
17.74731412862524
 20
12.5430848373352
 30
0.0
 10
17.80153916182229
 20
12.49814325529274
 30
0.0
 10
17.8503752781481
 20
12.45449890838069
 30
0.0
 10
17.89430494011368
 20
12.41248285523575
 30
0.0
 10
17.93284078049928
 20
12.37158960933279
 30
0.0
 10
17.96637545498338
 20
12.33211213922866
 30
0.0
 10
18.00247786553204
 20
12.2814992388337
 30
0.0
 10
18.03936804811518
 20
12.21933861924836
 30
0.0
 10
18.07104890950153
 20
12.14317962579392
 30
0.0
 10
18.091025108047
 20
12.06672458550994
 30
0.0
 10
18.09363740257954
 20
12.0153378218099
 30
0.0
 10
18.09492628929484
 20
11.98998397435898
 30
0.0
  0
SPLINE
  5
64
330
1F
100
AcDbEntity
  8
0
  6
Continuous
 62
     7
370
    25
100
AcDbSpline
210
0.0
220
0.0
230
1.0
 70
     8
 71
     3
 72
    15
 73
    11
 74
     0
 42
0.00000001
 43
0.00000001
 40
0.0
 40
0.0
 40
0.0
 40
0.0
 40
0.0525942815291409
 40
0.124951973975041
 40
0.2180938989285956
 40
0.3335024107325248
 40
0.4687891785044505
 40
0.6249375859645974
 40
0.8016830479282215
 40
1.0
 40
1.0
 40
1.0
 40
1.0
 10
17.35494231493586
 20
12.83453525641026
 30
0.0
 10
17.35932024202597
 20
12.8306283845155
 30
0.0
 10
17.36972119467564
 20
12.8213465511845
 30
0.0
 10
17.38873600938401
 20
12.80615096224521
 30
0.0
 10
17.41384617980113
 20
12.78740652093364
 30
0.0
 10
17.44439600904504
 20
12.76421376866232
 30
0.0
 10
17.48094878717477
 20
12.73731007602388
 30
0.0
 10
17.52350853354314
 20
12.70703944050172
 30
0.0
 10
17.57160083802023
 20
12.67241917821207
 30
0.0
 10
17.60572764710572
 20
12.64821486929211
 30
0.0
 10
17.623772443141
 20
12.63541666666667
 30
0.0
  0
SPLINE
  5
65
330
1F
100
AcDbEntity
  8
0
  6
Continuous
 62
     7
370
    25
100
AcDbSpline
210
0.0
220
0.0
230
1.0
 70
     8
 71
     3
 72
    15
 73
    11
 74
     0
 42
0.00000001
 43
0.00000001
 40
0.0
 40
0.0
 40
0.0
 40
0.0
 40
0.107285214268955
 40
0.2147458609696428
 40
0.3229385595552909
 40
0.4341161625174699
 40
0.5534123109627948
 40
0.6860729848107366
 40
0.8342559920595919
 40
1.0
 40
1.0
 40
1.0
 40
1.0
 10
17.22313141749996
 20
13.09294871794872
 30
0.0
 10
17.22335606129134
 20
13.08223358735417
 30
0.0
 10
17.22380571621089
 20
13.06078580481855
 30
0.0
 10
17.23007702917453
 20
13.02909927798771
 30
0.0
 10
17.23813378857902
 20
12.99749279831993
 30
0.0
 10
17.25090100672383
 20
12.96610846527183
 30
0.0
 10
17.26852689450427
 20
12.93439740295625
 30
0.0
 10
17.29167270930791
 20
12.90181355292279
 30
0.0
 10
17.32082317333647
 20
12.86806971939587
 30
0.0
 10
17.34315289468014
 20
12.84612264866735
 30
0.0
 10
17.35494231493586
 20
12.83453525641026
 30
0.0
  0
SPLINE
  5
66
330
1F
100
AcDbEntity
  8
0
  6
Continuous
 62
     7
370
    25
100
AcDbSpline
210
0.0
220
0.0
230
1.0
 70
     8
 71
     3
 72
    15
 73
    11
 74
     0
 42
0.00000001
 43
0.00000001
 40
0.0
 40
0.0
 40
0.0
 40
0.0
 40
0.143073083730368
 40
0.2759029640930102
 40
0.4023708562739979
 40
0.5284136450935937
 40
0.6503563791869514
 40
0.7658950861246938
 40
0.880774130844022
 40
1.0
 40
1.0
 40
1.0
 40
1.0
 10
17.5164006482692
 20
13.34615384615385
 30
0.0
 10
17.49573977832321
 20
13.34546144618134
 30
0.0
 10
17.45589723694358
 20
13.34412621806035
 30
0.0
 10
17.39933138773927
 20
13.32954336932227
 30
0.0
 10
17.34842057341741
 20
13.30658230629036
 30
0.0
 10
17.30467625052815
 20
13.27440231880712
 30
0.0
 10
17.26825512078927
 20
13.23627603727277
 30
0.0
 10
17.24190914435218
 20
13.19240240580138
 30
0.0
 10
17.2260519074653
 20
13.14395531859879
 30
0.0
 10
17.22411689052185
 20
13.11016008640924
 30
0.0
 10
17.22313141749996
 20
13.09294871794872
 30
0.0
  0
SPLINE
  5
67
330
1F
100
AcDbEntity
  8
0
  6
Continuous
 62
     7
370
    25
100
AcDbSpline
210
0.0
220
0.0
230
1.0
 70
     8
 71
     3
 72
    19
 73
    15
 74
     0
 42
0.00000001
 43
0.00000001
 40
0.0
 40
0.0
 40
0.0
 40
0.0
 40
0.0984694310255587
 40
0.1896291011376286
 40
0.2741840894379699
 40
0.3521831609671543
 40
0.4231988731834698
 40
0.488550946000531
 40
0.5484733460279402
 40
0.6014401636178722
 40
0.7011980824257682
 40
0.7995918021381855
 40
0.8985450984822304
 40
1.0
 40
1.0
 40
1.0
 40
1.0
 10
17.90702564826919
 20
13.08974358974359
 30
0.0
 10
17.89722797257073
 20
13.10236569855652
 30
0.0
 10
17.87835993995809
 20
13.12667292897034
 30
0.0
 10
17.84971451889494
 20
13.16071368074535
 30
0.0
 10
17.82271529151193
 20
13.19180881190646
 30
0.0
 10
17.79611506306379
 20
13.21881745649505
 30
0.0
 10
17.77131870222614
 20
13.24321867554527
 30
0.0
 10
17.74725182094216
 20
13.26410996515925
 30
0.0
 10
17.72426076309221
 20
13.28169601969072
 30
0.0
 10
17.69527967129448
 20
13.30046376823883
 30
0.0
 10
17.65886954653836
 20
13.31906748455583
 30
0.0
 10
17.61316409725875
 20
13.33480981488595
 30
0.0
 10
17.56540051152448
 20
13.34426985026812
 30
0.0
 10
17.5328692935298
 20
13.34552064316402
 30
0.0
 10
17.5164006482692
 20
13.34615384615385
 30
0.0
  0
SPLINE
  5
69
330
1F
100
AcDbEntity
  8
0
  6
Continuous
 62
     7
370
    25
100
AcDbSpline
210
0.0
220
0.0
230
1.0
 70
     8
 71
     3
 72
    19
 73
    15
 74
     0
 42
0.00000001
 43
0.00000001
 40
0.0
 40
0.0
 40
0.0
 40
0.0
 40
0.1072327993600869
 40
0.2132518127818486
 40
0.3188304473075839
 40
0.4267935306342728
 40
0.4836459507827191
 40
0.5436038220211419
 40
0.608307649564083
 40
0.6771267602600395
 40
0.7506856360204955
 40
0.8287134184432875
 40
0.9121903482234519
 40
1.0
 40
1.0
 40
1.0
 40
1.0
 10
17.53643269955125
 20
13.55128205128205
 30
0.0
 10
17.5600007568644
 20
13.55046916465395
 30
0.0
 10
17.60687010071971
 20
13.54885259259705
 30
0.0
 10
17.67581250961659
 20
13.53479686041434
 30
0.0
 10
17.74219006184551
 20
13.51153933367835
 30
0.0
 10
17.79558621317093
 20
13.48514581483402
 30
0.0
 10
17.8373763625777
 20
13.45878500585501
 30
0.0
 10
17.86924649554279
 20
13.43477367769567
 30
0.0
 10
17.90154218170654
 20
13.40713075849327
 30
0.0
 10
17.93452392732298
 20
13.37578261787566
 30
0.0
 10
17.96763287557392
 20
13.34044161725303
 30
0.0
 10
18.00136056257059
 20
13.30134979501919
 30
0.0
 10
18.03578585903383
 20
13.25874604881097
 30
0.0
 10
18.05793206481893
 20
13.22833204837982
 30
0.0
 10
18.06928526365381
 20
13.21274038461539
 30
0.0
  0
SPLINE
  5
6A
330
1F
100
AcDbEntity
  8
0
  6
Continuous
 62
     7
370
    25
100
AcDbSpline
210
0.0
220
0.0
230
1.0
 70
     8
 71
     3
 72
    19
 73
    15
 74
     0
 42
0.00000001
 43
0.00000001
 40
0.0
 40
0.0
 40
0.0
 40
0.0
 40
0.0837853706537093
 40
0.1657798879221395
 40
0.2462800078932601
 40
0.3274609277363875
 40
0.4087969540320655
 40
0.489715241230985
 40
0.5713760321300523
 40
0.6555233211112759
 40
0.7410194827999704
 40
0.8265467605037614
 40
0.9119888516548296
 40
1.0
 40
1.0
 40
1.0
 40
1.0
 10
17.04364423801279
 20
13.08453525641026
 30
0.0
 10
17.04439007172328
 20
13.10569512759009
 30
0.0
 10
17.04586579747313
 20
13.14756259258153
 30
0.0
 10
17.05834609305623
 20
13.20872306711988
 30
0.0
 10
17.07804488943022
 20
13.26711530552991
 30
0.0
 10
17.10564196820826
 20
13.32216121051547
 30
0.0
 10
17.14121759844726
 20
13.37242748530872
 30
0.0
 10
17.18238672665596
 20
13.41849233501275
 30
0.0
 10
17.23142186164879
 20
13.45721723913896
 30
0.0
 10
17.28522336065645
 20
13.49105270107567
 30
0.0
 10
17.34411271613227
 20
13.51753608690827
 30
0.0
 10
17.40582180378806
 20
13.53751378985713
 30
0.0
 10
17.47044870208817
 20
13.54883336568052
 30
0.0
 10
17.51422192187298
 20
13.55045780277347
 30
0.0
 10
17.53643269955125
 20
13.55128205128205
 30
0.0
  0
SPLINE
  5
6B
330
1F
100
AcDbEntity
  8
0
  6
Continuous
 62
     7
370
    25
100
AcDbSpline
210
0.0
220
0.0
230
1.0
 70
     8
 71
     3
 72
    15
 73
    11
 74
     0
 42
0.00000001
 43
0.00000001
 40
0.0
 40
0.0
 40
0.0
 40
0.0
 40
0.1335067689985226
 40
0.2625589787303692
 40
0.3882644471488804
 40
0.5126673546814275
 40
0.6337222699657601
 40
0.755393860137095
 40
0.8775529450912773
 40
1.0
 40
1.0
 40
1.0
 40
1.0
 10
17.15542308416663
 20
12.78004807692308
 30
0.0
 10
17.14658162974883
 20
12.79182009798262
 30
0.0
 10
17.12919372305435
 20
12.8149713572796
 30
0.0
 10
17.10624171993143
 20
12.85115699028971
 30
0.0
 10
17.08673362690379
 20
12.88819885623784
 30
0.0
 10
17.07144086568308
 20
12.9261964931319
 30
0.0
 10
17.05856302634619
 20
12.96461645249222
 30
0.0
 10
17.04990135165031
 20
13.00396002146343
 30
0.0
 10
17.04447769626986
 20
13.04405066058599
 30
0.0
 10
17.0439222753938
 20
13.07102980379886
 30
0.0
 10
17.04364423801279
 20
13.08453525641026
 30
0.0
  0
SPLINE
  5
6C
330
1F
100
AcDbEntity
  8
0
  6
Continuous
 62
     7
370
    25
100
AcDbSpline
210
0.0
220
0.0
230
1.0
 70
     8
 71
     3
 72
    15
 73
    11
 74
     0
 42
0.00000001
 43
0.00000001
 40
0.0
 40
0.0
 40
0.0
 40
0.0
 40
0.1815353013762847
 40
0.3470816724816278
 40
0.4955678164315526
 40
0.6283573018772174
 40
0.7455196699921571
 40
0.8458307507576507
 40
0.9307818073847628
 40
1.0
 40
1.0
 40
1.0
 40
1.0
 10
17.48314744314099
 20
12.50801282051282
 30
0.0
 10
17.4621051596101
 20
12.52300058486672
 30
0.0
 10
17.42187391585
 20
12.55165604900662
 30
0.0
 10
17.36561186879493
 20
12.59418421130011
 30
0.0
 10
17.31530074707499
 20
12.63306642246692
 30
0.0
 10
17.27116416620451
 20
12.66866871509693
 30
0.0
 10
17.23322153943534
 20
12.70099591779972
 30
0.0
 10
17.20117387599868
 20
12.72973759730953
 30
0.0
 10
17.17583755765836
 20
12.75567106066288
 30
0.0
 10
17.16174865442492
 20
12.77249468451726
 30
0.0
 10
17.15542308416664
 20
12.78004807692308
 30
0.0
  0
SPLINE
  5
6D
330
1F
100
AcDbEntity
  8
0
  6
Continuous
 62
     7
370
    25
100
AcDbSpline
210
0.0
220
0.0
230
1.0
 70
     8
 71
     3
 72
    15
 73
    11
 74
     0
 42
0.00000001
 43
0.00000001
 40
0.0
 40
0.0
 40
0.0
 40
0.0
 40
0.0902792146500133
 40
0.1895299184469585
 40
0.2991978724002861
 40
0.4189258867738182
 40
0.5483762854012468
 40
0.6881363695386803
 40
0.8390835016589214
 40
0.9999999999999999
 40
0.9999999999999999
 40
0.9999999999999999
 40
0.9999999999999999
 10
17.84372436621791
 20
12.18910256410257
 30
0.0
 10
17.83476972954329
 20
12.20055789187591
 30
0.0
 10
17.81597058994905
 20
12.2246069196292
 30
0.0
 10
17.78365201132447
 20
12.26040419704374
 30
0.0
 10
17.74572851743567
 20
12.29732900787348
 30
0.0
 10
17.70349791462901
 20
12.33679132613025
 30
0.0
 10
17.65542186386294
 20
12.37695578138055
 30
0.0
 10
17.60300614134686
 20
12.41973765448853
 30
0.0
 10
17.54491250765192
 20
12.46350998422948
 30
0.0
 10
17.50416993815593
 20
12.49286573597037
 30
0.0
 10
17.48314744314099
 20
12.50801282051282
 30
0.0
  0
SPLINE
  5
6E
330
1F
100
AcDbEntity
  8
0
  6
Continuous
 62
     7
370
    25
100
AcDbSpline
210
0.0
220
0.0
230
1.0
 70
     8
 71
     3
 72
    11
 73
     7
 74
     0
 42
0.00000001
 43
0.00000001
 40
0.0
 40
0.0
 40
0.0
 40
0.0
 40
0.2347233736739064
 40
0.4771583189289886
 40
0.7285562842030585
 40
1.0
 40
1.0
 40
1.0
 40
1.0
 10
17.91543910980766
 20
11.99278846153847
 30
0.0
 10
17.91459664655092
 20
12.00944037565701
 30
0.0
 10
17.91288404185777
 20
12.04329128374253
 30
0.0
 10
17.89840891038779
 20
12.09323394257336
 30
0.0
 10
17.87563791219153
 20
12.14265826830152
 30
0.0
 10
17.85463068721726
 20
12.17323042006023
 30
0.0
 10
17.84372436621791
 20
12.18910256410257
 30
0.0
  0
SPLINE
  5
6F
330
1F
100
AcDbEntity
  8
0
  6
Continuous
 62
     7
370
    25
100
AcDbSpline
210
0.0
220
0.0
230
1.0
 70
     8
 71
     3
 72
    19
 73
    15
 74
     0
 42
0.00000001
 43
0.00000001
 40
0.0
 40
0.0
 40
0.0
 40
0.0
 40
0.0912636048966264
 40
0.1809303110850835
 40
0.2700882198317275
 40
0.3601561333877298
 40
0.448342532498156
 40
0.532665842138333
 40
0.6138337041070488
 40
0.693981527283561
 40
0.7727159770890062
 40
0.8493351720622473
 40
0.9239673265752316
 40
1.0
 40
1.0
 40
1.0
 40
1.0
 10
17.52361218673073
 20
11.65384615384616
 30
0.0
 10
17.54114753559444
 20
11.65433453813885
 30
0.0
 10
17.57591140590716
 20
11.65530276114633
 30
0.0
 10
17.62708983045636
 20
11.66460607660313
 30
0.0
 10
17.67679371746554
 20
11.67889872169654
 30
0.0
 10
17.72399865331155
 20
11.69936782541566
 30
0.0
 10
17.76805329018672
 20
11.72413267440138
 30
0.0
 10
17.80668568752193
 20
11.75404477583412
 30
0.0
 10
17.84008346648164
 20
11.78753403624195
 30
0.0
 10
17.86740296052001
 20
11.82489555318019
 30
0.0
 10
17.88836298068478
 20
11.86507678095578
 30
0.0
 10
17.90447273406376
 20
11.90632018172052
 30
0.0
 10
17.91341277615312
 20
11.94927364930851
 30
0.0
 10
17.91475949241409
 20
11.97819391379297
 30
0.0
 10
17.91543910980766
 20
11.99278846153846
 30
0.0
  0
SPLINE
  5
70
330
1F
100
AcDbEntity
  8
0
  6
Continuous
 62
     7
370
    25
100
AcDbSpline
210
0.0
220
0.0
230
1.0
 70
     8
 71
     3
 72
    15
 73
    11
 74
     0
 42
0.00000001
 43
0.00000001
 40
0.0
 40
0.0
 40
0.0
 40
0.0
 40
0.1590042985173786
 40
0.3046460998968148
 40
0.4385469045795949
 40
0.5623222987759297
 40
0.67743254252573
 40
0.7868973929387587
 40
0.893610889104267
 40
1.0
 40
1.0
 40
1.0
 40
1.0
 10
17.08450962262817
 20
11.98717948717949
 30
0.0
 10
17.10023432962848
 20
11.96085698149543
 30
0.0
 10
17.13036226141606
 20
11.9104240764046
 30
0.0
 10
17.18062018093175
 20
11.842276624731
 30
0.0
 10
17.23269613016943
 20
11.7843553922973
 30
0.0
 10
17.28697574934053
 20
11.73699733084596
 30
0.0
 10
17.34312771969618
 20
11.69971225270447
 30
0.0
 10
17.40151860754572
 20
11.67331097743673
 30
0.0
 10
17.46195164223797
 20
11.65684470579596
 30
0.0
 10
17.50307954022621
 20
11.65484465633615
 30
0.0
 10
17.52361218673073
 20
11.65384615384616
 30
0.0
  0
SPLINE
  5
72
330
1F
100
AcDbEntity
  8
0
  6
Continuous
 62
     7
370
    25
100
AcDbSpline
210
0.0
220
0.0
230
1.0
 70
     8
 71
     3
 72
    23
 73
    19
 74
     0
 42
0.00000001
 43
0.00000001
 40
0.0
 40
0.0
 40
0.0
 40
0.0
 40
0.0572082694335085
 40
0.1136960596574873
 40
0.1691779164171935
 40
0.2241592165805429
 40
0.2787198783810415
 40
0.3337942174469862
 40
0.3892414593400003
 40
0.4458220733936213
 40
0.5037042811090178
 40
0.5642938918193622
 40
0.6279754158952241
 40
0.6950382596840519
 40
0.7653727258510136
 40
0.839611443090734
 40
0.917537750077788
 40
0.9999999999999999
 40
0.9999999999999999
 40
0.9999999999999999
 40
0.9999999999999999
 10
17.52361218673073
 20
11.44871794871795
 30
0.0
 10
17.50850627645589
 20
11.4490100524879
 30
0.0
 10
17.47848469928189
 20
11.44959058128179
 30
0.0
 10
17.43407928106865
 20
11.45472274152303
 30
0.0
 10
17.39057094438404
 20
11.46198394357513
 30
0.0
 10
17.34850564036453
 20
11.47351198356195
 30
0.0
 10
17.30734140514068
 20
11.48749882758601
 30
0.0
 10
17.26725727112585
 20
11.50472073192783
 30
0.0
 10
17.22823381177963
 20
11.52535913275489
 30
0.0
 10
17.19005233585486
 20
11.54895628968556
 30
0.0
 10
17.15280995037708
 20
11.57641785800761
 30
0.0
 10
17.11685596870344
 20
11.60840271311515
 30
0.0
 10
17.0810107198387
 20
11.64402871596732
 30
0.0
 10
17.04633220765493
 20
11.68426332360257
 30
0.0
 10
17.01211898233734
 20
11.72845651380701
 30
0.0
 10
16.97904560545934
 20
11.77702176146269
 30
0.0
 10
16.94642748107132
 20
11.82969453503924
 30
0.0
 10
16.92596149945572
 20
11.86676029830771
 30
0.0
 10
16.91543910980766
 20
11.88581730769231
 30
0.0
  0
SPLINE
  5
73
330
1F
100
AcDbEntity
  8
0
  6
Continuous
 62
     7
370
    25
100
AcDbSpline
210
0.0
220
0.0
230
1.0
 70
     8
 71
     3
 72
    23
 73
    19
 74
     0
 42
0.00000001
 43
0.00000001
 40
0.0
 40
0.0
 40
0.0
 40
0.0
 40
0.0614842551968907
 40
0.1217745277022097
 40
0.1809195598139326
 40
0.2402561150782712
 40
0.3001144444023522
 40
0.3611459476126124
 40
0.4235005824125857
 40
0.488669361280718
 40
0.553954104653561
 40
0.6175812610152603
 40
0.6802384268167383
 40
0.7421873887724509
 40
0.8046632117692928
 40
0.8682589893126617
 40
0.9330202571803751
 40
1.0
 40
1.0
 40
1.0
 40
1.0
 10
18.09492628929484
 20
11.98998397435898
 30
0.0
 10
18.09455078179543
 20
11.97205348001864
 30
0.0
 10
18.09380705889853
 20
11.93654068942258
 30
0.0
 10
18.08525796531075
 20
11.88439493120423
 30
0.0
 10
18.07273244236071
 20
11.83374871995626
 30
0.0
 10
18.05385402296039
 20
11.78522808427339
 30
0.0
 10
18.03081221824046
 20
11.73794536274
 30
0.0
 10
18.00157436231701
 20
11.69314084821946
 30
0.0
 10
17.96768425675262
 20
11.64982290616978
 30
0.0
 10
17.9288078196644
 20
11.60914662539542
 30
0.0
 10
17.88626730405497
 20
11.57180594197518
 30
0.0
 10
17.8413051928191
 20
11.53858933541948
 30
0.0
 10
17.79384789399958
 20
11.51089315062215
 30
0.0
 10
17.74415285589488
 20
11.48829266945076
 30
0.0
 10
17.69220866349084
 20
11.47061637372148
 30
0.0
 10
17.63803278701398
 20
11.45780901993241
 30
0.0
 10
17.58153592345995
 20
11.44994861369613
 30
0.0
 10
17.54313564827567
 20
11.44913275000207
 30
0.0
 10
17.52361218673073
 20
11.44871794871795
 30
0.0
  0
SPLINE
  5
74
330
1F
100
AcDbEntity
  8
0
  6
Continuous
 62
     7
370
    25
100
AcDbSpline
210
0.0
220
0.0
230
1.0
 70
     8
 71
     3
 72
    15
 73
    11
 74
     0
 42
0.00000001
 43
0.00000001
 40
0.0
 40
0.0
 40
0.0
 40
0.0
 40
0.124328509593853
 40
0.2471560163611879
 40
0.3687797492913401
 40
0.4907338624016482
 40
0.6136137718478448
 40
0.7389575757222149
 40
0.8673105751912628
 40
1.0
 40
1.0
 40
1.0
 40
1.0
 10
18.65622436621792
 20
11.79847756410257
 30
0.0
 10
18.63597542707517
 20
11.82335824348378
 30
0.0
 10
18.59572201174502
 20
11.87281922085984
 30
0.0
 10
18.54422162114437
 20
11.95298263872181
 30
0.0
 10
18.50013730388191
 20
12.03667875807942
 30
0.0
 10
18.46449392058011
 20
12.1243472888099
 30
0.0
 10
18.43662950163462
 20
12.21579151009017
 30
0.0
 10
18.41732596158903
 20
12.31105751832484
 30
0.0
 10
18.40478218760172
 20
12.41005634244038
 30
0.0
 10
18.40334773686962
 20
12.47739165024603
 30
0.0
 10
18.40261859698715
 20
12.51161858974359
 30
0.0
  0
SPLINE
  5
75
330
1F
100
AcDbEntity
  8
0
  6
Continuous
 62
     7
370
    25
100
AcDbSpline
210
0.0
220
0.0
230
1.0
 70
     8
 71
     3
 72
    23
 73
    19
 74
     0
 42
0.00000001
 43
0.00000001
 40
0.0
 40
0.0
 40
0.0
 40
0.0
 40
0.0696628008990788
 40
0.1377495622582732
 40
0.2039167435177841
 40
0.2687798623293364
 40
0.3324137064772267
 40
0.3947535404471405
 40
0.4561800316591687
 40
0.5169956491967201
 40
0.5773959379659531
 40
0.6371983435092766
 40
0.6969991842614565
 40
0.7567561942255596
 40
0.8165539052726075
 40
0.876947996597871
 40
0.9381317879205944
 40
1.0
 40
1.0
 40
1.0
 40
1.0
 10
19.48114423801279
 20
11.44871794871795
 30
0.0
 10
19.45963357112267
 20
11.44886765874983
 30
0.0
 10
19.41709889106739
 20
11.4491636917989
 30
0.0
 10
19.35429960443189
 20
11.45395921603373
 30
0.0
 10
19.29316270111666
 20
11.46050192283945
 30
0.0
 10
19.23386291490712
 20
11.47035342630457
 30
0.0
 10
19.176076643452
 20
11.48197876347822
 30
0.0
 10
19.12032773802867
 20
11.49756233869263
 30
0.0
 10
19.06606761782383
 20
11.515019005319
 30
0.0
 10
19.01351428028319
 20
11.5355361406017
 30
0.0
 10
18.96262302325657
 20
11.55868824490878
 30
0.0
 10
18.91355798818918
 20
11.58485484999513
 30
0.0
 10
18.86634174110405
 20
11.61381591551586
 30
0.0
 10
18.82051007204391
 20
11.64493306432938
 30
0.0
 10
18.7767400242296
 20
11.67920580825534
 30
0.0
 10
18.73465229545965
 20
11.71615817082885
 30
0.0
 10
18.69401088046959
 20
11.7556656055439
 30
0.0
 10
18.66886648904573
 20
11.78415409316812
 30
0.0
 10
18.65622436621792
 20
11.79847756410257
 30
0.0
  0
SPLINE
  5
76
330
1F
100
AcDbEntity
  8
0
  6
Continuous
 62
     7
370
    25
100
AcDbSpline
210
0.0
220
0.0
230
1.0
 70
     8
 71
     3
 72
    23
 73
    19
 74
     0
 42
0.00000001
 43
0.00000001
 40
0.0
 40
0.0
 40
0.0
 40
0.0
 40
0.0616742388774271
 40
0.1230530616348067
 40
0.1834750007317028
 40
0.2437265005106119
 40
0.3042789165122534
 40
0.3648629209606851
 40
0.4259462039686223
 40
0.4873912299654087
 40
0.5492203840754768
 40
0.611143588692605
 40
0.6735285303101547
 40
0.7369614566573057
 40
0.8007852828728412
 40
0.866012595641616
 40
0.9321007477905803
 40
1.0
 40
1.0
 40
1.0
 40
1.0
 10
20.3513365457051
 20
11.8681891025641
 30
0.0
 10
20.33869762577303
 20
11.85188141575078
 30
0.0
 10
20.31348032562135
 20
11.8193441550227
 30
0.0
 10
20.27264717305771
 20
11.77347460660896
 30
0.0
 10
20.22963157454588
 20
11.73032944346659
 30
0.0
 10
20.18411402597051
 20
11.69025651705089
 30
0.0
 10
20.13661814506212
 20
11.65245396527669
 30
0.0
 10
20.0862911094366
 20
11.61799577597629
 30
0.0
 10
20.0337945194336
 20
11.58640098495779
 30
0.0
 10
19.97930624577324
 20
11.55747131380803
 30
0.0
 10
19.9228841813163
 20
11.53180431550832
 30
0.0
 10
19.86459593277803
 20
11.50983073391289
 30
0.0
 10
19.80469274677574
 20
11.49090222560858
 30
0.0
 10
19.74317188482599
 20
11.4753296903378
 30
0.0
 10
19.67990573806775
 20
11.46317478526725
 30
0.0
 10
19.6151226100145
 20
11.45504925678453
 30
0.0
 10
19.5486826813179
 20
11.44948244853605
 30
0.0
 10
19.5038590121032
 20
11.44897506806821
 30
0.0
 10
19.48114423801279
 20
11.44871794871795
 30
0.0
  0
SPLINE
  5
78
330
1F
100
AcDbEntity
  8
0
  6
Continuous
 62
     7
370
    25
100
AcDbSpline
210
0.0
220
0.0
230
1.0
 70
     8
 71
     3
 72
    15
 73
    11
 74
     0
 42
0.00000001
 43
0.00000001
 40
0.0
 40
0.0
 40
0.0
 40
0.0
 40
0.1285151895116589
 40
0.2529486363526551
 40
0.374754734006004
 40
0.4959397538670478
 40
0.6171806414298923
 40
0.7409094692781365
 40
0.8678111481862035
 40
1.0
 40
1.0
 40
1.0
 40
1.0
 10
19.47994231493587
 20
11.65384615384616
 30
0.0
 10
19.51485813721792
 20
11.65481117084667
 30
0.0
 10
19.58358082802929
 20
11.65671055515498
 30
0.0
 10
19.68436255736718
 20
11.67280155465377
 30
0.0
 10
19.78084013772648
 20
11.69889179341663
 30
0.0
 10
19.8730187586073
 20
11.73540489188474
 30
0.0
 10
19.96063855643863
 20
11.7828707706863
 30
0.0
 10
20.04383664804378
 20
11.84041241491911
 30
0.0
 10
20.12268325976033
 20
11.9085771764966
 30
0.0
 10
20.17009542103827
 20
11.96062467835786
 30
0.0
 10
20.19428526365381
 20
11.98717948717949
 30
0.0
  0
SPLINE
  5
79
330
1F
100
AcDbEntity
  8
0
  6
Continuous
 62
     7
370
    25
100
AcDbSpline
210
0.0
220
0.0
230
1.0
 70
     8
 71
     3
 72
    23
 73
    19
 74
     0
 42
0.00000001
 43
0.00000001
 40
0.0
 40
0.0
 40
0.0
 40
0.0
 40
0.0643232165798413
 40
0.1262901037035558
 40
0.1867264692161323
 40
0.2461464323353445
 40
0.305575642646138
 40
0.3654293856180504
 40
0.4263263089482597
 40
0.4888399064006394
 40
0.5517249718140469
 40
0.6139185964661584
 40
0.6754837657683951
 40
0.7373338970992853
 40
0.8002290443945259
 40
0.864502298123322
 40
0.9310407391556971
 40
1.0
 40
1.0
 40
1.0
 40
1.0
 10
18.58210577647433
 20
12.4979967948718
 30
0.0
 10
18.58282681591656
 20
12.46843604063024
 30
0.0
 10
18.58424248122024
 20
12.41039742071628
 30
0.0
 10
18.59684152926622
 20
12.32538564326414
 30
0.0
 10
18.61598729571686
 20
12.24394525824684
 30
0.0
 10
18.64468191110871
 20
12.16658534835489
 30
0.0
 10
18.68006422571469
 20
12.09235200089317
 30
0.0
 10
18.72477314657487
 20
12.02250122751808
 30
0.0
 10
18.7765540250687
 20
11.95597747636862
 30
0.0
 10
18.83613940761791
 20
11.89435293479809
 30
0.0
 10
18.90151415961176
 20
11.83805937748489
 30
0.0
 10
18.97165582337972
 20
11.78848761662127
 30
0.0
 10
19.04638970211349
 20
11.74716482664049
 30
0.0
 10
19.12489063364869
 20
11.71277857148831
 30
0.0
 10
19.20776269874503
 20
11.68634615568513
 30
0.0
 10
19.29485687155297
 20
11.66773808511184
 30
0.0
 10
19.38598372598158
 20
11.65559969623092
 30
0.0
 10
19.44825195449017
 20
11.65443758876284
 30
0.0
 10
19.47994231493587
 20
11.65384615384616
 30
0.0
  0
SPLINE
  5
7A
330
1F
100
AcDbEntity
  8
0
  6
Continuous
 62
     7
370
    25
100
AcDbSpline
210
0.0
220
0.0
230
1.0
 70
     8
 71
     3
 72
    31
 73
    27
 74
     0
 42
0.00000001
 43
0.00000001
 40
0.0
 40
0.0
 40
0.0
 40
0.0
 40
0.0439549089061942
 40
0.0875018747976059
 40
0.1304626267314904
 40
0.172752020566517
 40
0.215403067379603
 40
0.2576498297432404
 40
0.3001527489572932
 40
0.3431214895020858
 40
0.3859251632064344
 40
0.4276857274028028
 40
0.4688179504865895
 40
0.5094918001549948
 40
0.5498830310733497
 40
0.5899800229668867
 40
0.6304052300068398
 40
0.6708686260826379
 40
0.7113839438381763
 40
0.7516272580635841
 40
0.7917755768651917
 40
0.8324589188037423
 40
0.873319045017288
 40
0.9145429556263488
 40
0.9569235582098838
 40
1.0
 40
1.0
 40
1.0
 40
1.0
 10
19.46752244314099
 20
13.34615384615385
 30
0.0
 10
19.4474748435179
 20
13.34592301043394
 30
0.0
 10
19.40756570490596
 20
13.34546348136733
 30
0.0
 10
19.34833800576283
 20
13.33940112410738
 30
0.0
 10
19.29021626225919
 20
13.33088043265334
 30
0.0
 10
19.23323828156283
 20
13.31823739081136
 30
0.0
 10
19.17747659096897
 20
13.3022530370528
 30
0.0
 10
19.12256664693146
 20
13.28315280052497
 30
0.0
 10
19.0693034470474
 20
13.25952146346214
 30
0.0
 10
19.01695016806785
 20
13.23340245777249
 30
0.0
 10
18.96679061892766
 20
13.2039010607763
 30
0.0
 10
18.91933059162634
 20
13.1717220025583
 30
0.0
 10
18.87474318138567
 20
13.13722537602128
 30
0.0
 10
18.83299311730955
 20
13.10028188666253
 30
0.0
 10
18.79403771826071
 20
13.06105790924795
 30
0.0
 10
18.75815925494344
 20
13.01913542833989
 30
0.0
 10
18.72548187764896
 20
12.97464847204433
 30
0.0
 10
18.695357863327
 20
12.92818366772526
 30
0.0
 10
18.66837915855286
 20
12.87987635821962
 30
0.0
 10
18.64579065604378
 20
12.82954774654047
 30
0.0
 10
18.62578772906913
 20
12.77805968766557
 30
0.0
 10
18.60995959041426
 20
12.72483045290632
 30
0.0
 10
18.59743129508205
 20
12.67023458671018
 30
0.0
 10
18.58878691606865
 20
12.61412556502448
 30
0.0
 10
18.58279350395761
 20
12.55662060525462
 30
0.0
 10
18.58233626001434
 20
12.51764385518924
 30
0.0
 10
18.58210577647433
 20
12.4979967948718
 30
0.0
  0
SPLINE
  5
7B
330
1F
100
AcDbEntity
  8
0
  6
Continuous
 62
     7
370
    25
100
AcDbSpline
210
0.0
220
0.0
230
1.0
 70
     8
 71
     3
 72
    19
 73
    15
 74
     0
 42
0.00000001
 43
0.00000001
 40
0.0
 40
0.0
 40
0.0
 40
0.0
 40
0.0631632593634691
 40
0.1254749410306416
 40
0.1871212198160348
 40
0.2482943461143008
 40
0.3092948562551199
 40
0.3698500660670927
 40
0.4309733755473809
 40
0.4924559896728179
 40
0.6161479662918556
 40
0.7408436984673643
 40
0.8681826486700436
 40
0.9999999999999999
 40
0.9999999999999999
 40
0.9999999999999999
 40
0.9999999999999999
 10
20.19428526365381
 20
13.01282051282051
 30
0.0
 10
20.18308189887884
 20
13.02617249558116
 30
0.0
 10
20.16082621497888
 20
13.05269644742306
 30
0.0
 10
20.1250209563938
 20
13.08994190140871
 30
0.0
 10
20.08770573188171
 20
13.12483633650741
 30
0.0
 10
20.04889480547256
 20
13.15754598200964
 30
0.0
 10
20.00788959433718
 20
13.18692699100093
 30
0.0
 10
19.96568342367094
 20
13.21451047839689
 30
0.0
 10
19.92157025498145
 20
13.23923490007832
 30
0.0
 10
19.8605692637555
 20
13.26921374928744
 30
0.0
 10
19.78077049330956
 20
13.30049726643727
 30
0.0
 10
19.6803162995535
 20
13.32672768432311
 30
0.0
 10
19.5754528147051
 20
13.34342549899986
 30
0.0
 10
19.50391132920396
 20
13.34523397983366
 30
0.0
 10
19.46752244314099
 20
13.34615384615385
 30
0.0
  0
SPLINE
  5
7D
330
1F
100
AcDbEntity
  8
0
  6
Continuous
 62
     7
370
    25
100
AcDbSpline
210
0.0
220
0.0
230
1.0
 70
     8
 71
     3
 72
    23
 73
    19
 74
     0
 42
0.00000001
 43
0.00000001
 40
0.0
 40
0.0
 40
0.0
 40
0.0
 40
0.0685475367089027
 40
0.1356829456230486
 40
0.201214989526328
 40
0.265682234754696
 40
0.3292668348172597
 40
0.3923954278443282
 40
0.455069761652143
 40
0.5171268500645039
 40
0.5787900352866504
 40
0.6397398633435399
 40
0.7001915036663064
 40
0.759806242596669
 40
0.8196283192750069
 40
0.8793547910462757
 40
0.9395116077646612
 40
1.0
 40
1.0
 40
1.0
 40
1.0
 10
19.47874039185894
 20
13.55128205128205
 30
0.0
 10
19.50172009011403
 20
13.55100654374441
 30
0.0
 10
19.54720608856822
 20
13.5504612043195
 30
0.0
 10
19.61449331851814
 20
13.54514340882543
 30
0.0
 10
19.68000321962856
 20
13.53627849098136
 30
0.0
 10
19.74378092364818
 20
13.52421216537386
 30
0.0
 10
19.80613670433555
 20
13.50923655310553
 30
0.0
 10
19.8665939848376
 20
13.48972781121034
 30
0.0
 10
19.9255075201888
 20
13.46742122188714
 30
0.0
 10
19.98250575343247
 20
13.44173066992263
 30
0.0
 10
20.03731521065552
 20
13.41289253197587
 30
0.0
 10
20.08991882123338
 20
13.38122646137797
 30
0.0
 10
20.1398987404949
 20
13.34677171537544
 30
0.0
 10
20.18760665388722
 20
13.30982132942707
 30
0.0
 10
20.23224448878782
 20
13.26959358125827
 30
0.0
 10
20.27507961937935
 20
13.2271949549876
 30
0.0
 10
20.31465737832885
 20
13.18140419832627
 30
0.0
 10
20.33908777546835
 20
13.14917280752116
 30
0.0
 10
20.3513365457051
 20
13.13301282051282
 30
0.0
  0
SPLINE
  5
7E
330
1F
100
AcDbEntity
  8
0
  6
Continuous
 62
     7
370
    25
100
AcDbSpline
210
0.0
220
0.0
230
1.0
 70
     8
 71
     3
 72
    23
 73
    19
 74
     0
 42
0.00000001
 43
0.00000001
 40
0.0
 40
0.0
 40
0.0
 40
0.0
 40
0.0645578459297196
 40
0.1270135315497588
 40
0.1879548102020906
 40
0.248013912789634
 40
0.3077476818488368
 40
0.3682345146974845
 40
0.4294698439426689
 40
0.4927434367465839
 40
0.5562577687060831
 40
0.6182167855431432
 40
0.6796554755875542
 40
0.7412455456206288
 40
0.8034152647056965
 40
0.8668154615439906
 40
0.9323283119492637
 40
1.0
 40
1.0
 40
1.0
 40
1.0
 10
18.40261859698715
 20
12.51161858974359
 30
0.0
 10
18.40350727901976
 20
12.54759313462432
 30
0.0
 10
18.4052557054389
 20
12.61837080580268
 30
0.0
 10
18.42011044570848
 20
12.72224163625361
 30
0.0
 10
18.44400690067504
 20
12.82175672131261
 30
0.0
 10
18.47794797987218
 20
12.91673028964854
 30
0.0
 10
18.52097960918955
 20
13.00766187835258
 30
0.0
 10
18.57413767424069
 20
13.09385685255072
 30
0.0
 10
18.63680461265293
 20
13.17586645235445
 30
0.0
 10
18.70848893704357
 20
13.25244631023876
 30
0.0
 10
18.78709884292914
 20
13.32246879745148
 30
0.0
 10
18.87128102229429
 20
13.38407234245052
 30
0.0
 10
18.96087070627866
 20
13.43533949445001
 30
0.0
 10
19.05488090723613
 20
13.47819444440778
 30
0.0
 10
19.15401558241706
 20
13.51113413762826
 30
0.0
 10
19.2580632219173
 20
13.53419310144995
 30
0.0
 10
19.36682831607802
 20
13.54854573932989
 30
0.0
 10
19.44103541644907
 20
13.55036014384579
 30
0.0
 10
19.47874039185894
 20
13.55128205128205
 30
0.0
  0
SPLINE
  5
9C
330
1F
100
AcDbEntity
  8
0
  6
Continuous
 62
     7
370
    25
100
AcDbSpline
210
0.0
220
0.0
230
1.0
 70
     8
 71
     3
 72
    23
 73
    19
 74
     0
 42
0.00000001
 43
0.00000001
 40
0.0
 40
0.0
 40
0.0
 40
0.0
 40
0.0787802355821386
 40
0.1537206442085835
 40
0.2267135303087812
 40
0.2991911660659362
 40
0.3711899968376678
 40
0.4430064143534093
 40
0.5166891732948793
 40
0.5932172166234139
 40
0.6338729178078445
 40
0.6769891422899806
 40
0.7228995063258279
 40
0.7719586105061451
 40
0.8242113233348366
 40
0.8793786506272048
 40
0.9379481193304193
 40
1.0
 40
1.0
 40
1.0
 40
1.0
 10
25.40261859698714
 20
12.96514423076923
 30
0.0
 10
25.40177916949656
 20
12.93849559956298
 30
0.0
 10
25.40014122904534
 20
12.88649721791266
 30
0.0
 10
25.38486974122819
 20
12.81103385710764
 30
0.0
 10
25.35985458709748
 20
12.74063996302739
 30
0.0
 10
25.32538413623501
 20
12.67540416993284
 30
0.0
 10
25.28148729297016
 20
12.61659808686991
 30
0.0
 10
25.22873026948253
 20
12.56494639812484
 30
0.0
 10
25.16708363434558
 20
12.52172359093008
 30
0.0
 10
25.10969545380889
 20
12.49175055967208
 30
0.0
 10
25.05900162541083
 20
12.47255461188651
 30
0.0
 10
25.01726830381767
 20
12.45904812110991
 30
0.0
 10
24.9717443166772
 20
12.44861271238015
 30
0.0
 10
24.92286583975956
 20
12.4392640656541
 30
0.0
 10
24.87042946519263
 20
12.43220595456181
 30
0.0
 10
24.81456087125595
 20
12.42703647200789
 30
0.0
 10
24.75522021318161
 20
12.42380558703743
 30
0.0
 10
24.7144550306941
 20
12.42332444138661
 30
0.0
 10
24.69348398160253
 20
12.42307692307693
 30
0.0
  0
SPLINE
  5
9D
330
1F
100
AcDbEntity
  8
0
  6
Continuous
 62
     7
370
    25
100
AcDbSpline
210
0.0
220
0.0
230
1.0
 70
     8
 71
     3
 72
    23
 73
    19
 74
     0
 42
0.00000001
 43
0.00000001
 40
0.0
 40
0.0
 40
0.0
 40
0.0
 40
0.0642168426314259
 40
0.1270637656931277
 40
0.1887445383478296
 40
0.2491321028350379
 40
0.3094525327106267
 40
0.3698266762476796
 40
0.4306501418384667
 40
0.4923519318794677
 40
0.5540721062625148
 40
0.6156897837449747
 40
0.6767977025065363
 40
0.7384390482469413
 40
0.8013169100648916
 40
0.8651845117115388
 40
0.9316413244190727
 40
1.0
 40
1.0
 40
1.0
 40
1.0
 10
24.99957372519227
 20
13.47275641025641
 30
0.0
 10
25.01420608184188
 20
13.4691411157618
 30
0.0
 10
25.04315864725432
 20
13.46198765081785
 30
0.0
 10
25.0848443992771
 20
13.44686787891862
 30
0.0
 10
25.12456687010668
 20
13.42937095056166
 30
0.0
 10
25.16216105543337
 20
13.40882025323704
 30
0.0
 10
25.19743865039932
 20
13.38506323628132
 30
0.0
 10
25.23076339942484
 20
13.35851002346122
 30
0.0
 10
25.26228652135626
 20
13.3293059058781
 30
0.0
 10
25.2907331671736
 20
13.29671456787658
 30
0.0
 10
25.31755548242764
 20
13.26252227663087
 30
0.0
 10
25.34017755471367
 20
13.22554870129304
 30
0.0
 10
25.3596784002694
 20
13.18688497127933
 30
0.0
 10
25.37520440998376
 20
13.14613787541905
 30
0.0
 10
25.38770610911127
 20
13.10370257721184
 30
0.0
 10
25.39652110303753
 20
13.05919469336772
 30
0.0
 10
25.40180749596943
 20
13.01281699331978
 30
0.0
 10
25.40234569914287
 20
12.98118390258171
 30
0.0
 10
25.40261859698714
 20
12.96514423076923
 30
0.0
  0
SPLINE
  5
9E
330
1F
100
AcDbEntity
  8
0
  6
Continuous
 62
     7
370
    25
100
AcDbSpline
210
0.0
220
0.0
230
1.0
 70
     8
 71
     3
 72
    15
 73
    11
 74
     0
 42
0.00000001
 43
0.00000001
 40
0.0
 40
0.0
 40
0.0
 40
0.0
 40
0.1762577548177985
 40
0.338434413880473
 40
0.4848220507878321
 40
0.6171575782663268
 40
0.7346983606124733
 40
0.8373851838323554
 40
0.9263724209295784
 40
0.9999999999999999
 40
0.9999999999999999
 40
0.9999999999999999
 40
0.9999999999999999
 10
24.54644872519227
 20
13.5
 30
0.0
 10
24.57315794148575
 20
13.49991109372113
 30
0.0
 10
24.62444259543378
 20
13.49974038381726
 30
0.0
 10
24.69791303563927
 20
13.49878851929831
 30
0.0
 10
24.76467137678226
 20
13.49606031603647
 30
0.0
 10
24.82468271353489
 20
13.49371255404953
 30
0.0
 10
24.87794594494993
 20
13.48943144472203
 30
0.0
 10
24.92462439680591
 20
13.48533964636785
 30
0.0
 10
24.96450308109231
 20
13.47998326877988
 30
0.0
 10
24.98864356755092
 20
13.47500874137095
 30
0.0
 10
24.99957372519227
 20
13.47275641025641
 30
0.0
  0
CIRCLE
  5
A2
330
1F
100
AcDbEntity
  8
0
  6
Continuous
 62
     7
370
    25
100
AcDbCircle
 10
34.72
 20
8.0
 30
0.0
 40
2.350000000000001
  0
CIRCLE
  5
A3
330
1F
100
AcDbEntity
  8
0
  6
Continuous
 62
     7
370
    25
100
AcDbCircle
 10
18.76
 20
8.0
 30
0.0
 40
2.350000000000012
  0
CIRCLE
  5
A4
330
1F
100
AcDbEntity
  8
0
  6
Continuous
 62
     7
370
    25
100
AcDbCircle
 10
10.78
 20
8.0
 30
0.0
 40
2.350000000000005
  0
CIRCLE
  5
A5
330
1F
100
AcDbEntity
  8
0
  6
Continuous
 62
     7
370
    25
100
AcDbCircle
 10
26.74
 20
8.0
 30
0.0
 40
2.350000000000005
  0
CIRCLE
  5
A6
330
1F
100
AcDbEntity
  8
0
  6
Continuous
 62
     7
370
    25
100
AcDbCircle
 10
41.25
 20
12.2525920824
 30
0.0
 40
1.599999999999994
  0
CIRCLE
  5
A7
330
1F
100
AcDbEntity
  8
0
  6
Continuous
 62
     7
370
    25
100
AcDbCircle
 10
4.25
 20
12.2525920824
 30
0.0
 40
1.599999999999996
  0
CIRCLE
  5
A8
330
1F
100
AcDbEntity
  8
0
  6
Continuous
 62
     7
370
    25
100
AcDbCircle
 10
4.25
 20
32.2525920824
 30
0.0
 40
1.599999999999998
  0
CIRCLE
  5
A9
330
1F
100
AcDbEntity
  8
0
  6
Continuous
 62
     7
370
    25
100
AcDbCircle
 10
41.25
 20
32.2525920824
 30
0.0
 40
1.600000000000016
  0
SPLINE
  5
CE
330
1F
100
AcDbEntity
  8
0
  6
Continuous
 62
     7
370
    25
100
AcDbSpline
210
0.0
220
0.0
230
1.0
 70
     8
 71
     3
 72
    23
 73
    19
 74
     0
 42
0.00000001
 43
0.00000001
 40
0.0
 40
0.0
 40
0.0
 40
0.0
 40
0.0688142958243093
 40
0.1363648245522161
 40
0.204019353511249
 40
0.2730637386246131
 40
0.342913319561491
 40
0.4109654441389602
 40
0.4791687665134493
 40
0.5493080065097857
 40
0.5876515764176511
 40
0.6306466687627895
 40
0.6788787856966502
 40
0.7319342992295871
 40
0.7911114229480511
 40
0.8552831895130774
 40
0.9250859386773894
 40
1.0
 40
1.0
 40
1.0
 40
1.0
 10
25.22313141749996
 20
12.96554487179487
 30
0.0
 10
25.22244449116368
 20
12.98162862821184
 30
0.0
 10
25.22108325381897
 20
13.0135007645996
 30
0.0
 10
25.20996967180369
 20
13.06016128476394
 30
0.0
 10
25.1911757396
 20
13.10419954198153
 30
0.0
 10
25.16584874650014
 20
13.14543639054822
 30
0.0
 10
25.13499208652155
 20
13.18286823960787
 30
0.0
 10
25.09881047926748
 20
13.21489518421216
 30
0.0
 10
25.058293224896
 20
13.24132344974251
 30
0.0
 10
25.02042396869494
 20
13.25821166717786
 30
0.0
 10
24.9865758472707
 20
13.26856586903267
 30
0.0
 10
24.95718747010448
 20
13.27585224835328
 30
0.0
 10
24.92398091140767
 20
13.28170623059895
 30
0.0
 10
24.886794935058
 20
13.28639655109908
 30
0.0
 10
24.8457882888952
 20
13.29042794781266
 30
0.0
 10
24.80075363112863
 20
13.29314324990303
 30
0.0
 10
24.75198975669361
 20
13.29475117224932
 30
0.0
 10
24.71819151029852
 20
13.29483065160964
 30
0.0
 10
24.70069552006407
 20
13.2948717948718
 30
0.0
  0
SPLINE
  5
CF
330
1F
100
AcDbEntity
  8
0
  6
Continuous
 62
     7
370
    25
100
AcDbSpline
210
0.0
220
0.0
230
1.0
 70
     8
 71
     3
 72
    23
 73
    19
 74
     0
 42
0.00000001
 43
0.00000001
 40
0.0
 40
0.0
 40
0.0
 40
0.0
 40
0.0716681496796049
 40
0.1389132862742069
 40
0.2011845700265585
 40
0.259124428290549
 40
0.3122550414262383
 40
0.3606815096231118
 40
0.4050861433286481
 40
0.445101658590711
 40
0.5187777804882614
 40
0.5894615790331973
 40
0.6584622419857193
 40
0.7272832183683692
 40
0.7963224869047211
 40
0.8631748932078822
 40
0.9309493809878561
 40
0.9999999999999999
 40
0.9999999999999999
 40
0.9999999999999999
 40
0.9999999999999999
 10
24.69188141749996
 20
12.62540064102564
 30
0.0
 10
24.70897858259816
 20
12.62539307722327
 30
0.0
 10
24.74211775809497
 20
12.62537841641997
 30
0.0
 10
24.79006099513005
 20
12.62766057427343
 30
0.0
 10
24.83470105895381
 20
12.63025675612657
 30
0.0
 10
24.87586720304662
 20
12.63422781071899
 30
0.0
 10
24.91357781751862
 20
12.63934556599085
 30
0.0
 10
24.94781405364524
 20
12.64574727127006
 30
0.0
 10
24.97863179758622
 20
12.65320559278257
 30
0.0
 10
25.01457381954205
 20
12.6647493789597
 30
0.0
 10
25.05470898031744
 20
12.68303853225414
 30
0.0
 10
25.09832695739005
 20
12.70964738865101
 30
0.0
 10
25.13547115039035
 20
12.74311545674673
 30
0.0
 10
25.16685278599318
 20
12.7813860030521
 30
0.0
 10
25.19206960397909
 20
12.82346385953077
 30
0.0
 10
25.20984792074167
 20
12.86884464194002
 30
0.0
 10
25.22112931633715
 20
12.91638269794437
 30
0.0
 10
25.22245991373682
 20
12.94905590242707
 30
0.0
 10
25.22313141749996
 20
12.96554487179487
 30
0.0
  0
LINE
  5
D0
330
1F
100
AcDbEntity
  8
0
  6
Continuous
 62
     7
370
    25
100
AcDbLine
 10
18.0692852637
 20
13.2127403846
 30
0.0
 11
17.9070256483
 21
13.0897435897
 31
0.0
  0
LINE
  5
D1
330
1F
100
AcDbEntity
  8
0
  6
Continuous
 62
     7
370
    25
100
AcDbLine
 10
16.9154391098
 20
11.8858173077
 30
0.0
 11
17.0845096226
 21
11.9871794872
 31
0.0
  0
LINE
  5
D2
330
1F
100
AcDbEntity
  8
0
  6
Continuous
 62
     7
370
    25
100
AcDbLine
 10
20.1942852637
 20
11.9871794872
 30
0.0
 11
20.3513365457
 21
11.8681891026
 31
0.0
  0
LINE
  5
D3
330
1F
100
AcDbEntity
  8
0
  6
Continuous
 62
     7
370
    25
100
AcDbLine
 10
20.3513365457
 20
13.1330128205
 30
0.0
 11
20.1942852637
 21
13.0128205128
 31
0.0
  0
LINE
  5
D4
330
1F
100
AcDbEntity
  8
0
  6
Continuous
 62
     7
370
    25
100
AcDbLine
 10
20.9410801354
 20
12.4743589744
 30
0.0
 11
20.9410801354
 21
11.5
 31
0.0
  0
LINE
  5
D5
330
1F
100
AcDbEntity
  8
0
  6
Continuous
 62
     7
370
    25
100
AcDbLine
 10
21.9667211611
 20
12.4743589744
 30
0.0
 11
20.9410801354
 21
12.4743589744
 31
0.0
  0
LINE
  5
D6
330
1F
100
AcDbEntity
  8
0
  6
Continuous
 62
     7
370
    25
100
AcDbLine
 10
21.9667211611
 20
11.5
 30
0.0
 11
21.9667211611
 21
12.4743589744
 31
0.0
  0
LINE
  5
D7
330
1F
100
AcDbEntity
  8
0
  6
Continuous
 62
     7
370
    25
100
AcDbLine
 10
22.1462083406
 20
11.5
 30
0.0
 11
21.9667211611
 21
11.5
 31
0.0
  0
LINE
  5
D8
330
1F
100
AcDbEntity
  8
0
  6
Continuous
 62
     7
370
    25
100
AcDbLine
 10
22.1462083406
 20
13.5
 30
0.0
 11
22.1462083406
 21
11.5
 31
0.0
  0
LINE
  5
D9
330
1F
100
AcDbEntity
  8
0
  6
Continuous
 62
     7
370
    25
100
AcDbLine
 10
21.9667211611
 20
13.5
 30
0.0
 11
22.1462083406
 21
13.5
 31
0.0
  0
LINE
  5
DA
330
1F
100
AcDbEntity
  8
0
  6
Continuous
 62
     7
370
    25
100
AcDbLine
 10
21.9667211611
 20
12.6794871795
 30
0.0
 11
21.9667211611
 21
13.5
 31
0.0
  0
LINE
  5
DB
330
1F
100
AcDbEntity
  8
0
  6
Continuous
 62
     7
370
    25
100
AcDbLine
 10
20.9410801354
 20
12.6794871795
 30
0.0
 11
21.9667211611
 21
12.6794871795
 31
0.0
  0
LINE
  5
DC
330
1F
100
AcDbEntity
  8
0
  6
Continuous
 62
     7
370
    25
100
AcDbLine
 10
20.9410801354
 20
13.5
 30
0.0
 11
20.9410801354
 21
12.6794871795
 31
0.0
  0
LINE
  5
DD
330
1F
100
AcDbEntity
  8
0
  6
Continuous
 62
     7
370
    25
100
AcDbLine
 10
20.761592956
 20
13.5
 30
0.0
 11
20.9410801354
 21
13.5
 31
0.0
  0
LINE
  5
DE
330
1F
100
AcDbEntity
  8
0
  6
Continuous
 62
     7
370
    25
100
AcDbLine
 10
20.761592956
 20
11.5
 30
0.0
 11
20.761592956
 21
13.5
 31
0.0
  0
LINE
  5
DF
330
1F
100
AcDbEntity
  8
0
  6
Continuous
 62
     7
370
    25
100
AcDbLine
 10
20.9410801354
 20
11.5
 30
0.0
 11
20.761592956
 21
11.5
 31
0.0
  0
LINE
  5
E0
330
1F
100
AcDbEntity
  8
0
  6
Continuous
 62
     7
370
    25
100
AcDbLine
 10
23.7872339816
 20
11.7051282051
 30
0.0
 11
23.7872339816
 21
11.5
 31
0.0
  0
LINE
  5
E1
330
1F
100
AcDbEntity
  8
0
  6
Continuous
 62
     7
370
    25
100
AcDbLine
 10
22.8385160329
 20
11.7051282051
 30
0.0
 11
23.7872339816
 21
11.7051282051
 31
0.0
  0
LINE
  5
E2
330
1F
100
AcDbEntity
  8
0
  6
Continuous
 62
     7
370
    25
100
AcDbLine
 10
22.8385160329
 20
12.4743589744
 30
0.0
 11
22.8385160329
 21
11.7051282051
 31
0.0
  0
LINE
  5
E3
330
1F
100
AcDbEntity
  8
0
  6
Continuous
 62
     7
370
    25
100
AcDbLine
 10
23.7872339816
 20
12.4743589744
 30
0.0
 11
22.8385160329
 21
12.4743589744
 31
0.0
  0
LINE
  5
E4
330
1F
100
AcDbEntity
  8
0
  6
Continuous
 62
     7
370
    25
100
AcDbLine
 10
23.7872339816
 20
12.6794871795
 30
0.0
 11
23.7872339816
 21
12.4743589744
 31
0.0
  0
LINE
  5
E5
330
1F
100
AcDbEntity
  8
0
  6
Continuous
 62
     7
370
    25
100
AcDbLine
 10
22.8385160329
 20
12.6794871795
 30
0.0
 11
23.7872339816
 21
12.6794871795
 31
0.0
  0
LINE
  5
E6
330
1F
100
AcDbEntity
  8
0
  6
Continuous
 62
     7
370
    25
100
AcDbLine
 10
22.8385160329
 20
13.2948717949
 30
0.0
 11
22.8385160329
 21
12.6794871795
 31
0.0
  0
LINE
  5
E7
330
1F
100
AcDbEntity
  8
0
  6
Continuous
 62
     7
370
    25
100
AcDbLine
 10
23.7872339816
 20
13.2948717949
 30
0.0
 11
22.8385160329
 21
13.2948717949
 31
0.0
  0
LINE
  5
E8
330
1F
100
AcDbEntity
  8
0
  6
Continuous
 62
     7
370
    25
100
AcDbLine
 10
23.7872339816
 20
13.5
 30
0.0
 11
23.7872339816
 21
13.2948717949
 31
0.0
  0
LINE
  5
E9
330
1F
100
AcDbEntity
  8
0
  6
Continuous
 62
     7
370
    25
100
AcDbLine
 10
22.6590288534
 20
13.5
 30
0.0
 11
23.7872339816
 21
13.5
 31
0.0
  0
LINE
  5
EA
330
1F
100
AcDbEntity
  8
0
  6
Continuous
 62
     7
370
    25
100
AcDbLine
 10
22.6590288534
 20
11.5
 30
0.0
 11
22.6590288534
 21
13.5
 31
0.0
  0
LINE
  5
EB
330
1F
100
AcDbEntity
  8
0
  6
Continuous
 62
     7
370
    25
100
AcDbLine
 10
23.7872339816
 20
11.5
 30
0.0
 11
22.6590288534
 21
11.5
 31
0.0
  0
LINE
  5
EC
330
1F
100
AcDbEntity
  8
0
  6
Continuous
 62
     7
370
    25
100
AcDbLine
 10
24.3256955201
 20
12.4230769231
 30
0.0
 11
24.3256955201
 21
11.5
 31
0.0
  0
LINE
  5
ED
330
1F
100
AcDbEntity
  8
0
  6
Continuous
 62
     7
370
    25
100
AcDbLine
 10
24.4715288534
 20
12.4230769231
 30
0.0
 11
24.3256955201
 21
12.4230769231
 31
0.0
  0
LINE
  5
EE
330
1F
100
AcDbEntity
  8
0
  6
Continuous
 62
     7
370
    25
100
AcDbLine
 10
25.2063044944
 20
11.5
 30
0.0
 11
24.4715288534
 21
12.4230769231
 31
0.0
  0
LINE
  5
EF
330
1F
100
AcDbEntity
  8
0
  6
Continuous
 62
     7
370
    25
100
AcDbLine
 10
25.4282596226
 20
11.5
 30
0.0
 11
25.2063044944
 21
11.5
 31
0.0
  0
LINE
  5
F0
330
1F
100
AcDbEntity
  8
0
  6
Continuous
 62
     7
370
    25
100
AcDbLine
 10
24.6934839816
 20
12.4230769231
 30
0.0
 11
25.4282596226
 21
11.5
 31
0.0
  0
LINE
  5
F1
330
1F
100
AcDbEntity
  8
0
  6
Continuous
 62
     7
370
    25
100
AcDbLine
 10
24.1462083406
 20
13.5
 30
0.0
 11
24.5464487252
 21
13.5
 31
0.0
  0
LINE
  5
F2
330
1F
100
AcDbEntity
  8
0
  6
Continuous
 62
     7
370
    25
100
AcDbLine
 10
24.1462083406
 20
11.5
 30
0.0
 11
24.1462083406
 21
13.5
 31
0.0
  0
LINE
  5
F3
330
1F
100
AcDbEntity
  8
0
  6
Continuous
 62
     7
370
    25
100
AcDbLine
 10
24.3256955201
 20
11.5
 30
0.0
 11
24.1462083406
 21
11.5
 31
0.0
  0
LINE
  5
F4
330
1F
100
AcDbEntity
  8
0
  6
Continuous
 62
     7
370
    25
100
AcDbLine
 10
0.0
 20
0.0
 30
0.0
 11
0.0
 21
37.0
 31
0.0
  0
LINE
  5
F5
330
1F
100
AcDbEntity
  8
0
  6
Continuous
 62
     7
370
    25
100
AcDbLine
 10
0.0
 20
37.0
 30
0.0
 11
12.5
 21
37.0
 31
0.0
  0
LINE
  5
F6
330
1F
100
AcDbEntity
  8
0
  6
Continuous
 62
     7
370
    25
100
AcDbLine
 10
12.5
 20
37.0
 30
0.0
 11
14.5
 21
39.5
 31
0.0
  0
LINE
  5
F7
330
1F
100
AcDbEntity
  8
0
  6
Continuous
 62
     7
370
    25
100
AcDbLine
 10
14.5
 20
39.5
 30
0.0
 11
16.5
 21
37.0
 31
0.0
  0
LINE
  5
F8
330
1F
100
AcDbEntity
  8
0
  6
Continuous
 62
     7
370
    25
100
AcDbLine
 10
16.5
 20
37.0
 30
0.0
 11
29.0
 21
37.0
 31
0.0
  0
LINE
  5
F9
330
1F
100
AcDbEntity
  8
0
  6
Continuous
 62
     7
370
    25
100
AcDbLine
 10
31.0
 20
39.5
 30
0.0
 11
29.0
 21
37.0
 31
0.0
  0
LINE
  5
FA
330
1F
100
AcDbEntity
  8
0
  6
Continuous
 62
     7
370
    25
100
AcDbLine
 10
33.0
 20
37.0
 30
0.0
 11
31.0
 21
39.5
 31
0.0
  0
LINE
  5
FB
330
1F
100
AcDbEntity
  8
0
  6
Continuous
 62
     7
370
    25
100
AcDbLine
 10
33.0
 20
37.0
 30
0.0
 11
45.5
 21
37.0
 31
0.0
  0
LINE
  5
FC
330
1F
100
AcDbEntity
  8
0
  6
Continuous
 62
     7
370
    25
100
AcDbLine
 10
45.5
 20
0.0
 30
0.0
 11
45.5
 21
37.0
 31
0.0
  0
LINE
  5
FD
330
1F
100
AcDbEntity
  8
0
  6
Continuous
 62
     7
370
    25
100
AcDbLine
 10
33.0
 20
0.0
 30
0.0
 11
45.5
 21
0.0
 31
0.0
  0
LINE
  5
FE
330
1F
100
AcDbEntity
  8
0
  6
Continuous
 62
     7
370
    25
100
AcDbLine
 10
33.0
 20
0.0
 30
0.0
 11
31.0
 21
-2.5
 31
0.0
  0
LINE
  5
FF
330
1F
100
AcDbEntity
  8
0
  6
Continuous
 62
     7
370
    25
100
AcDbLine
 10
31.0
 20
-2.5
 30
0.0
 11
29.0
 21
0.0
 31
0.0
  0
LINE
  5
100
330
1F
100
AcDbEntity
  8
0
  6
Continuous
 62
     7
370
    25
100
AcDbLine
 10
16.5
 20
0.0
 30
0.0
 11
29.0
 21
0.0
 31
0.0
  0
LINE
  5
101
330
1F
100
AcDbEntity
  8
0
  6
Continuous
 62
     7
370
    25
100
AcDbLine
 10
14.5
 20
-2.5
 30
0.0
 11
16.5
 21
0.0
 31
0.0
  0
LINE
  5
102
330
1F
100
AcDbEntity
  8
0
  6
Continuous
 62
     7
370
    25
100
AcDbLine
 10
12.5
 20
0.0
 30
0.0
 11
14.5
 21
-2.5
 31
0.0
  0
LINE
  5
103
330
1F
100
AcDbEntity
  8
0
  6
Continuous
 62
     7
370
    25
100
AcDbLine
 10
0.0
 20
0.0
 30
0.0
 11
12.5
 21
0.0
 31
0.0
  0
LINE
  5
104
330
1F
100
AcDbEntity
  8
0
  6
Continuous
 62
     7
370
    25
100
AcDbLine
 10
9.1
 20
30.14
 30
0.0
 11
9.1
 21
14.6590845953
 31
0.0
  0
LINE
  5
105
330
1F
100
AcDbEntity
  8
0
  6
Continuous
 62
     7
370
    25
100
AcDbLine
 10
9.1
 20
14.6590845953
 30
0.0
 11
36.4
 21
14.6590845953
 31
0.0
  0
LINE
  5
106
330
1F
100
AcDbEntity
  8
0
  6
Continuous
 62
     7
370
    25
100
AcDbLine
 10
36.4
 20
30.14
 30
0.0
 11
36.4
 21
14.6590845953
 31
0.0
  0
LINE
  5
107
330
1F
100
AcDbEntity
  8
0
  6
Continuous
 62
     7
370
    25
100
AcDbLine
 10
9.1
 20
30.14
 30
0.0
 11
36.4
 21
30.14
 31
0.0
  0
LINE
  5
108
330
1F
100
AcDbEntity
  8
0
  6
Continuous
 62
     7
370
    25
100
AcDbLine
 10
26.8325064175
 20
11.5
 30
0.0
 11
26.1077468021
 21
12.9423076923
 31
0.0
  0
LINE
  5
109
330
1F
100
AcDbEntity
  8
0
  6
Continuous
 62
     7
370
    25
100
AcDbLine
 10
26.8729711611
 20
11.5
 30
0.0
 11
26.8325064175
 21
11.5
 31
0.0
  0
LINE
  5
10A
330
1F
100
AcDbEntity
  8
0
  6
Continuous
 62
     7
370
    25
100
AcDbLine
 10
27.5949262893
 20
12.9391025641
 30
0.0
 11
26.8729711611
 21
11.5
 31
0.0
  0
LINE
  5
10B
330
1F
100
AcDbEntity
  8
0
  6
Continuous
 62
     7
370
    25
100
AcDbLine
 10
27.7864326996
 20
11.5
 30
0.0
 11
27.5949262893
 21
12.9391025641
 31
0.0
  0
LINE
  5
10C
330
1F
100
AcDbEntity
  8
0
  6
Continuous
 62
     7
370
    25
100
AcDbLine
 10
27.9667211611
 20
11.5
 30
0.0
 11
27.7864326996
 21
11.5
 31
0.0
  0
LINE
  5
10D
330
1F
100
AcDbEntity
  8
0
  6
Continuous
 62
     7
370
    25
100
AcDbLine
 10
27.7010961611
 20
13.5
 30
0.0
 11
27.9667211611
 21
11.5
 31
0.0
  0
LINE
  5
10E
330
1F
100
AcDbEntity
  8
0
  6
Continuous
 62
     7
370
    25
100
AcDbLine
 10
27.6750544944
 20
13.5
 30
0.0
 11
27.7010961611
 21
13.5
 31
0.0
  0
LINE
  5
10F
330
1F
100
AcDbEntity
  8
0
  6
Continuous
 62
     7
370
    25
100
AcDbLine
 10
26.8513365457
 20
11.858974359
 30
0.0
 11
27.6750544944
 21
13.5
 31
0.0
  0
LINE
  5
110
330
1F
100
AcDbEntity
  8
0
  6
Continuous
 62
     7
370
    25
100
AcDbLine
 10
26.0256153919
 20
13.5
 30
0.0
 11
26.8513365457
 21
11.858974359
 31
0.0
  0
LINE
  5
111
330
1F
100
AcDbEntity
  8
0
  6
Continuous
 62
     7
370
    25
100
AcDbLine
 10
25.9999743662
 20
13.5
 30
0.0
 11
26.0256153919
 21
13.5
 31
0.0
  0
LINE
  5
112
330
1F
100
AcDbEntity
  8
0
  6
Continuous
 62
     7
370
    25
100
AcDbLine
 10
25.7359519303
 20
11.5
 30
0.0
 11
25.9999743662
 21
13.5
 31
0.0
  0
LINE
  5
113
330
1F
100
AcDbEntity
  8
0
  6
Continuous
 62
     7
370
    25
100
AcDbLine
 10
25.9166410329
 20
11.5
 30
0.0
 11
25.7359519303
 21
11.5
 31
0.0
  0
LINE
  5
114
330
1F
100
AcDbEntity
  8
0
  6
Continuous
 62
     7
370
    25
100
AcDbLine
 10
26.1077468021
 20
12.9423076923
 30
0.0
 11
25.9166410329
 21
11.5
 31
0.0
  0
LINE
  5
115
330
1F
100
AcDbEntity
  8
0
  6
Continuous
 62
     7
370
    25
100
AcDbLine
 10
24.3256955201
 20
12.6282051282
 30
0.0
 11
24.6918814175
 21
12.625400641
 31
0.0
  0
LINE
  5
116
330
1F
100
AcDbEntity
  8
0
  6
Continuous
 62
     7
370
    25
100
AcDbLine
 10
24.3256955201
 20
13.2948717949
 30
0.0
 11
24.3256955201
 21
12.6282051282
 31
0.0
  0
LINE
  5
117
330
1F
100
AcDbEntity
  8
0
  6
Continuous
 62
     7
370
    25
100
AcDbLine
 10
24.7006955201
 20
13.2948717949
 30
0.0
 11
24.3256955201
 21
13.2948717949
 31
0.0
  0
MTEXT
  5
119
330
1F
100
AcDbEntity
  8
0
  6
Continuous
 62
     7
100
AcDbMText
 10
0.0
 20
-3.5195663917
 30
0.0
 40
4.83362
 41
0.0
 71
     1
 72
     1
  1
SOLIDWORKS Educational Product.
  7
SLDTEXTSTYLE0
 73
     1
 44
1.0
  0
MTEXT
  5
11A
330
1F
100
AcDbEntity
  8
0
  6
Continuous
 62
     7
100
AcDbMText
 10
0.0
 20
-10.7699963917
 30
0.0
 40
4.83362
 41
0.0
 71
     1
 72
     1
  1
For Instructional Use Only.
  7
SLDTEXTSTYLE0
 73
     1
 44
1.0
  0
ENDSEC
  0
SECTION
  2
OBJECTS
  0
DICTIONARY
  5
C
330
0
100
AcDbDictionary
281
     1
  3
ACAD_GROUP
350
D
  3
ACAD_LAYOUT
350
1A
  3
ACAD_MLINESTYLE
350
17
  3
ACAD_PLOTSETTINGS
350
19
  3
ACAD_PLOTSTYLENAME
350
E
  3
ACAD_SCALELIST
350
47
  3
DWGPROPS
350
11B
  0
DICTIONARY
  5
D
102
{ACAD_REACTORS
330
C
102
}
330
C
100
AcDbDictionary
281
     1
  0
DICTIONARY
  5
1A
102
{ACAD_REACTORS
330
C
102
}
330
C
100
AcDbDictionary
281
     1
  3
Layout1
350
1E
  3
Layout2
350
26
  3
Model
350
22
  0
DICTIONARY
  5
17
102
{ACAD_REACTORS
330
C
102
}
330
C
100
AcDbDictionary
281
     1
  3
Standard
350
18
  0
DICTIONARY
  5
19
102
{ACAD_REACTORS
330
C
102
}
330
C
100
AcDbDictionary
281
     1
  0
ACDBDICTIONARYWDFLT
  5
E
102
{ACAD_REACTORS
330
C
102
}
330
C
100
AcDbDictionary
281
     1
  3
Normal
350
F
100
AcDbDictionaryWithDefault
340
F
  0
DICTIONARY
  5
47
102
{ACAD_REACTORS
330
C
102
}
330
C
100
AcDbDictionary
281
     1
  3
A0
350
48
  3
A1
350
49
  3
A2
350
4A
  3
A3
350
4B
  3
A4
350
4C
  3
A5
350
4D
  3
A6
350
4E
  3
A7
350
4F
  3
A8
350
50
  3
A9
350
51
  3
B0
350
52
  3
B1
350
53
  3
B2
350
54
  3
B3
350
55
  3
B4
350
56
  3
B5
350
57
  3
B6
350
58
  0
XRECORD
  5
11B
102
{ACAD_REACTORS
330
C
102
}
330
C
100
AcDbXrecord
280
     1
  1
DWGPROPS COOKIE
  2

  3

  4

  6

  7

  8
Willi
  9

300
=
301
=
302
=
303
=
304
=
305
=
306
=
307
=
308
=
309
=
 40
0.0
 41
2459857.430239595
 42
2459857.430282882
  1

 90
        0
  0
LAYOUT
  5
1E
102
{ACAD_REACTORS
330
1A
102
}
330
1A
100
AcDbPlotSettings
  1

  2
none_device
  4

  6

 40
0.0
 41
0.0
 42
0.0
 43
0.0
 44
0.0
 45
0.0
 46
0.0
 47
0.0
 48
0.0
 49
0.0
140
0.0
141
0.0
142
1.0
143
1.0
 70
   688
 72
     1
 73
     0
 74
     5
  7

 75
    16
147
1.0
148
0.0
149
0.0
100
AcDbLayout
  1
Layout1
 70
     1
 71
     1
 10
0.0
 20
0.0
 11
420.0
 21
297.0
 12
0.0
 22
0.0
 32
0.0
 14
1.0000000000E+20
 24
1.0000000000E+20
 34
1.0000000000E+20
 15
-1.0000000000E+20
 25
-1.0000000000E+20
 35
-1.0000000000E+20
146
0.0
 13
0.0
 23
0.0
 33
0.0
 16
1.0
 26
0.0
 36
0.0
 17
0.0
 27
1.0
 37
0.0
 76
     0
330
1B
  0
LAYOUT
  5
26
102
{ACAD_REACTORS
330
1A
102
}
330
1A
100
AcDbPlotSettings
  1

  2
none_device
  4

  6

 40
0.0
 41
0.0
 42
0.0
 43
0.0
 44
0.0
 45
0.0
 46
0.0
 47
0.0
 48
0.0
 49
0.0
140
0.0
141
0.0
142
1.0
143
1.0
 70
   688
 72
     1
 73
     0
 74
     5
  7

 75
    16
147
1.0
148
0.0
149
0.0
100
AcDbLayout
  1
Layout2
 70
     1
 71
     2
 10
0.0
 20
0.0
 11
0.0
 21
0.0
 12
0.0
 22
0.0
 32
0.0
 14
0.0
 24
0.0
 34
0.0
 15
0.0
 25
0.0
 35
0.0
146
0.0
 13
0.0
 23
0.0
 33
0.0
 16
1.0
 26
0.0
 36
0.0
 17
0.0
 27
1.0
 37
0.0
 76
     0
330
23
  0
LAYOUT
  5
22
102
{ACAD_REACTORS
330
1A
102
}
330
1A
100
AcDbPlotSettings
  1

  2
none_device
  4
ANSI_A_(11.00_x_8.50_Inches)
  6

 40
6.35
 41
19.05
 42
6.35000508
 43
19.05000254
 44
279.4
 45
215.9
 46
17.57362246
 47
-5.2478226986
 48
0.0
 49
0.0
140
0.0
141
0.0
142
0.2003571429
143
1.0
 70
  1696
 72
     0
 73
     0
 74
     0
  7

 75
     0
147
0.0179189148
148
-1300.4909072572
149
0.0
100
AcDbLayout
  1
Model
 70
     1
 71
     0
 10
0.0
 20
0.0
 11
420.0
 21
297.0
 12
0.0
 22
0.0
 32
0.0
 14
0.0
 24
-2.5
 34
0.0
 15
45.5
 25
39.5
 35
0.0
146
0.0
 13
0.0
 23
0.0
 33
0.0
 16
1.0
 26
0.0
 36
0.0
 17
0.0
 27
1.0
 37
0.0
 76
     0
330
1F
331
29
  0
MLINESTYLE
  5
18
102
{ACAD_REACTORS
330
17
102
}
330
17
100
AcDbMlineStyle
  2
Standard
 70
     0
  3

 62
   256
 51
90.0
 52
90.0
 71
     2
 49
0.5
 62
   256
  6
BYLAYER
 49
-0.5
 62
   256
  6
BYLAYER
  0
ACDBPLACEHOLDER
  5
F
102
{ACAD_REACTORS
330
E
102
}
330
E
  0
SCALE
  5
48
102
{ACAD_REACTORS
330
47
102
}
330
47
100
AcDbScale
 70
     0
300
1:1
140
1.0
141
1.0
290
     1
  0
SCALE
  5
49
102
{ACAD_REACTORS
330
47
102
}
330
47
100
AcDbScale
 70
     0
300
1:2
140
1.0
141
2.0
290
     0
  0
SCALE
  5
4A
102
{ACAD_REACTORS
330
47
102
}
330
47
100
AcDbScale
 70
     0
300
1:4
140
1.0
141
4.0
290
     0
  0
SCALE
  5
4B
102
{ACAD_REACTORS
330
47
102
}
330
47
100
AcDbScale
 70
     0
300
1:5
140
1.0
141
5.0
290
     0
  0
SCALE
  5
4C
102
{ACAD_REACTORS
330
47
102
}
330
47
100
AcDbScale
 70
     0
300
1:8
140
1.0
141
8.0
290
     0
  0
SCALE
  5
4D
102
{ACAD_REACTORS
330
47
102
}
330
47
100
AcDbScale
 70
     0
300
1:10
140
1.0
141
10.0
290
     0
  0
SCALE
  5
4E
102
{ACAD_REACTORS
330
47
102
}
330
47
100
AcDbScale
 70
     0
300
1:16
140
1.0
141
16.0
290
     0
  0
SCALE
  5
4F
102
{ACAD_REACTORS
330
47
102
}
330
47
100
AcDbScale
 70
     0
300
1:20
140
1.0
141
20.0
290
     0
  0
SCALE
  5
50
102
{ACAD_REACTORS
330
47
102
}
330
47
100
AcDbScale
 70
     0
300
1:30
140
1.0
141
30.0
290
     0
  0
SCALE
  5
51
102
{ACAD_REACTORS
330
47
102
}
330
47
100
AcDbScale
 70
     0
300
1:40
140
1.0
141
40.0
290
     0
  0
SCALE
  5
52
102
{ACAD_REACTORS
330
47
102
}
330
47
100
AcDbScale
 70
     0
300
1:50
140
1.0
141
50.0
290
     0
  0
SCALE
  5
53
102
{ACAD_REACTORS
330
47
102
}
330
47
100
AcDbScale
 70
     0
300
1:100
140
1.0
141
100.0
290
     0
  0
SCALE
  5
54
102
{ACAD_REACTORS
330
47
102
}
330
47
100
AcDbScale
 70
     0
300
2:1
140
2.0
141
1.0
290
     0
  0
SCALE
  5
55
102
{ACAD_REACTORS
330
47
102
}
330
47
100
AcDbScale
 70
     0
300
4:1
140
4.0
141
1.0
290
     0
  0
SCALE
  5
56
102
{ACAD_REACTORS
330
47
102
}
330
47
100
AcDbScale
 70
     0
300
8:1
140
8.0
141
1.0
290
     0
  0
SCALE
  5
57
102
{ACAD_REACTORS
330
47
102
}
330
47
100
AcDbScale
 70
     0
300
10:1
140
10.0
141
1.0
290
     0
  0
SCALE
  5
58
102
{ACAD_REACTORS
330
47
102
}
330
47
100
AcDbScale
 70
     0
300
100:1
140
100.0
141
1.0
290
     0
  0
ENDSEC
  0
EOF
