  0
SECTION
  2
HEADER
  9
$ACADVER
  1
AC1015
  9
$ACADMAINTVER
 70
     6
  9
$DWGCODEPAGE
  3
UNDEFINED
  9
$INSBASE
 10
0.0
 20
0.0
 30
0.0
  9
$EXTMIN
 10
0.0
 20
-2.5
 30
0.0
  9
$EXTMAX
 10
45.5
 20
39.5
 30
0.0
  9
$LIMMIN
 10
0.0
 20
0.0
  9
$LIMMAX
 10
420.0
 20
297.0
  9
$ORTHOMODE
 70
     0
  9
$REGENMODE
 70
     1
  9
$FILLMODE
 70
     1
  9
$QTEXTMODE
 70
     0
  9
$MIRRTEXT
 70
     1
  9
$LTSCALE
 40
1.0
  9
$ATTMODE
 70
     1
  9
$TEXTSIZE
 40
3.5
  9
$TRACEWID
 40
1.0
  9
$TEXTSTYLE
  7
Standard
  9
$CLAYER
  8
0
  9
$CELTYPE
  6
ByLayer
  9
$CECOLOR
 62
   256
  9
$CELTSCALE
 40
1.0
  9
$DISPSILH
 70
     0
  9
$DIMSCALE
 40
1.0
  9
$DIMASZ
 40
3.302
  9
$DIMEXO
 40
0.0
  9
$DIMDLI
 40
3.75
  9
$DIMRND
 40
0.0
  9
$DIMDLE
 40
0.0
  9
$DIMEXE
 40
1.0
  9
$DIMTP
 40
0.0
  9
$DIMTM
 40
0.0
  9
$DIMTXT
 40
3.5
  9
$DIMCEN
 40
2.5
  9
$DIMTSZ
 40
0.0
  9
$DIMTOL
 70
     0
  9
$DIMLIM
 70
     0
  9
$DIMTIH
 70
     1
  9
$DIMTOH
 70
     1
  9
$DIMSE1
 70
     0
  9
$DIMSE2
 70
     0
  9
$DIMTAD
 70
     1
  9
$DIMZIN
 70
     1
  9
$DIMBLK
  1

  9
$DIMASO
 70
     1
  9
$DIMSHO
 70
     1
  9
$DIMPOST
  1

  9
$DIMAPOST
  1

  9
$DIMALT
 70
     0
  9
$DIMALTD
 70
     3
  9
$DIMALTF
 40
0.0393700787
  9
$DIMLFAC
 40
1.0
  9
$DIMTOFL
 70
     1
  9
$DIMTVP
 40
0.0
  9
$DIMTIX
 70
     0
  9
$DIMSOXD
 70
     0
  9
$DIMSAH
 70
     0
  9
$DIMBLK1
  1

  9
$DIMBLK2
  1

  9
$DIMSTYLE
  2
ISO-25
  9
$DIMCLRD
 70
     0
  9
$DIMCLRE
 70
     0
  9
$DIMCLRT
 70
     0
  9
$DIMTFAC
 40
1.0
  9
$DIMGAP
 40
1.524
  9
$DIMJUST
 70
     0
  9
$DIMSD1
 70
     0
  9
$DIMSD2
 70
     0
  9
$DIMTOLJ
 70
     0
  9
$DIMTZIN
 70
     1
  9
$DIMALTZ
 70
     0
  9
$DIMALTTZ
 70
     0
  9
$DIMUPT
 70
     0
  9
$DIMDEC
 70
     2
  9
$DIMTDEC
 70
     2
  9
$DIMALTU
 70
     2
  9
$DIMALTTD
 70
     3
  9
$DIMTXSTY
  7
Standard
  9
$DIMAUNIT
 70
     0
  9
$DIMADEC
 70
     2
  9
$DIMALTRND
 40
0.0
  9
$DIMAZIN
 70
     0
  9
$DIMDSEP
 70
    44
  9
$DIMATFIT
 70
     3
  9
$DIMFRAC
 70
     0
  9
$DIMLDRBLK
  1

  9
$DIMLUNIT
 70
     2
  9
$DIMLWD
 70
    -2
  9
$DIMLWE
 70
    -2
  9
$DIMTMOVE
 70
     0
  9
$LUNITS
 70
     2
  9
$LUPREC
 70
     2
  9
$SKETCHINC
 40
1.0
  9
$FILLETRAD
 40
0.0
  9
$AUNITS
 70
     0
  9
$AUPREC
 70
     2
  9
$MENU
  1
.
  9
$ELEVATION
 40
0.0
  9
$PELEVATION
 40
0.0
  9
$THICKNESS
 40
0.0
  9
$LIMCHECK
 70
     0
  9
$CHAMFERA
 40
0.0
  9
$CHAMFERB
 40
0.0
  9
$CHAMFERC
 40
0.0
  9
$CHAMFERD
 40
0.0
  9
$SKPOLY
 70
     0
  9
$TDCREATE
 40
2459857.516197072
  9
$TDUCREATE
 40
2459857.432863738
  9
$TDUPDATE
 40
2459857.516226516
  9
$TDUUPDATE
 40
2459857.432893183
  9
$TDINDWG
 40
0.0000000116
  9
$TDUSRTIMER
 40
0.0000000116
  9
$USRTIMER
 70
     1
  9
$ANGBASE
 50
0.0
  9
$ANGDIR
 70
     0
  9
$PDMODE
 70
     0
  9
$PDSIZE
 40
-1.0
  9
$PLINEWID
 40
0.0
  9
$SPLFRAME
 70
     0
  9
$SPLINETYPE
 70
     6
  9
$SPLINESEGS
 70
     8
  9
$HANDSEED
  5
1AB
  9
$SURFTAB1
 70
     6
  9
$SURFTAB2
 70
     6
  9
$SURFTYPE
 70
     6
  9
$SURFU
 70
     6
  9
$SURFV
 70
     6
  9
$UCSBASE
  2

  9
$UCSNAME
  2

  9
$UCSORG
 10
0.0
 20
0.0
 30
0.0
  9
$UCSXDIR
 10
1.0
 20
0.0
 30
0.0
  9
$UCSYDIR
 10
0.0
 20
1.0
 30
0.0
  9
$UCSORTHOREF
  2

  9
$UCSORTHOVIEW
 70
     0
  9
$UCSORGTOP
 10
0.0
 20
0.0
 30
0.0
  9
$UCSORGBOTTOM
 10
0.0
 20
0.0
 30
0.0
  9
$UCSORGLEFT
 10
0.0
 20
0.0
 30
0.0
  9
$UCSORGRIGHT
 10
0.0
 20
0.0
 30
0.0
  9
$UCSORGFRONT
 10
0.0
 20
0.0
 30
0.0
  9
$UCSORGBACK
 10
0.0
 20
0.0
 30
0.0
  9
$PUCSBASE
  2

  9
$PUCSNAME
  2

  9
$PUCSORG
 10
0.0
 20
0.0
 30
0.0
  9
$PUCSXDIR
 10
1.0
 20
0.0
 30
0.0
  9
$PUCSYDIR
 10
0.0
 20
1.0
 30
0.0
  9
$PUCSORTHOREF
  2

  9
$PUCSORTHOVIEW
 70
     0
  9
$PUCSORGTOP
 10
0.0
 20
0.0
 30
0.0
  9
$PUCSORGBOTTOM
 10
0.0
 20
0.0
 30
0.0
  9
$PUCSORGLEFT
 10
0.0
 20
0.0
 30
0.0
  9
$PUCSORGRIGHT
 10
0.0
 20
0.0
 30
0.0
  9
$PUCSORGFRONT
 10
0.0
 20
0.0
 30
0.0
  9
$PUCSORGBACK
 10
0.0
 20
0.0
 30
0.0
  9
$USERI1
 70
     0
  9
$USERI2
 70
     0
  9
$USERI3
 70
     0
  9
$USERI4
 70
     0
  9
$USERI5
 70
     0
  9
$USERR1
 40
0.0
  9
$USERR2
 40
0.0
  9
$USERR3
 40
0.0
  9
$USERR4
 40
0.0
  9
$USERR5
 40
0.0
  9
$WORLDVIEW
 70
     1
  9
$SHADEDGE
 70
     3
  9
$SHADEDIF
 70
    70
  9
$TILEMODE
 70
     1
  9
$MAXACTVP
 70
    64
  9
$PINSBASE
 10
0.0
 20
0.0
 30
0.0
  9
$PLIMCHECK
 70
     0
  9
$PEXTMIN
 10
1.0000000000E+20
 20
1.0000000000E+20
 30
1.0000000000E+20
  9
$PEXTMAX
 10
-1.0000000000E+20
 20
-1.0000000000E+20
 30
-1.0000000000E+20
  9
$PLIMMIN
 10
0.0
 20
0.0
  9
$PLIMMAX
 10
420.0
 20
297.0
  9
$UNITMODE
 70
     0
  9
$VISRETAIN
 70
     1
  9
$PLINEGEN
 70
     0
  9
$PSLTSCALE
 70
     1
  9
$TREEDEPTH
 70
  3020
  9
$CMLSTYLE
  2
Standard
  9
$CMLJUST
 70
     0
  9
$CMLSCALE
 40
20.0
  9
$PROXYGRAPHICS
 70
     1
  9
$MEASUREMENT
 70
     1
  9
$CELWEIGHT
370
    -1
  9
$ENDCAPS
280
     0
  9
$JOINSTYLE
280
     0
  9
$LWDISPLAY
290
     1
  9
$INSUNITS
 70
     4
  9
$HYPERLINKBASE
  1

  9
$STYLESHEET
  1

  9
$XEDIT
290
     1
  9
$CEPSNTYPE
380
     0
  9
$PSTYLEMODE
290
     1
  9
$FINGERPRINTGUID
  2
{5640075a-0974-468d-9d33-088edaed42c9}
  9
$VERSIONGUID
  2
{FAEB1C32-E019-11D5-929B-00C0DF256EC4}
  9
$EXTNAMES
290
     1
  9
$PSVPSCALE
 40
0.0
  9
$OLESTARTUP
290
     0
  0
ENDSEC
  0
SECTION
  2
CLASSES
  0
CLASS
  1
ACDBDICTIONARYWDFLT
  2
AcDbDictionaryWithDefault
  3
ObjectDBX Classes
 90
        0
280
     0
281
     0
  0
CLASS
  1
VISUALSTYLE
  2
AcDbVisualStyle
  3
ObjectDBX Classes
 90
     4095
280
     0
281
     0
  0
CLASS
  1
MATERIAL
  2
AcDbMaterial
  3
ObjectDBX Classes
 90
     1153
280
     0
281
     0
  0
CLASS
  1
SCALE
  2
AcDbScale
  3
ObjectDBX Classes
 90
     1153
280
     0
281
     0
  0
CLASS
  1
TABLESTYLE
  2
AcDbTableStyle
  3
ObjectDBX Classes
 90
     4095
280
     0
281
     0
  0
CLASS
  1
MLEADERSTYLE
  2
AcDbMLeaderStyle
  3
ACDB_MLEADERSTYLE_CLASS
 90
     4095
280
     0
281
     0
  0
CLASS
  1
SUN
  2
AcDbSun
  3
SCENEOE
 90
     1153
280
     0
281
     0
  0
CLASS
  1
ACDBPLACEHOLDER
  2
AcDbPlaceHolder
  3
ObjectDBX Classes
 90
        0
280
     0
281
     0
  0
CLASS
  1
LAYOUT
  2
AcDbLayout
  3
ObjectDBX Classes
 90
        0
280
     0
281
     0
  0
ENDSEC
  0
SECTION
  2
TABLES
  0
TABLE
  2
VPORT
  5
8
330
0
100
AcDbSymbolTable
 70
     1
  0
VPORT
  5
29
330
8
100
AcDbSymbolTableRecord
100
AcDbViewportTableRecord
  2
*Active
 70
     0
 10
0.0
 20
0.0
 11
1.0
 21
1.0
 12
22.75
 22
18.5
 13
0.0
 23
0.0
 14
10.0
 24
10.0
 15
10.0
 25
10.0
 16
0.0
 26
0.0
 36
1.0
 17
0.0
 27
0.0
 37
0.0
 40
42.84
 41
1.0833333333
 42
50.0
 43
0.0
 44
0.0
 50
0.0
 51
0.0
 71
     0
 72
   100
 73
     1
 74
     3
 75
     0
 76
     0
 77
     0
 78
     0
281
     0
 65
     1
110
0.0
120
0.0
130
0.0
111
1.0
121
0.0
131
0.0
112
0.0
122
1.0
132
0.0
 79
     0
146
0.0
  0
ENDTAB
  0
TABLE
  2
LTYPE
  5
5
330
0
100
AcDbSymbolTable
 70
     6
  0
LTYPE
  5
14
330
5
100
AcDbSymbolTableRecord
100
AcDbLinetypeTableRecord
  2
ByBlock
 70
     0
  3

 72
    65
 73
     0
 40
0.0
  0
LTYPE
  5
15
330
5
100
AcDbSymbolTableRecord
100
AcDbLinetypeTableRecord
  2
ByLayer
 70
     0
  3

 72
    65
 73
     0
 40
0.0
  0
LTYPE
  5
16
330
5
100
AcDbSymbolTableRecord
100
AcDbLinetypeTableRecord
  2
Continuous
 70
     0
  3
Solid line
 72
    65
 73
     0
 40
0.0
  0
LTYPE
  5
5E
330
5
100
AcDbSymbolTableRecord
100
AcDbLinetypeTableRecord
  2
HIDDEN
 70
     0
  3
Hidden __ __ __ __ __ __ __ __ __ __ __ __ __ __
 72
    65
 73
     2
 40
1.905
 49
1.27
 74
     0
 49
-0.635
 74
     0
  0
LTYPE
  5
5F
330
5
100
AcDbSymbolTableRecord
100
AcDbLinetypeTableRecord
  2
PHANTOM
 70
     0
  3
Phantom ______  __  __  ______  __  __  ______
 72
    65
 73
     6
 40
12.7
 49
6.35
 74
     0
 49
-1.27
 74
     0
 49
1.27
 74
     0
 49
-1.27
 74
     0
 49
1.27
 74
     0
 49
-1.27
 74
     0
  0
LTYPE
  5
60
330
5
100
AcDbSymbolTableRecord
100
AcDbLinetypeTableRecord
  2
CENTER
 70
     0
  3
Center ____ _ ____ _ ____ _ ____ _ ____ _ ____
 72
    65
 73
     4
 40
10.16
 49
6.35
 74
     0
 49
-1.27
 74
     0
 49
1.27
 74
     0
 49
-1.27
 74
     0
  0
LTYPE
  5
61
330
5
100
AcDbSymbolTableRecord
100
AcDbLinetypeTableRecord
  2
CENTERX2
 70
     0
  3
Center (2x) ________  __  ________  __  _____
 72
    65
 73
     4
 40
20.32
 49
12.7
 74
     0
 49
-2.54
 74
     0
 49
2.54
 74
     0
 49
-2.54
 74
     0
  0
LTYPE
  5
62
330
5
100
AcDbSymbolTableRecord
100
AcDbLinetypeTableRecord
  2
DOT2
 70
     0
  3
Dot (.5x) ........................................
 72
    65
 73
     2
 40
0.635
 49
0.0
 74
     0
 49
-0.635
 74
     0
  0
ENDTAB
  0
TABLE
  2
LAYER
  5
2
330
0
100
AcDbSymbolTable
 70
     1
  0
LAYER
  5
10
330
2
100
AcDbSymbolTableRecord
100
AcDbLayerTableRecord
  2
0
 70
     0
 62
     7
  6
Continuous
370
    -3
390
F
  0
ENDTAB
  0
TABLE
  2
STYLE
  5
3
330
0
100
AcDbSymbolTable
 70
     2
  0
STYLE
  5
11
330
3
100
AcDbSymbolTableRecord
100
AcDbTextStyleTableRecord
  2
Standard
 70
     0
 40
0.0
 41
1.0
 50
0.0
 71
     0
 42
3.5
  3
txt
  4

  0
STYLE
  5
1A7
330
3
100
AcDbSymbolTableRecord
100
AcDbTextStyleTableRecord
  2
SLDTEXTSTYLE0
 70
     0
 40
0.0
 41
0.7
 50
0.0
 71
     0
 42
3.5
  3
TXT
  4

  0
ENDTAB
  0
TABLE
  2
VIEW
  5
6
330
0
100
AcDbSymbolTable
 70
     0
  0
ENDTAB
  0
TABLE
  2
UCS
  5
7
330
0
100
AcDbSymbolTable
 70
     0
  0
ENDTAB
  0
TABLE
  2
APPID
  5
9
330
0
100
AcDbSymbolTable
 70
     1
  0
APPID
  5
12
330
9
100
AcDbSymbolTableRecord
100
AcDbRegAppTableRecord
  2
ACAD
 70
     0
  0
ENDTAB
  0
TABLE
  2
DIMSTYLE
  5
A
330
0
100
AcDbSymbolTable
 70
     1
100
AcDbDimStyleTable
  0
DIMSTYLE
105
27
330
A
100
AcDbSymbolTableRecord
100
AcDbDimStyleTableRecord
  2
ISO-25
 70
     0
 41
2.5
 42
0.625
 43
3.75
 44
1.25
 73
     0
 74
     0
 77
     1
 78
     8
140
2.5
141
2.5
143
0.0393700787
147
0.625
171
     3
172
     1
178
     0
271
     2
272
     2
274
     3
278
    44
283
     0
284
     8
340
11
  0
ENDTAB
  0
TABLE
  2
BLOCK_RECORD
  5
1
330
0
100
AcDbSymbolTable
 70
     1
  0
BLOCK_RECORD
  5
1F
330
1
100
AcDbSymbolTableRecord
100
AcDbBlockTableRecord
  2
*Model_Space
340
22
  0
BLOCK_RECORD
  5
1B
330
1
100
AcDbSymbolTableRecord
100
AcDbBlockTableRecord
  2
*Paper_Space
340
1E
  0
BLOCK_RECORD
  5
23
330
1
100
AcDbSymbolTableRecord
100
AcDbBlockTableRecord
  2
*Paper_Space0
340
26
  0
ENDTAB
  0
ENDSEC
  0
SECTION
  2
BLOCKS
  0
BLOCK
  5
20
330
1F
100
AcDbEntity
  8
0
100
AcDbBlockBegin
  2
*Model_Space
 70
     0
 10
0.0
 20
0.0
 30
0.0
  3
*Model_Space
  1

  0
ENDBLK
  5
21
330
1F
100
AcDbEntity
  8
0
100
AcDbBlockEnd
  0
BLOCK
  5
1C
330
1B
100
AcDbEntity
 67
     1
  8
0
100
AcDbBlockBegin
  2
*Paper_Space
 70
     0
 10
0.0
 20
0.0
 30
0.0
  3
*Paper_Space
  1

  0
ENDBLK
  5
1D
330
1B
100
AcDbEntity
 67
     1
  8
0
100
AcDbBlockEnd
  0
BLOCK
  5
24
330
23
100
AcDbEntity
  8
0
100
AcDbBlockBegin
  2
*Paper_Space0
 70
     0
 10
0.0
 20
0.0
 30
0.0
  3
*Paper_Space0
  1

  0
ENDBLK
  5
25
330
23
100
AcDbEntity
  8
0
100
AcDbBlockEnd
  0
ENDSEC
  0
SECTION
  2
ENTITIES
  0
SPLINE
  5
64
330
1F
100
AcDbEntity
  8
0
  6
Continuous
 62
     7
370
    25
100
AcDbSpline
210
0.0
220
0.0
230
1.0
 70
     8
 71
     3
 72
    11
 73
     7
 74
     0
 42
0.00000001
 43
0.00000001
 40
0.0
 40
0.0
 40
0.0
 40
0.0
 40
0.2936676990750814
 40
0.5585332318149787
 40
0.7917361732336141
 40
1.0
 40
1.0
 40
1.0
 40
1.0
 10
17.92434210526316
 20
13.29111842105264
 30
0.0
 10
17.92145830704625
 20
13.27710871073398
 30
0.0
 10
17.91597354606277
 20
13.2504633261523
 30
0.0
 10
17.90617508468666
 20
13.21314574570829
 30
0.0
 10
17.89565034044827
 20
13.18038766164253
 30
0.0
 10
17.88860382766059
 20
13.16007568328856
 30
0.0
 10
17.88527960526316
 20
13.15049342105264
 30
0.0
  0
SPLINE
  5
68
330
1F
100
AcDbEntity
  8
0
  6
Continuous
 62
     7
370
    25
100
AcDbSpline
210
0.0
220
0.0
230
1.0
 70
     8
 71
     3
 72
    11
 73
     7
 74
     0
 42
0.00000001
 43
0.00000001
 40
0.0
 40
0.0
 40
0.0
 40
0.0
 40
0.2087579911902191
 40
0.4425142720868131
 40
0.7073029087953485
 40
1.0
 40
1.0
 40
1.0
 40
1.0
 10
17.9671052631579
 20
13.15049342105264
 30
0.0
 10
17.96378475324318
 20
13.16007688511808
 30
0.0
 10
17.95674610998218
 20
13.18039141104743
 30
0.0
 10
17.94616444026207
 20
13.21309503666979
 30
0.0
 10
17.93669873495104
 20
13.25039934990455
 30
0.0
 10
17.93210129622097
 20
13.27709984362012
 30
0.0
 10
17.92968750000001
 20
13.29111842105264
 30
0.0
  0
CIRCLE
  5
82
330
1F
100
AcDbEntity
  8
0
  6
Continuous
 62
     7
370
    25
100
AcDbCircle
 10
9.8
 20
25.6
 30
0.0
 40
8.000000000000014
  0
CIRCLE
  5
83
330
1F
100
AcDbEntity
  8
0
  6
Continuous
 62
     7
370
    25
100
AcDbCircle
 10
35.7
 20
25.6
 30
0.0
 40
8.0
  0
CIRCLE
  5
B8
330
1F
100
AcDbEntity
  8
0
  6
Continuous
 62
     7
370
    25
100
AcDbCircle
 10
34.72
 20
8.0
 30
0.0
 40
2.350000000000001
  0
CIRCLE
  5
B9
330
1F
100
AcDbEntity
  8
0
  6
Continuous
 62
     7
370
    25
100
AcDbCircle
 10
26.74
 20
8.0
 30
0.0
 40
2.349999999999987
  0
CIRCLE
  5
BA
330
1F
100
AcDbEntity
  8
0
  6
Continuous
 62
     7
370
    25
100
AcDbCircle
 10
18.76
 20
8.0
 30
0.0
 40
2.350000000000012
  0
CIRCLE
  5
BB
330
1F
100
AcDbEntity
  8
0
  6
Continuous
 62
     7
370
    25
100
AcDbCircle
 10
10.78
 20
8.0
 30
0.0
 40
2.350000000000005
  0
SPLINE
  5
D6
330
1F
100
AcDbEntity
  8
0
  6
Continuous
 62
     7
370
    25
100
AcDbSpline
210
0.0
220
0.0
230
1.0
 70
     8
 71
     3
 72
    11
 73
     7
 74
     0
 42
0.00000001
 43
0.00000001
 40
0.0
 40
0.0
 40
0.0
 40
0.0
 40
0.1660916052498037
 40
0.3860726293432264
 40
0.6625314288237754
 40
1.0
 40
1.0
 40
1.0
 40
1.0
 10
27.67269736842105
 20
13.23067434210527
 30
0.0
 10
27.67375170344812
 20
13.22067600221664
 30
0.0
 10
27.67620245883396
 20
13.19743530101405
 30
0.0
 10
27.67776822666959
 20
13.15735372312051
 30
0.0
 10
27.67971186543227
 20
13.10692590614008
 30
0.0
 10
27.67969614263474
 20
13.06976758970174
 30
0.0
 10
27.6796875
 20
13.04934210526316
 30
0.0
  0
SPLINE
  5
D7
330
1F
100
AcDbEntity
  8
0
  6
Continuous
 62
     7
370
    25
100
AcDbSpline
210
0.0
220
0.0
230
1.0
 70
     8
 71
     3
 72
    23
 73
    19
 74
     0
 42
0.00000001
 43
0.00000001
 40
0.0
 40
0.0
 40
0.0
 40
0.0
 40
0.0666777891106379
 40
0.1296842334451214
 40
0.1902286130948873
 40
0.2487859971863317
 40
0.3059220188444745
 40
0.362240167683476
 40
0.4182502052802883
 40
0.4750693812995255
 40
0.5327706924869537
 40
0.5921796862883254
 40
0.6540309132511798
 40
0.7184598770790099
 40
0.785081528281053
 40
0.8539129926031122
 40
0.9255740902773117
 40
1.0
 40
1.0
 40
1.0
 40
1.0
 10
15.38610197368421
 20
11.99876644736842
 30
0.0
 10
15.38561866583949
 20
11.97762335867748
 30
0.0
 10
15.38467866155625
 20
11.93650134059438
 30
0.0
 10
15.37537406135973
 20
11.87677425347958
 30
0.0
 10
15.36036821026827
 20
11.82091352592277
 30
0.0
 10
15.33874174313765
 20
11.76925658554737
 30
0.0
 10
15.31191675508098
 20
11.72165716082658
 30
0.0
 10
15.27998854911239
 20
11.67834720827956
 30
0.0
 10
15.24370857479227
 20
11.63869251913271
 30
0.0
 10
15.20178214740744
 20
11.60435874033201
 30
0.0
 10
15.15581941453932
 20
11.57382487488107
 30
0.0
 10
15.10580834955947
 20
11.54688236921571
 30
0.0
 10
15.05133148094067
 20
11.524404044172
 30
0.0
 10
14.99296509803033
 20
11.50600233698195
 30
0.0
 10
14.93117739093083
 20
11.49184812066719
 30
0.0
 10
14.86641411742815
 20
11.48093680596403
 30
0.0
 10
14.79850037343374
 20
11.47485316302529
 30
0.0
 10
14.75220446738089
 20
11.47407874683872
 30
0.0
 10
14.72861842105263
 20
11.47368421052632
 30
0.0
  0
SPLINE
  5
D8
330
1F
100
AcDbEntity
  8
0
  6
Continuous
 62
     7
370
    25
100
AcDbSpline
210
0.0
220
0.0
230
1.0
 70
     8
 71
     3
 72
    23
 73
    19
 74
     0
 42
0.00000001
 43
0.00000001
 40
0.0
 40
0.0
 40
0.0
 40
0.0
 40
0.0706592062899636
 40
0.140277085376578
 40
0.2078660211764409
 40
0.2744489752397003
 40
0.3389281881353866
 40
0.4010506822583213
 40
0.4621571278644689
 40
0.5218522166597598
 40
0.5801284341307503
 40
0.6371414780127105
 40
0.6945889723817888
 40
0.7522986445972868
 40
0.8107536297251531
 40
0.8710702508272691
 40
0.9339493030194393
 40
1.0
 40
1.0
 40
1.0
 40
1.0
 10
25.15378289473684
 20
13.36842105263158
 30
0.0
 10
25.13924490509882
 20
13.36821451497544
 30
0.0
 10
25.11038317680135
 20
13.36780448347431
 30
0.0
 10
25.06778127322428
 20
13.36361131698964
 30
0.0
 10
25.02641152375762
 20
13.35664617436381
 30
0.0
 10
24.98671786975314
 20
13.34678618183293
 30
0.0
 10
24.94887843596878
 20
13.33454378149423
 30
0.0
 10
24.9131700059935
 20
13.31971702417643
 30
0.0
 10
24.87991026406912
 20
13.30200993685464
 30
0.0
 10
24.84897530167332
 20
13.28192157843246
 30
0.0
 10
24.82086302142196
 20
13.25932402485478
 30
0.0
 10
24.7958959407466
 20
13.23393211037773
 30
0.0
 10
24.77407289267484
 20
13.20593563156033
 30
0.0
 10
24.75548940672856
 20
13.17536533127397
 30
0.0
 10
24.74028345810646
 20
13.14224555520404
 30
0.0
 10
24.73044904039912
 20
13.10610241748319
 30
0.0
 10
24.72339322497816
 20
13.06770743254106
 30
0.0
 10
24.72276995767088
 20
13.04115311579141
 30
0.0
 10
24.72245065789474
 20
13.02754934210527
 30
0.0
  0
SPLINE
  5
DA
330
1F
100
AcDbEntity
  8
0
  6
Continuous
 62
     7
370
    25
100
AcDbSpline
210
0.0
220
0.0
230
1.0
 70
     8
 71
     3
 72
    15
 73
    11
 74
     0
 42
0.00000001
 43
0.00000001
 40
0.0
 40
0.0
 40
0.0
 40
0.0
 40
0.1044783441684545
 40
0.2076543797344595
 40
0.3149009358743999
 40
0.4291551794418885
 40
0.5535005240066978
 40
0.687260062789288
 40
0.8353172205061227
 40
0.9999999999999999
 40
0.9999999999999999
 40
0.9999999999999999
 40
0.9999999999999999
 10
33.9078947368421
 20
12.41899671052632
 30
0.0
 10
33.92083372762019
 20
12.41290281365382
 30
0.0
 10
33.94655042638487
 20
12.40079097951924
 30
0.0
 10
33.98209338183349
 20
12.37616990980733
 30
0.0
 10
34.01522013111399
 20
12.34651151223954
 30
0.0
 10
34.04701098163699
 20
12.31143365559105
 30
0.0
 10
34.07823114333416
 20
12.27115978280837
 30
0.0
 10
34.10855391595276
 20
12.2246178191873
 30
0.0
 10
34.14071068141622
 20
12.17271610978365
 30
0.0
 10
34.16085579176897
 20
12.13499485788689
 30
0.0
 10
34.17146381578947
 20
12.11513157894737
 30
0.0
  0
SPLINE
  5
DB
330
1F
100
AcDbEntity
  8
0
  6
Continuous
 62
     7
370
    25
100
AcDbSpline
210
0.0
220
0.0
230
1.0
 70
     8
 71
     3
 72
    15
 73
    11
 74
     0
 42
0.00000001
 43
0.00000001
 40
0.0
 40
0.0
 40
0.0
 40
0.0
 40
0.1440635873768973
 40
0.2810994391090297
 40
0.4133787824285977
 40
0.5410022758873315
 40
0.6622971385036515
 40
0.7795986039102157
 40
0.891958433543632
 40
1.0
 40
1.0
 40
1.0
 40
1.0
 10
30.1484375
 20
13.52631578947368
 30
0.0
 10
30.16762954039805
 20
13.52619460155872
 30
0.0
 10
30.20507739165234
 20
13.5259581375393
 30
0.0
 10
30.26008954949744
 20
13.52304161488827
 30
0.0
 10
30.31273311292269
 20
13.51800429314223
 30
0.0
 10
30.36312925163104
 20
13.51167031085265
 30
0.0
 10
30.41116522194977
 20
13.50299288533341
 30
0.0
 10
30.45666620522377
 20
13.49222316044988
 30
0.0
 10
30.50005413418355
 20
13.48019620938389
 30
0.0
 10
30.5276102921393
 20
13.47003191580696
 30
0.0
 10
30.54111842105264
 20
13.46504934210527
 30
0.0
  0
SPLINE
  5
DC
330
1F
100
AcDbEntity
  8
0
  6
Continuous
 62
     7
370
    25
100
AcDbSpline
210
0.0
220
0.0
230
1.0
 70
     8
 71
     3
 72
    23
 73
    19
 74
     0
 42
0.00000001
 43
0.00000001
 40
0.0
 40
0.0
 40
0.0
 40
0.0
 40
0.0637348211993179
 40
0.1246757596243726
 40
0.1837957747681992
 40
0.2423537390378638
 40
0.3006609185822459
 40
0.3587792994241195
 40
0.4166911714983756
 40
0.4757223561441662
 40
0.5358388462146008
 40
0.5972168981601349
 40
0.6601575823608415
 40
0.7251766561877322
 40
0.7919951886687173
 40
0.8598182578266769
 40
0.928764886795786
 40
0.9999999999999999
 40
0.9999999999999999
 40
0.9999999999999999
 40
0.9999999999999999
 10
29.50328947368421
 20
13.00822368421053
 30
0.0
 10
29.5039306437959
 20
13.02786029376079
 30
0.0
 10
29.50518487765455
 20
13.06627272147388
 30
0.0
 10
29.51473939630527
 20
13.12227667748077
 30
0.0
 10
29.53096643390968
 20
13.17497877061118
 30
0.0
 10
29.5532045275259
 20
13.22458514307275
 30
0.0
 10
29.58151880545875
 20
13.27056692908066
 30
0.0
 10
29.6138330299338
 20
13.3135817700417
 30
0.0
 10
29.65138752655951
 20
13.35243620196006
 30
0.0
 10
29.69294882357906
 20
13.38787374233076
 30
0.0
 10
29.73879583538834
 20
13.41948562084014
 30
0.0
 10
29.7882558586346
 20
13.44757095139353
 30
0.0
 10
29.84155061758026
 20
13.47148592622564
 30
0.0
 10
29.89837305100836
 20
13.4908745336636
 30
0.0
 10
29.95772951123877
 20
13.50723838529762
 30
0.0
 10
30.01958679209031
 20
13.51785644311969
 30
0.0
 10
30.08328225227912
 20
13.52543873649078
 30
0.0
 10
30.12648399284487
 20
13.52602027392261
 30
0.0
 10
30.1484375
 20
13.52631578947368
 30
0.0
  0
SPLINE
  5
DD
330
1F
100
AcDbEntity
  8
0
  6
Continuous
 62
     7
370
    25
100
AcDbSpline
210
0.0
220
0.0
230
1.0
 70
     8
 71
     3
 72
    15
 73
    11
 74
     0
 42
0.00000001
 43
0.00000001
 40
0.0
 40
0.0
 40
0.0
 40
0.0
 40
0.1229133924316044
 40
0.2506527156653012
 40
0.3805448302847972
 40
0.5086367851483721
 40
0.6360798416829676
 40
0.7622301965882414
 40
0.8843267935452643
 40
1.0
 40
1.0
 40
1.0
 40
1.0
 10
23.04893092105264
 20
11.78988486842105
 30
0.0
 10
23.06628517024352
 20
11.77780512315333
 30
0.0
 10
23.10167504600869
 20
11.75317134732142
 30
0.0
 10
23.15899589948608
 20
11.72131151592718
 30
0.0
 10
23.21987791315364
 20
11.69485798102426
 30
0.0
 10
23.28208450616061
 20
11.67183104212769
 30
0.0
 10
23.34543674435526
 20
11.65440794365723
 30
0.0
 10
23.40870082143518
 20
11.6411740882505
 30
0.0
 10
23.47086864887552
 20
11.63305112286612
 30
0.0
 10
23.51176528219971
 20
11.63206075421006
 30
0.0
 10
23.53166118421053
 20
11.63157894736842
 30
0.0
  0
SPLINE
  5
DE
330
1F
100
AcDbEntity
  8
0
  6
Continuous
 62
     7
370
    25
100
AcDbSpline
210
0.0
220
0.0
230
1.0
 70
     8
 71
     3
 72
    15
 73
    11
 74
     0
 42
0.00000001
 43
0.00000001
 40
0.0
 40
0.0
 40
0.0
 40
0.0
 40
0.1229133924316017
 40
0.2506527156653014
 40
0.3805448302847975
 40
0.5086367851483723
 40
0.6360798416829709
 40
0.7622301965882448
 40
0.8843267935452677
 40
1.0
 40
1.0
 40
1.0
 40
1.0
 10
14.2594572368421
 20
11.78988486842105
 30
0.0
 10
14.27681148603299
 20
11.77780512315333
 30
0.0
 10
14.31220136179815
 20
11.75317134732142
 30
0.0
 10
14.36952221527555
 20
11.72131151592718
 30
0.0
 10
14.4304042289431
 20
11.69485798102426
 30
0.0
 10
14.49261082195009
 20
11.67183104212769
 30
0.0
 10
14.55596306014473
 20
11.65440794365723
 30
0.0
 10
14.61922713722464
 20
11.64117408825049
 30
0.0
 10
14.68139496466498
 20
11.63305112286613
 30
0.0
 10
14.72229159798917
 20
11.63206075421006
 30
0.0
 10
14.7421875
 20
11.63157894736842
 30
0.0
  0
SPLINE
  5
DF
330
1F
100
AcDbEntity
  8
0
  6
Continuous
 62
     7
370
    25
100
AcDbSpline
210
0.0
220
0.0
230
1.0
 70
     8
 71
     3
 72
    15
 73
    11
 74
     0
 42
0.00000001
 43
0.00000001
 40
0.0
 40
0.0
 40
0.0
 40
0.0
 40
0.1440635873768973
 40
0.2810994391090297
 40
0.4133787824285977
 40
0.5410022758873315
 40
0.6622971385036515
 40
0.7795986039102157
 40
0.891958433543632
 40
1.0
 40
1.0
 40
1.0
 40
1.0
 10
25.17475328947368
 20
13.52631578947368
 30
0.0
 10
25.19394532987174
 20
13.52619460155872
 30
0.0
 10
25.23139318112602
 20
13.5259581375393
 30
0.0
 10
25.28640533897112
 20
13.52304161488827
 30
0.0
 10
25.33904890239637
 20
13.51800429314223
 30
0.0
 10
25.38944504110473
 20
13.51167031085265
 30
0.0
 10
25.43748101142345
 20
13.50299288533341
 30
0.0
 10
25.48298199469745
 20
13.49222316044988
 30
0.0
 10
25.52636992365723
 20
13.48019620938389
 30
0.0
 10
25.55392608161299
 20
13.47003191580696
 30
0.0
 10
25.56743421052632
 20
13.46504934210527
 30
0.0
  0
SPLINE
  5
E0
330
1F
100
AcDbEntity
  8
0
  6
Continuous
 62
     7
370
    25
100
AcDbSpline
210
0.0
220
0.0
230
1.0
 70
     8
 71
     3
 72
    11
 73
     7
 74
     0
 42
0.00000001
 43
0.00000001
 40
0.0
 40
0.0
 40
0.0
 40
0.0
 40
0.2132058337667283
 40
0.449056012782289
 40
0.7111959618661005
 40
1.0
 40
1.0
 40
1.0
 40
1.0
 10
28.87458881578948
 20
11.78330592105263
 30
0.0
 10
28.87284868049047
 20
11.79960682643583
 30
0.0
 10
28.86918359213306
 20
11.83393993752757
 30
0.0
 10
28.86538971207822
 20
11.88851343005296
 30
0.0
 10
28.86417908664859
 20
11.94900816518685
 30
0.0
 10
28.86372491711521
 20
11.9913654511486
 30
0.0
 10
28.86348684210526
 20
12.01356907894737
 30
0.0
  0
SPLINE
  5
E1
330
1F
100
AcDbEntity
  8
0
  6
Continuous
 62
     7
370
    25
100
AcDbSpline
210
0.0
220
0.0
230
1.0
 70
     8
 71
     3
 72
    11
 73
     7
 74
     0
 42
0.00000001
 43
0.00000001
 40
0.0
 40
0.0
 40
0.0
 40
0.0
 40
0.1660916052498037
 40
0.3860726293432264
 40
0.6625314288237754
 40
1.0
 40
1.0
 40
1.0
 40
1.0
 10
19.2779605263158
 20
13.23067434210527
 30
0.0
 10
19.27901486134286
 20
13.22067600221664
 30
0.0
 10
19.2814656167287
 20
13.19743530101405
 30
0.0
 10
19.28303138456433
 20
13.15735372312051
 30
0.0
 10
19.28497502332701
 20
13.10692590614008
 30
0.0
 10
19.28495930052948
 20
13.06976758970174
 30
0.0
 10
19.28495065789474
 20
13.04934210526316
 30
0.0
  0
SPLINE
  5
E2
330
1F
100
AcDbEntity
  8
0
  6
Continuous
 62
     7
370
    25
100
AcDbSpline
210
0.0
220
0.0
230
1.0
 70
     8
 71
     3
 72
    23
 73
    19
 74
     0
 42
0.00000001
 43
0.00000001
 40
0.0
 40
0.0
 40
0.0
 40
0.0
 40
0.0706592062899636
 40
0.140277085376578
 40
0.2078660211764409
 40
0.2744489752397003
 40
0.3389281881353866
 40
0.4010506822583213
 40
0.4621571278644689
 40
0.5218522166597598
 40
0.5801284341307503
 40
0.6371414780127105
 40
0.6945889723817888
 40
0.7522986445972868
 40
0.8107536297251531
 40
0.8710702508272691
 40
0.9339493030194393
 40
1.0
 40
1.0
 40
1.0
 40
1.0
 10
30.12746710526316
 20
13.36842105263158
 30
0.0
 10
30.11292911562514
 20
13.36821451497544
 30
0.0
 10
30.08406738732766
 20
13.36780448347431
 30
0.0
 10
30.0414654837506
 20
13.36361131698964
 30
0.0
 10
30.00009573428394
 20
13.35664617436381
 30
0.0
 10
29.96040208027946
 20
13.34678618183293
 30
0.0
 10
29.9225626464951
 20
13.33454378149423
 30
0.0
 10
29.88685421651982
 20
13.31971702417643
 30
0.0
 10
29.85359447459544
 20
13.30200993685464
 30
0.0
 10
29.82265951219964
 20
13.28192157843246
 30
0.0
 10
29.79454723194828
 20
13.25932402485478
 30
0.0
 10
29.76958015127292
 20
13.23393211037773
 30
0.0
 10
29.74775710320117
 20
13.20593563156033
 30
0.0
 10
29.72917361725487
 20
13.17536533127397
 30
0.0
 10
29.71396766863279
 20
13.14224555520404
 30
0.0
 10
29.70413325092543
 20
13.10610241748319
 30
0.0
 10
29.69707743550447
 20
13.06770743254106
 30
0.0
 10
29.6964541681972
 20
13.04115311579141
 30
0.0
 10
29.69613486842105
 20
13.02754934210527
 30
0.0
  0
SPLINE
  5
E3
330
1F
100
AcDbEntity
  8
0
  6
Continuous
 62
     7
370
    25
100
AcDbSpline
210
0.0
220
0.0
230
1.0
 70
     8
 71
     3
 72
    11
 73
     7
 74
     0
 42
0.00000001
 43
0.00000001
 40
0.0
 40
0.0
 40
0.0
 40
0.0
 40
0.2544100020405599
 40
0.5135357230656933
 40
0.7638420689018465
 40
1.0
 40
1.0
 40
1.0
 40
1.0
 10
19.35855263157896
 20
13.10526315789474
 30
0.0
 10
19.35169176396732
 20
13.11553810507033
 30
0.0
 10
19.33784285637116
 20
13.13627845484022
 30
0.0
 10
19.31738551581709
 20
13.16721270647904
 30
0.0
 10
19.2990285879084
 20
13.19850112715853
 30
0.0
 10
19.28955142270548
 20
13.22015991313514
 30
0.0
 10
19.28495065789474
 20
13.23067434210527
 30
0.0
  0
SPLINE
  5
E4
330
1F
100
AcDbEntity
  8
0
  6
Continuous
 62
     7
370
    25
100
AcDbSpline
210
0.0
220
0.0
230
1.0
 70
     8
 71
     3
 72
    23
 73
    19
 74
     0
 42
0.00000001
 43
0.00000001
 40
0.0
 40
0.0
 40
0.0
 40
0.0
 40
0.0637348211993179
 40
0.1246757596243726
 40
0.1837957747681992
 40
0.2423537390378638
 40
0.3006609185822459
 40
0.3587792994241195
 40
0.4166911714983756
 40
0.4757223561441662
 40
0.5358388462146008
 40
0.5972168981601349
 40
0.6601575823608415
 40
0.7251766561877322
 40
0.7919951886687173
 40
0.8598182578266769
 40
0.928764886795786
 40
0.9999999999999999
 40
0.9999999999999999
 40
0.9999999999999999
 40
0.9999999999999999
 10
24.52960526315789
 20
13.00822368421053
 30
0.0
 10
24.53024643326959
 20
13.02786029376079
 30
0.0
 10
24.53150066712823
 20
13.06627272147388
 30
0.0
 10
24.54105518577895
 20
13.12227667748077
 30
0.0
 10
24.55728222338335
 20
13.17497877061118
 30
0.0
 10
24.57952031699958
 20
13.22458514307275
 30
0.0
 10
24.60783459493243
 20
13.27056692908066
 30
0.0
 10
24.64014881940748
 20
13.3135817700417
 30
0.0
 10
24.67770331603318
 20
13.35243620196006
 30
0.0
 10
24.71926461305274
 20
13.38787374233076
 30
0.0
 10
24.76511162486202
 20
13.41948562084014
 30
0.0
 10
24.81457164810829
 20
13.44757095139353
 30
0.0
 10
24.86786640705394
 20
13.47148592622564
 30
0.0
 10
24.92468884048204
 20
13.4908745336636
 30
0.0
 10
24.98404530071245
 20
13.50723838529762
 30
0.0
 10
25.04590258156399
 20
13.51785644311969
 30
0.0
 10
25.1095980417528
 20
13.52543873649078
 30
0.0
 10
25.15279978231855
 20
13.52602027392261
 30
0.0
 10
25.17475328947368
 20
13.52631578947368
 30
0.0
  0
SPLINE
  5
E5
330
1F
100
AcDbEntity
  8
0
  6
Continuous
 62
     7
370
    25
100
AcDbSpline
210
0.0
220
0.0
230
1.0
 70
     8
 71
     3
 72
    23
 73
    19
 74
     0
 42
0.00000001
 43
0.00000001
 40
0.0
 40
0.0
 40
0.0
 40
0.0
 40
0.070944177174488
 40
0.138921281114558
 40
0.2048798016732759
 40
0.2687959654906145
 40
0.3310174770984199
 40
0.3909976299409424
 40
0.4495748316887749
 40
0.5072952586330329
 40
0.5646673380710172
 40
0.6222280829028392
 40
0.6803150714475417
 40
0.739951837756311
 40
0.8012457144782269
 40
0.864690720081206
 40
0.9305697365934772
 40
1.0
 40
1.0
 40
1.0
 40
1.0
 10
30.92968749999999
 20
12.47861842105263
 30
0.0
 10
30.93047352965507
 20
12.51661717917451
 30
0.0
 10
30.93201271512491
 20
12.5910254867946
 30
0.0
 10
30.94420020660026
 20
12.70020656555488
 30
0.0
 10
30.9640177087578
 20
12.80441977945558
 30
0.0
 10
30.99271751018329
 20
12.90332560340206
 30
0.0
 10
31.02783796840203
 20
12.99676705495244
 30
0.0
 10
31.07196831678838
 20
13.08313071344029
 30
0.0
 10
31.12250052038948
 20
13.16303522481087
 30
0.0
 10
31.1807112707207
 20
13.23583699410896
 30
0.0
 10
31.24649347575684
 20
13.30107432534485
 30
0.0
 10
31.31912918073253
 20
13.35889991311815
 30
0.0
 10
31.39879141421227
 20
13.40888650411587
 30
0.0
 10
31.48490723697968
 20
13.45136705147351
 30
0.0
 10
31.57783908397765
 20
13.48540505342349
 30
0.0
 10
31.67738419542648
 20
13.50878259286175
 30
0.0
 10
31.78299775114271
 20
13.52361822429279
 30
0.0
 10
31.85548570583224
 20
13.52540100448382
 30
0.0
 10
31.89268092105262
 20
13.52631578947368
 30
0.0
  0
SPLINE
  5
E7
330
1F
100
AcDbEntity
  8
0
  6
Continuous
 62
     7
370
    25
100
AcDbSpline
210
0.0
220
0.0
230
1.0
 70
     8
 71
     3
 72
    23
 73
    19
 74
     0
 42
0.00000001
 43
0.00000001
 40
0.0
 40
0.0
 40
0.0
 40
0.0
 40
0.0675547281726014
 40
0.1328251444165532
 40
0.1964162269169853
 40
0.2586284893174621
 40
0.3194283487248456
 40
0.3790931525897265
 40
0.4379187069879189
 40
0.4970293181699179
 40
0.5557033994894874
 40
0.615161877322147
 40
0.6758617541024808
 40
0.7374991896976637
 40
0.8005011225734969
 40
0.865059987012198
 40
0.9312843102090721
 40
1.0
 40
1.0
 40
1.0
 40
1.0
 10
34.36307565789473
 20
12.96998355263158
 30
0.0
 10
34.36264430734328
 20
12.95256439894306
 30
0.0
 10
34.36179619203232
 20
12.91831510704479
 30
0.0
 10
34.35618664846197
 20
12.86788059474557
 30
0.0
 10
34.34566954512455
 20
12.81968075780732
 30
0.0
 10
34.33185674852614
 20
12.77352118696164
 30
0.0
 10
34.31398638821848
 20
12.72987548805468
 30
0.0
 10
34.29321643675685
 20
12.68848604175371
 30
0.0
 10
34.26810669893591
 20
12.65009499371334
 30
0.0
 10
34.24033165461309
 20
12.61394538341272
 30
0.0
 10
34.20921506760833
 20
12.58037389954614
 30
0.0
 10
34.1749279578105
 20
12.54945195145332
 30
0.0
 10
34.13752279609552
 20
12.52109390211995
 30
0.0
 10
34.09704898873102
 20
12.49558383980024
 30
0.0
 10
34.05382387263735
 20
12.47281802924513
 30
0.0
 10
34.00759253585177
 20
12.45372791642232
 30
0.0
 10
33.95888774950275
 20
12.4369956951336
 30
0.0
 10
33.92510034410811
 20
12.42861156663554
 30
0.0
 10
33.9078947368421
 20
12.42434210526316
 30
0.0
  0
SPLINE
  5
E8
330
1F
100
AcDbEntity
  8
0
  6
Continuous
 62
     7
370
    25
100
AcDbSpline
210
0.0
220
0.0
230
1.0
 70
     8
 71
     3
 72
    15
 73
    11
 74
     0
 42
0.00000001
 43
0.00000001
 40
0.0
 40
0.0
 40
0.0
 40
0.0
 40
0.1229133924316044
 40
0.2506527156653012
 40
0.3805448302847972
 40
0.5086367851483721
 40
0.6360798416829676
 40
0.7622301965882414
 40
0.8843267935452643
 40
1.0
 40
1.0
 40
1.0
 40
1.0
 10
24.52261513157895
 20
11.78988486842105
 30
0.0
 10
24.53996938076983
 20
11.77780512315333
 30
0.0
 10
24.57535925653499
 20
11.75317134732142
 30
0.0
 10
24.63268011001239
 20
11.72131151592718
 30
0.0
 10
24.69356212367995
 20
11.69485798102426
 30
0.0
 10
24.75576871668693
 20
11.67183104212769
 30
0.0
 10
24.81912095488157
 20
11.65440794365723
 30
0.0
 10
24.88238503196149
 20
11.6411740882505
 30
0.0
 10
24.94455285940182
 20
11.63305112286612
 30
0.0
 10
24.98544949272602
 20
11.63206075421006
 30
0.0
 10
25.00534539473684
 20
11.63157894736842
 30
0.0
  0
SPLINE
  5
EA
330
1F
100
AcDbEntity
  8
0
  6
Continuous
 62
     7
370
    25
100
AcDbSpline
210
0.0
220
0.0
230
1.0
 70
     8
 71
     3
 72
    23
 73
    19
 74
     0
 42
0.00000001
 43
0.00000001
 40
0.0
 40
0.0
 40
0.0
 40
0.0
 40
0.0706592062899636
 40
0.140277085376578
 40
0.2078660211764409
 40
0.2744489752397003
 40
0.3389281881353866
 40
0.4010506822583213
 40
0.4621571278644689
 40
0.5218522166597598
 40
0.5801284341307503
 40
0.6371414780127105
 40
0.6945889723817888
 40
0.7522986445972868
 40
0.8107536297251531
 40
0.8710702508272691
 40
0.9339493030194393
 40
1.0
 40
1.0
 40
1.0
 40
1.0
 10
23.68009868421053
 20
13.36842105263158
 30
0.0
 10
23.66556069457252
 20
13.36821451497544
 30
0.0
 10
23.63669896627504
 20
13.36780448347431
 30
0.0
 10
23.59409706269798
 20
13.36361131698964
 30
0.0
 10
23.55272731323132
 20
13.35664617436381
 30
0.0
 10
23.51303365922683
 20
13.34678618183293
 30
0.0
 10
23.47519422544247
 20
13.33454378149423
 30
0.0
 10
23.4394857954672
 20
13.31971702417643
 30
0.0
 10
23.40622605354282
 20
13.30200993685464
 30
0.0
 10
23.37529109114702
 20
13.28192157843246
 30
0.0
 10
23.34717881089566
 20
13.25932402485478
 30
0.0
 10
23.32221173022029
 20
13.23393211037773
 30
0.0
 10
23.30038868214855
 20
13.20593563156033
 30
0.0
 10
23.28180519620225
 20
13.17536533127397
 30
0.0
 10
23.26659924758016
 20
13.14224555520404
 30
0.0
 10
23.25676482987281
 20
13.10610241748319
 30
0.0
 10
23.24970901445184
 20
13.06770743254106
 30
0.0
 10
23.24908574714458
 20
13.04115311579141
 30
0.0
 10
23.24876644736843
 20
13.02754934210527
 30
0.0
  0
SPLINE
  5
EB
330
1F
100
AcDbEntity
  8
0
  6
Continuous
 62
     7
370
    25
100
AcDbSpline
210
0.0
220
0.0
230
1.0
 70
     8
 71
     3
 72
    23
 73
    19
 74
     0
 42
0.00000001
 43
0.00000001
 40
0.0
 40
0.0
 40
0.0
 40
0.0
 40
0.0628000427095208
 40
0.1254812551046523
 40
0.1871107384079608
 40
0.2493699201810584
 40
0.3108519559191589
 40
0.3709511576640009
 40
0.4305847049547479
 40
0.489814642610949
 40
0.5490737611718205
 40
0.6083729800297478
 40
0.6687358901186263
 40
0.7305491882784675
 40
0.7940932623508278
 40
0.8591646482591073
 40
0.9278722088023926
 40
1.0
 40
1.0
 40
1.0
 40
1.0
 10
33.77878289473684
 20
13.5
 30
0.0
 10
33.79730023254844
 20
13.49958957546363
 30
0.0
 10
33.83429986964333
 20
13.49876950299669
 30
0.0
 10
33.88922078935416
 20
13.49263728336381
 30
0.0
 10
33.94316806196132
 20
13.48164393799601
 30
0.0
 10
33.9959185405496
 20
13.46712053661265
 30
0.0
 10
34.04675735539792
 20
13.44815842267078
 30
0.0
 10
34.09532689806012
 20
13.42569387219489
 30
0.0
 10
34.14051552100425
 20
13.39827095244164
 30
0.0
 10
34.18308900474709
 20
13.36744041967057
 30
0.0
 10
34.22248265602033
 20
13.33264961201649
 30
0.0
 10
34.25702009091208
 20
13.29261247699926
 30
0.0
 10
34.28805496173163
 20
13.24892512090728
 30
0.0
 10
34.31483170203169
 20
13.20105341991587
 30
0.0
 10
34.33698545895934
 20
13.14927861418365
 30
0.0
 10
34.35188699432486
 20
13.09290157382257
 30
0.0
 10
34.36176227547514
 20
13.03283303439008
 30
0.0
 10
34.36263083269347
 20
12.99126983829869
 30
0.0
 10
34.36307565789473
 20
12.96998355263158
 30
0.0
  0
SPLINE
  5
EC
330
1F
100
AcDbEntity
  8
0
  6
Continuous
 62
     7
370
    25
100
AcDbSpline
210
0.0
220
0.0
230
1.0
 70
     8
 71
     3
 72
    23
 73
    19
 74
     0
 42
0.00000001
 43
0.00000001
 40
0.0
 40
0.0
 40
0.0
 40
0.0
 40
0.0560371014936087
 40
0.1089063388323145
 40
0.1585479463109301
 40
0.20674122970665
 40
0.2541269061230734
 40
0.3040487815307312
 40
0.3549198543342779
 40
0.408982035774397
 40
0.4661808670496769
 40
0.5279548445365521
 40
0.5929087363114739
 40
0.6632286209974768
 40
0.7384969966658373
 40
0.8194421020755273
 40
0.9070315540132471
 40
1.0
 40
1.0
 40
1.0
 40
1.0
 10
15.19325657894737
 20
11.97779605263158
 30
0.0
 10
15.19295712080141
 20
11.99055883626487
 30
0.0
 10
15.19237513334237
 20
12.01536290360175
 30
0.0
 10
15.18742381890409
 20
12.05120799765574
 30
0.0
 10
15.17915038750836
 20
12.08456950674059
 30
0.0
 10
15.16762114478463
 20
12.11564373289687
 30
0.0
 10
15.15237984552695
 20
12.14513863155952
 30
0.0
 10
15.13360004887197
 20
12.17325725939799
 30
0.0
 10
15.11086354457509
 20
12.20026438105934
 30
0.0
 10
15.08500523128962
 20
12.22667683671673
 30
0.0
 10
15.05483669930613
 20
12.25206120189277
 30
0.0
 10
15.02193647701446
 20
12.27799685294606
 30
0.0
 10
14.98471726565226
 20
12.30309782493904
 30
0.0
 10
14.94412381740981
 20
12.32860896418534
 30
0.0
 10
14.8992693863258
 20
12.35408655685997
 30
0.0
 10
14.85166791546202
 20
12.38265132778264
 30
0.0
 10
14.79947285529384
 20
12.41131295804323
 30
0.0
 10
14.76355812292746
 20
12.43131360126271
 30
0.0
 10
14.74506578947369
 20
12.44161184210527
 30
0.0
  0
SPLINE
  5
ED
330
1F
100
AcDbEntity
  8
0
  6
Continuous
 62
     7
370
    25
100
AcDbSpline
210
0.0
220
0.0
230
1.0
 70
     8
 71
     3
 72
    11
 73
     7
 74
     0
 42
0.00000001
 43
0.00000001
 40
0.0
 40
0.0
 40
0.0
 40
0.0
 40
0.2544100020405599
 40
0.5135357230656933
 40
0.7638420689018465
 40
1.0
 40
1.0
 40
1.0
 40
1.0
 10
27.75328947368421
 20
13.10526315789474
 30
0.0
 10
27.74642860607258
 20
13.11553810507033
 30
0.0
 10
27.73257969847641
 20
13.13627845484022
 30
0.0
 10
27.71212235792235
 20
13.16721270647904
 30
0.0
 10
27.69376543001366
 20
13.19850112715853
 30
0.0
 10
27.68428826481074
 20
13.22015991313514
 30
0.0
 10
27.6796875
 20
13.23067434210527
 30
0.0
  0
SPLINE
  5
EE
330
1F
100
AcDbEntity
  8
0
  6
Continuous
 62
     7
370
    25
100
AcDbSpline
210
0.0
220
0.0
230
1.0
 70
     8
 71
     3
 72
    23
 73
    19
 74
     0
 42
0.00000001
 43
0.00000001
 40
0.0
 40
0.0
 40
0.0
 40
0.0
 40
0.0637348211993179
 40
0.1246757596243726
 40
0.1837957747681992
 40
0.2423537390378638
 40
0.3006609185822459
 40
0.3587792994241195
 40
0.4166911714983756
 40
0.4757223561441662
 40
0.5358388462146008
 40
0.5972168981601349
 40
0.6601575823608415
 40
0.7251766561877322
 40
0.7919951886687173
 40
0.8598182578266769
 40
0.928764886795786
 40
0.9999999999999999
 40
0.9999999999999999
 40
0.9999999999999999
 40
0.9999999999999999
 10
23.05592105263159
 20
13.00822368421053
 30
0.0
 10
23.05656222274328
 20
13.02786029376079
 30
0.0
 10
23.05781645660192
 20
13.06627272147388
 30
0.0
 10
23.06737097525264
 20
13.12227667748077
 30
0.0
 10
23.08359801285704
 20
13.17497877061118
 30
0.0
 10
23.10583610647328
 20
13.22458514307275
 30
0.0
 10
23.13415038440612
 20
13.27056692908066
 30
0.0
 10
23.16646460888117
 20
13.3135817700417
 30
0.0
 10
23.20401910550688
 20
13.35243620196006
 30
0.0
 10
23.24558040252643
 20
13.38787374233076
 30
0.0
 10
23.29142741433572
 20
13.41948562084014
 30
0.0
 10
23.34088743758198
 20
13.44757095139353
 30
0.0
 10
23.39418219652763
 20
13.47148592622564
 30
0.0
 10
23.45100462995573
 20
13.4908745336636
 30
0.0
 10
23.51036109018614
 20
13.50723838529762
 30
0.0
 10
23.57221837103769
 20
13.51785644311969
 30
0.0
 10
23.6359138312265
 20
13.52543873649078
 30
0.0
 10
23.67911557179225
 20
13.52602027392261
 30
0.0
 10
23.70106907894737
 20
13.52631578947368
 30
0.0
  0
SPLINE
  5
EF
330
1F
100
AcDbEntity
  8
0
  6
Continuous
 62
     7
370
    25
100
AcDbSpline
210
0.0
220
0.0
230
1.0
 70
     8
 71
     3
 72
    15
 73
    11
 74
     0
 42
0.00000001
 43
0.00000001
 40
0.0
 40
0.0
 40
0.0
 40
0.0
 40
0.1229133924316044
 40
0.2506527156653012
 40
0.3805448302847972
 40
0.5086367851483721
 40
0.6360798416829676
 40
0.7622301965882414
 40
0.8843267935452643
 40
1.0
 40
1.0
 40
1.0
 40
1.0
 10
29.49629934210526
 20
11.78988486842105
 30
0.0
 10
29.51365359129615
 20
11.77780512315333
 30
0.0
 10
29.54904346706131
 20
11.75317134732142
 30
0.0
 10
29.60636432053871
 20
11.72131151592718
 30
0.0
 10
29.66724633420626
 20
11.69485798102426
 30
0.0
 10
29.72945292721325
 20
11.67183104212769
 30
0.0
 10
29.79280516540789
 20
11.65440794365723
 30
0.0
 10
29.85606924248781
 20
11.6411740882505
 30
0.0
 10
29.91823706992814
 20
11.63305112286612
 30
0.0
 10
29.95913370325234
 20
11.63206075421006
 30
0.0
 10
29.97902960526316
 20
11.63157894736842
 30
0.0
  0
SPLINE
  5
F0
330
1F
100
AcDbEntity
  8
0
  6
Continuous
 62
     7
370
    25
100
AcDbSpline
210
0.0
220
0.0
230
1.0
 70
     8
 71
     3
 72
    15
 73
    11
 74
     0
 42
0.00000001
 43
0.00000001
 40
0.0
 40
0.0
 40
0.0
 40
0.0
 40
0.1070717395911305
 40
0.2332592180509915
 40
0.3695921120930526
 40
0.5085377329509063
 40
0.6463651921241933
 40
0.7797155060185099
 40
0.9001013852308967
 40
0.9999999999999999
 40
0.9999999999999999
 40
0.9999999999999999
 40
0.9999999999999999
 10
14.72861842105263
 20
11.47368421052632
 30
0.0
 10
14.71133940948978
 20
11.47404074156576
 30
0.0
 10
14.67369652873304
 20
11.47481745586767
 30
0.0
 10
14.61426176779435
 20
11.48037315653907
 30
0.0
 10
14.55010292295381
 20
11.48941087620413
 30
0.0
 10
14.48442155527751
 20
11.50096422993486
 30
0.0
 10
14.41998595618292
 20
11.51625142089891
 30
0.0
 10
14.35916701955814
 20
11.5333076381494
 30
0.0
 10
14.30507562922513
 20
11.55207797976902
 30
0.0
 10
14.27369038681944
 20
11.56886663757576
 30
0.0
 10
14.2594572368421
 20
11.5764802631579
 30
0.0
  0
SPLINE
  5
F1
330
1F
100
AcDbEntity
  8
0
  6
Continuous
 62
     7
370
    25
100
AcDbSpline
210
0.0
220
0.0
230
1.0
 70
     8
 71
     3
 72
    15
 73
    11
 74
     0
 42
0.00000001
 43
0.00000001
 40
0.0
 40
0.0
 40
0.0
 40
0.0
 40
0.1440635873768973
 40
0.2810994391090297
 40
0.4133787824285977
 40
0.5410022758873315
 40
0.6622971385036515
 40
0.7795986039102157
 40
0.891958433543632
 40
1.0
 40
1.0
 40
1.0
 40
1.0
 10
23.70106907894737
 20
13.52631578947368
 30
0.0
 10
23.72026111934543
 20
13.52619460155872
 30
0.0
 10
23.75770897059972
 20
13.5259581375393
 30
0.0
 10
23.81272112844482
 20
13.52304161488827
 30
0.0
 10
23.86536469187007
 20
13.51800429314223
 30
0.0
 10
23.91576083057842
 20
13.51167031085265
 30
0.0
 10
23.96379680089715
 20
13.50299288533341
 30
0.0
 10
24.00929778417114
 20
13.49222316044988
 30
0.0
 10
24.05268571313092
 20
13.48019620938389
 30
0.0
 10
24.08024187108668
 20
13.47003191580696
 30
0.0
 10
24.09375000000001
 20
13.46504934210527
 30
0.0
  0
SPLINE
  5
F2
330
1F
100
AcDbEntity
  8
0
  6
Continuous
 62
     7
370
    25
100
AcDbSpline
210
0.0
220
0.0
230
1.0
 70
     8
 71
     3
 72
    11
 73
     7
 74
     0
 42
0.00000001
 43
0.00000001
 40
0.0
 40
0.0
 40
0.0
 40
0.0
 40
0.2132058337667283
 40
0.4490560127822891
 40
0.7111959618661003
 40
1.0
 40
1.0
 40
1.0
 40
1.0
 10
20.47985197368422
 20
11.78330592105263
 30
0.0
 10
20.47811183838522
 20
11.79960682643583
 30
0.0
 10
20.4744467500278
 20
11.83393993752757
 30
0.0
 10
20.47065286997297
 20
11.88851343005296
 30
0.0
 10
20.46944224454334
 20
11.94900816518685
 30
0.0
 10
20.46898807500996
 20
11.99136545114861
 30
0.0
 10
20.46875000000001
 20
12.01356907894737
 30
0.0
  0
SPLINE
  5
F3
330
1F
100
AcDbEntity
  8
0
  6
Continuous
 62
     7
370
    25
100
AcDbSpline
210
0.0
220
0.0
230
1.0
 70
     8
 71
     3
 72
    23
 73
    19
 74
     0
 42
0.00000001
 43
0.00000001
 40
0.0
 40
0.0
 40
0.0
 40
0.0
 40
0.0678529605153114
 40
0.1328123670618451
 40
0.1952227117898195
 40
0.2565060971691179
 40
0.316410501893936
 40
0.3752243214993287
 40
0.4334122705562414
 40
0.4918932518098518
 40
0.5507551798650376
 40
0.6103994409349085
 40
0.6709101432974921
 40
0.7335978895988671
 40
0.7977738832336255
 40
0.863129912026325
 40
0.9305327902575413
 40
1.0
 40
1.0
 40
1.0
 40
1.0
 10
31.89268092105262
 20
13.52631578947368
 30
0.0
 10
31.92700415244686
 20
13.52556939036694
 30
0.0
 10
31.9941869190065
 20
13.52410842195248
 30
0.0
 10
32.09196190636578
 20
13.5090993292886
 30
0.0
 10
32.18467597712956
 20
13.48604215395279
 30
0.0
 10
32.27136017196216
 20
13.45228820346687
 30
0.0
 10
32.35268900365637
 20
13.41119865558163
 30
0.0
 10
32.42795545311777
 20
13.36256231138308
 30
0.0
 10
32.49667268572586
 20
13.30618246725104
 30
0.0
 10
32.55887062507315
 20
13.24266254255731
 30
0.0
 10
32.6144806519249
 20
13.17239685826445
 30
0.0
 10
32.66363072306043
 20
13.09622822736266
 30
0.0
 10
32.70527016256404
 20
13.01354707701367
 30
0.0
 10
32.74013543759607
 20
12.9253412035887
 30
0.0
 10
32.76739050552738
 20
12.83196186460714
 30
0.0
 10
32.78796212312165
 20
12.7344444806142
 30
0.0
 10
32.79925553171137
 20
12.63266866009332
 30
0.0
 10
32.8009494680376
 20
12.56348517838339
 30
0.0
 10
32.80180921052631
 20
12.52837171052632
 30
0.0
  0
SPLINE
  5
F4
330
1F
100
AcDbEntity
  8
0
  6
Continuous
 62
     7
370
    25
100
AcDbSpline
210
0.0
220
0.0
230
1.0
 70
     8
 71
     3
 72
    15
 73
    11
 74
     0
 42
0.00000001
 43
0.00000001
 40
0.0
 40
0.0
 40
0.0
 40
0.0
 40
0.1440635873768893
 40
0.281099439109031
 40
0.4133787824285952
 40
0.5410022758873295
 40
0.66229713850365
 40
0.7795986039102106
 40
0.8919584335436316
 40
1.0
 40
1.0
 40
1.0
 40
1.0
 10
14.91159539473684
 20
13.52631578947368
 30
0.0
 10
14.93078743513489
 20
13.52619460155872
 30
0.0
 10
14.96823528638917
 20
13.52595813753929
 30
0.0
 10
15.02324744423429
 20
13.52304161488827
 30
0.0
 10
15.07589100765954
 20
13.51800429314224
 30
0.0
 10
15.12628714636787
 20
13.51167031085264
 30
0.0
 10
15.17432311668661
 20
13.50299288533341
 30
0.0
 10
15.2198240999606
 20
13.49222316044988
 30
0.0
 10
15.26321202892038
 20
13.48019620938389
 30
0.0
 10
15.29076818687614
 20
13.47003191580696
 30
0.0
 10
15.30427631578947
 20
13.46504934210526
 30
0.0
  0
SPLINE
  5
F5
330
1F
100
AcDbEntity
  8
0
  6
Continuous
 62
     7
370
    25
100
AcDbSpline
210
0.0
220
0.0
230
1.0
 70
     8
 71
     3
 72
    23
 73
    19
 74
     0
 42
0.00000001
 43
0.00000001
 40
0.0
 40
0.0
 40
0.0
 40
0.0
 40
0.076224590035851
 40
0.1479567581140854
 40
0.2155832314199461
 40
0.2795652288089527
 40
0.3403578602946696
 40
0.3986562795482426
 40
0.4551734227482258
 40
0.5105285050882252
 40
0.5655008764466513
 40
0.6209403900683819
 40
0.6772667537238454
 40
0.7354661755902794
 40
0.7963214845240277
 40
0.8603099907377775
 40
0.9280680304200067
 40
1.0
 40
1.0
 40
1.0
 40
1.0
 10
21.70230263157895
 20
13.5
 30
0.0
 10
21.74358690179714
 20
13.49936691953126
 30
0.0
 10
21.82372228566365
 20
13.49813807023557
 30
0.0
 10
21.94001096277279
 20
13.48645806573048
 30
0.0
 10
22.04858001532186
 20
13.46745900132984
 30
0.0
 10
22.14930701687728
 20
13.44030232506704
 30
0.0
 10
22.2424536509819
 20
13.40592602218341
 30
0.0
 10
22.32776849260782
 20
13.36347422829266
 30
0.0
 10
22.40515243182168
 20
13.31306594712528
 30
0.0
 10
22.47473854454956
 20
13.25513901443763
 30
0.0
 10
22.53662971411561
 20
13.18979442626316
 30
0.0
 10
22.5897171927673
 20
13.11648226885598
 30
0.0
 10
22.63492335163026
 20
13.0360758591824
 30
0.0
 10
22.67136038570987
 20
12.94818356644457
 30
0.0
 10
22.70037753234661
 20
12.85322546850361
 30
0.0
 10
22.71993685691972
 20
12.75064591365518
 30
0.0
 10
22.73265688860988
 20
12.64094496674173
 30
0.0
 10
22.73406241994365
 20
12.56527914544142
 30
0.0
 10
22.73478618421053
 20
12.52631578947368
 30
0.0
  0
SPLINE
  5
F6
330
1F
100
AcDbEntity
  8
0
  6
Continuous
 62
     7
370
    25
100
AcDbSpline
210
0.0
220
0.0
230
1.0
 70
     8
 71
     3
 72
    23
 73
    19
 74
     0
 42
0.00000001
 43
0.00000001
 40
0.0
 40
0.0
 40
0.0
 40
0.0
 40
0.0855083483142313
 40
0.1670073725931002
 40
0.2431562182382931
 40
0.3151463199497768
 40
0.3829150999251614
 40
0.4476277182179599
 40
0.5091133992042224
 40
0.5680121205430186
 40
0.6245984072955956
 40
0.6788867628705308
 40
0.7317400372374068
 40
0.7834120139184992
 40
0.8351142937846892
 40
0.888154921763878
 40
0.9427190675572142
 40
1.0
 40
1.0
 40
1.0
 40
1.0
 10
14.890625
 20
12.57606907894737
 30
0.0
 10
14.91083834317345
 20
12.56522199685164
 30
0.0
 10
14.95031726425278
 20
12.54403643173639
 30
0.0
 10
15.00670872821016
 20
12.51122779752986
 30
0.0
 10
15.05921834381984
 20
12.47900972250581
 30
0.0
 10
15.10783601647026
 20
12.44750993645654
 30
0.0
 10
15.15258859203665
 20
12.41575967815677
 30
0.0
 10
15.19338045383517
 20
12.38340102194428
 30
0.0
 10
15.23012412059042
 20
12.34994861284249
 30
0.0
 10
15.2631441702798
 20
12.3157914163861
 30
0.0
 10
15.29246033883359
 20
12.28088708853062
 30
0.0
 10
15.31786862107917
 20
12.24496812862458
 30
0.0
 10
15.3387204747653
 20
12.20776089347475
 30
0.0
 10
15.35647963664294
 20
12.16971392838516
 30
0.0
 10
15.36940415535163
 20
12.12972332775883
 30
0.0
 10
15.37968791473408
 20
12.08817372564805
 30
0.0
 10
15.38472577409204
 20
12.04411922710256
 30
0.0
 10
15.38563587154209
 20
12.01412688484114
 30
0.0
 10
15.38610197368421
 20
11.99876644736842
 30
0.0
  0
SPLINE
  5
F7
330
1F
100
AcDbEntity
  8
0
  6
Continuous
 62
     7
370
    25
100
AcDbSpline
210
0.0
220
0.0
230
1.0
 70
     8
 71
     3
 72
    23
 73
    19
 74
     0
 42
0.00000001
 43
0.00000001
 40
0.0
 40
0.0
 40
0.0
 40
0.0
 40
0.0666777891106379
 40
0.1296842334451213
 40
0.1902286130948877
 40
0.2487859971863322
 40
0.305922018844476
 40
0.3622401676834755
 40
0.4182502052802891
 40
0.4750693812995264
 40
0.5327706924869563
 40
0.592179686288328
 40
0.6540309132511809
 40
0.7184598770790095
 40
0.7850815282810545
 40
0.8539129926031136
 40
0.9255740902773152
 40
1.0
 40
1.0
 40
1.0
 40
1.0
 10
30.62294407894737
 20
11.99876644736842
 30
0.0
 10
30.62246077110264
 20
11.97762335867747
 30
0.0
 10
30.62152076681941
 20
11.93650134059438
 30
0.0
 10
30.61221616662289
 20
11.87677425347958
 30
0.0
 10
30.59721031553144
 20
11.82091352592277
 30
0.0
 10
30.5755838484008
 20
11.76925658554737
 30
0.0
 10
30.54875886034414
 20
11.72165716082659
 30
0.0
 10
30.51683065437555
 20
11.67834720827956
 30
0.0
 10
30.48055068005544
 20
11.63869251913272
 30
0.0
 10
30.43862425267059
 20
11.604358740332
 30
0.0
 10
30.39266151980249
 20
11.57382487488107
 30
0.0
 10
30.34265045482261
 20
11.54688236921571
 30
0.0
 10
30.28817358620383
 20
11.524404044172
 30
0.0
 10
30.22980720329348
 20
11.50600233698194
 30
0.0
 10
30.16801949619399
 20
11.49184812066719
 30
0.0
 10
30.10325622269131
 20
11.48093680596403
 30
0.0
 10
30.0353424786969
 20
11.47485316302529
 30
0.0
 10
29.98904657264405
 20
11.47407874683872
 30
0.0
 10
29.96546052631579
 20
11.47368421052632
 30
0.0
  0
SPLINE
  5
F8
330
1F
100
AcDbEntity
  8
0
  6
Continuous
 62
     7
370
    25
100
AcDbSpline
210
0.0
220
0.0
230
1.0
 70
     8
 71
     3
 72
    23
 73
    19
 74
     0
 42
0.00000001
 43
0.00000001
 40
0.0
 40
0.0
 40
0.0
 40
0.0
 40
0.0845170225033117
 40
0.1642370090650797
 40
0.2387195468084055
 40
0.3082498699293753
 40
0.37355042064886
 40
0.4353711538502962
 40
0.4939330192943567
 40
0.5505072538793498
 40
0.6049547601171801
 40
0.6589818159992032
 40
0.7120212013171231
 40
0.7657260626051388
 40
0.820384427250375
 40
0.8773957270794444
 40
0.9370535142581103
 40
1.0
 40
1.0
 40
1.0
 40
1.0
 10
25.00534539473684
 20
11.63157894736842
 30
0.0
 10
25.02358580172337
 20
11.63172544953092
 30
0.0
 10
25.05903132262399
 20
11.63201013865364
 30
0.0
 10
25.11036653003933
 20
11.63678222860795
 30
0.0
 10
25.15814295715795
 20
11.6436899888768
 30
0.0
 10
25.20244805315981
 20
11.65277573374522
 30
0.0
 10
25.24287542304515
 20
11.66582867878904
 30
0.0
 10
25.28010827972853
 20
11.68075499193669
 30
0.0
 10
25.3137290368177
 20
11.69902909185776
 30
0.0
 10
25.3438246192969
 20
11.71996444655745
 30
0.0
 10
25.370527420676
 20
11.74365438458047
 30
0.0
 10
25.39352810866175
 20
11.76996146160381
 30
0.0
 10
25.41302244385779
 20
11.79872390235557
 30
0.0
 10
25.42938425458092
 20
11.82959626985149
 30
0.0
 10
25.44096899128101
 20
11.86343936807919
 30
0.0
 10
25.45024345040957
 20
11.89925513336203
 30
0.0
 10
25.4556091867765
 20
11.93774995249998
 30
0.0
 10
25.45614128708437
 20
11.96421076044995
 30
0.0
 10
25.45641447368421
 20
11.97779605263158
 30
0.0
  0
SPLINE
  5
F9
330
1F
100
AcDbEntity
  8
0
  6
Continuous
 62
     7
370
    25
100
AcDbSpline
210
0.0
220
0.0
230
1.0
 70
     8
 71
     3
 72
    15
 73
    11
 74
     0
 42
0.00000001
 43
0.00000001
 40
0.0
 40
0.0
 40
0.0
 40
0.0
 40
0.1070717395911373
 40
0.2332592180509943
 40
0.3695921120930586
 40
0.5085377329509048
 40
0.6463651921241947
 40
0.7797155060185144
 40
0.9001013852308939
 40
1.0
 40
1.0
 40
1.0
 40
1.0
 10
24.99177631578948
 20
11.47368421052632
 30
0.0
 10
24.97449730422662
 20
11.47404074156576
 30
0.0
 10
24.93685442346989
 20
11.47481745586767
 30
0.0
 10
24.87741966253121
 20
11.48037315653908
 30
0.0
 10
24.81326081769063
 20
11.48941087620412
 30
0.0
 10
24.74757945001436
 20
11.50096422993486
 30
0.0
 10
24.68314385091976
 20
11.51625142089891
 30
0.0
 10
24.62232491429497
 20
11.5333076381494
 30
0.0
 10
24.56823352396197
 20
11.55207797976903
 30
0.0
 10
24.53684828155629
 20
11.56886663757576
 30
0.0
 10
24.52261513157895
 20
11.5764802631579
 30
0.0
  0
SPLINE
  5
FA
330
1F
100
AcDbEntity
  8
0
  6
Continuous
 62
     7
370
    25
100
AcDbSpline
210
0.0
220
0.0
230
1.0
 70
     8
 71
     3
 72
    27
 73
    23
 74
     0
 42
0.00000001
 43
0.00000001
 40
0.0
 40
0.0
 40
0.0
 40
0.0
 40
0.0696248133119427
 40
0.1367931156094811
 40
0.2023534987482355
 40
0.266504113759741
 40
0.3288851171275524
 40
0.389174400219424
 40
0.448184773021168
 40
0.5064839741338193
 40
0.5640903234543868
 40
0.6217064728614686
 40
0.6798916278133176
 40
0.7394894615965096
 40
0.7699808092759685
 40
0.8007896426348983
 40
0.8321910591664291
 40
0.8638914232511389
 40
0.896856249304525
 40
0.9303269794809881
 40
0.9646829999378355
 40
1.0
 40
1.0
 40
1.0
 40
1.0
 10
32.80180921052631
 20
12.52837171052632
 30
0.0
 10
32.80120813546304
 20
12.49132832170885
 30
0.0
 10
32.80002719253898
 20
12.41854851336131
 30
0.0
 10
32.78744565375025
 20
12.31151833618691
 30
0.0
 10
32.7684771324024
 20
12.20846903939923
 30
0.0
 10
32.74137432461893
 20
12.10982725959032
 30
0.0
 10
32.70694906057058
 20
12.01651421283268
 30
0.0
 10
32.66555196070045
 20
11.92901445349491
 30
0.0
 10
32.61570457360833
 20
11.84859731086147
 30
0.0
 10
32.55956412074665
 20
11.77422754112587
 30
0.0
 10
32.49579521882329
 20
11.70725132998838
 30
0.0
 10
32.42517896970828
 20
11.64763628833303
 30
0.0
 10
32.34721352285722
 20
11.59607375271276
 30
0.0
 10
32.27716806414138
 20
11.55956676847907
 30
0.0
 10
32.21799675787641
 20
11.53429167998725
 30
0.0
 10
32.1712534010376
 20
11.51853346808571
 30
0.0
 10
32.1233564015382
 20
11.50429481126795
 30
0.0
 10
32.07341543266811
 20
11.49338147192274
 30
0.0
 10
32.02202224850858
 20
11.48417250141748
 30
0.0
 10
31.96872538625824
 20
11.47820332097032
 30
0.0
 10
31.91398285247266
 20
11.47435961666752
 30
0.0
 10
31.87692562225115
 20
11.47391140658361
 30
0.0
 10
31.85814144736841
 20
11.47368421052632
 30
0.0
  0
SPLINE
  5
FB
330
1F
100
AcDbEntity
  8
0
  6
Continuous
 62
     7
370
    25
100
AcDbSpline
210
0.0
220
0.0
230
1.0
 70
     8
 71
     3
 72
    23
 73
    19
 74
     0
 42
0.00000001
 43
0.00000001
 40
0.0
 40
0.0
 40
0.0
 40
0.0
 40
0.0560371014936087
 40
0.1089063388323137
 40
0.1585479463109298
 40
0.2067412297066487
 40
0.2541269061230743
 40
0.3040487815307306
 40
0.3549198543342772
 40
0.4089820357743979
 40
0.4661808670496758
 40
0.5279548445365508
 40
0.5929087363114747
 40
0.6632286209974729
 40
0.7384969966658356
 40
0.8194421020755254
 40
0.9070315540132472
 40
1.0
 40
1.0
 40
1.0
 40
1.0
 10
25.45641447368421
 20
11.97779605263158
 30
0.0
 10
25.45611501553825
 20
11.99055883626487
 30
0.0
 10
25.45553302807922
 20
12.01536290360175
 30
0.0
 10
25.45058171364093
 20
12.05120799765574
 30
0.0
 10
25.4423082822452
 20
12.08456950674058
 30
0.0
 10
25.43077903952148
 20
12.11564373289687
 30
0.0
 10
25.41553774026379
 20
12.14513863155952
 30
0.0
 10
25.39675794360882
 20
12.17325725939799
 30
0.0
 10
25.37402143931193
 20
12.20026438105934
 30
0.0
 10
25.34816312602647
 20
12.22667683671673
 30
0.0
 10
25.31799459404297
 20
12.25206120189277
 30
0.0
 10
25.28509437175131
 20
12.27799685294607
 30
0.0
 10
25.2478751603891
 20
12.30309782493904
 30
0.0
 10
25.20728171214666
 20
12.32860896418535
 30
0.0
 10
25.16242728106264
 20
12.35408655685996
 30
0.0
 10
25.11482581019886
 20
12.38265132778264
 30
0.0
 10
25.06263075003068
 20
12.41131295804323
 30
0.0
 10
25.02671601766431
 20
12.43131360126271
 30
0.0
 10
25.00822368421052
 20
12.44161184210526
 30
0.0
  0
SPLINE
  5
FC
330
1F
100
AcDbEntity
  8
0
  6
Continuous
 62
     7
370
    25
100
AcDbSpline
210
0.0
220
0.0
230
1.0
 70
     8
 71
     3
 72
    23
 73
    19
 74
     0
 42
0.00000001
 43
0.00000001
 40
0.0
 40
0.0
 40
0.0
 40
0.0
 40
0.0684203735449877
 40
0.1339946139751548
 40
0.1973752014040387
 40
0.2593941463600855
 40
0.3200498968563599
 40
0.3792971619571883
 40
0.4381521151555211
 40
0.4969038434388637
 40
0.5560066516530433
 40
0.6155580656175543
 40
0.6762138161138253
 40
0.738625326495374
 40
0.8022141129369187
 40
0.8668154885548615
 40
0.9324061588279641
 40
1.0
 40
1.0
 40
1.0
 40
1.0
 10
31.85814144736841
 20
11.47368421052632
 30
0.0
 10
31.82313327698932
 20
11.47457598082032
 30
0.0
 10
31.75457319710552
 20
11.47632242577681
 30
0.0
 10
31.65455836686109
 20
11.49165657912443
 30
0.0
 10
31.55971225021226
 20
11.51562288499618
 30
0.0
 10
31.47071068651421
 20
11.54993251737083
 30
0.0
 10
31.38802250703094
 20
11.59291030137499
 30
0.0
 10
31.31129077662501
 20
11.64288490868115
 30
0.0
 10
31.24112691168025
 20
11.70024744707106
 30
0.0
 10
31.1776292173132
 20
11.76475872038015
 30
0.0
 10
31.12060331534812
 20
11.83554784008029
 30
0.0
 10
31.07133526307338
 20
11.9130647289284
 30
0.0
 10
31.02822033788735
 20
11.99605292115219
 30
0.0
 10
30.99277840900265
 20
12.08482879695944
 30
0.0
 10
30.96424160312616
 20
12.17816373167269
 30
0.0
 10
30.94431175871339
 20
12.2753584831058
 30
0.0
 10
30.93205401629054
 20
12.37591920733293
 30
0.0
 10
30.93048420902857
 20
12.4440438055616
 30
0.0
 10
30.92968749999999
 20
12.47861842105263
 30
0.0
  0
SPLINE
  5
FD
330
1F
100
AcDbEntity
  8
0
  6
Continuous
 62
     7
370
    25
100
AcDbSpline
210
0.0
220
0.0
230
1.0
 70
     8
 71
     3
 72
    23
 73
    19
 74
     0
 42
0.00000001
 43
0.00000001
 40
0.0
 40
0.0
 40
0.0
 40
0.0
 40
0.0845170225033117
 40
0.1642370090650797
 40
0.2387195468084055
 40
0.3082498699293753
 40
0.37355042064886
 40
0.4353711538502962
 40
0.4939330192943567
 40
0.5505072538793498
 40
0.6049547601171801
 40
0.6589818159992032
 40
0.7120212013171231
 40
0.7657260626051388
 40
0.820384427250375
 40
0.8773957270794444
 40
0.9370535142581103
 40
1.0
 40
1.0
 40
1.0
 40
1.0
 10
29.97902960526316
 20
11.63157894736842
 30
0.0
 10
29.99727001224969
 20
11.63172544953092
 30
0.0
 10
30.03271553315031
 20
11.63201013865364
 30
0.0
 10
30.08405074056566
 20
11.63678222860795
 30
0.0
 10
30.13182716768426
 20
11.6436899888768
 30
0.0
 10
30.17613226368614
 20
11.65277573374522
 30
0.0
 10
30.21655963357147
 20
11.66582867878904
 30
0.0
 10
30.25379249025485
 20
11.68075499193669
 30
0.0
 10
30.28741324734401
 20
11.69902909185776
 30
0.0
 10
30.31750882982322
 20
11.71996444655745
 30
0.0
 10
30.34421163120231
 20
11.74365438458047
 30
0.0
 10
30.36721231918807
 20
11.76996146160381
 30
0.0
 10
30.3867066543841
 20
11.79872390235557
 30
0.0
 10
30.40306846510724
 20
11.82959626985149
 30
0.0
 10
30.41465320180732
 20
11.86343936807919
 30
0.0
 10
30.42392766093588
 20
11.89925513336203
 30
0.0
 10
30.42929339730281
 20
11.93774995249998
 30
0.0
 10
30.42982549761069
 20
11.96421076044995
 30
0.0
 10
30.43009868421053
 20
11.97779605263158
 30
0.0
  0
SPLINE
  5
FE
330
1F
100
AcDbEntity
  8
0
  6
Continuous
 62
     7
370
    25
100
AcDbSpline
210
0.0
220
0.0
230
1.0
 70
     8
 71
     3
 72
    15
 73
    11
 74
     0
 42
0.00000001
 43
0.00000001
 40
0.0
 40
0.0
 40
0.0
 40
0.0
 40
0.1178576395807977
 40
0.2366815466605249
 40
0.3571390188085115
 40
0.4792081971414526
 40
0.6048199722696384
 40
0.7322572868753674
 40
0.8644015873742361
 40
1.0
 40
1.0
 40
1.0
 40
1.0
 10
25.56743421052632
 20
13.26726973684211
 30
0.0
 10
25.55261537817325
 20
13.27545720358015
 30
0.0
 10
25.52285621980643
 20
13.29189926281095
 30
0.0
 10
25.47574489804678
 20
13.31236617858159
 30
0.0
 10
25.42672919282694
 20
13.32943113727292
 30
0.0
 10
25.37593988187689
 20
13.34430826010553
 30
0.0
 10
25.32297128773327
 20
13.35431543785863
 30
0.0
 10
25.26834359442732
 20
13.36312647670941
 30
0.0
 10
25.21168905448211
 20
13.36733056697984
 30
0.0
 10
25.17325024592277
 20
13.36805444453256
 30
0.0
 10
25.15378289473684
 20
13.36842105263158
 30
0.0
  0
SPLINE
  5
FF
330
1F
100
AcDbEntity
  8
0
  6
Continuous
 62
     7
370
    25
100
AcDbSpline
210
0.0
220
0.0
230
1.0
 70
     8
 71
     3
 72
    23
 73
    19
 74
     0
 42
0.00000001
 43
0.00000001
 40
0.0
 40
0.0
 40
0.0
 40
0.0
 40
0.084517022503309
 40
0.1642370090650797
 40
0.2387195468084054
 40
0.3082498699293753
 40
0.3735504206488599
 40
0.4353711538502962
 40
0.493933019294359
 40
0.5505072538793522
 40
0.6049547601171784
 40
0.6589818159992016
 40
0.712021201317123
 40
0.7657260626051386
 40
0.8203844272503749
 40
0.8773957270794441
 40
0.9370535142581105
 40
1.0
 40
1.0
 40
1.0
 40
1.0
 10
14.7421875
 20
11.63157894736842
 30
0.0
 10
14.76042790698654
 20
11.63172544953092
 30
0.0
 10
14.79587342788715
 20
11.63201013865364
 30
0.0
 10
14.84720863530249
 20
11.63678222860795
 30
0.0
 10
14.89498506242111
 20
11.6436899888768
 30
0.0
 10
14.93929015842297
 20
11.65277573374522
 30
0.0
 10
14.97971752830831
 20
11.66582867878904
 30
0.0
 10
15.01695038499169
 20
11.68075499193669
 30
0.0
 10
15.05057114208086
 20
11.69902909185776
 30
0.0
 10
15.08066672456005
 20
11.71996444655744
 30
0.0
 10
15.10736952593917
 20
11.74365438458047
 30
0.0
 10
15.13037021392489
 20
11.76996146160381
 30
0.0
 10
15.14986454912095
 20
11.79872390235557
 30
0.0
 10
15.16622635984408
 20
11.82959626985148
 30
0.0
 10
15.17781109654416
 20
11.86343936807919
 30
0.0
 10
15.18708555567272
 20
11.89925513336203
 30
0.0
 10
15.19245129203966
 20
11.93774995249998
 30
0.0
 10
15.19298339234754
 20
11.96421076044995
 30
0.0
 10
15.19325657894737
 20
11.97779605263158
 30
0.0
  0
SPLINE
  5
100
330
1F
100
AcDbEntity
  8
0
  6
Continuous
 62
     7
370
    25
100
AcDbSpline
210
0.0
220
0.0
230
1.0
 70
     8
 71
     3
 72
    23
 73
    19
 74
     0
 42
0.00000001
 43
0.00000001
 40
0.0
 40
0.0
 40
0.0
 40
0.0
 40
0.0563983945190886
 40
0.1094886649949976
 40
0.1589381115363375
 40
0.2053620185695128
 40
0.2513541431635914
 40
0.2989573485591273
 40
0.3488855485645577
 40
0.4010535808341641
 40
0.456764059972128
 40
0.5171287110874421
 40
0.5820828517550687
 40
0.6516821994524449
 40
0.7277481237182772
 40
0.8109566670306964
 40
0.9021659719200268
 40
1.0
 40
1.0
 40
1.0
 40
1.0
 10
24.72245065789474
 20
13.02754934210527
 30
0.0
 10
24.72259194355388
 20
13.01505864062638
 30
0.0
 10
24.7228662275709
 20
12.99080989664287
 30
0.0
 10
24.72769420362985
 20
12.95590675214366
 30
0.0
 10
24.7344001181856
 20
12.92359343613307
 30
0.0
 10
24.7444634259066
 20
12.89377333464994
 30
0.0
 10
24.75782855208342
 20
12.86573367333155
 30
0.0
 10
24.77501406253649
 20
12.8389534929968
 30
0.0
 10
24.79517204292332
 20
12.81263713587693
 30
0.0
 10
24.81874733613426
 20
12.78677945209574
 30
0.0
 10
24.84688047165191
 20
12.76233974485094
 30
0.0
 10
24.87792951971661
 20
12.7370045128323
 30
0.0
 10
24.91353765215172
 20
12.71260026666386
 30
0.0
 10
24.95295380460244
 20
12.68772638691666
 30
0.0
 10
24.9968035436626
 20
12.66237236070678
 30
0.0
 10
25.04508227439858
 20
12.63515213448366
 30
0.0
 10
25.09786755496522
 20
12.60611771604669
 30
0.0
 10
25.13471403931615
 20
12.5863165909678
 30
0.0
 10
25.15378289473684
 20
12.57606907894737
 30
0.0
  0
SPLINE
  5
101
330
1F
100
AcDbEntity
  8
0
  6
Continuous
 62
     7
370
    25
100
AcDbSpline
210
0.0
220
0.0
230
1.0
 70
     8
 71
     3
 72
    11
 73
     7
 74
     0
 42
0.00000001
 43
0.00000001
 40
0.0
 40
0.0
 40
0.0
 40
0.0
 40
0.2810879860169125
 40
0.5415791039010208
 40
0.7792374976223092
 40
1.0
 40
1.0
 40
1.0
 40
1.0
 10
20.39103618421053
 20
11.91447368421053
 30
0.0
 10
20.39887930744796
 20
11.90229462933611
 30
0.0
 10
20.41399084499499
 20
11.87882894615727
 30
0.0
 10
20.43524299750413
 20
11.84475491235627
 30
0.0
 10
20.45479473209407
 20
11.81328446805969
 30
0.0
 10
20.46698928923405
 20
11.79305018021705
 30
0.0
 10
20.47286184210527
 20
11.78330592105263
 30
0.0
  0
SPLINE
  5
102
330
1F
100
AcDbEntity
  8
0
  6
Continuous
 62
     7
370
    25
100
AcDbSpline
210
0.0
220
0.0
230
1.0
 70
     8
 71
     3
 72
    23
 73
    19
 74
     0
 42
0.00000001
 43
0.00000001
 40
0.0
 40
0.0
 40
0.0
 40
0.0
 40
0.0563983945190885
 40
0.1094886649949978
 40
0.1589381115363376
 40
0.205362018569512
 40
0.2513541431635917
 40
0.2989573485591261
 40
0.3488855485645581
 40
0.4010535808341627
 40
0.4567640599721284
 40
0.5171287110874424
 40
0.5820828517550668
 40
0.651682199452443
 40
0.7277481237182775
 40
0.8109566670306941
 40
0.9021659719200246
 40
1.0
 40
1.0
 40
1.0
 40
1.0
 10
14.4592927631579
 20
13.02754934210527
 30
0.0
 10
14.45943404881704
 20
13.01505864062638
 30
0.0
 10
14.45970833283406
 20
12.99080989664288
 30
0.0
 10
14.464536308893
 20
12.95590675214366
 30
0.0
 10
14.47124222344877
 20
12.92359343613307
 30
0.0
 10
14.48130553116976
 20
12.89377333464994
 30
0.0
 10
14.49467065734657
 20
12.86573367333155
 30
0.0
 10
14.51185616779965
 20
12.8389534929968
 30
0.0
 10
14.53201414818647
 20
12.81263713587692
 30
0.0
 10
14.55558944139742
 20
12.78677945209575
 30
0.0
 10
14.58372257691508
 20
12.76233974485095
 30
0.0
 10
14.61477162497977
 20
12.7370045128323
 30
0.0
 10
14.65037975741488
 20
12.71260026666386
 30
0.0
 10
14.6897959098656
 20
12.68772638691666
 30
0.0
 10
14.73364564892576
 20
12.66237236070678
 30
0.0
 10
14.78192437966175
 20
12.63515213448367
 30
0.0
 10
14.83470966022837
 20
12.60611771604669
 30
0.0
 10
14.87155614457931
 20
12.58631659096779
 30
0.0
 10
14.890625
 20
12.57606907894737
 30
0.0
  0
SPLINE
  5
103
330
1F
100
AcDbEntity
  8
0
  6
Continuous
 62
     7
370
    25
100
AcDbSpline
210
0.0
220
0.0
230
1.0
 70
     8
 71
     3
 72
    23
 73
    19
 74
     0
 42
0.00000001
 43
0.00000001
 40
0.0
 40
0.0
 40
0.0
 40
0.0
 40
0.0666777891106379
 40
0.1296842334451213
 40
0.1902286130948877
 40
0.2487859971863322
 40
0.305922018844476
 40
0.3622401676834755
 40
0.4182502052802891
 40
0.4750693812995264
 40
0.5327706924869563
 40
0.592179686288328
 40
0.6540309132511809
 40
0.7184598770790095
 40
0.7850815282810545
 40
0.8539129926031136
 40
0.9255740902773152
 40
1.0
 40
1.0
 40
1.0
 40
1.0
 10
24.17557565789474
 20
11.99876644736842
 30
0.0
 10
24.17509235005001
 20
11.97762335867747
 30
0.0
 10
24.17415234576678
 20
11.93650134059438
 30
0.0
 10
24.16484774557026
 20
11.87677425347958
 30
0.0
 10
24.14984189447881
 20
11.82091352592277
 30
0.0
 10
24.12821542734818
 20
11.76925658554737
 30
0.0
 10
24.10139043929152
 20
11.72165716082659
 30
0.0
 10
24.06946223332293
 20
11.67834720827956
 30
0.0
 10
24.03318225900282
 20
11.63869251913272
 30
0.0
 10
23.99125583161797
 20
11.604358740332
 30
0.0
 10
23.94529309874986
 20
11.57382487488107
 30
0.0
 10
23.89528203377
 20
11.54688236921571
 30
0.0
 10
23.84080516515121
 20
11.524404044172
 30
0.0
 10
23.78243878224086
 20
11.50600233698194
 30
0.0
 10
23.72065107514137
 20
11.49184812066719
 30
0.0
 10
23.65588780163868
 20
11.48093680596403
 30
0.0
 10
23.58797405764428
 20
11.47485316302529
 30
0.0
 10
23.54167815159143
 20
11.47407874683872
 30
0.0
 10
23.51809210526317
 20
11.47368421052632
 30
0.0
  0
SPLINE
  5
104
330
1F
100
AcDbEntity
  8
0
  6
Continuous
 62
     7
370
    25
100
AcDbSpline
210
0.0
220
0.0
230
1.0
 70
     8
 71
     3
 72
    23
 73
    19
 74
     0
 42
0.00000001
 43
0.00000001
 40
0.0
 40
0.0
 40
0.0
 40
0.0
 40
0.0560371014936087
 40
0.1089063388323137
 40
0.1585479463109298
 40
0.2067412297066487
 40
0.2541269061230743
 40
0.3040487815307306
 40
0.3549198543342772
 40
0.4089820357743979
 40
0.4661808670496758
 40
0.5279548445365508
 40
0.5929087363114747
 40
0.6632286209974729
 40
0.7384969966658356
 40
0.8194421020755254
 40
0.9070315540132472
 40
1.0
 40
1.0
 40
1.0
 40
1.0
 10
23.9827302631579
 20
11.97779605263158
 30
0.0
 10
23.98243080501194
 20
11.99055883626487
 30
0.0
 10
23.9818488175529
 20
12.01536290360175
 30
0.0
 10
23.97689750311464
 20
12.05120799765574
 30
0.0
 10
23.96862407171889
 20
12.08456950674058
 30
0.0
 10
23.95709482899516
 20
12.11564373289687
 30
0.0
 10
23.94185352973749
 20
12.14513863155952
 30
0.0
 10
23.92307373308251
 20
12.17325725939799
 30
0.0
 10
23.90033722878562
 20
12.20026438105934
 30
0.0
 10
23.87447891550016
 20
12.22667683671673
 30
0.0
 10
23.84431038351666
 20
12.25206120189277
 30
0.0
 10
23.811410161225
 20
12.27799685294607
 30
0.0
 10
23.77419094986279
 20
12.30309782493904
 30
0.0
 10
23.73359750162035
 20
12.32860896418535
 30
0.0
 10
23.68874307053633
 20
12.35408655685996
 30
0.0
 10
23.64114159967256
 20
12.38265132778264
 30
0.0
 10
23.58894653950437
 20
12.41131295804323
 30
0.0
 10
23.55303180713799
 20
12.43131360126271
 30
0.0
 10
23.53453947368422
 20
12.44161184210526
 30
0.0
  0
SPLINE
  5
105
330
1F
100
AcDbEntity
  8
0
  6
Continuous
 62
     7
370
    25
100
AcDbSpline
210
0.0
220
0.0
230
1.0
 70
     8
 71
     3
 72
    23
 73
    19
 74
     0
 42
0.00000001
 43
0.00000001
 40
0.0
 40
0.0
 40
0.0
 40
0.0
 40
0.0845170225033117
 40
0.1642370090650797
 40
0.2387195468084055
 40
0.3082498699293753
 40
0.37355042064886
 40
0.4353711538502962
 40
0.4939330192943567
 40
0.5505072538793498
 40
0.6049547601171801
 40
0.6589818159992032
 40
0.7120212013171231
 40
0.7657260626051388
 40
0.820384427250375
 40
0.8773957270794444
 40
0.9370535142581103
 40
1.0
 40
1.0
 40
1.0
 40
1.0
 10
23.53166118421053
 20
11.63157894736842
 30
0.0
 10
23.54990159119707
 20
11.63172544953092
 30
0.0
 10
23.58534711209768
 20
11.63201013865364
 30
0.0
 10
23.63668231951303
 20
11.63678222860795
 30
0.0
 10
23.68445874663163
 20
11.6436899888768
 30
0.0
 10
23.72876384263351
 20
11.65277573374522
 30
0.0
 10
23.76919121251884
 20
11.66582867878904
 30
0.0
 10
23.80642406920222
 20
11.68075499193669
 30
0.0
 10
23.84004482629139
 20
11.69902909185776
 30
0.0
 10
23.87014040877058
 20
11.71996444655745
 30
0.0
 10
23.89684321014969
 20
11.74365438458047
 30
0.0
 10
23.91984389813544
 20
11.76996146160381
 30
0.0
 10
23.93933823333148
 20
11.79872390235557
 30
0.0
 10
23.95570004405461
 20
11.82959626985149
 30
0.0
 10
23.9672847807547
 20
11.86343936807919
 30
0.0
 10
23.97655923988325
 20
11.89925513336203
 30
0.0
 10
23.98192497625019
 20
11.93774995249998
 30
0.0
 10
23.98245707655807
 20
11.96421076044995
 30
0.0
 10
23.9827302631579
 20
11.97779605263158
 30
0.0
  0
SPLINE
  5
106
330
1F
100
AcDbEntity
  8
0
  6
Continuous
 62
     7
370
    25
100
AcDbSpline
210
0.0
220
0.0
230
1.0
 70
     8
 71
     3
 72
    23
 73
    19
 74
     0
 42
0.00000001
 43
0.00000001
 40
0.0
 40
0.0
 40
0.0
 40
0.0
 40
0.0560371014936087
 40
0.1089063388323137
 40
0.1585479463109298
 40
0.2067412297066487
 40
0.2541269061230743
 40
0.3040487815307306
 40
0.3549198543342772
 40
0.4089820357743979
 40
0.4661808670496758
 40
0.5279548445365508
 40
0.5929087363114747
 40
0.6632286209974729
 40
0.7384969966658356
 40
0.8194421020755254
 40
0.9070315540132472
 40
1.0
 40
1.0
 40
1.0
 40
1.0
 10
30.43009868421053
 20
11.97779605263158
 30
0.0
 10
30.42979922606456
 20
11.99055883626487
 30
0.0
 10
30.42921723860552
 20
12.01536290360175
 30
0.0
 10
30.42426592416725
 20
12.05120799765574
 30
0.0
 10
30.41599249277152
 20
12.08456950674058
 30
0.0
 10
30.40446325004779
 20
12.11564373289687
 30
0.0
 10
30.38922195079012
 20
12.14513863155952
 30
0.0
 10
30.37044215413514
 20
12.17325725939799
 30
0.0
 10
30.34770564983825
 20
12.20026438105934
 30
0.0
 10
30.32184733655279
 20
12.22667683671673
 30
0.0
 10
30.29167880456928
 20
12.25206120189277
 30
0.0
 10
30.25877858227762
 20
12.27799685294607
 30
0.0
 10
30.22155937091541
 20
12.30309782493904
 30
0.0
 10
30.18096592267297
 20
12.32860896418535
 30
0.0
 10
30.13611149158896
 20
12.35408655685996
 30
0.0
 10
30.08851002072518
 20
12.38265132778264
 30
0.0
 10
30.036314960557
 20
12.41131295804323
 30
0.0
 10
30.00040022819062
 20
12.43131360126271
 30
0.0
 10
29.98190789473684
 20
12.44161184210526
 30
0.0
  0
SPLINE
  5
107
330
1F
100
AcDbEntity
  8
0
  6
Continuous
 62
     7
370
    25
100
AcDbSpline
210
0.0
220
0.0
230
1.0
 70
     8
 71
     3
 72
    17
 73
    13
 74
     0
 42
0.00000001
 43
0.00000001
 40
0.0
 40
0.0
 40
0.0
 40
0.0
 40
0.090322212911131
 40
0.1742686492424642
 40
0.2524704997902438
 40
0.323795014819928
 40
0.4535232442669843
 40
0.5686058474975297
 40
0.6748178067118834
 40
0.777294846918301
 40
0.8836396013142491
 40
1.0
 40
1.0
 40
1.0
 40
1.0
 10
33.98972039473684
 20
12.0719572368421
 30
0.0
 10
33.982344855802
 20
12.08553868125922
 30
0.0
 10
33.96811441163791
 20
12.11174286622157
 30
0.0
 10
33.94708110045231
 20
12.14950593217282
 30
0.0
 10
33.92511822028109
 20
12.18290746722607
 30
0.0
 10
33.89796673428803
 20
12.22223040094251
 30
0.0
 10
33.86381193535251
 20
12.26436583485328
 30
0.0
 10
33.81970993549717
 20
12.30551377882085
 30
0.0
 10
33.77274958474928
 20
12.33559617067874
 30
0.0
 10
33.72224109186118
 20
12.35524823088648
 30
0.0
 10
33.66745093142713
 20
12.36655478383785
 30
0.0
 10
33.62930547804378
 20
12.36778058715297
 30
0.0
 10
33.609375
 20
12.36842105263158
 30
0.0
  0
SPLINE
  5
108
330
1F
100
AcDbEntity
  8
0
  6
Continuous
 62
     7
370
    25
100
AcDbSpline
210
0.0
220
0.0
230
1.0
 70
     8
 71
     3
 72
    23
 73
    19
 74
     0
 42
0.00000001
 43
0.00000001
 40
0.0
 40
0.0
 40
0.0
 40
0.0
 40
0.0666777891106379
 40
0.1296842334451213
 40
0.1902286130948877
 40
0.2487859971863322
 40
0.305922018844476
 40
0.3622401676834755
 40
0.4182502052802891
 40
0.4750693812995264
 40
0.5327706924869563
 40
0.592179686288328
 40
0.6540309132511809
 40
0.7184598770790095
 40
0.7850815282810545
 40
0.8539129926031136
 40
0.9255740902773152
 40
1.0
 40
1.0
 40
1.0
 40
1.0
 10
25.64925986842105
 20
11.99876644736842
 30
0.0
 10
25.64877656057632
 20
11.97762335867747
 30
0.0
 10
25.64783655629309
 20
11.93650134059438
 30
0.0
 10
25.63853195609656
 20
11.87677425347958
 30
0.0
 10
25.62352610500511
 20
11.82091352592277
 30
0.0
 10
25.60189963787449
 20
11.76925658554737
 30
0.0
 10
25.57507464981782
 20
11.72165716082659
 30
0.0
 10
25.54314644384923
 20
11.67834720827956
 30
0.0
 10
25.50686646952912
 20
11.63869251913272
 30
0.0
 10
25.46494004214427
 20
11.604358740332
 30
0.0
 10
25.41897730927618
 20
11.57382487488107
 30
0.0
 10
25.36896624429631
 20
11.54688236921571
 30
0.0
 10
25.31448937567751
 20
11.524404044172
 30
0.0
 10
25.25612299276717
 20
11.50600233698194
 30
0.0
 10
25.19433528566767
 20
11.49184812066719
 30
0.0
 10
25.129572012165
 20
11.48093680596403
 30
0.0
 10
25.06165826817058
 20
11.47485316302529
 30
0.0
 10
25.01536236211773
 20
11.47407874683872
 30
0.0
 10
24.99177631578948
 20
11.47368421052632
 30
0.0
  0
SPLINE
  5
109
330
1F
100
AcDbEntity
  8
0
  6
Continuous
 62
     7
370
    25
100
AcDbSpline
210
0.0
220
0.0
230
1.0
 70
     8
 71
     3
 72
    23
 73
    19
 74
     0
 42
0.00000001
 43
0.00000001
 40
0.0
 40
0.0
 40
0.0
 40
0.0
 40
0.0855083483142311
 40
0.1670073725931016
 40
0.2431562182382943
 40
0.3151463199497778
 40
0.3829150999251622
 40
0.4476277182179623
 40
0.509113399204223
 40
0.5680121205430205
 40
0.6245984072955946
 40
0.6788867628705322
 40
0.731740037237408
 40
0.7834120139185003
 40
0.8351142937846894
 40
0.8881549217638787
 40
0.9427190675572146
 40
1.0
 40
1.0
 40
1.0
 40
1.0
 10
25.15378289473684
 20
12.57606907894737
 30
0.0
 10
25.17399623791029
 20
12.56522199685164
 30
0.0
 10
25.21347515898962
 20
12.54403643173639
 30
0.0
 10
25.26986662294701
 20
12.51122779752986
 30
0.0
 10
25.32237623855668
 20
12.47900972250582
 30
0.0
 10
25.37099391120709
 20
12.44750993645654
 30
0.0
 10
25.4157464867735
 20
12.41575967815677
 30
0.0
 10
25.45653834857201
 20
12.38340102194427
 30
0.0
 10
25.49328201532727
 20
12.34994861284249
 30
0.0
 10
25.52630206501664
 20
12.3157914163861
 30
0.0
 10
25.55561823357042
 20
12.28088708853061
 30
0.0
 10
25.58102651581602
 20
12.24496812862458
 30
0.0
 10
25.60187836950215
 20
12.20776089347475
 30
0.0
 10
25.61963753137978
 20
12.16971392838516
 30
0.0
 10
25.63256205008847
 20
12.12972332775883
 30
0.0
 10
25.64284580947092
 20
12.08817372564805
 30
0.0
 10
25.64788366882889
 20
12.04411922710256
 30
0.0
 10
25.64879376627892
 20
12.01412688484114
 30
0.0
 10
25.64925986842105
 20
11.99876644736842
 30
0.0
  0
SPLINE
  5
10A
330
1F
100
AcDbEntity
  8
0
  6
Continuous
 62
     7
370
    25
100
AcDbSpline
210
0.0
220
0.0
230
1.0
 70
     8
 71
     3
 72
    11
 73
     7
 74
     0
 42
0.00000001
 43
0.00000001
 40
0.0
 40
0.0
 40
0.0
 40
0.0
 40
0.2810879860169125
 40
0.5415791039010208
 40
0.7792374976223092
 40
1.0
 40
1.0
 40
1.0
 40
1.0
 10
28.78577302631579
 20
11.91447368421053
 30
0.0
 10
28.79361614955322
 20
11.90229462933611
 30
0.0
 10
28.80872768710025
 20
11.87882894615727
 30
0.0
 10
28.82997983960939
 20
11.84475491235627
 30
0.0
 10
28.84953157419933
 20
11.81328446805969
 30
0.0
 10
28.86172613133931
 20
11.79305018021705
 30
0.0
 10
28.86759868421053
 20
11.78330592105263
 30
0.0
  0
SPLINE
  5
10B
330
1F
100
AcDbEntity
  8
0
  6
Continuous
 62
     7
370
    25
100
AcDbSpline
210
0.0
220
0.0
230
1.0
 70
     8
 71
     3
 72
    23
 73
    19
 74
     0
 42
0.00000001
 43
0.00000001
 40
0.0
 40
0.0
 40
0.0
 40
0.0
 40
0.0706592062899662
 40
0.1402770853765804
 40
0.2078660211764459
 40
0.2744489752397024
 40
0.3389281881353884
 40
0.4010506822583204
 40
0.4621571278644704
 40
0.5218522166597611
 40
0.5801284341307515
 40
0.6371414780127096
 40
0.6945889723817895
 40
0.7522986445972873
 40
0.8107536297251534
 40
0.8710702508272693
 40
0.9339493030194399
 40
1.0
 40
1.0
 40
1.0
 40
1.0
 10
14.890625
 20
13.36842105263158
 30
0.0
 10
14.87608701036198
 20
13.36821451497544
 30
0.0
 10
14.8472252820645
 20
13.36780448347431
 30
0.0
 10
14.80462337848745
 20
13.36361131698964
 30
0.0
 10
14.76325362902079
 20
13.35664617436381
 30
0.0
 10
14.7235599750163
 20
13.34678618183293
 30
0.0
 10
14.68572054123194
 20
13.33454378149424
 30
0.0
 10
14.65001211125667
 20
13.31971702417643
 30
0.0
 10
14.61675236933228
 20
13.30200993685464
 30
0.0
 10
14.58581740693648
 20
13.28192157843246
 30
0.0
 10
14.55770512668514
 20
13.25932402485479
 30
0.0
 10
14.53273804600975
 20
13.23393211037772
 30
0.0
 10
14.51091499793801
 20
13.20593563156033
 30
0.0
 10
14.49233151199171
 20
13.17536533127397
 30
0.0
 10
14.47712556336962
 20
13.14224555520404
 30
0.0
 10
14.46729114566229
 20
13.1061024174832
 30
0.0
 10
14.46023533024131
 20
13.06770743254106
 30
0.0
 10
14.45961206293404
 20
13.04115311579141
 30
0.0
 10
14.4592927631579
 20
13.02754934210527
 30
0.0
  0
SPLINE
  5
10C
330
1F
100
AcDbEntity
  8
0
  6
Continuous
 62
     7
370
    25
100
AcDbSpline
210
0.0
220
0.0
230
1.0
 70
     8
 71
     3
 72
    23
 73
    19
 74
     0
 42
0.00000001
 43
0.00000001
 40
0.0
 40
0.0
 40
0.0
 40
0.0
 40
0.0680066145727944
 40
0.1332581114388483
 40
0.1965637446630401
 40
0.2581395514154511
 40
0.3181027383058549
 40
0.3767647289481527
 40
0.4345906887636704
 40
0.4921350957036482
 40
0.5499225025864725
 40
0.6082635556555869
 40
0.6680967737777102
 40
0.7296462977641711
 40
0.793415123333313
 40
0.8590826311547035
 40
0.928042784125477
 40
1.0
 40
1.0
 40
1.0
 40
1.0
 10
22.73478618421053
 20
12.52631578947368
 30
0.0
 10
22.73394582695482
 20
12.48858383339683
 30
0.0
 10
22.73229915741341
 20
12.41464853696602
 30
0.0
 10
22.71853189374552
 20
12.30627034598814
 30
0.0
 10
22.69544691162859
 20
12.20323130827883
 30
0.0
 10
22.66396592002363
 20
12.10547709997969
 30
0.0
 10
22.62354442322577
 20
12.01386907168587
 30
0.0
 10
22.57498725280999
 20
11.92866543551869
 30
0.0
 10
22.51786787182733
 20
11.85060675747088
 30
0.0
 10
22.45310103898026
 20
11.77940476488589
 30
0.0
 10
22.38027508778229
 20
11.71606095765719
 30
0.0
 10
22.3004667877784
 20
11.65955304721567
 30
0.0
 10
22.21284268502663
 20
11.61159097718603
 30
0.0
 10
22.11826549304191
 20
11.57120674458897
 30
0.0
 10
22.01712654524253
 20
11.53902657575727
 30
0.0
 10
21.90921454073208
 20
11.5167874698762
 30
0.0
 10
21.79534947337332
 20
11.50231636116478
 30
0.0
 10
21.71715113434905
 20
11.5007829910771
 30
0.0
 10
21.67722039473685
 20
11.5
 30
0.0
  0
SPLINE
  5
10D
330
1F
100
AcDbEntity
  8
0
  6
Continuous
 62
     7
370
    25
100
AcDbSpline
210
0.0
220
0.0
230
1.0
 70
     8
 71
     3
 72
    15
 73
    11
 74
     0
 42
0.00000001
 43
0.00000001
 40
0.0
 40
0.0
 40
0.0
 40
0.0
 40
0.1178576395807977
 40
0.2366815466605249
 40
0.3571390188085115
 40
0.4792081971414526
 40
0.6048199722696384
 40
0.7322572868753674
 40
0.8644015873742361
 40
1.0
 40
1.0
 40
1.0
 40
1.0
 10
30.54111842105264
 20
13.26726973684211
 30
0.0
 10
30.52629958869958
 20
13.27545720358015
 30
0.0
 10
30.49654043033275
 20
13.29189926281095
 30
0.0
 10
30.4494291085731
 20
13.31236617858159
 30
0.0
 10
30.40041340335327
 20
13.32943113727292
 30
0.0
 10
30.34962409240321
 20
13.34430826010553
 30
0.0
 10
30.29665549825959
 20
13.35431543785863
 30
0.0
 10
30.24202780495365
 20
13.36312647670941
 30
0.0
 10
30.18537326500843
 20
13.36733056697984
 30
0.0
 10
30.14693445644909
 20
13.36805444453256
 30
0.0
 10
30.12746710526316
 20
13.36842105263158
 30
0.0
  0
SPLINE
  5
10E
330
1F
100
AcDbEntity
  8
0
  6
Continuous
 62
     7
370
    25
100
AcDbSpline
210
0.0
220
0.0
230
1.0
 70
     8
 71
     3
 72
    23
 73
    19
 74
     0
 42
0.00000001
 43
0.00000001
 40
0.0
 40
0.0
 40
0.0
 40
0.0
 40
0.0890782035980117
 40
0.1731012659497172
 40
0.2512159322161475
 40
0.3240822449866009
 40
0.3914739910182267
 40
0.4557478282203891
 40
0.5152986787645758
 40
0.5718131270993583
 40
0.6256480454804308
 40
0.6779408314698122
 40
0.7295853943683609
 40
0.7801275173838125
 40
0.8313531258370046
 40
0.8852310949393761
 40
0.940945913510304
 40
1.0
 40
1.0
 40
1.0
 40
1.0
 10
25.00822368421052
 20
12.44161184210526
 30
0.0
 10
24.98776346053961
 20
12.45291898814344
 30
0.0
 10
24.94800412013989
 20
12.47489160562367
 30
0.0
 10
24.89092873274222
 20
12.50791332000455
 30
0.0
 10
24.83870384458963
 20
12.54072587538672
 30
0.0
 10
24.79041663078315
 20
12.57159950588191
 30
0.0
 10
24.74663581550999
 20
12.60271048878082
 30
0.0
 10
24.70753971631337
 20
12.63420014511818
 30
0.0
 10
24.6720276070749
 20
12.66552920011
 30
0.0
 10
24.64104733442465
 20
12.69767444313286
 30
0.0
 10
24.61407344777459
 20
12.73080972626683
 30
0.0
 10
24.59074693657521
 20
12.76510669260554
 30
0.0
 10
24.57161694506173
 20
12.8009037861126
 30
0.0
 10
24.55542165527132
 20
12.83785702591719
 30
0.0
 10
24.54418942629652
 20
12.87721483252284
 30
0.0
 10
24.53540680481152
 20
12.91852865908054
 30
0.0
 10
24.53050772605146
 20
12.9626021418582
 30
0.0
 10
24.5299118631151
 20
12.99272436226331
 30
0.0
 10
24.52960526315789
 20
13.00822368421053
 30
0.0
  0
SPLINE
  5
10F
330
1F
100
AcDbEntity
  8
0
  6
Continuous
 62
     7
370
    25
100
AcDbSpline
210
0.0
220
0.0
230
1.0
 70
     8
 71
     3
 72
    23
 73
    19
 74
     0
 42
0.00000001
 43
0.00000001
 40
0.0
 40
0.0
 40
0.0
 40
0.0
 40
0.0637348211993177
 40
0.1246757596243723
 40
0.1837957747681987
 40
0.2423537390378632
 40
0.3006609185822442
 40
0.3587792994241177
 40
0.4166911714983737
 40
0.4757223561441656
 40
0.5358388462146015
 40
0.5972168981601321
 40
0.6601575823608404
 40
0.7251766561877311
 40
0.7919951886687179
 40
0.8598182578266753
 40
0.9287648867957842
 40
1.0
 40
1.0
 40
1.0
 40
1.0
 10
14.26644736842105
 20
13.00822368421053
 30
0.0
 10
14.26708853853274
 20
13.02786029376079
 30
0.0
 10
14.2683427723914
 20
13.06627272147389
 30
0.0
 10
14.27789729104211
 20
13.12227667748077
 30
0.0
 10
14.29412432864651
 20
13.17497877061118
 30
0.0
 10
14.31636242226275
 20
13.22458514307276
 30
0.0
 10
14.34467670019559
 20
13.27056692908066
 30
0.0
 10
14.37699092467064
 20
13.3135817700417
 30
0.0
 10
14.41454542129633
 20
13.35243620196006
 30
0.0
 10
14.45610671831589
 20
13.38787374233075
 30
0.0
 10
14.50195373012518
 20
13.41948562084014
 30
0.0
 10
14.55141375337143
 20
13.44757095139353
 30
0.0
 10
14.60470851231711
 20
13.47148592622565
 30
0.0
 10
14.66153094574519
 20
13.4908745336636
 30
0.0
 10
14.72088740597561
 20
13.50723838529762
 30
0.0
 10
14.78274468682716
 20
13.5178564431197
 30
0.0
 10
14.84644014701596
 20
13.52543873649078
 30
0.0
 10
14.88964188758172
 20
13.52602027392261
 30
0.0
 10
14.91159539473684
 20
13.52631578947369
 30
0.0
  0
SPLINE
  5
110
330
1F
100
AcDbEntity
  8
0
  6
Continuous
 62
     7
370
    25
100
AcDbSpline
210
0.0
220
0.0
230
1.0
 70
     8
 71
     3
 72
    23
 73
    19
 74
     0
 42
0.00000001
 43
0.00000001
 40
0.0
 40
0.0
 40
0.0
 40
0.0
 40
0.0890782035980135
 40
0.1731012659497207
 40
0.251215932216149
 40
0.3240822449866004
 40
0.3914739910182296
 40
0.4557478282203902
 40
0.5152986787645767
 40
0.5718131270993605
 40
0.6256480454804315
 40
0.6779408314698141
 40
0.7295853943683606
 40
0.7801275173838128
 40
0.8313531258370049
 40
0.8852310949393758
 40
0.9409459135103042
 40
1.0
 40
1.0
 40
1.0
 40
1.0
 10
14.74506578947369
 20
12.44161184210527
 30
0.0
 10
14.72460556580277
 20
12.45291898814344
 30
0.0
 10
14.68484622540305
 20
12.47489160562368
 30
0.0
 10
14.62777083800538
 20
12.50791332000455
 30
0.0
 10
14.57554594985277
 20
12.54072587538671
 30
0.0
 10
14.52725873604631
 20
12.57159950588191
 30
0.0
 10
14.48347792077316
 20
12.60271048878082
 30
0.0
 10
14.44438182157652
 20
12.63420014511817
 30
0.0
 10
14.40886971233806
 20
12.66552920011
 30
0.0
 10
14.3778894396878
 20
12.69767444313286
 30
0.0
 10
14.35091555303775
 20
12.73080972626683
 30
0.0
 10
14.32758904183837
 20
12.76510669260554
 30
0.0
 10
14.30845905032489
 20
12.8009037861126
 30
0.0
 10
14.29226376053448
 20
12.83785702591719
 30
0.0
 10
14.28103153155968
 20
12.87721483252284
 30
0.0
 10
14.27224891007467
 20
12.91852865908053
 30
0.0
 10
14.26734983131462
 20
12.96260214185821
 30
0.0
 10
14.26675396837826
 20
12.99272436226331
 30
0.0
 10
14.26644736842105
 20
13.00822368421053
 30
0.0
  0
SPLINE
  5
111
330
1F
100
AcDbEntity
  8
0
  6
Continuous
 62
     7
370
    25
100
AcDbSpline
210
0.0
220
0.0
230
1.0
 70
     8
 71
     3
 72
    23
 73
    19
 74
     0
 42
0.00000001
 43
0.00000001
 40
0.0
 40
0.0
 40
0.0
 40
0.0
 40
0.0890782035980117
 40
0.1731012659497172
 40
0.2512159322161475
 40
0.3240822449866009
 40
0.3914739910182267
 40
0.4557478282203891
 40
0.5152986787645758
 40
0.5718131270993583
 40
0.6256480454804308
 40
0.6779408314698122
 40
0.7295853943683609
 40
0.7801275173838125
 40
0.8313531258370046
 40
0.8852310949393761
 40
0.940945913510304
 40
1.0
 40
1.0
 40
1.0
 40
1.0
 10
29.98190789473684
 20
12.44161184210526
 30
0.0
 10
29.96144767106593
 20
12.45291898814344
 30
0.0
 10
29.92168833066621
 20
12.47489160562367
 30
0.0
 10
29.86461294326854
 20
12.50791332000455
 30
0.0
 10
29.81238805511595
 20
12.54072587538672
 30
0.0
 10
29.76410084130946
 20
12.57159950588191
 30
0.0
 10
29.72032002603631
 20
12.60271048878082
 30
0.0
 10
29.68122392683969
 20
12.63420014511818
 30
0.0
 10
29.64571181760122
 20
12.66552920011
 30
0.0
 10
29.61473154495097
 20
12.69767444313286
 30
0.0
 10
29.58775765830091
 20
12.73080972626683
 30
0.0
 10
29.56443114710153
 20
12.76510669260554
 30
0.0
 10
29.54530115558805
 20
12.8009037861126
 30
0.0
 10
29.52910586579764
 20
12.83785702591719
 30
0.0
 10
29.51787363682283
 20
12.87721483252284
 30
0.0
 10
29.50909101533784
 20
12.91852865908054
 30
0.0
 10
29.50419193657778
 20
12.9626021418582
 30
0.0
 10
29.50359607364142
 20
12.99272436226331
 30
0.0
 10
29.50328947368421
 20
13.00822368421053
 30
0.0
  0
SPLINE
  5
112
330
1F
100
AcDbEntity
  8
0
  6
Continuous
 62
     7
370
    25
100
AcDbSpline
210
0.0
220
0.0
230
1.0
 70
     8
 71
     3
 72
    15
 73
    11
 74
     0
 42
0.00000001
 43
0.00000001
 40
0.0
 40
0.0
 40
0.0
 40
0.0
 40
0.1070717395911373
 40
0.2332592180509943
 40
0.3695921120930586
 40
0.5085377329509048
 40
0.6463651921241947
 40
0.7797155060185144
 40
0.9001013852308939
 40
1.0
 40
1.0
 40
1.0
 40
1.0
 10
23.51809210526317
 20
11.47368421052632
 30
0.0
 10
23.50081309370032
 20
11.47404074156576
 30
0.0
 10
23.46317021294358
 20
11.47481745586767
 30
0.0
 10
23.4037354520049
 20
11.48037315653908
 30
0.0
 10
23.33957660716433
 20
11.48941087620412
 30
0.0
 10
23.27389523948805
 20
11.50096422993486
 30
0.0
 10
23.20945964039345
 20
11.51625142089891
 30
0.0
 10
23.14864070376867
 20
11.5333076381494
 30
0.0
 10
23.09454931343566
 20
11.55207797976903
 30
0.0
 10
23.06316407102998
 20
11.56886663757576
 30
0.0
 10
23.04893092105264
 20
11.5764802631579
 30
0.0
  0
SPLINE
  5
113
330
1F
100
AcDbEntity
  8
0
  6
Continuous
 62
     7
370
    25
100
AcDbSpline
210
0.0
220
0.0
230
1.0
 70
     8
 71
     3
 72
    15
 73
    11
 74
     0
 42
0.00000001
 43
0.00000001
 40
0.0
 40
0.0
 40
0.0
 40
0.0
 40
0.1070717395911373
 40
0.2332592180509943
 40
0.3695921120930586
 40
0.5085377329509048
 40
0.6463651921241947
 40
0.7797155060185144
 40
0.9001013852308939
 40
1.0
 40
1.0
 40
1.0
 40
1.0
 10
29.96546052631579
 20
11.47368421052632
 30
0.0
 10
29.94818151475294
 20
11.47404074156576
 30
0.0
 10
29.91053863399621
 20
11.47481745586767
 30
0.0
 10
29.85110387305752
 20
11.48037315653908
 30
0.0
 10
29.78694502821695
 20
11.48941087620412
 30
0.0
 10
29.72126366054068
 20
11.50096422993486
 30
0.0
 10
29.65682806144608
 20
11.51625142089891
 30
0.0
 10
29.59600912482129
 20
11.5333076381494
 30
0.0
 10
29.54191773448829
 20
11.55207797976903
 30
0.0
 10
29.51053249208261
 20
11.56886663757576
 30
0.0
 10
29.49629934210526
 20
11.5764802631579
 30
0.0
  0
SPLINE
  5
114
330
1F
100
AcDbEntity
  8
0
  6
Continuous
 62
     7
370
    25
100
AcDbSpline
210
0.0
220
0.0
230
1.0
 70
     8
 71
     3
 72
    23
 73
    19
 74
     0
 42
0.00000001
 43
0.00000001
 40
0.0
 40
0.0
 40
0.0
 40
0.0
 40
0.0855083483142311
 40
0.1670073725931016
 40
0.2431562182382943
 40
0.3151463199497778
 40
0.3829150999251622
 40
0.4476277182179623
 40
0.509113399204223
 40
0.5680121205430205
 40
0.6245984072955946
 40
0.6788867628705322
 40
0.731740037237408
 40
0.7834120139185003
 40
0.8351142937846894
 40
0.8881549217638787
 40
0.9427190675572146
 40
1.0
 40
1.0
 40
1.0
 40
1.0
 10
23.68009868421053
 20
12.57606907894737
 30
0.0
 10
23.70031202738398
 20
12.56522199685164
 30
0.0
 10
23.73979094846331
 20
12.54403643173639
 30
0.0
 10
23.7961824124207
 20
12.51122779752986
 30
0.0
 10
23.84869202803038
 20
12.47900972250582
 30
0.0
 10
23.89730970068079
 20
12.44750993645654
 30
0.0
 10
23.94206227624719
 20
12.41575967815677
 30
0.0
 10
23.9828541380457
 20
12.38340102194427
 30
0.0
 10
24.01959780480096
 20
12.34994861284249
 30
0.0
 10
24.05261785449034
 20
12.3157914163861
 30
0.0
 10
24.08193402304412
 20
12.28088708853061
 30
0.0
 10
24.10734230528971
 20
12.24496812862458
 30
0.0
 10
24.12819415897584
 20
12.20776089347475
 30
0.0
 10
24.14595332085347
 20
12.16971392838516
 30
0.0
 10
24.15887783956216
 20
12.12972332775883
 30
0.0
 10
24.16916159894463
 20
12.08817372564805
 30
0.0
 10
24.17419945830258
 20
12.04411922710256
 30
0.0
 10
24.17510955575261
 20
12.01412688484114
 30
0.0
 10
24.17557565789474
 20
11.99876644736842
 30
0.0
  0
SPLINE
  5
115
330
1F
100
AcDbEntity
  8
0
  6
Continuous
 62
     7
370
    25
100
AcDbSpline
210
0.0
220
0.0
230
1.0
 70
     8
 71
     3
 72
    23
 73
    19
 74
     0
 42
0.00000001
 43
0.00000001
 40
0.0
 40
0.0
 40
0.0
 40
0.0
 40
0.0563983945190886
 40
0.1094886649949976
 40
0.1589381115363375
 40
0.2053620185695128
 40
0.2513541431635914
 40
0.2989573485591273
 40
0.3488855485645577
 40
0.4010535808341641
 40
0.456764059972128
 40
0.5171287110874421
 40
0.5820828517550687
 40
0.6516821994524449
 40
0.7277481237182772
 40
0.8109566670306964
 40
0.9021659719200268
 40
1.0
 40
1.0
 40
1.0
 40
1.0
 10
23.24876644736843
 20
13.02754934210527
 30
0.0
 10
23.24890773302757
 20
13.01505864062638
 30
0.0
 10
23.2491820170446
 20
12.99080989664287
 30
0.0
 10
23.25400999310354
 20
12.95590675214366
 30
0.0
 10
23.26071590765929
 20
12.92359343613307
 30
0.0
 10
23.27077921538029
 20
12.89377333464994
 30
0.0
 10
23.28414434155711
 20
12.86573367333155
 30
0.0
 10
23.30132985201018
 20
12.8389534929968
 30
0.0
 10
23.32148783239701
 20
12.81263713587693
 30
0.0
 10
23.34506312560795
 20
12.78677945209574
 30
0.0
 10
23.37319626112561
 20
12.76233974485094
 30
0.0
 10
23.4042453091903
 20
12.7370045128323
 30
0.0
 10
23.43985344162541
 20
12.71260026666386
 30
0.0
 10
23.47926959407614
 20
12.68772638691666
 30
0.0
 10
23.5231193331363
 20
12.66237236070678
 30
0.0
 10
23.57139806387227
 20
12.63515213448366
 30
0.0
 10
23.62418334443891
 20
12.60611771604669
 30
0.0
 10
23.66102982878984
 20
12.5863165909678
 30
0.0
 10
23.68009868421053
 20
12.57606907894737
 30
0.0
  0
SPLINE
  5
116
330
1F
100
AcDbEntity
  8
0
  6
Continuous
 62
     7
370
    25
100
AcDbSpline
210
0.0
220
0.0
230
1.0
 70
     8
 71
     3
 72
    23
 73
    19
 74
     0
 42
0.00000001
 43
0.00000001
 40
0.0
 40
0.0
 40
0.0
 40
0.0
 40
0.0563983945190886
 40
0.1094886649949976
 40
0.1589381115363375
 40
0.2053620185695128
 40
0.2513541431635914
 40
0.2989573485591273
 40
0.3488855485645577
 40
0.4010535808341641
 40
0.456764059972128
 40
0.5171287110874421
 40
0.5820828517550687
 40
0.6516821994524449
 40
0.7277481237182772
 40
0.8109566670306964
 40
0.9021659719200268
 40
1.0
 40
1.0
 40
1.0
 40
1.0
 10
29.69613486842105
 20
13.02754934210527
 30
0.0
 10
29.69627615408019
 20
13.01505864062638
 30
0.0
 10
29.69655043809722
 20
12.99080989664287
 30
0.0
 10
29.70137841415616
 20
12.95590675214366
 30
0.0
 10
29.70808432871192
 20
12.92359343613307
 30
0.0
 10
29.71814763643292
 20
12.89377333464994
 30
0.0
 10
29.73151276260973
 20
12.86573367333155
 30
0.0
 10
29.7486982730628
 20
12.8389534929968
 30
0.0
 10
29.76885625344964
 20
12.81263713587693
 30
0.0
 10
29.79243154666057
 20
12.78677945209574
 30
0.0
 10
29.82056468217823
 20
12.76233974485094
 30
0.0
 10
29.85161373024293
 20
12.7370045128323
 30
0.0
 10
29.88722186267804
 20
12.71260026666386
 30
0.0
 10
29.92663801512877
 20
12.68772638691666
 30
0.0
 10
29.97048775418892
 20
12.66237236070678
 30
0.0
 10
30.0187664849249
 20
12.63515213448366
 30
0.0
 10
30.07155176549153
 20
12.60611771604669
 30
0.0
 10
30.10839824984247
 20
12.5863165909678
 30
0.0
 10
30.12746710526316
 20
12.57606907894737
 30
0.0
  0
SPLINE
  5
117
330
1F
100
AcDbEntity
  8
0
  6
Continuous
 62
     7
370
    25
100
AcDbSpline
210
0.0
220
0.0
230
1.0
 70
     8
 71
     3
 72
    15
 73
    11
 74
     0
 42
0.00000001
 43
0.00000001
 40
0.0
 40
0.0
 40
0.0
 40
0.0
 40
0.1178576395807977
 40
0.2366815466605249
 40
0.3571390188085115
 40
0.4792081971414526
 40
0.6048199722696384
 40
0.7322572868753674
 40
0.8644015873742361
 40
1.0
 40
1.0
 40
1.0
 40
1.0
 10
24.09375000000001
 20
13.26726973684211
 30
0.0
 10
24.07893116764695
 20
13.27545720358015
 30
0.0
 10
24.04917200928012
 20
13.29189926281095
 30
0.0
 10
24.00206068752048
 20
13.31236617858159
 30
0.0
 10
23.95304498230064
 20
13.32943113727292
 30
0.0
 10
23.90225567135058
 20
13.34430826010553
 30
0.0
 10
23.84928707720696
 20
13.35431543785863
 30
0.0
 10
23.79465938390102
 20
13.36312647670941
 30
0.0
 10
23.7380048439558
 20
13.36733056697984
 30
0.0
 10
23.69956603539647
 20
13.36805444453256
 30
0.0
 10
23.68009868421053
 20
13.36842105263158
 30
0.0
  0
SPLINE
  5
118
330
1F
100
AcDbEntity
  8
0
  6
Continuous
 62
     7
370
    25
100
AcDbSpline
210
0.0
220
0.0
230
1.0
 70
     8
 71
     3
 72
    23
 73
    19
 74
     0
 42
0.00000001
 43
0.00000001
 40
0.0
 40
0.0
 40
0.0
 40
0.0
 40
0.0855083483142311
 40
0.1670073725931016
 40
0.2431562182382943
 40
0.3151463199497778
 40
0.3829150999251622
 40
0.4476277182179623
 40
0.509113399204223
 40
0.5680121205430205
 40
0.6245984072955946
 40
0.6788867628705322
 40
0.731740037237408
 40
0.7834120139185003
 40
0.8351142937846894
 40
0.8881549217638787
 40
0.9427190675572146
 40
1.0
 40
1.0
 40
1.0
 40
1.0
 10
30.12746710526316
 20
12.57606907894737
 30
0.0
 10
30.14768044843661
 20
12.56522199685164
 30
0.0
 10
30.18715936951593
 20
12.54403643173639
 30
0.0
 10
30.24355083347332
 20
12.51122779752986
 30
0.0
 10
30.29606044908301
 20
12.47900972250582
 30
0.0
 10
30.34467812173342
 20
12.44750993645654
 30
0.0
 10
30.38943069729982
 20
12.41575967815677
 30
0.0
 10
30.43022255909832
 20
12.38340102194427
 30
0.0
 10
30.46696622585359
 20
12.34994861284249
 30
0.0
 10
30.49998627554296
 20
12.3157914163861
 30
0.0
 10
30.52930244409674
 20
12.28088708853061
 30
0.0
 10
30.55471072634233
 20
12.24496812862458
 30
0.0
 10
30.57556258002846
 20
12.20776089347475
 30
0.0
 10
30.59332174190609
 20
12.16971392838516
 30
0.0
 10
30.60624626061479
 20
12.12972332775883
 30
0.0
 10
30.61653001999725
 20
12.08817372564805
 30
0.0
 10
30.6215678793552
 20
12.04411922710256
 30
0.0
 10
30.62247797680524
 20
12.01412688484114
 30
0.0
 10
30.62294407894737
 20
11.99876644736842
 30
0.0
  0
SPLINE
  5
119
330
1F
100
AcDbEntity
  8
0
  6
Continuous
 62
     7
370
    25
100
AcDbSpline
210
0.0
220
0.0
230
1.0
 70
     8
 71
     3
 72
    23
 73
    19
 74
     0
 42
0.00000001
 43
0.00000001
 40
0.0
 40
0.0
 40
0.0
 40
0.0
 40
0.0890782035980117
 40
0.1731012659497172
 40
0.2512159322161475
 40
0.3240822449866009
 40
0.3914739910182267
 40
0.4557478282203891
 40
0.5152986787645758
 40
0.5718131270993583
 40
0.6256480454804308
 40
0.6779408314698122
 40
0.7295853943683609
 40
0.7801275173838125
 40
0.8313531258370046
 40
0.8852310949393761
 40
0.940945913510304
 40
1.0
 40
1.0
 40
1.0
 40
1.0
 10
23.53453947368422
 20
12.44161184210526
 30
0.0
 10
23.51407925001331
 20
12.45291898814344
 30
0.0
 10
23.47431990961358
 20
12.47489160562367
 30
0.0
 10
23.41724452221591
 20
12.50791332000455
 30
0.0
 10
23.36501963406332
 20
12.54072587538672
 30
0.0
 10
23.31673242025684
 20
12.57159950588191
 30
0.0
 10
23.27295160498369
 20
12.60271048878082
 30
0.0
 10
23.23385550578706
 20
12.63420014511818
 30
0.0
 10
23.19834339654859
 20
12.66552920011
 30
0.0
 10
23.16736312389835
 20
12.69767444313286
 30
0.0
 10
23.14038923724828
 20
12.73080972626683
 30
0.0
 10
23.1170627260489
 20
12.76510669260554
 30
0.0
 10
23.09793273453542
 20
12.8009037861126
 30
0.0
 10
23.08173744474501
 20
12.83785702591719
 30
0.0
 10
23.07050521577021
 20
12.87721483252284
 30
0.0
 10
23.0617225942852
 20
12.91852865908054
 30
0.0
 10
23.05682351552515
 20
12.9626021418582
 30
0.0
 10
23.0562276525888
 20
12.99272436226331
 30
0.0
 10
23.05592105263159
 20
13.00822368421053
 30
0.0
  0
SPLINE
  5
11A
330
1F
100
AcDbEntity
  8
0
  6
Continuous
 62
     7
370
    25
100
AcDbSpline
210
0.0
220
0.0
230
1.0
 70
     8
 71
     3
 72
    15
 73
    11
 74
     0
 42
0.00000001
 43
0.00000001
 40
0.0
 40
0.0
 40
0.0
 40
0.0
 40
0.1178576395807982
 40
0.2366815466605259
 40
0.3571390188085167
 40
0.4792081971414545
 40
0.6048199722696408
 40
0.7322572868753704
 40
0.8644015873742397
 40
1.0
 40
1.0
 40
1.0
 40
1.0
 10
15.30427631578947
 20
13.26726973684211
 30
0.0
 10
15.28945748343641
 20
13.27545720358014
 30
0.0
 10
15.25969832506958
 20
13.29189926281095
 30
0.0
 10
15.21258700330994
 20
13.31236617858159
 30
0.0
 10
15.1635712980901
 20
13.32943113727292
 30
0.0
 10
15.11278198714005
 20
13.34430826010553
 30
0.0
 10
15.05981339299642
 20
13.35431543785863
 30
0.0
 10
15.00518569969049
 20
13.36312647670942
 30
0.0
 10
14.94853115974527
 20
13.36733056697984
 30
0.0
 10
14.91009235118593
 20
13.36805444453256
 30
0.0
 10
14.890625
 20
13.36842105263158
 30
0.0
  0
SPLINE
  5
11E
330
1F
100
AcDbEntity
  8
0
  6
Continuous
 62
     7
370
    25
100
AcDbSpline
210
0.0
220
0.0
230
1.0
 70
     8
 71
     3
 72
    23
 73
    19
 74
     0
 42
0.00000001
 43
0.00000001
 40
0.0
 40
0.0
 40
0.0
 40
0.0
 40
0.0667274881089066
 40
0.1295704825353576
 40
0.1902023573109111
 40
0.2487321058245063
 40
0.3056198140219535
 40
0.3618379691792918
 40
0.418300829476037
 40
0.4751475621280535
 40
0.5331574506069483
 40
0.5914211836611217
 40
0.6513411008910934
 40
0.7140696637260677
 40
0.779823917215469
 40
0.8493894627207798
 40
0.9226847304422952
 40
1.0
 40
1.0
 40
1.0
 40
1.0
 10
34.16981907894737
 20
12.95641447368421
 30
0.0
 10
34.16957056705606
 20
12.97110069767342
 30
0.0
 10
34.16908801021803
 20
12.99961819747499
 30
0.0
 10
34.16340262447072
 20
13.04113736962842
 30
0.0
 10
34.15507389396272
 20
13.08035248189487
 30
0.0
 10
34.14254597021949
 20
13.1170672311089
 30
0.0
 10
34.12703275020461
 20
13.15157674859697
 30
0.0
 10
34.10732859974355
 20
13.18332630284393
 30
0.0
 10
34.08491452083592
 20
13.21323370400686
 30
0.0
 10
34.05816861092116
 20
13.23990275245481
 30
0.0
 10
34.02884506245976
 20
13.26431414376772
 30
0.0
 10
33.99585749379501
 20
13.28484091445322
 30
0.0
 10
33.96022663327199
 20
13.30264429221084
 30
0.0
 10
33.92148912176359
 20
13.31758917696798
 30
0.0
 10
33.87924070389943
 20
13.32853110420998
 30
0.0
 10
33.83395770689644
 20
13.33609544355349
 30
0.0
 10
33.78575345511404
 20
13.3412588257836
 30
0.0
 10
33.75261832746217
 20
13.34181814106906
 30
0.0
 10
33.73560855263158
 20
13.3421052631579
 30
0.0
  0
SPLINE
  5
11F
330
1F
100
AcDbEntity
  8
0
  6
Continuous
 62
     7
370
    25
100
AcDbSpline
210
0.0
220
0.0
230
1.0
 70
     8
 71
     3
 72
    23
 73
    19
 74
     0
 42
0.00000001
 43
0.00000001
 40
0.0
 40
0.0
 40
0.0
 40
0.0
 40
0.0698762844538677
 40
0.137191037685984
 40
0.2019731512734494
 40
0.2658106228553529
 40
0.3281339468220011
 40
0.3882534185234238
 40
0.4469945106810171
 40
0.5048381085075129
 40
0.562939971096808
 40
0.6211394963790202
 40
0.679294649859853
 40
0.7396540975971329
 40
0.8018115206733215
 40
0.8650014019990644
 40
0.9312960195931873
 40
1.0
 40
1.0
 40
1.0
 40
1.0
 10
33.7203947368421
 20
12.52631578947368
 30
0.0
 10
33.73671616860079
 20
12.5267769845772
 30
0.0
 10
33.76876071958108
 20
12.52768246825199
 30
0.0
 10
33.81574742956705
 20
12.53283097647509
 30
0.0
 10
33.86055268125715
 20
12.54251829093716
 30
0.0
 10
33.90327936165357
 20
12.55552468474693
 30
0.0
 10
33.94354135494465
 20
12.57227573323093
 30
0.0
 10
33.98070323049362
 20
12.59266295312575
 30
0.0
 10
34.01513555412495
 20
12.61557228893466
 30
0.0
 10
34.04617752968396
 20
12.64221281956387
 30
0.0
 10
34.07416513888752
 20
12.67183328608653
 30
0.0
 10
34.0989123953313
 20
12.7043286125722
 30
0.0
 10
34.12006047309358
 20
12.73987207313262
 30
0.0
 10
34.13817943467895
 20
12.77805831257224
 30
0.0
 10
34.15265914995023
 20
12.81907119083441
 30
0.0
 10
34.16230630328626
 20
12.8628607641311
 30
0.0
 10
34.16871853755072
 20
12.90880141250877
 30
0.0
 10
34.16944789280362
 20
12.94035573330068
 30
0.0
 10
34.16981907894738
 20
12.95641447368421
 30
0.0
  0
SPLINE
  5
120
330
1F
100
AcDbEntity
  8
0
  6
Continuous
 62
     7
370
    25
100
AcDbSpline
210
0.0
220
0.0
230
1.0
 70
     8
 71
     3
 72
    23
 73
    19
 74
     0
 42
0.00000001
 43
0.00000001
 40
0.0
 40
0.0
 40
0.0
 40
0.0
 40
0.0660730736737323
 40
0.1311178546699358
 40
0.1955236017303086
 40
0.2592065398538041
 40
0.3217605834649248
 40
0.3826370213345121
 40
0.4421861520283276
 40
0.5012557738656471
 40
0.5597524263830488
 40
0.6180998434386007
 40
0.6770577815950785
 40
0.7371206204815028
 40
0.7988831681905254
 40
0.8628295961244558
 40
0.9293558871692054
 40
1.0
 40
1.0
 40
1.0
 40
1.0
 10
31.12253289473684
 20
12.49629934210527
 30
0.0
 10
31.12299050072954
 20
12.4681867923293
 30
0.0
 10
31.12389859101069
 20
12.41239920729689
 30
0.0
 10
31.1316787787697
 20
12.32947206836692
 30
0.0
 10
31.14591310180656
 20
12.24848946898993
 30
0.0
 10
31.16482866647584
 20
12.16954539404264
 30
0.0
 10
31.19025362306044
 20
12.09398463469933
 30
0.0
 10
31.22164059434336
 20
12.02264909890441
 30
0.0
 10
31.25822512252935
 20
11.95549205792647
 30
0.0
 10
31.30104535768621
 20
11.89331714471294
 30
0.0
 10
31.34971874570241
 20
11.83629679426846
 30
0.0
 10
31.4042447385312
 20
11.78485120204787
 30
0.0
 10
31.46513007811004
 20
11.7400021380013
 30
0.0
 10
31.53158101186837
 20
11.70099716631339
 30
0.0
 10
31.60428796482872
 20
11.66938459782759
 30
0.0
 10
31.68330254604208
 20
11.64748978989516
 30
0.0
 10
31.76804457676687
 20
11.63405653421984
 30
0.0
 10
31.82642844284
 20
11.63242117402253
 30
0.0
 10
31.85649671052631
 20
11.63157894736842
 30
0.0
  0
SPLINE
  5
121
330
1F
100
AcDbEntity
  8
0
  6
Continuous
 62
     7
370
    25
100
AcDbSpline
210
0.0
220
0.0
230
1.0
 70
     8
 71
     3
 72
    23
 73
    19
 74
     0
 42
0.00000001
 43
0.00000001
 40
0.0
 40
0.0
 40
0.0
 40
0.0
 40
0.0677638313365805
 40
0.133892942013765
 40
0.1986082807965174
 40
0.2625507624425774
 40
0.3248983407379765
 40
0.3854828834656915
 40
0.443954594290345
 40
0.501912485525919
 40
0.5592692560393923
 40
0.6164834586256568
 40
0.6743188013410207
 40
0.7336871639148062
 40
0.7949845052713499
 40
0.8592415350997893
 40
0.9270663535581017
 40
1.0
 40
1.0
 40
1.0
 40
1.0
 10
32.60896381578947
 20
12.50082236842105
 30
0.0
 10
32.60857829418473
 20
12.52990141837433
 30
0.0
 10
32.60781655121878
 20
12.58735802129087
 30
0.0
 10
32.59909719311058
 20
12.67220272052548
 30
0.0
 10
32.58610398374884
 20
12.75477787975511
 30
0.0
 10
32.56786323813586
 20
12.83474479661926
 30
0.0
 10
32.5436728522417
 20
12.91126569743919
 30
0.0
 10
32.51392223563708
 20
12.98329630645956
 30
0.0
 10
32.47777074394896
 20
13.05023866714329
 30
0.0
 10
32.43574889911774
 20
13.11193783370554
 30
0.0
 10
32.38821597969716
 20
13.16892424923845
 30
0.0
 10
32.33319735247814
 20
13.21861596854617
 30
0.0
 10
32.27295424553343
 20
13.26324475199622
 30
0.0
 10
32.20586807446703
 20
13.30054136564935
 30
0.0
 10
32.13263477246696
 20
13.33153586257206
 30
0.0
 10
32.05228405439311
 20
13.35308375197023
 30
0.0
 10
31.96504854202002
 20
13.3658620874391
 30
0.0
 10
31.90465040615416
 20
13.36754767147851
 30
0.0
 10
31.87335526315789
 20
13.36842105263158
 30
0.0
  0
SPLINE
  5
122
330
1F
100
AcDbEntity
  8
0
  6
Continuous
 62
     7
370
    25
100
AcDbSpline
210
0.0
220
0.0
230
1.0
 70
     8
 71
     3
 72
    23
 73
    19
 74
     0
 42
0.00000001
 43
0.00000001
 40
0.0
 40
0.0
 40
0.0
 40
0.0
 40
0.0696870803516032
 40
0.1352467191379956
 40
0.1979491244551177
 40
0.2583579479256838
 40
0.3171028983421908
 40
0.3747640274565701
 40
0.4315008662428462
 40
0.4883778342840198
 40
0.5460979748637841
 40
0.605091254685462
 40
0.6655597199346683
 40
0.7282054095368232
 40
0.7932105822834179
 40
0.8597502990375708
 40
0.9287681877370629
 40
1.0
 40
1.0
 40
1.0
 40
1.0
 10
31.85649671052631
 20
11.63157894736842
 30
0.0
 10
31.88669882498141
 20
11.63229937871776
 30
0.0
 10
31.94531423648198
 20
11.63369757155166
 30
0.0
 10
32.03030076415788
 20
11.64649705670891
 30
0.0
 10
32.10974154751809
 20
11.66626656580809
 30
0.0
 10
32.18340931995855
 20
11.6948173303356
 30
0.0
 10
32.25102144825594
 20
11.73104898661851
 30
0.0
 10
32.31364626489179
 20
11.77264891839372
 30
0.0
 10
32.36929338367236
 20
11.82198486991978
 30
0.0
 10
32.41995994724231
 20
11.87638771786377
 30
0.0
 10
32.4643753178166
 20
11.93726237802983
 30
0.0
 10
32.5031540582376
 20
12.00364266312278
 30
0.0
 10
32.53559425205714
 20
12.07568556662659
 30
0.0
 10
32.56227651216047
 20
12.15278276203621
 30
0.0
 10
32.58295658158754
 20
12.23440446493543
 30
0.0
 10
32.59827463077285
 20
12.31998035376733
 30
0.0
 10
32.60744646384623
 20
12.40920054953836
 30
0.0
 10
32.6084527369386
 20
12.46996204355244
 30
0.0
 10
32.60896381578947
 20
12.50082236842105
 30
0.0
  0
SPLINE
  5
123
330
1F
100
AcDbEntity
  8
0
  6
Continuous
 62
     7
370
    25
100
AcDbSpline
210
0.0
220
0.0
230
1.0
 70
     8
 71
     3
 72
    23
 73
    19
 74
     0
 42
0.00000001
 43
0.00000001
 40
0.0
 40
0.0
 40
0.0
 40
0.0
 40
0.067942741234691
 40
0.1327294416292416
 40
0.1949522262439251
 40
0.2557721368429173
 40
0.3152405688709171
 40
0.3736761854606371
 40
0.4319030406212119
 40
0.4905535967256602
 40
0.5496205198961184
 40
0.6096071496123036
 40
0.6710363453149768
 40
0.7343143288084343
 40
0.7989936463421352
 40
0.8644705560342576
 40
0.9314505885568347
 40
1.0
 40
1.0
 40
1.0
 40
1.0
 10
31.87335526315789
 20
13.36842105263158
 30
0.0
 10
31.84411633586772
 20
13.3675178366368
 30
0.0
 10
31.78699667271407
 20
13.36575336036635
 30
0.0
 10
31.70385382955842
 20
13.35299693323108
 30
0.0
 10
31.6258211168481
 20
13.33117024505568
 30
0.0
 10
31.55338558755864
 20
13.30039886691543
 30
0.0
 10
31.4859677721367
 20
13.26305880219883
 30
0.0
 10
31.42453548222823
 20
13.21845144732418
 30
0.0
 10
31.36759191312643
 20
13.1687677267152
 30
0.0
 10
31.31713160806217
 20
13.11208367168439
 30
0.0
 10
31.27228167321019
 20
13.05004736950946
 30
0.0
 10
31.23241928366776
 20
12.98325252937384
 30
0.0
 10
31.19926659181061
 20
12.91087990172816
 30
0.0
 10
31.17190240255325
 20
12.83403885030923
 30
0.0
 10
31.15015756009048
 20
12.75361042675709
 30
0.0
 10
31.13455049968784
 20
12.67016211125744
 30
0.0
 10
31.12497949607312
 20
12.58410094067182
 30
0.0
 10
31.1233547000204
 20
12.52579160818764
 30
0.0
 10
31.12253289473684
 20
12.49629934210527
 30
0.0
  0
SPLINE
  5
126
330
1F
100
AcDbEntity
  8
0
  6
Continuous
 62
     7
370
    25
100
AcDbSpline
210
0.0
220
0.0
230
1.0
 70
     8
 71
     3
 72
    11
 73
     7
 74
     0
 42
0.00000001
 43
0.00000001
 40
0.0
 40
0.0
 40
0.0
 40
0.0
 40
0.2087579911902158
 40
0.4425142720868103
 40
0.7073029087953522
 40
1.0
 40
1.0
 40
1.0
 40
1.0
 10
11.86184210526316
 20
13.15049342105264
 30
0.0
 10
11.85852159534844
 20
13.16007688511808
 30
0.0
 10
11.85148295208745
 20
13.18039141104743
 30
0.0
 10
11.84090128236734
 20
13.21309503666979
 30
0.0
 10
11.8314355770563
 20
13.25039934990455
 30
0.0
 10
11.82683813832623
 20
13.27709984362011
 30
0.0
 10
11.82442434210527
 20
13.29111842105264
 30
0.0
  0
SPLINE
  5
129
330
1F
100
AcDbEntity
  8
0
  6
Continuous
 62
     7
370
    25
100
AcDbSpline
210
0.0
220
0.0
230
1.0
 70
     8
 71
     3
 72
    11
 73
     7
 74
     0
 42
0.00000001
 43
0.00000001
 40
0.0
 40
0.0
 40
0.0
 40
0.0
 40
0.2936676990750829
 40
0.5585332318149764
 40
0.791736173233611
 40
1.0
 40
1.0
 40
1.0
 40
1.0
 10
11.81907894736842
 20
13.29111842105264
 30
0.0
 10
11.81619514915151
 20
13.27710871073398
 30
0.0
 10
11.81071038816803
 20
13.25046332615231
 30
0.0
 10
11.80091192679193
 20
13.21314574570829
 30
0.0
 10
11.79038718255354
 20
13.18038766164254
 30
0.0
 10
11.78334066976585
 20
13.16007568328856
 30
0.0
 10
11.78001644736842
 20
13.15049342105264
 30
0.0
  0
SPLINE
  5
12D
330
1F
100
AcDbEntity
  8
0
  6
Continuous
 62
     7
370
    25
100
AcDbSpline
210
0.0
220
0.0
230
1.0
 70
     8
 71
     3
 72
    23
 73
    19
 74
     0
 42
0.00000001
 43
0.00000001
 40
0.0
 40
0.0
 40
0.0
 40
0.0
 40
0.0716195103099258
 40
0.1397600777344196
 40
0.2049154928449535
 40
0.2672616993505809
 40
0.3273700637526211
 40
0.3854788385200583
 40
0.4422564275876323
 40
0.4984187834601281
 40
0.5547053404292682
 40
0.6115066060797837
 40
0.6697793618100759
 40
0.729955517350962
 40
0.7925579065587379
 40
0.858118798697865
 40
0.9272031696122909
 40
0.9999999999999999
 40
0.9999999999999999
 40
0.9999999999999999
 40
0.9999999999999999
 10
21.66899671052632
 20
11.65789473684211
 30
0.0
 10
21.702327370135
 20
11.65864720518284
 30
0.0
 10
21.76736964084712
 20
11.66011559045019
 30
0.0
 10
21.86231990456365
 20
11.6703267222199
 30
0.0
 10
21.95175856574932
 20
11.68793622973093
 30
0.0
 10
22.03567150251273
 20
11.71252448771047
 30
0.0
 10
22.11365551608628
 20
11.74420516115354
 30
0.0
 10
22.18567820452136
 20
11.78253646352633
 30
0.0
 10
22.25152576704194
 20
11.8275705005499
 30
0.0
 10
22.3110974010653
 20
11.87932753034226
 30
0.0
 10
22.36451811877246
 20
11.93746263492903
 30
0.0
 10
22.41077555030724
 20
12.00266277181971
 30
0.0
 10
22.45026946039506
 20
12.07418952107198
 30
0.0
 10
22.48324879687501
 20
12.1518762990618
 30
0.0
 10
22.50918943947922
 20
12.23575905369562
 30
0.0
 10
22.52745122516108
 20
12.32583342944027
 30
0.0
 10
22.53872630913673
 20
12.42186236976997
 30
0.0
 10
22.54003550878011
 20
12.48790659492365
 30
0.0
 10
22.54070723684211
 20
12.5217927631579
 30
0.0
  0
SPLINE
  5
12E
330
1F
100
AcDbEntity
  8
0
  6
Continuous
 62
     7
370
    25
100
AcDbSpline
210
0.0
220
0.0
230
1.0
 70
     8
 71
     3
 72
    23
 73
    19
 74
     0
 42
0.00000001
 43
0.00000001
 40
0.0
 40
0.0
 40
0.0
 40
0.0
 40
0.0734343548101916
 40
0.1423615037738732
 40
0.2072532380817127
 40
0.2687836330146045
 40
0.3274120668520304
 40
0.3840024217681691
 40
0.4390370472005424
 40
0.4933448667236632
 40
0.5482154591484791
 40
0.6038162540025453
 40
0.6615960663544987
 40
0.7218691347304234
 40
0.7853623799404913
 40
0.8525275491773922
 40
0.9238375433427538
 40
1.0
 40
1.0
 40
1.0
 40
1.0
 10
22.54070723684211
 20
12.5217927631579
 30
0.0
 10
22.54010195625723
 20
12.55498435506359
 30
0.0
 10
22.53892854560372
 20
12.61933032703484
 30
0.0
 10
22.52915749525993
 20
12.71263358301158
 30
0.0
 10
22.51214586483736
 20
12.79934906292432
 30
0.0
 10
22.48957341919448
 20
12.88001790827029
 30
0.0
 10
22.45929080894492
 20
12.95411516568396
 30
0.0
 10
22.42273866004826
 20
13.02200219054431
 30
0.0
 10
22.37929435414215
 20
13.08336728915918
 30
0.0
 10
22.32903365911931
 20
13.13823901140057
 30
0.0
 10
22.27200637712345
 20
13.18642778680706
 30
0.0
 10
22.20836023132082
 20
13.22833891986586
 30
0.0
 10
22.13812233688873
 20
13.26373900402054
 30
0.0
 10
22.06108620602895
 20
13.29236136672529
 30
0.0
 10
21.97770098139487
 20
13.31500605877406
 30
0.0
 10
21.88769544277386
 20
13.33078924437328
 30
0.0
 10
21.79104843265
 20
13.34027037313315
 30
0.0
 10
21.72439197346783
 20
13.34148036191347
 30
0.0
 10
21.68996710526316
 20
13.3421052631579
 30
0.0
  0
LINE
  5
12F
330
1F
100
AcDbEntity
  8
0
  6
Continuous
 62
     7
370
    25
100
AcDbLine
 10
17.8852796053
 20
13.1504934211
 30
0.0
 11
17.5633223684
 21
12.2631578947
 31
0.0
  0
LINE
  5
130
330
1F
100
AcDbEntity
  8
0
  6
Continuous
 62
     7
370
    25
100
AcDbLine
 10
18.2919407895
 20
12.2631578947
 30
0.0
 11
17.9671052632
 21
13.1504934211
 31
0.0
  0
LINE
  5
131
330
1F
100
AcDbEntity
  8
0
  6
Continuous
 62
     7
370
    25
100
AcDbLine
 10
17.5633223684
 20
12.2631578947
 30
0.0
 11
18.2919407895
 21
12.2631578947
 31
0.0
  0
LINE
  5
132
330
1F
100
AcDbEntity
  8
0
  6
Continuous
 62
     7
370
    25
100
AcDbLine
 10
17.9296875
 20
13.2911184211
 30
0.0
 11
17.9243421053
 21
13.2911184211
 31
0.0
  0
LINE
  5
133
330
1F
100
AcDbEntity
  8
0
  6
Continuous
 62
     7
370
    25
100
AcDbLine
 10
11.734375
 20
13.5
 30
0.0
 11
11.9202302632
 21
13.5
 31
0.0
  0
LINE
  5
134
330
1F
100
AcDbEntity
  8
0
  6
Continuous
 62
     7
370
    25
100
AcDbLine
 10
10.9765625
 20
11.5
 30
0.0
 11
11.734375
 21
13.5
 31
0.0
  0
LINE
  5
135
330
1F
100
AcDbEntity
  8
0
  6
Continuous
 62
     7
370
    25
100
AcDbLine
 10
11.1821546053
 20
11.5
 30
0.0
 11
10.9765625
 21
11.5
 31
0.0
  0
LINE
  5
136
330
1F
100
AcDbEntity
  8
0
  6
Continuous
 62
     7
370
    25
100
AcDbLine
 10
12.2491776316
 20
12.1052631579
 30
0.0
 11
11.3955592105
 21
12.1052631579
 31
0.0
  0
LINE
  5
137
330
1F
100
AcDbEntity
  8
0
  6
Continuous
 62
     7
370
    25
100
AcDbLine
 10
12.4683388158
 20
11.5
 30
0.0
 11
12.2491776316
 21
12.1052631579
 31
0.0
  0
LINE
  5
138
330
1F
100
AcDbEntity
  8
0
  6
Continuous
 62
     7
370
    25
100
AcDbLine
 10
12.6739309211
 20
11.5
 30
0.0
 11
12.4683388158
 21
11.5
 31
0.0
  0
LINE
  5
139
330
1F
100
AcDbEntity
  8
0
  6
Continuous
 62
     7
370
    25
100
AcDbLine
 10
11.9202302632
 20
13.5
 30
0.0
 11
12.6739309211
 21
11.5
 31
0.0
  0
LINE
  5
13A
330
1F
100
AcDbEntity
  8
0
  6
Continuous
 62
     7
370
    25
100
AcDbLine
 10
20.46875
 20
13.5
 30
0.0
 11
20.6546052632
 21
13.5
 31
0.0
  0
LINE
  5
13B
330
1F
100
AcDbEntity
  8
0
  6
Continuous
 62
     7
370
    25
100
AcDbLine
 10
20.46875
 20
12.0135690789
 30
0.0
 11
20.46875
 21
13.5
 31
0.0
  0
LINE
  5
13C
330
1F
100
AcDbEntity
  8
0
  6
Continuous
 62
     7
370
    25
100
AcDbLine
 10
20.4728618421
 20
11.7833059211
 30
0.0
 11
20.4798519737
 21
11.7833059211
 31
0.0
  0
LINE
  5
13D
330
1F
100
AcDbEntity
  8
0
  6
Continuous
 62
     7
370
    25
100
AcDbLine
 10
19.3042763158
 20
13.5
 30
0.0
 11
20.3910361842
 21
11.9144736842
 31
0.0
  0
LINE
  5
13E
330
1F
100
AcDbEntity
  8
0
  6
Continuous
 62
     7
370
    25
100
AcDbLine
 10
19.1003289474
 20
13.5
 30
0.0
 11
19.3042763158
 21
13.5
 31
0.0
  0
LINE
  5
13F
330
1F
100
AcDbEntity
  8
0
  6
Continuous
 62
     7
370
    25
100
AcDbLine
 10
19.1003289474
 20
11.5
 30
0.0
 11
19.1003289474
 21
13.5
 31
0.0
  0
LINE
  5
140
330
1F
100
AcDbEntity
  8
0
  6
Continuous
 62
     7
370
    25
100
AcDbLine
 10
19.2849506579
 20
11.5
 30
0.0
 11
19.1003289474
 21
11.5
 31
0.0
  0
LINE
  5
141
330
1F
100
AcDbEntity
  8
0
  6
Continuous
 62
     7
370
    25
100
AcDbLine
 10
19.2849506579
 20
13.0493421053
 30
0.0
 11
19.2849506579
 21
11.5
 31
0.0
  0
LINE
  5
142
330
1F
100
AcDbEntity
  8
0
  6
Continuous
 62
     7
370
    25
100
AcDbLine
 10
19.2849506579
 20
13.2306743421
 30
0.0
 11
19.2779605263
 21
13.2306743421
 31
0.0
  0
LINE
  5
143
330
1F
100
AcDbEntity
  8
0
  6
Continuous
 62
     7
370
    25
100
AcDbLine
 10
20.4629934211
 20
11.5
 30
0.0
 11
19.3585526316
 21
13.1052631579
 31
0.0
  0
LINE
  5
144
330
1F
100
AcDbEntity
  8
0
  6
Continuous
 62
     7
370
    25
100
AcDbLine
 10
20.6546052632
 20
11.5
 30
0.0
 11
20.4629934211
 21
11.5
 31
0.0
  0
LINE
  5
145
330
1F
100
AcDbEntity
  8
0
  6
Continuous
 62
     7
370
    25
100
AcDbLine
 10
20.6546052632
 20
13.5
 30
0.0
 11
20.6546052632
 21
11.5
 31
0.0
  0
LINE
  5
146
330
1F
100
AcDbEntity
  8
0
  6
Continuous
 62
     7
370
    25
100
AcDbLine
 10
21.1792763158
 20
13.5
 30
0.0
 11
21.7023026316
 21
13.5
 31
0.0
  0
LINE
  5
147
330
1F
100
AcDbEntity
  8
0
  6
Continuous
 62
     7
370
    25
100
AcDbLine
 10
21.1792763158
 20
11.5
 30
0.0
 11
21.1792763158
 21
13.5
 31
0.0
  0
LINE
  5
148
330
1F
100
AcDbEntity
  8
0
  6
Continuous
 62
     7
370
    25
100
AcDbLine
 10
21.6772203947
 20
11.5
 30
0.0
 11
21.1792763158
 21
11.5
 31
0.0
  0
LINE
  5
149
330
1F
100
AcDbEntity
  8
0
  6
Continuous
 62
     7
370
    25
100
AcDbLine
 10
33.2055921053
 20
11.5
 30
0.0
 11
33.2055921053
 21
13.5
 31
0.0
  0
LINE
  5
14A
330
1F
100
AcDbEntity
  8
0
  6
Continuous
 62
     7
370
    25
100
AcDbLine
 10
33.3902138158
 20
12.3684210526
 30
0.0
 11
33.3902138158
 21
11.5
 31
0.0
  0
LINE
  5
14B
330
1F
100
AcDbEntity
  8
0
  6
Continuous
 62
     7
370
    25
100
AcDbLine
 10
34.1714638158
 20
12.1151315789
 30
0.0
 11
34.5057565789
 21
11.5
 31
0.0
  0
LINE
  5
14C
330
1F
100
AcDbEntity
  8
0
  6
Continuous
 62
     7
370
    25
100
AcDbLine
 10
0.0
 20
0.0
 30
0.0
 11
0.0
 21
37.0
 31
0.0
  0
LINE
  5
14D
330
1F
100
AcDbEntity
  8
0
  6
Continuous
 62
     7
370
    25
100
AcDbLine
 10
0.0
 20
37.0
 30
0.0
 11
12.5
 21
37.0
 31
0.0
  0
LINE
  5
14E
330
1F
100
AcDbEntity
  8
0
  6
Continuous
 62
     7
370
    25
100
AcDbLine
 10
12.5
 20
37.0
 30
0.0
 11
14.5
 21
39.5
 31
0.0
  0
LINE
  5
14F
330
1F
100
AcDbEntity
  8
0
  6
Continuous
 62
     7
370
    25
100
AcDbLine
 10
31.0
 20
39.5
 30
0.0
 11
29.0
 21
37.0
 31
0.0
  0
LINE
  5
150
330
1F
100
AcDbEntity
  8
0
  6
Continuous
 62
     7
370
    25
100
AcDbLine
 10
33.0
 20
37.0
 30
0.0
 11
45.5
 21
37.0
 31
0.0
  0
LINE
  5
151
330
1F
100
AcDbEntity
  8
0
  6
Continuous
 62
     7
370
    25
100
AcDbLine
 10
45.5
 20
0.0
 30
0.0
 11
45.5
 21
37.0
 31
0.0
  0
LINE
  5
152
330
1F
100
AcDbEntity
  8
0
  6
Continuous
 62
     7
370
    25
100
AcDbLine
 10
33.0
 20
0.0
 30
0.0
 11
45.5
 21
0.0
 31
0.0
  0
LINE
  5
153
330
1F
100
AcDbEntity
  8
0
  6
Continuous
 62
     7
370
    25
100
AcDbLine
 10
31.0
 20
-2.5
 30
0.0
 11
29.0
 21
0.0
 31
0.0
  0
LINE
  5
154
330
1F
100
AcDbEntity
  8
0
  6
Continuous
 62
     7
370
    25
100
AcDbLine
 10
16.5
 20
0.0
 30
0.0
 11
29.0
 21
0.0
 31
0.0
  0
LINE
  5
155
330
1F
100
AcDbEntity
  8
0
  6
Continuous
 62
     7
370
    25
100
AcDbLine
 10
14.5
 20
-2.5
 30
0.0
 11
16.5
 21
0.0
 31
0.0
  0
LINE
  5
156
330
1F
100
AcDbEntity
  8
0
  6
Continuous
 62
     7
370
    25
100
AcDbLine
 10
12.5
 20
0.0
 30
0.0
 11
14.5
 21
-2.5
 31
0.0
  0
LINE
  5
157
330
1F
100
AcDbEntity
  8
0
  6
Continuous
 62
     7
370
    25
100
AcDbLine
 10
0.0
 20
0.0
 30
0.0
 11
12.5
 21
0.0
 31
0.0
  0
LINE
  5
158
330
1F
100
AcDbEntity
  8
0
  6
Continuous
 62
     7
370
    25
100
AcDbLine
 10
28.8634868421
 20
12.0135690789
 30
0.0
 11
28.8634868421
 21
13.5
 31
0.0
  0
LINE
  5
159
330
1F
100
AcDbEntity
  8
0
  6
Continuous
 62
     7
370
    25
100
AcDbLine
 10
28.8675986842
 20
11.7833059211
 30
0.0
 11
28.8745888158
 21
11.7833059211
 31
0.0
  0
LINE
  5
15A
330
1F
100
AcDbEntity
  8
0
  6
Continuous
 62
     7
370
    25
100
AcDbLine
 10
27.6990131579
 20
13.5
 30
0.0
 11
28.7857730263
 21
11.9144736842
 31
0.0
  0
LINE
  5
15B
330
1F
100
AcDbEntity
  8
0
  6
Continuous
 62
     7
370
    25
100
AcDbLine
 10
27.4950657895
 20
13.5
 30
0.0
 11
27.6990131579
 21
13.5
 31
0.0
  0
LINE
  5
15C
330
1F
100
AcDbEntity
  8
0
  6
Continuous
 62
     7
370
    25
100
AcDbLine
 10
27.4950657895
 20
11.5
 30
0.0
 11
27.4950657895
 21
13.5
 31
0.0
  0
LINE
  5
15D
330
1F
100
AcDbEntity
  8
0
  6
Continuous
 62
     7
370
    25
100
AcDbLine
 10
27.6796875
 20
11.5
 30
0.0
 11
27.4950657895
 21
11.5
 31
0.0
  0
LINE
  5
15E
330
1F
100
AcDbEntity
  8
0
  6
Continuous
 62
     7
370
    25
100
AcDbLine
 10
27.6796875
 20
13.0493421053
 30
0.0
 11
27.6796875
 21
11.5
 31
0.0
  0
LINE
  5
15F
330
1F
100
AcDbEntity
  8
0
  6
Continuous
 62
     7
370
    25
100
AcDbLine
 10
27.6796875
 20
13.2306743421
 30
0.0
 11
27.6726973684
 21
13.2306743421
 31
0.0
  0
LINE
  5
160
330
1F
100
AcDbEntity
  8
0
  6
Continuous
 62
     7
370
    25
100
AcDbLine
 10
28.8577302632
 20
11.5
 30
0.0
 11
27.7532894737
 21
13.1052631579
 31
0.0
  0
LINE
  5
161
330
1F
100
AcDbEntity
  8
0
  6
Continuous
 62
     7
370
    25
100
AcDbLine
 10
26.2586348684
 20
12.4473684211
 30
0.0
 11
26.2586348684
 21
11.6578947368
 31
0.0
  0
LINE
  5
162
330
1F
100
AcDbEntity
  8
0
  6
Continuous
 62
     7
370
    25
100
AcDbLine
 10
26.9856085526
 20
12.6052631579
 30
0.0
 11
26.9856085526
 21
12.4473684211
 31
0.0
  0
LINE
  5
163
330
1F
100
AcDbEntity
  8
0
  6
Continuous
 62
     7
370
    25
100
AcDbLine
 10
26.0740131579
 20
11.5
 30
0.0
 11
26.0740131579
 21
13.5
 31
0.0
  0
LINE
  5
164
330
1F
100
AcDbEntity
  8
0
  6
Continuous
 62
     7
370
    25
100
AcDbLine
 10
24.5226151316
 20
11.5764802632
 30
0.0
 11
24.5226151316
 21
11.7898848684
 31
0.0
  0
LINE
  5
165
330
1F
100
AcDbEntity
  8
0
  6
Continuous
 62
     7
370
    25
100
AcDbLine
 10
23.0489309211
 20
11.5764802632
 30
0.0
 11
23.0489309211
 21
11.7898848684
 31
0.0
  0
LINE
  5
166
330
1F
100
AcDbEntity
  8
0
  6
Continuous
 62
     7
370
    25
100
AcDbLine
 10
17.8396381579
 20
13.5
 30
0.0
 11
18.0254934211
 21
13.5
 31
0.0
  0
LINE
  5
167
330
1F
100
AcDbEntity
  8
0
  6
Continuous
 62
     7
370
    25
100
AcDbLine
 10
17.0818256579
 20
11.5
 30
0.0
 11
17.8396381579
 21
13.5
 31
0.0
  0
LINE
  5
168
330
1F
100
AcDbEntity
  8
0
  6
Continuous
 62
     7
370
    25
100
AcDbLine
 10
17.5008223684
 20
12.1052631579
 30
0.0
 11
17.2874177632
 21
11.5
 31
0.0
  0
LINE
  5
169
330
1F
100
AcDbEntity
  8
0
  6
Continuous
 62
     7
370
    25
100
AcDbLine
 10
18.3544407895
 20
12.1052631579
 30
0.0
 11
17.5008223684
 21
12.1052631579
 31
0.0
  0
LINE
  5
16A
330
1F
100
AcDbEntity
  8
0
  6
Continuous
 62
     7
370
    25
100
AcDbLine
 10
18.5736019737
 20
11.5
 30
0.0
 11
18.3544407895
 21
12.1052631579
 31
0.0
  0
LINE
  5
16B
330
1F
100
AcDbEntity
  8
0
  6
Continuous
 62
     7
370
    25
100
AcDbLine
 10
18.7791940789
 20
11.5
 30
0.0
 11
18.5736019737
 21
11.5
 31
0.0
  0
LINE
  5
16C
330
1F
100
AcDbEntity
  8
0
  6
Continuous
 62
     7
370
    25
100
AcDbLine
 10
18.0254934211
 20
13.5
 30
0.0
 11
18.7791940789
 21
11.5
 31
0.0
  0
LINE
  5
16D
330
1F
100
AcDbEntity
  8
0
  6
Continuous
 62
     7
370
    25
100
AcDbLine
 10
15.6221217105
 20
13.5
 30
0.0
 11
16.9543585526
 21
13.5
 31
0.0
  0
LINE
  5
16E
330
1F
100
AcDbEntity
  8
0
  6
Continuous
 62
     7
370
    25
100
AcDbLine
 10
15.6221217105
 20
13.3421052632
 30
0.0
 11
15.6221217105
 21
13.5
 31
0.0
  0
LINE
  5
16F
330
1F
100
AcDbEntity
  8
0
  6
Continuous
 62
     7
370
    25
100
AcDbLine
 10
16.1953125
 20
13.3421052632
 30
0.0
 11
15.6221217105
 21
13.3421052632
 31
0.0
  0
LINE
  5
170
330
1F
100
AcDbEntity
  8
0
  6
Continuous
 62
     7
370
    25
100
AcDbLine
 10
16.1953125
 20
11.5
 30
0.0
 11
16.1953125
 21
13.3421052632
 31
0.0
  0
LINE
  5
171
330
1F
100
AcDbEntity
  8
0
  6
Continuous
 62
     7
370
    25
100
AcDbLine
 10
16.3799342105
 20
11.5
 30
0.0
 11
16.1953125
 21
11.5
 31
0.0
  0
LINE
  5
172
330
1F
100
AcDbEntity
  8
0
  6
Continuous
 62
     7
370
    25
100
AcDbLine
 10
16.3799342105
 20
13.3421052632
 30
0.0
 11
16.3799342105
 21
11.5
 31
0.0
  0
LINE
  5
173
330
1F
100
AcDbEntity
  8
0
  6
Continuous
 62
     7
370
    25
100
AcDbLine
 10
16.9543585526
 20
13.3421052632
 30
0.0
 11
16.3799342105
 21
13.3421052632
 31
0.0
  0
LINE
  5
174
330
1F
100
AcDbEntity
  8
0
  6
Continuous
 62
     7
370
    25
100
AcDbLine
 10
16.9543585526
 20
13.5
 30
0.0
 11
16.9543585526
 21
13.3421052632
 31
0.0
  0
LINE
  5
175
330
1F
100
AcDbEntity
  8
0
  6
Continuous
 62
     7
370
    25
100
AcDbLine
 10
15.3042763158
 20
13.4650493421
 30
0.0
 11
15.3042763158
 21
13.2672697368
 31
0.0
  0
LINE
  5
176
330
1F
100
AcDbEntity
  8
0
  6
Continuous
 62
     7
370
    25
100
AcDbLine
 10
14.2594572368
 20
11.5764802632
 30
0.0
 11
14.2594572368
 21
11.7898848684
 31
0.0
  0
LINE
  5
177
330
1F
100
AcDbEntity
  8
0
  6
Continuous
 62
     7
370
    25
100
AcDbLine
 10
12.9950657895
 20
13.5
 30
0.0
 11
13.9650493421
 21
13.5
 31
0.0
  0
LINE
  5
178
330
1F
100
AcDbEntity
  8
0
  6
Continuous
 62
     7
370
    25
100
AcDbLine
 10
12.9950657895
 20
11.5
 30
0.0
 11
12.9950657895
 21
13.5
 31
0.0
  0
LINE
  5
179
330
1F
100
AcDbEntity
  8
0
  6
Continuous
 62
     7
370
    25
100
AcDbLine
 10
13.1796875
 20
11.5
 30
0.0
 11
12.9950657895
 21
11.5
 31
0.0
  0
LINE
  5
17A
330
1F
100
AcDbEntity
  8
0
  6
Continuous
 62
     7
370
    25
100
AcDbLine
 10
13.1796875
 20
12.4210526316
 30
0.0
 11
13.1796875
 21
11.5
 31
0.0
  0
LINE
  5
17B
330
1F
100
AcDbEntity
  8
0
  6
Continuous
 62
     7
370
    25
100
AcDbLine
 10
13.9066611842
 20
12.4210526316
 30
0.0
 11
13.1796875
 21
12.4210526316
 31
0.0
  0
LINE
  5
17C
330
1F
100
AcDbEntity
  8
0
  6
Continuous
 62
     7
370
    25
100
AcDbLine
 10
13.9066611842
 20
12.5789473684
 30
0.0
 11
13.9066611842
 21
12.4210526316
 31
0.0
  0
LINE
  5
17D
330
1F
100
AcDbEntity
  8
0
  6
Continuous
 62
     7
370
    25
100
AcDbLine
 10
13.1796875
 20
12.5789473684
 30
0.0
 11
13.9066611842
 21
12.5789473684
 31
0.0
  0
LINE
  5
17E
330
1F
100
AcDbEntity
  8
0
  6
Continuous
 62
     7
370
    25
100
AcDbLine
 10
13.9650493421
 20
13.3421052632
 30
0.0
 11
13.1796875
 21
13.3421052632
 31
0.0
  0
LINE
  5
17F
330
1F
100
AcDbEntity
  8
0
  6
Continuous
 62
     7
370
    25
100
AcDbLine
 10
13.9650493421
 20
13.5
 30
0.0
 11
13.9650493421
 21
13.3421052632
 31
0.0
  0
LINE
  5
180
330
1F
100
AcDbEntity
  8
0
  6
Continuous
 62
     7
370
    25
100
AcDbLine
 10
27.0439967105
 20
13.5
 30
0.0
 11
27.0439967105
 21
13.3421052632
 31
0.0
  0
LINE
  5
181
330
1F
100
AcDbEntity
  8
0
  6
Continuous
 62
     7
370
    25
100
AcDbLine
 10
26.0740131579
 20
13.5
 30
0.0
 11
27.0439967105
 21
13.5
 31
0.0
  0
LINE
  5
182
330
1F
100
AcDbEntity
  8
0
  6
Continuous
 62
     7
370
    25
100
AcDbLine
 10
33.3902138158
 20
11.5
 30
0.0
 11
33.2055921053
 21
11.5
 31
0.0
  0
LINE
  5
183
330
1F
100
AcDbEntity
  8
0
  6
Continuous
 62
     7
370
    25
100
AcDbLine
 10
27.0884046053
 20
11.5
 30
0.0
 11
26.0740131579
 21
11.5
 31
0.0
  0
LINE
  5
184
330
1F
100
AcDbEntity
  8
0
  6
Continuous
 62
     7
370
    25
100
AcDbLine
 10
29.0493421053
 20
13.5
 30
0.0
 11
29.0493421053
 21
11.5
 31
0.0
  0
LINE
  5
185
330
1F
100
AcDbEntity
  8
0
  6
Continuous
 62
     7
370
    25
100
AcDbLine
 10
28.8634868421
 20
13.5
 30
0.0
 11
29.0493421053
 21
13.5
 31
0.0
  0
LINE
  5
186
330
1F
100
AcDbEntity
  8
0
  6
Continuous
 62
     7
370
    25
100
AcDbLine
 10
29.4962993421
 20
11.5764802632
 30
0.0
 11
29.4962993421
 21
11.7898848684
 31
0.0
  0
LINE
  5
187
330
1F
100
AcDbEntity
  8
0
  6
Continuous
 62
     7
370
    25
100
AcDbLine
 10
16.5
 20
37.0
 30
0.0
 11
29.0
 21
37.0
 31
0.0
  0
LINE
  5
188
330
1F
100
AcDbEntity
  8
0
  6
Continuous
 62
     7
370
    25
100
AcDbLine
 10
26.9856085526
 20
12.4473684211
 30
0.0
 11
26.2586348684
 21
12.4473684211
 31
0.0
  0
LINE
  5
189
330
1F
100
AcDbEntity
  8
0
  6
Continuous
 62
     7
370
    25
100
AcDbLine
 10
26.2586348684
 20
12.6052631579
 30
0.0
 11
26.9856085526
 21
12.6052631579
 31
0.0
  0
LINE
  5
18A
330
1F
100
AcDbEntity
  8
0
  6
Continuous
 62
     7
370
    25
100
AcDbLine
 10
17.2874177632
 20
11.5
 30
0.0
 11
17.0818256579
 21
11.5
 31
0.0
  0
LINE
  5
18B
330
1F
100
AcDbEntity
  8
0
  6
Continuous
 62
     7
370
    25
100
AcDbLine
 10
27.0439967105
 20
13.3421052632
 30
0.0
 11
26.2586348684
 21
13.3421052632
 31
0.0
  0
LINE
  5
18C
330
1F
100
AcDbEntity
  8
0
  6
Continuous
 62
     7
370
    25
100
AcDbLine
 10
14.5
 20
39.5
 30
0.0
 11
16.5
 21
37.0
 31
0.0
  0
LINE
  5
18D
330
1F
100
AcDbEntity
  8
0
  6
Continuous
 62
     7
370
    25
100
AcDbLine
 10
11.3955592105
 20
12.1052631579
 30
0.0
 11
11.1821546053
 21
11.5
 31
0.0
  0
LINE
  5
18E
330
1F
100
AcDbEntity
  8
0
  6
Continuous
 62
     7
370
    25
100
AcDbLine
 10
33.0
 20
37.0
 30
0.0
 11
31.0
 21
39.5
 31
0.0
  0
LINE
  5
18F
330
1F
100
AcDbEntity
  8
0
  6
Continuous
 62
     7
370
    25
100
AcDbLine
 10
26.2586348684
 20
11.6578947368
 30
0.0
 11
27.0884046053
 21
11.6578947368
 31
0.0
  0
LINE
  5
190
330
1F
100
AcDbEntity
  8
0
  6
Continuous
 62
     7
370
    25
100
AcDbLine
 10
33.9078947368
 20
12.4243421053
 30
0.0
 11
33.9078947368
 21
12.4189967105
 31
0.0
  0
LINE
  5
191
330
1F
100
AcDbEntity
  8
0
  6
Continuous
 62
     7
370
    25
100
AcDbLine
 10
27.0884046053
 20
11.6578947368
 30
0.0
 11
27.0884046053
 21
11.5
 31
0.0
  0
LINE
  5
192
330
1F
100
AcDbEntity
  8
0
  6
Continuous
 62
     7
370
    25
100
AcDbLine
 10
34.2894736842
 20
11.5
 30
0.0
 11
33.9897203947
 21
12.0719572368
 31
0.0
  0
LINE
  5
193
330
1F
100
AcDbEntity
  8
0
  6
Continuous
 62
     7
370
    25
100
AcDbLine
 10
33.2055921053
 20
13.5
 30
0.0
 11
33.7787828947
 21
13.5
 31
0.0
  0
LINE
  5
194
330
1F
100
AcDbEntity
  8
0
  6
Continuous
 62
     7
370
    25
100
AcDbLine
 10
26.2586348684
 20
13.3421052632
 30
0.0
 11
26.2586348684
 21
12.6052631579
 31
0.0
  0
LINE
  5
195
330
1F
100
AcDbEntity
  8
0
  6
Continuous
 62
     7
370
    25
100
AcDbLine
 10
33.609375
 20
12.3684210526
 30
0.0
 11
33.3902138158
 21
12.3684210526
 31
0.0
  0
LINE
  5
196
330
1F
100
AcDbEntity
  8
0
  6
Continuous
 62
     7
370
    25
100
AcDbLine
 10
29.0493421053
 20
11.5
 30
0.0
 11
28.8577302632
 21
11.5
 31
0.0
  0
LINE
  5
197
330
1F
100
AcDbEntity
  8
0
  6
Continuous
 62
     7
370
    25
100
AcDbLine
 10
13.1796875
 20
13.3421052632
 30
0.0
 11
13.1796875
 21
12.5789473684
 31
0.0
  0
LINE
  5
198
330
1F
100
AcDbEntity
  8
0
  6
Continuous
 62
     7
370
    25
100
AcDbLine
 10
33.0
 20
0.0
 30
0.0
 11
31.0
 21
-2.5
 31
0.0
  0
LINE
  5
199
330
1F
100
AcDbEntity
  8
0
  6
Continuous
 62
     7
370
    25
100
AcDbLine
 10
34.5057565789
 20
11.5
 30
0.0
 11
34.2894736842
 21
11.5
 31
0.0
  0
LINE
  5
19A
330
1F
100
AcDbEntity
  8
0
  6
Continuous
 62
     7
370
    25
100
AcDbLine
 10
24.09375
 20
13.4650493421
 30
0.0
 11
24.09375
 21
13.2672697368
 31
0.0
  0
LINE
  5
19B
330
1F
100
AcDbEntity
  8
0
  6
Continuous
 62
     7
370
    25
100
AcDbLine
 10
25.5674342105
 20
13.4650493421
 30
0.0
 11
25.5674342105
 21
13.2672697368
 31
0.0
  0
LINE
  5
19C
330
1F
100
AcDbEntity
  8
0
  6
Continuous
 62
     7
370
    25
100
AcDbLine
 10
30.5411184211
 20
13.4650493421
 30
0.0
 11
30.5411184211
 21
13.2672697368
 31
0.0
  0
LINE
  5
19D
330
1F
100
AcDbEntity
  8
0
  6
Continuous
 62
     7
370
    25
100
AcDbLine
 10
33.7356085526
 20
13.3421052632
 30
0.0
 11
33.3902138158
 21
13.3421052632
 31
0.0
  0
LINE
  5
19E
330
1F
100
AcDbEntity
  8
0
  6
Continuous
 62
     7
370
    25
100
AcDbLine
 10
33.3902138158
 20
13.3421052632
 30
0.0
 11
33.3902138158
 21
12.5263157895
 31
0.0
  0
LINE
  5
19F
330
1F
100
AcDbEntity
  8
0
  6
Continuous
 62
     7
370
    25
100
AcDbLine
 10
33.3902138158
 20
12.5263157895
 30
0.0
 11
33.7203947368
 21
12.5263157895
 31
0.0
  0
LINE
  5
1A0
330
1F
100
AcDbEntity
  8
0
  6
Continuous
 62
     7
370
    25
100
AcDbLine
 10
11.8244243421
 20
13.2911184211
 30
0.0
 11
11.8190789474
 21
13.2911184211
 31
0.0
  0
LINE
  5
1A1
330
1F
100
AcDbEntity
  8
0
  6
Continuous
 62
     7
370
    25
100
AcDbLine
 10
11.4580592105
 20
12.2631578947
 30
0.0
 11
12.1866776316
 21
12.2631578947
 31
0.0
  0
LINE
  5
1A2
330
1F
100
AcDbEntity
  8
0
  6
Continuous
 62
     7
370
    25
100
AcDbLine
 10
12.1866776316
 20
12.2631578947
 30
0.0
 11
11.8618421053
 21
13.1504934211
 31
0.0
  0
LINE
  5
1A3
330
1F
100
AcDbEntity
  8
0
  6
Continuous
 62
     7
370
    25
100
AcDbLine
 10
11.7800164474
 20
13.1504934211
 30
0.0
 11
11.4580592105
 21
12.2631578947
 31
0.0
  0
LINE
  5
1A4
330
1F
100
AcDbEntity
  8
0
  6
Continuous
 62
     7
370
    25
100
AcDbLine
 10
21.6899671053
 20
13.3421052632
 30
0.0
 11
21.3638980263
 21
13.3421052632
 31
0.0
  0
LINE
  5
1A5
330
1F
100
AcDbEntity
  8
0
  6
Continuous
 62
     7
370
    25
100
AcDbLine
 10
21.3638980263
 20
13.3421052632
 30
0.0
 11
21.3638980263
 21
11.6578947368
 31
0.0
  0
LINE
  5
1A6
330
1F
100
AcDbEntity
  8
0
  6
Continuous
 62
     7
370
    25
100
AcDbLine
 10
21.3638980263
 20
11.6578947368
 30
0.0
 11
21.6689967105
 21
11.6578947368
 31
0.0
  0
MTEXT
  5
1A8
330
1F
100
AcDbEntity
  8
0
  6
Continuous
 62
     7
100
AcDbMText
 10
0.0
 20
-3.5195663917
 30
0.0
 40
4.83362
 41
0.0
 71
     1
 72
     1
  1
SOLIDWORKS Educational Product.
  7
SLDTEXTSTYLE0
 73
     1
 44
1.0
  0
MTEXT
  5
1A9
330
1F
100
AcDbEntity
  8
0
  6
Continuous
 62
     7
100
AcDbMText
 10
0.0
 20
-10.7699963917
 30
0.0
 40
4.83362
 41
0.0
 71
     1
 72
     1
  1
For Instructional Use Only.
  7
SLDTEXTSTYLE0
 73
     1
 44
1.0
  0
ENDSEC
  0
SECTION
  2
OBJECTS
  0
DICTIONARY
  5
C
330
0
100
AcDbDictionary
281
     1
  3
ACAD_GROUP
350
D
  3
ACAD_LAYOUT
350
1A
  3
ACAD_MLINESTYLE
350
17
  3
ACAD_PLOTSETTINGS
350
19
  3
ACAD_PLOTSTYLENAME
350
E
  3
ACAD_SCALELIST
350
47
  3
DWGPROPS
350
1AA
  0
DICTIONARY
  5
D
102
{ACAD_REACTORS
330
C
102
}
330
C
100
AcDbDictionary
281
     1
  0
DICTIONARY
  5
1A
102
{ACAD_REACTORS
330
C
102
}
330
C
100
AcDbDictionary
281
     1
  3
Layout1
350
1E
  3
Layout2
350
26
  3
Model
350
22
  0
DICTIONARY
  5
17
102
{ACAD_REACTORS
330
C
102
}
330
C
100
AcDbDictionary
281
     1
  3
Standard
350
18
  0
DICTIONARY
  5
19
102
{ACAD_REACTORS
330
C
102
}
330
C
100
AcDbDictionary
281
     1
  0
ACDBDICTIONARYWDFLT
  5
E
102
{ACAD_REACTORS
330
C
102
}
330
C
100
AcDbDictionary
281
     1
  3
Normal
350
F
100
AcDbDictionaryWithDefault
340
F
  0
DICTIONARY
  5
47
102
{ACAD_REACTORS
330
C
102
}
330
C
100
AcDbDictionary
281
     1
  3
A0
350
48
  3
A1
350
49
  3
A2
350
4A
  3
A3
350
4B
  3
A4
350
4C
  3
A5
350
4D
  3
A6
350
4E
  3
A7
350
4F
  3
A8
350
50
  3
A9
350
51
  3
B0
350
52
  3
B1
350
53
  3
B2
350
54
  3
B3
350
55
  3
B4
350
56
  3
B5
350
57
  3
B6
350
58
  0
XRECORD
  5
1AA
102
{ACAD_REACTORS
330
C
102
}
330
C
100
AcDbXrecord
280
     1
  1
DWGPROPS COOKIE
  2

  3

  4

  6

  7

  8
Willi
  9

300
=
301
=
302
=
303
=
304
=
305
=
306
=
307
=
308
=
309
=
 40
0.0
 41
2459857.432863738
 42
2459857.432893183
  1

 90
        0
  0
LAYOUT
  5
1E
102
{ACAD_REACTORS
330
1A
102
}
330
1A
100
AcDbPlotSettings
  1

  2
none_device
  4

  6

 40
0.0
 41
0.0
 42
0.0
 43
0.0
 44
0.0
 45
0.0
 46
0.0
 47
0.0
 48
0.0
 49
0.0
140
0.0
141
0.0
142
1.0
143
1.0
 70
   688
 72
     1
 73
     0
 74
     5
  7

 75
    16
147
1.0
148
0.0
149
0.0
100
AcDbLayout
  1
Layout1
 70
     1
 71
     1
 10
0.0
 20
0.0
 11
420.0
 21
297.0
 12
0.0
 22
0.0
 32
0.0
 14
1.0000000000E+20
 24
1.0000000000E+20
 34
1.0000000000E+20
 15
-1.0000000000E+20
 25
-1.0000000000E+20
 35
-1.0000000000E+20
146
0.0
 13
0.0
 23
0.0
 33
0.0
 16
1.0
 26
0.0
 36
0.0
 17
0.0
 27
1.0
 37
0.0
 76
     0
330
1B
  0
LAYOUT
  5
26
102
{ACAD_REACTORS
330
1A
102
}
330
1A
100
AcDbPlotSettings
  1

  2
none_device
  4

  6

 40
0.0
 41
0.0
 42
0.0
 43
0.0
 44
0.0
 45
0.0
 46
0.0
 47
0.0
 48
0.0
 49
0.0
140
0.0
141
0.0
142
1.0
143
1.0
 70
   688
 72
     1
 73
     0
 74
     5
  7

 75
    16
147
1.0
148
0.0
149
0.0
100
AcDbLayout
  1
Layout2
 70
     1
 71
     2
 10
0.0
 20
0.0
 11
0.0
 21
0.0
 12
0.0
 22
0.0
 32
0.0
 14
0.0
 24
0.0
 34
0.0
 15
0.0
 25
0.0
 35
0.0
146
0.0
 13
0.0
 23
0.0
 33
0.0
 16
1.0
 26
0.0
 36
0.0
 17
0.0
 27
1.0
 37
0.0
 76
     0
330
23
  0
LAYOUT
  5
22
102
{ACAD_REACTORS
330
1A
102
}
330
1A
100
AcDbPlotSettings
  1

  2
none_device
  4
ANSI_A_(11.00_x_8.50_Inches)
  6

 40
6.35
 41
19.05
 42
6.35000508
 43
19.05000254
 44
279.4
 45
215.9
 46
17.57362246
 47
-5.2478226986
 48
0.0
 49
0.0
140
0.0
141
0.0
142
0.2003571429
143
1.0
 70
  1696
 72
     0
 73
     0
 74
     0
  7

 75
     0
147
0.0179189148
148
-1300.4909072572
149
0.0
100
AcDbLayout
  1
Model
 70
     1
 71
     0
 10
0.0
 20
0.0
 11
420.0
 21
297.0
 12
0.0
 22
0.0
 32
0.0
 14
0.0
 24
-2.5
 34
0.0
 15
45.5
 25
39.5
 35
0.0
146
0.0
 13
0.0
 23
0.0
 33
0.0
 16
1.0
 26
0.0
 36
0.0
 17
0.0
 27
1.0
 37
0.0
 76
     0
330
1F
331
29
  0
MLINESTYLE
  5
18
102
{ACAD_REACTORS
330
17
102
}
330
17
100
AcDbMlineStyle
  2
Standard
 70
     0
  3

 62
   256
 51
90.0
 52
90.0
 71
     2
 49
0.5
 62
   256
  6
BYLAYER
 49
-0.5
 62
   256
  6
BYLAYER
  0
ACDBPLACEHOLDER
  5
F
102
{ACAD_REACTORS
330
E
102
}
330
E
  0
SCALE
  5
48
102
{ACAD_REACTORS
330
47
102
}
330
47
100
AcDbScale
 70
     0
300
1:1
140
1.0
141
1.0
290
     1
  0
SCALE
  5
49
102
{ACAD_REACTORS
330
47
102
}
330
47
100
AcDbScale
 70
     0
300
1:2
140
1.0
141
2.0
290
     0
  0
SCALE
  5
4A
102
{ACAD_REACTORS
330
47
102
}
330
47
100
AcDbScale
 70
     0
300
1:4
140
1.0
141
4.0
290
     0
  0
SCALE
  5
4B
102
{ACAD_REACTORS
330
47
102
}
330
47
100
AcDbScale
 70
     0
300
1:5
140
1.0
141
5.0
290
     0
  0
SCALE
  5
4C
102
{ACAD_REACTORS
330
47
102
}
330
47
100
AcDbScale
 70
     0
300
1:8
140
1.0
141
8.0
290
     0
  0
SCALE
  5
4D
102
{ACAD_REACTORS
330
47
102
}
330
47
100
AcDbScale
 70
     0
300
1:10
140
1.0
141
10.0
290
     0
  0
SCALE
  5
4E
102
{ACAD_REACTORS
330
47
102
}
330
47
100
AcDbScale
 70
     0
300
1:16
140
1.0
141
16.0
290
     0
  0
SCALE
  5
4F
102
{ACAD_REACTORS
330
47
102
}
330
47
100
AcDbScale
 70
     0
300
1:20
140
1.0
141
20.0
290
     0
  0
SCALE
  5
50
102
{ACAD_REACTORS
330
47
102
}
330
47
100
AcDbScale
 70
     0
300
1:30
140
1.0
141
30.0
290
     0
  0
SCALE
  5
51
102
{ACAD_REACTORS
330
47
102
}
330
47
100
AcDbScale
 70
     0
300
1:40
140
1.0
141
40.0
290
     0
  0
SCALE
  5
52
102
{ACAD_REACTORS
330
47
102
}
330
47
100
AcDbScale
 70
     0
300
1:50
140
1.0
141
50.0
290
     0
  0
SCALE
  5
53
102
{ACAD_REACTORS
330
47
102
}
330
47
100
AcDbScale
 70
     0
300
1:100
140
1.0
141
100.0
290
     0
  0
SCALE
  5
54
102
{ACAD_REACTORS
330
47
102
}
330
47
100
AcDbScale
 70
     0
300
2:1
140
2.0
141
1.0
290
     0
  0
SCALE
  5
55
102
{ACAD_REACTORS
330
47
102
}
330
47
100
AcDbScale
 70
     0
300
4:1
140
4.0
141
1.0
290
     0
  0
SCALE
  5
56
102
{ACAD_REACTORS
330
47
102
}
330
47
100
AcDbScale
 70
     0
300
8:1
140
8.0
141
1.0
290
     0
  0
SCALE
  5
57
102
{ACAD_REACTORS
330
47
102
}
330
47
100
AcDbScale
 70
     0
300
10:1
140
10.0
141
1.0
290
     0
  0
SCALE
  5
58
102
{ACAD_REACTORS
330
47
102
}
330
47
100
AcDbScale
 70
     0
300
100:1
140
100.0
141
1.0
290
     0
  0
ENDSEC
  0
EOF
